<?xml version="1.0" encoding="UTF-8"?>
<svg width="24px" height="24px" viewBox="0 0 24 24" version="1.1" xmlns="http://www.w3.org/2000/svg" xmlns:xlink="http://www.w3.org/1999/xlink">
    <title>D50F33B5-E2F0-4EEC-9719-E17B6A7A3EF8</title>
    <g id="02---Business-Flow" stroke="none" stroke-width="1" fill="none" fill-rule="evenodd">
        <g id="07-01_Provider-Mode---Inventory---Empty" transform="translate(-251.000000, -730.000000)" fill-rule="nonzero">
            <g id="Bars-/-Tab-bar" transform="translate(0.000000, 718.000000)">
                <g id="Menu-4" transform="translate(225.000000, 0.000000)">
                    <g id="Icons-/-Ic_24_Business---Glyph" transform="translate(26.000000, 12.000000)">
                        <rect id="Bounding-Box" fill-opacity="0" fill="#FFFFFF" x="0" y="0" width="24" height="24"></rect>
                        <path d="M20.5,14 C20.7761424,14 21,14.2238576 21,14.5 L21,22.5 C21,22.7761424 20.7761424,23 20.5,23 L14,23 L14,19 C14,18.4871642 13.6139598,18.0644928 13.1166211,18.0067277 L13,18 L11,18 C10.4871642,18 10.0644928,18.3860402 10.0067277,18.8833789 L10,19 L10,23 L3.5,23 C3.22385763,23 3,22.7761424 3,22.5 L3,14.5 C3,14.2238576 3.22385763,14 3.5,14 L20.5,14 Z M19.5,2 C19.7761424,2 20,2.22385763 20,2.5 L20,4.5 C20,4.77614237 19.7761424,5 19.5,5 L4.5,5 C4.22385763,5 4,4.77614237 4,4.5 L4,2.5 C4,2.22385763 4.22385763,2 4.5,2 L19.5,2 Z" id="Combined-Shape" fill="#2E9B74"></path>
                        <path d="M20.47374,7 C20.6720085,7 20.8515471,7.11715251 20.9313975,7.29863069 L22.6913975,11.2986307 C22.8026107,11.551388 22.6878666,11.8464443 22.4351093,11.9576575 C22.3716479,11.9855805 22.3030728,12 22.23374,12 L19,12 L19,11 C19,10.4477153 18.5522847,10 18,10 C17.4477153,10 17,10.4477153 17,11 L17,11 L17,12 L15,12 L15,11 C15,10.4477153 14.5522847,10 14,10 C13.4477153,10 13,10.4477153 13,11 L13,11 L13,12 L11,12 L11,11 C11,10.4477153 10.5522847,10 10,10 C9.44771525,10 9,10.4477153 9,11 L9,11 L9,12 L7,12 L7,11 C7,10.4477153 6.55228475,10 6,10 C5.44771525,10 5,10.4477153 5,11 L5,11 L5,12 L1.76626001,12 C1.49011764,12 1.26626001,11.7761424 1.26626001,11.5 C1.26626001,11.4306672 1.28067949,11.3620921 1.3086025,11.2986307 L3.0686025,7.29863069 C3.1484529,7.11715251 3.32799146,7 3.52626001,7 L20.47374,7 Z" id="Combined-Shape" fill="#48CF97"></path>
                    </g>
                </g>
            </g>
        </g>
    </g>
</svg>