<?xml version="1.0" encoding="UTF-8"?>
<svg width="24px" height="24px" viewBox="0 0 24 24" version="1.1" xmlns="http://www.w3.org/2000/svg" xmlns:xlink="http://www.w3.org/1999/xlink">
    <title>CB9539F3-7914-4B6D-B8A7-55535C14BF60</title>
    <g id="02---Business-Flow" stroke="none" stroke-width="1" fill="none" fill-rule="evenodd">
        <g id="07-01_Provider-Mode---Inventory---Empty" transform="translate(-175.000000, -730.000000)">
            <g id="Bars-/-Tab-bar" transform="translate(0.000000, 718.000000)">
                <g id="Menu-3" transform="translate(150.000000, 0.000000)">
                    <g id="Icons-/-Ic_24_Chat---Glyph" transform="translate(25.000000, 12.000000)">
                        <rect id="Bounding-Box" fill-rule="nonzero" x="0" y="0" width="24" height="24"></rect>
                        <g id="f-comment" transform="translate(1.000000, 1.000000)">
                            <path d="M11,0 C17.0751322,0 22,4.4771525 22,10 C22,12.5525074 20.9480321,14.8816509 19.2167309,16.6486718 L20.2365586,19.7096759 C20.3204275,19.9612824 20.300911,20.2359004 20.1823025,20.4731173 C19.9353133,20.9670958 19.3346402,21.1673201 18.8406617,20.9203309 L18.8406617,20.9203309 L15.3633084,19.1824139 C14.0255861,19.7084653 12.5502434,20 11,20 C4.92486775,20 0,15.5228475 0,10 C0,4.4771525 4.92486775,0 11,0 Z" id="Combined-Shape" fill="#CBD2D9"></path>
                            <path d="M12,11 C12.5522847,11 13,11.4477153 13,12 C13,12.5128358 12.6139598,12.9355072 12.1166211,12.9932723 L12,13 L7,13 C6.44771525,13 6,12.5522847 6,12 C6,11.4871642 6.38604019,11.0644928 6.88337887,11.0067277 L7,11 L12,11 Z M15,7 C15.5522847,7 16,7.44771525 16,8 C16,8.51283584 15.6139598,8.93550716 15.1166211,8.99327227 L15,9 L7,9 C6.44771525,9 6,8.55228475 6,8 C6,7.48716416 6.38604019,7.06449284 6.88337887,7.00672773 L7,7 L15,7 Z" id="Combined-Shape" fill="#9AA5B1"></path>
                        </g>
                    </g>
                </g>
            </g>
        </g>
    </g>
</svg>