<?xml version="1.0" encoding="UTF-8"?>
<svg width="24px" height="24px" viewBox="0 0 24 24" version="1.1" xmlns="http://www.w3.org/2000/svg" xmlns:xlink="http://www.w3.org/1999/xlink">
    <title>87743EB3-2D5E-4FF5-89E6-49E0DA7F626B</title>
    <g id="02---Business-Flow" stroke="none" stroke-width="1" fill="none" fill-rule="evenodd">
        <g id="07-01_Provider-Mode---Inventory---Empty" transform="translate(-101.000000, -730.000000)">
            <g id="Bars-/-Tab-bar" transform="translate(0.000000, 718.000000)">
                <g id="Menu-2" transform="translate(75.000000, 0.000000)">
                    <g id="Icons-/-Ic_24_Checklist---Glyph" transform="translate(26.000000, 12.000000)">
                        <rect id="Bounding-Box" fill-rule="nonzero" x="0" y="0" width="24" height="24"></rect>
                        <path d="M6,2 L6,4 C6,4.55228475 6.44771525,5 7,5 L7,5 L17,5 C17.5522847,5 18,4.55228475 18,4 L18,4 L18,2 L19,2 C21.209139,2 23,3.790861 23,6 L23,19 C23,21.209139 21.209139,23 19,23 L5,23 C2.790861,23 1,21.209139 1,19 L1,6 C1,3.790861 2.790861,2 5,2 L6,2 Z M15,0 C15.5522847,-1.01453063e-16 16,0.44771525 16,1 L16,3 L8,3 L8,1 C8,0.44771525 8.44771525,1.01453063e-16 9,0 L15,0 Z" id="Combined-Shape" fill="#CBD2D9"></path>
                        <path d="M15,17 C15.5522847,17 16,17.4477153 16,18 C16,18.5522847 15.5522847,19 15,19 L9,19 C8.44771525,19 8,18.5522847 8,18 C8,17.4477153 8.44771525,17 9,17 L15,17 Z M15.7071068,8.29289322 C16.0675907,8.65337718 16.0953203,9.22060824 15.7902954,9.61289944 L15.7071068,9.70710678 L11.7071068,13.7071068 C11.3466228,14.0675907 10.7793918,14.0953203 10.3871006,13.7902954 L10.2928932,13.7071068 L8.29289322,11.7071068 C7.90236893,11.3165825 7.90236893,10.6834175 8.29289322,10.2928932 C8.65337718,9.93240926 9.22060824,9.90467972 9.61289944,10.2097046 L9.70710678,10.2928932 L11,11.585 L14.2928932,8.29289322 C14.6834175,7.90236893 15.3165825,7.90236893 15.7071068,8.29289322 Z" id="Combined-Shape" fill="#9AA5B1"></path>
                    </g>
                </g>
            </g>
        </g>
    </g>
</svg>