<?xml version="1.0" encoding="UTF-8"?>
<svg width="24px" height="24px" viewBox="0 0 24 24" version="1.1" xmlns="http://www.w3.org/2000/svg" xmlns:xlink="http://www.w3.org/1999/xlink">
    <title>63EC904B-7FD3-4957-9A3F-A508DA2038A9</title>
    <g id="03---Consumer-Mode" stroke="none" stroke-width="1" fill="none" fill-rule="evenodd">
        <g id="08-01A_Consumer-Mode---Business-Directory---Map-View" transform="translate(-26.000000, -730.000000)" fill-rule="nonzero">
            <g id="Group-7" transform="translate(0.000000, 306.000000)">
                <g id="Bars-/-Tab-bar" transform="translate(0.000000, 412.000000)">
                    <g id="Icons-/-Ic_24_Search---Glyph" transform="translate(26.000000, 12.000000)">
                        <rect id="Bounding-Box" x="0" y="0" width="24" height="24"></rect>
                        <g id="Group" transform="translate(1.000000, 1.000000)">
                            <path d="M17.6128994,16.2097046 L17.7071068,16.2928932 L21.7071068,20.2928932 C22.0976311,20.6834175 22.0976311,21.3165825 21.7071068,21.7071068 C21.3466228,22.0675907 20.7793918,22.0953203 20.3871006,21.7902954 L20.2928932,21.7071068 L16.2928932,17.7071068 C15.9023689,17.3165825 15.9023689,16.6834175 16.2928932,16.2928932 C16.6533772,15.9324093 17.2206082,15.9046797 17.6128994,16.2097046 Z M9,4 C11.7614237,4 14,6.23857625 14,9 C14,11.7614237 11.7614237,14 9,14 C6.23857625,14 4,11.7614237 4,9 C4,6.23857625 6.23857625,4 9,4 Z" id="Combined-Shape" fill="#48CF97"></path>
                            <path d="M9,0 C4.02943725,0 0,4.02943725 0,9 C0,13.9705627 4.02943725,18 9,18 C13.9705627,18 18,13.9705627 18,9 C18,4.02943725 13.9705627,0 9,0 Z M9,2 C12.8659932,2 16,5.13400675 16,9 C16,12.8659932 12.8659932,16 9,16 C5.13400675,16 2,12.8659932 2,9 C2,5.13400675 5.13400675,2 9,2 Z" id="Oval" fill="#2E9B74"></path>
                        </g>
                    </g>
                </g>
            </g>
        </g>
    </g>
</svg>