<?xml version="1.0" encoding="UTF-8"?>
<svg width="24px" height="24px" viewBox="0 0 24 24" version="1.1" xmlns="http://www.w3.org/2000/svg" xmlns:xlink="http://www.w3.org/1999/xlink">
    <title>ECD0298A-3A54-4A66-9864-2EB798C22D79</title>
    <g id="02---Business-Flow" stroke="none" stroke-width="1" fill="none" fill-rule="evenodd">
        <g id="07-01_Provider-Mode---Inventory---Empty" transform="translate(-326.000000, -730.000000)">
            <g id="Bars-/-Tab-bar" transform="translate(0.000000, 718.000000)">
                <g id="Menu-5" transform="translate(300.000000, 0.000000)">
                    <g id="Icons-/-Ic_24_User---Glyph" transform="translate(26.000000, 12.000000)">
                        <rect id="Bounding-Box" fill-rule="nonzero" x="0" y="0" width="24" height="24"></rect>
                        <g id="single-02" transform="translate(2.000000, 0.000000)">
                            <path d="M13.461,14.023 C12.424,14.632 11.258,15 10,15 C8.742,15 7.576,14.632 6.539,14.023 C2.894,14.262 0,17.296 0,21 L0,22.73 L0.695,22.953 C0.829,22.995 4.038,24 10,24 C15.962,24 19.171,22.995 19.305,22.953 L20,22.73 L20,21 C20,17.296 17.106,14.262 13.461,14.023 Z" id="Path" fill="#9AA5B1"></path>
                            <path d="M10,13 C13.379,13 16,9.237 16,6 C16,2.691 13.309,0 10,0 C6.691,0 4,2.691 4,6 C4,9.237 6.621,13 10,13 Z" id="Path" fill="#CBD2D9"></path>
                        </g>
                    </g>
                </g>
            </g>
        </g>
    </g>
</svg>