<?xml version="1.0" encoding="UTF-8"?>
<svg width="24px" height="24px" viewBox="0 0 24 24" version="1.1" xmlns="http://www.w3.org/2000/svg" xmlns:xlink="http://www.w3.org/1999/xlink">
    <title>0194BB2E-33C5-41F6-AA25-3A3799AB99A1</title>
    <g id="04---Account" stroke="none" stroke-width="1" fill="none" fill-rule="evenodd">
        <g id="13-01A_Account---Detail---Premium-User" transform="translate(-24.000000, -526.000000)">
            <g id="Group-2" transform="translate(24.000000, 318.000000)">
                <g id="Text-Input-/-Default---Lead-Tail-Icon" transform="translate(0.000000, 192.000000)">
                    <g id="Icons-/-Ic_24_Search" transform="translate(0.000000, 16.000000)">
                        <rect id="Bounding-Box" fill-rule="nonzero" x="0" y="0" width="24" height="24"></rect>
                        <g id="Group" transform="translate(3.000000, 2.000000)" stroke-linecap="round" stroke-linejoin="round" stroke-width="2">
                            <path d="M5,16.9999999 C5.60267155,18.7988043 7.2042657,19.9999999 9,19.9999999 C10.7957343,19.9999999 12.3973285,18.7988043 13,16.9999999 L5,16.9999999 Z" id="Path" stroke="#4CBD97"></path>
                            <path d="M16,7 C16,3.13400669 12.8659932,0 9,0 C5.13400679,0 2,3.13400669 2,7 L2,10 C1.97025682,12.4700469 1.27967688,14.8870768 0,17 L18,17 C16.7203231,14.8870768 16.0297432,12.4700469 16,10 L16,7 Z" id="Path" stroke="#323F4B"></path>
                        </g>
                    </g>
                </g>
            </g>
        </g>
    </g>
</svg>