<?xml version="1.0" encoding="UTF-8"?>
<svg width="24px" height="24px" viewBox="0 0 24 24" version="1.1" xmlns="http://www.w3.org/2000/svg" xmlns:xlink="http://www.w3.org/1999/xlink">
    <title>5F178E6C-AB05-47B1-A1D0-CDF2D16C5E7E</title>
    <g id="04---Account" stroke="none" stroke-width="1" fill="none" fill-rule="evenodd">
        <g id="13-01A_Account---Detail---Premium-User" transform="translate(-24.000000, -590.000000)">
            <g id="Group-2" transform="translate(24.000000, 318.000000)">
                <g id="Text-Input-/-Default---Lead-Tail-Icon" transform="translate(0.000000, 256.000000)">
                    <g id="Icons-/-Ic_24_Search" transform="translate(0.000000, 16.000000)">
                        <rect id="Bounding-Box" fill-rule="nonzero" x="0" y="0" width="24" height="24"></rect>
                        <g id="Group" transform="translate(3.000000, 2.000000)">
                            <path d="M5,2.26711027 L5,6.14686312 C1.80736322,9.41948956 0.0309916091,13.6306047 0,18 L0,2.26711027 C0,1.01501984 1.11928813,-1.0658141e-14 2.5,-1.0658141e-14 L2.5,-1.0658141e-14 C3.88071187,-1.0658141e-14 5,1.01501984 5,2.26711027 Z" id="Path" fill="#323F4B"></path>
                            <path d="M14.3646578,4.82856311 C14.1197407,5.07722051 13.8208012,5.26654047 13.4908709,5.38193701 L13.3166846,5.44452943 C11.2448211,6.22942453 9.39627306,7.50580331 7.93118719,9.16308824 C5,12.5 3.5,14 0,18 C0.0602233784,10.4962245 4.76186951,3.80785611 11.8189681,1.18682227 L12.088814,1.08866597 L12.0973806,1.08866597 C12.7563001,0.899303146 13.465813,1.01667217 14.0279653,1.40802711 C14.5901176,1.79938206 14.9447318,2.422829 14.9928707,3.10442643 C15.0398418,3.7401765 14.81095,4.36798216 14.3646578,4.82856311 Z" id="Path" fill="#2E9B74" fill-rule="nonzero"></path>
                            <path d="M18,18.5518611 L18,18.5821353 C18,19.9113735 16.9927991,20.988934 15.7503537,20.988934 C14.5079084,20.988934 13.5007074,19.9113735 13.5007074,18.5821353 C13.5007074,15.9228228 11.4856721,13.767024 9,13.767024 C6.51432792,13.767024 4.49929256,15.9228228 4.49929256,18.5821353 C4.49929256,18.6653893 4.49929256,18.7471296 4.48797359,18.82887 L4.48797359,18.82887 C4.37140138,20.0962661 3.35216317,21.047138 2.16267973,20.9981928 C0.973196303,20.9492475 0.0252361911,19.9174287 0,18.6441974 L0,18.4337917 C0.100150714,13.1819199 4.11577092,8.98476419 9.02572127,9 C13.9356716,9.01531896 17.9284046,13.2373928 18,18.489799 L18,18.5518611 Z" id="Path" fill="#4CBD97" fill-rule="nonzero"></path>
                        </g>
                    </g>
                </g>
            </g>
        </g>
    </g>
</svg>