<?xml version="1.0" encoding="UTF-8"?>
<svg width="24px" height="24px" viewBox="0 0 24 24" version="1.1" xmlns="http://www.w3.org/2000/svg" xmlns:xlink="http://www.w3.org/1999/xlink">
    <title>E9661D80-6EE4-48A0-8ED1-D330F5530FE9</title>
    <g id="04---Account" stroke="none" stroke-width="1" fill="none" fill-rule="evenodd">
        <g id="13-01A_Account---Detail---Premium-User" transform="translate(-24.000000, -654.000000)">
            <g id="Group-2" transform="translate(24.000000, 318.000000)">
                <g id="Text-Input-/-Default---Lead-Tail-Icon" transform="translate(0.000000, 320.000000)">
                    <g id="Icons-/-Ic_24_Search" transform="translate(0.000000, 16.000000)">
                        <rect id="Bounding-Box" fill-rule="nonzero" x="0" y="0" width="24" height="24"></rect>
                        <g id="headset" transform="translate(2.000000, 1.000000)" stroke-linecap="round" stroke-linejoin="round" stroke-width="2">
                            <path d="M20,11 L20,10 C20,4.477 15.523,0 10,0 L10,0 C4.477,0 0,4.477 0,10 L0,11" id="Path" stroke="#323F4B"></path>
                            <path d="M12,22 L17,22 C18.657,22 20,20.657 20,19 L20,16 M5,11 L0,11 L0,16 C0,17.105 0.895,18 2,18 L5,18 L5,11 Z M20,11 L15,11 L15,18 L18,18 C19.105,18 20,17.105 20,16 L20,11 Z" id="Combined-Shape" stroke="#4CBD97"></path>
                        </g>
                    </g>
                </g>
            </g>
        </g>
    </g>
</svg>