<?xml version="1.0" encoding="UTF-8"?>
<svg width="24px" height="24px" viewBox="0 0 24 24" version="1.1" xmlns="http://www.w3.org/2000/svg" xmlns:xlink="http://www.w3.org/1999/xlink">
    <title>905F9138-0DB8-4C66-B984-E86EFE4926D1</title>
    <g id="04---Account" stroke="none" stroke-width="1" fill="none" fill-rule="evenodd">
        <g id="13-01A_Account---Detail---Premium-User" transform="translate(-24.000000, -334.000000)">
            <g id="Group-2" transform="translate(24.000000, 318.000000)">
                <g id="Icons-/-Ic_24_Search" transform="translate(0.000000, 16.000000)">
                    <rect id="Bounding-Box" fill-rule="nonzero" x="0" y="0" width="24" height="24"></rect>
                    <g id="single-02" transform="translate(2.000000, 1.000000)" stroke-linecap="round" stroke-linejoin="round" stroke-width="2">
                        <path d="M13.3333333,13 L6.66666667,13 C2.98444444,13 0,16.02175 0,19.75 L0,20.875 C0,20.875 3.47222222,22 10,22 C16.5277778,22 20,20.875 20,20.875 L20,19.75 C20,16.02175 17.0155556,13 13.3333333,13 Z" id="Path" stroke="#323F4B"></path>
                        <path d="M5,5 C5,2.239 7.239,0 10,0 C12.761,0 15,2.239 15,5 C15,7.761 12.761,11 10,11 C7.239,11 5,7.761 5,5 Z" id="Path" stroke="#4CBD97"></path>
                    </g>
                </g>
            </g>
        </g>
    </g>
</svg>