<?xml version="1.0" encoding="UTF-8"?>
<svg width="1362px" height="1180px" viewBox="0 0 1362 1180" version="1.1" xmlns="http://www.w3.org/2000/svg" xmlns:xlink="http://www.w3.org/1999/xlink">
    <title>Illustrations / 5</title>
    <defs>
        <polygon id="path-1" points="0 0.896 1337.00013 0.896 1337.00013 943.9789 0 943.9789"></polygon>
        <polygon id="path-3" points="0 983.104 1339.209 983.104 1339.209 1 0 1"></polygon>
    </defs>
    <g id="Illustrations-/-5" stroke="none" stroke-width="1" fill="none" fill-rule="evenodd">
        <g transform="translate(11.000000, 182.000000)">
            <g id="Group-3" transform="translate(0.000000, 0.104000)">
                <mask id="mask-2" fill="white">
                    <use xlink:href="#path-1"></use>
                </mask>
                <g id="Clip-2"></g>
                <path d="M29.9941,943.9789 C29.9941,943.9789 -30.0189,813.8049 19.7321,675.9159 C108.4861,429.9249 311.0451,528.1549 324.5061,368.1179 C337.9681,208.0809 477.4631,-10.5081 734.9761,1.3589 C1159.0961,20.9039 953.3621,374.1959 1118.7631,504.0289 C1248.7971,606.0979 1373.5551,698.5529 1327.0761,940.7409 L29.9941,943.9789 Z" id="Fill-1" fill="#F0F8FF" mask="url(#mask-2)"></path>
            </g>
            <path d="M34.2065,947.1513 L1314.3645,947.1513 C1316.3425,947.1513 1317.9515,945.5423 1317.9515,943.5633 C1317.9515,941.5853 1316.3425,939.9763 1314.3645,939.9763 L34.2065,939.9763 C32.2265,939.9763 30.6195,941.5853 30.6195,943.5633 C30.6195,945.5423 32.2265,947.1513 34.2065,947.1513" id="Fill-4" fill="#A8C9FE"></path>
            <mask id="mask-4" fill="white">
                <use xlink:href="#path-3"></use>
            </mask>
            <g id="Clip-7"></g>
            <polygon id="Fill-6" fill="#FFFFFF" mask="url(#mask-4)" points="554.864 925.855 920.623 925.855 920.623 186.342 554.864 186.342"></polygon>
            <path d="M904.3618,145.6215 C904.3618,134.0315 894.9658,124.6355 883.3758,124.6355 L583.1168,124.6355 C571.5268,124.6355 562.1308,134.0315 562.1308,145.6215 L562.1308,201.5845 L904.3618,201.5845 L904.3618,145.6215 Z" id="Fill-8" fill="#68E89D" mask="url(#mask-4)"></path>
            <polygon id="Fill-9" fill="#E7F0FF" mask="url(#mask-4)" points="55.362 940.394 282.213 940.394 282.213 688.726 55.362 688.726"></polygon>
            <polygon id="Fill-10" fill="#E7F0FF" mask="url(#mask-4)" points="368.672 940.395 558.547 940.395 558.547 774.235 368.672 774.235"></polygon>
            <path d="M816.6913,125.6346 L884.1553,125.6346 C895.4283,125.6346 904.5813,134.7876 904.5813,146.0596 L904.5813,895.2756 C904.5813,906.5576 895.4283,915.7116 884.1553,915.7116 L586.3353,914.7126 C575.0613,914.7126 561.9123,906.5576 561.9123,895.2756 L561.9123,146.0596 C561.9123,134.7876 571.0643,125.6346 582.3373,125.6346 L649.8013,125.6346 L649.8013,128.8486 C649.8013,134.5016 654.3913,139.0916 660.0453,139.0916 L806.4483,139.0916 C812.1013,139.0916 816.6913,134.5016 816.6913,128.8486 L816.6913,125.6346 Z M918.4743,123.0286 C918.4743,110.8416 908.5793,100.9466 896.3923,100.9466 L570.1013,100.9466 C557.9143,100.9466 548.0183,110.8416 548.0183,123.0286 L548.0183,918.3096 C548.0183,930.5016 557.9143,940.3956 570.1013,940.3956 L896.3923,940.3956 C908.5793,940.3956 918.4743,930.5016 918.4743,918.3096 L918.4743,123.0286 Z" id="Fill-11" fill="#003151" mask="url(#mask-4)"></path>
            <path d="M273.0493,304.7328 C273.0493,302.1118 270.9233,299.9858 268.3023,299.9858 L27.9603,299.9858 C25.3403,299.9858 23.2143,302.1118 23.2143,304.7328 L23.2143,314.2268 C23.2143,316.8468 25.3403,318.9738 27.9603,318.9738 L268.3023,318.9738 C270.9233,318.9738 273.0493,316.8468 273.0493,314.2268 L273.0493,304.7328 Z" id="Fill-12" fill="#DEEBFF" mask="url(#mask-4)"></path>
            <path d="M1320.1406,189.1566 C1320.1406,186.5366 1318.0116,184.4096 1315.3936,184.4096 L1119.0226,184.4096 C1116.4046,184.4096 1114.2756,186.5366 1114.2756,189.1566 L1114.2756,198.6506 C1114.2756,201.2696 1116.4046,203.3976 1119.0226,203.3976 L1315.3936,203.3976 C1318.0116,203.3976 1320.1406,201.2696 1320.1406,198.6506 L1320.1406,189.1566 Z" id="Fill-13" fill="#DEEBFF" mask="url(#mask-4)"></path>
            <polygon id="Fill-14" fill="#E6F0FF" mask="url(#mask-4)" points="33.207 299.985 64.186 299.985 64.186 182.063 33.207 182.063"></polygon>
            <polygon id="Fill-15" fill="#E6F0FF" mask="url(#mask-4)" points="1154.25 184.41 1185.229 184.41 1185.229 66.487 1154.25 66.487"></polygon>
            <polygon id="Fill-16" fill="#DEEBFF" mask="url(#mask-4)" points="211.664 299.985 242.643 299.985 242.643 182.063 211.664 182.063"></polygon>
            <polygon id="Fill-17" fill="#DEEBFF" mask="url(#mask-4)" points="1258.761 184.41 1289.74 184.41 1289.74 66.487 1258.761 66.487"></polygon>
            <polygon id="Fill-18" fill="#D8E7FF" mask="url(#mask-4)" points="63.944 299.986 94.923 299.986 94.923 203.05 63.944 203.05"></polygon>
            <polygon id="Fill-19" fill="#D8E7FF" mask="url(#mask-4)" points="1184.989 184.411 1215.969 184.411 1215.969 87.474 1184.989 87.474"></polygon>
            <polygon id="Fill-20" fill="#D3E4FF" mask="url(#mask-4)" points="180.927 299.986 211.906 299.986 211.906 192.49 180.927 192.49"></polygon>
            <polygon id="Fill-21" fill="#D3E4FF" mask="url(#mask-4)" points="1228.021 184.41 1259 184.41 1259 76.913 1228.021 76.913"></polygon>
            <polygon id="Fill-22" fill="#E6F0FF" mask="url(#mask-4)" points="108.175 299.986 139.154 299.986 139.154 189.059 108.175 189.059"></polygon>
            <polygon id="Fill-23" fill="#D8E7FF" mask="url(#mask-4)" points="139.285 299.986 170.265 299.986 170.265 228.033 139.285 228.033"></polygon>
            <polygon id="Fill-24" fill="#D3E4FF" mask="url(#mask-4)" points="165.271 602.0692 81.911 602.0692 93.466 688.7302 152.89 688.7302"></polygon>
            <path d="M106.1591,597.7899 C106.1591,597.7899 108.7191,543.0819 56.1921,499.8539 C56.1921,499.8539 114.8901,528.6449 118.1511,596.8919 L106.1591,597.7899 Z" id="Fill-25" fill="#A8C9FE" mask="url(#mask-4)"></path>
            <path d="M118.1513,596.7904 C118.1513,596.7904 112.3293,509.2024 133.1413,458.8814 C133.1413,458.8814 121.4113,505.7684 126.1463,596.7904 L118.1513,596.7904 Z" id="Fill-26" fill="#A8C9FE" mask="url(#mask-4)"></path>
            <path d="M139.3803,595.9931 C139.3803,595.9931 137.8183,551.1681 183.3513,521.4181 C183.3513,521.4181 128.6493,528.6451 125.3893,596.8911 L139.3803,595.9931 Z" id="Fill-27" fill="#A8C9FE" mask="url(#mask-4)"></path>
            <path d="M904.3618,895.515 C904.3618,906.668 895.3218,915.712 884.1708,915.712 L582.3228,915.712 C571.1718,915.712 562.1308,906.668 562.1308,895.515 L562.1308,878.736 L904.3618,878.736 L904.3618,895.515 Z" id="Fill-28" fill="#68E89D" mask="url(#mask-4)"></path>
            <path d="M885.2695,268.8544 C885.2695,264.1794 881.4745,260.3834 876.7985,260.3834 L589.6935,260.3834 C585.0195,260.3834 581.2235,264.1794 581.2235,268.8544 L581.2235,713.2254 C581.2235,717.8994 585.0195,721.6954 589.6935,721.6954 L876.7985,721.6954 C881.4745,721.6954 885.2695,717.8994 885.2695,713.2254 L885.2695,268.8544 Z" id="Fill-29" fill="#FFFFFF" mask="url(#mask-4)"></path>
            <path d="M885.2695,268.8544 C885.2695,264.1794 881.4745,260.3834 876.7985,260.3834 L589.6935,260.3834 C585.0195,260.3834 581.2235,264.1794 581.2235,268.8544 L581.2235,713.2254 C581.2235,717.8994 585.0195,721.6954 589.6935,721.6954 L876.7985,721.6954 C881.4745,721.6954 885.2695,717.8994 885.2695,713.2254 L885.2695,268.8544 Z" id="Stroke-30" stroke="#DEEBFF" stroke-width="4.17" stroke-linecap="round" stroke-linejoin="round" mask="url(#mask-4)"></path>
            <path d="M885.2695,269.3778 C885.2695,264.4098 881.2425,260.3838 876.2745,260.3838 L590.2185,260.3838 C585.2505,260.3838 581.2235,264.4098 581.2235,269.3778 L581.2235,329.0088 L885.2695,329.0088 L885.2695,269.3778 Z" id="Fill-31" fill="#DEEBFF" mask="url(#mask-4)"></path>
            <path d="M524.8837,285.995 C533.7147,285.995 540.8727,293.154 540.8727,301.984 C540.8727,310.815 533.7147,317.974 524.8837,317.974 C516.0527,317.974 508.8937,310.815 508.8937,301.984 C508.8937,293.154 516.0527,285.995 524.8837,285.995" id="Fill-32" fill="#003151" mask="url(#mask-4)"></path>
            <path d="M507.9057,306.7216 C507.9057,306.7216 511.3407,307.7126 514.1797,311.4856 C515.7107,313.5196 517.0227,316.3036 517.7117,320.0406 C518.2997,323.2406 521.3757,325.3616 524.5767,324.7716 C527.7767,324.1826 529.8977,321.1066 529.3077,317.9066 C528.2177,311.9826 526.0277,307.6186 523.6017,304.3936 C517.8827,296.7956 510.6317,295.2486 510.6317,295.2486 C507.4657,294.4966 504.2847,296.4556 503.5327,299.6216 C502.7807,302.7876 504.7397,305.9686 507.9057,306.7216" id="Fill-33" fill="#7569DD" mask="url(#mask-4)"></path>
            <path d="M885.2695,712.7001 C885.2695,715.0861 884.3225,717.3741 882.6355,719.0611 C880.9485,720.7481 878.6605,721.6951 876.2745,721.6951 L590.2185,721.6951 C587.8325,721.6951 585.5445,720.7481 583.8575,719.0611 C582.1705,717.3741 581.2235,715.0861 581.2235,712.7001 L581.2235,624.4771 L885.2695,624.4771 L885.2695,712.7001 Z" id="Fill-34" fill="#DEEBFF" mask="url(#mask-4)"></path>
            <path d="M885.2695,750.1405 C885.2695,745.1435 881.2125,741.0865 876.2155,741.0865 L759.9345,741.0865 C754.9365,741.0865 750.8785,745.1435 750.8785,750.1405 L750.8785,768.2485 C750.8785,773.2455 754.9365,777.3025 759.9345,777.3025 L876.2155,777.3025 C881.2125,777.3025 885.2695,773.2455 885.2695,768.2485 L885.2695,750.1405 Z" id="Fill-35" fill="#9D94E7" mask="url(#mask-4)"></path>
            <path d="M648.895,741.0858 C658.896,741.0858 667.004,749.1928 667.004,759.1948 C667.004,769.1958 658.896,777.3038 648.895,777.3038 C638.894,777.3038 630.786,769.1958 630.786,759.1948 C630.786,749.1928 638.894,741.0858 648.895,741.0858 Z" id="Stroke-36" stroke="#9D94E7" stroke-width="4.17" stroke-linecap="round" stroke-linejoin="round" mask="url(#mask-4)"></path>
            <path d="M617.3388,275.2201 C627.3398,275.2201 635.4478,283.3281 635.4478,293.3291 C635.4478,303.3301 627.3398,311.4381 617.3388,311.4381 C607.3378,311.4381 599.2298,303.3301 599.2298,293.3291 C599.2298,283.3281 607.3378,275.2201 617.3388,275.2201" id="Fill-37" fill="#ADCDFE" mask="url(#mask-4)"></path>
            <path d="M599.9003,741.0858 C609.9013,741.0858 618.0093,749.1928 618.0093,759.1948 C618.0093,769.1958 609.9013,777.3038 599.9003,777.3038 C589.8993,777.3038 581.7913,769.1958 581.7913,759.1948 C581.7913,749.1928 589.8993,741.0858 599.9003,741.0858 Z" id="Stroke-38" stroke="#9D94E7" stroke-width="4.17" stroke-linecap="round" stroke-linejoin="round" mask="url(#mask-4)"></path>
            <path d="M487.5141,699.8647 C486.8311,694.9477 482.2851,691.5107 477.3681,692.1927 C472.4511,692.8767 469.0141,697.4227 469.6971,702.3397 L501.6811,932.6407 C502.3631,937.5577 506.9091,940.9947 511.8261,940.3157 C516.7431,939.6357 520.1801,935.0887 519.4981,930.1727 L487.5141,699.8647 Z" id="Fill-39" fill="#ADCDFE" mask="url(#mask-4)"></path>
            <path d="M309.4321,699.8647 C310.1151,694.9477 314.6611,691.5107 319.5781,692.1927 C324.4951,692.8767 327.9321,697.4227 327.2481,702.3397 L295.8201,928.6437 C295.1381,933.5597 290.5921,936.9977 285.6751,936.3187 C280.7581,935.6387 277.3201,931.0917 278.0031,926.1747 L309.4321,699.8647 Z" id="Fill-40" fill="#ADCDFE" mask="url(#mask-4)"></path>
            <path d="M512.8915,666.3046 C512.8915,651.6556 500.9985,639.7626 486.3495,639.7626 L299.5915,639.7626 C284.9425,639.7626 273.0495,651.6556 273.0495,666.3046 L273.0495,696.1646 C273.0495,710.8146 284.9425,722.7076 299.5915,722.7076 L486.3495,722.7076 C500.9985,722.7076 512.8915,710.8146 512.8915,696.1646 L512.8915,666.3046 Z" id="Fill-41" fill="#D3E4FF" mask="url(#mask-4)"></path>
            <path d="M494.9033,601.7875 C494.9033,596.8235 490.8733,592.7935 485.9093,592.7935 C480.9453,592.7935 476.9153,596.8235 476.9153,601.7875 L476.9153,647.7575 C476.9153,652.7205 480.9453,656.7505 485.9093,656.7505 C490.8733,656.7505 494.9033,652.7205 494.9033,647.7575 L494.9033,601.7875 Z" id="Fill-42" fill="#ADCDFE" mask="url(#mask-4)"></path>
            <path d="M559.6967,448.8959 C562.7897,434.4589 553.5427,420.4149 539.0597,417.5519 L462.1997,402.3549 C447.7187,399.4939 433.4507,408.8889 430.3577,423.3259 L401.1397,559.7239 C398.0477,574.1609 407.2947,588.2069 421.7767,591.0689 L498.6367,606.2639 C513.1177,609.1269 527.3867,599.7309 530.4787,585.2939 L559.6967,448.8959 Z" id="Fill-43" fill="#D3E4FF" mask="url(#mask-4)"></path>
            <path d="M1250.2266,924.8158 L1312.2556,906.1678 C1312.2556,906.1678 1329.8736,905.3578 1335.0306,904.2388 C1340.1866,903.1198 1339.9076,907.6068 1337.7386,909.5858 C1335.5806,911.5748 1325.5866,929.3628 1277.5886,943.4338 L1264.5776,933.2308 L1269.5636,947.5008 L1262.4386,951.1188 L1250.2266,924.8158 Z" id="Fill-44" fill="#003151" mask="url(#mask-4)"></path>
            <path d="M1162.4644,922.577 L1226.2224,933.98 C1226.2224,933.98 1242.3014,941.235 1247.4084,942.564 C1252.5154,943.893 1250.2364,947.771 1247.4084,948.56 C1244.5804,949.349 1227.6314,960.712 1178.4534,951.558 L1171.4584,936.568 L1169.4594,951.558 L1161.4644,951.558 L1162.4644,922.577 Z" id="Fill-45" fill="#003151" mask="url(#mask-4)"></path>
            <path d="M1233.957,729.1547 C1233.957,729.1547 1264.157,876.7577 1266.576,890.7587 C1268.994,904.7687 1287.542,905.8187 1301.962,905.3187 C1316.383,904.8087 1318.921,908.5067 1306.04,915.5717 C1293.158,922.6367 1250.227,924.8157 1250.227,924.8157 L1176.025,760.7537 L1233.957,729.1547 Z" id="Fill-46" fill="#A97A5F" mask="url(#mask-4)"></path>
            <path d="M1236.4155,740.6967 C1236.4155,740.6967 1196.6115,886.0017 1192.4445,899.5927 C1188.2775,913.1737 1204.3365,922.4977 1217.4285,928.5727 C1230.5195,934.6397 1231.1085,939.0967 1216.4285,939.5657 C1201.7485,940.0357 1162.4645,922.5767 1162.4645,922.5767 L1170.4585,742.6957 L1236.4155,740.6967 Z" id="Fill-47" fill="#A97A5F" mask="url(#mask-4)"></path>
            <path d="M1124.8589,593.7924 C1124.8589,593.7924 1127.4869,619.0814 1192.3649,652.7534 C1239.0039,676.9584 1236.4159,740.6964 1236.4159,740.6964 C1236.4159,740.6964 1177.5339,778.2524 1141.4779,772.6754 L1140.4789,697.7244 L1052.7069,693.7274 C1052.7069,693.7274 1011.0939,685.3264 1040.5449,606.7844 L1124.8589,593.7924 Z" id="Fill-48" fill="#49C97E" mask="url(#mask-4)"></path>
            <path d="M1075.9712,455.1205 C1079.9782,445.0205 1075.0412,433.5635 1064.9382,429.5515 C1054.8452,425.5385 1043.3822,430.4815 1039.3752,440.5815 L992.5662,558.3985 C988.5582,568.4975 993.4952,579.9555 1003.5982,583.9685 C1013.7022,587.9805 1025.1542,583.0375 1029.1722,572.9385 L1075.9712,455.1205 Z" id="Fill-49" fill="#A97A5F" mask="url(#mask-4)"></path>
            <polygon id="Fill-50" fill="#D0E2FF" mask="url(#mask-4)" points="914.597 940.394 1142.477 940.394 1142.477 694.556 914.597 694.556"></polygon>
            <path d="M1027.6426,576.1981 C1029.7816,571.4431 1029.9416,566.0331 1028.0926,561.1601 C1026.2336,556.2861 1022.5266,552.3461 1017.7696,550.2091 C1017.7296,550.1871 1017.6796,550.1661 1017.6296,550.1441 C1012.8726,548.0071 1007.4666,547.8441 1002.5896,549.6961 C997.7126,551.5451 993.7746,555.2571 991.6366,560.0111 C976.5566,593.5521 952.1126,667.1351 952.1126,667.1351 C955.3006,675.8271 969.3706,680.0711 978.3956,675.4451 C978.3956,675.4451 1012.5626,609.7391 1027.6426,576.1981" id="Fill-51" fill="#A97A5F" mask="url(#mask-4)"></path>
            <path d="M952.1127,667.1352 C952.1127,667.1352 947.6757,678.6262 925.6197,684.7332 C909.0657,689.3182 913.0397,693.7312 921.6227,695.7252 C930.2067,697.7202 952.6017,694.7262 952.6017,694.7262 C952.6017,694.7262 943.7877,698.2322 945.6067,700.7222 C947.0757,702.7392 967.0727,699.0652 970.5907,693.7272 C976.1667,685.2652 978.5847,674.7392 978.5847,674.7392 L952.1127,667.1352 Z" id="Fill-52" fill="#A97A5F" mask="url(#mask-4)"></path>
            <path d="M1074.2422,407.6981 C1074.2422,407.6981 1092.1302,429.5981 1104.4422,446.3871 C1114.9652,460.7241 1109.7792,497.0801 1111.1682,512.7221 C1113.1462,534.8571 1129.5152,589.7631 1129.5152,589.7631 C1129.5152,589.7631 1103.4032,637.2801 1029.0822,620.1461 C1029.0822,620.1461 1044.6522,575.3401 1033.5292,538.1031 C1022.4062,500.8671 1006.3572,480.2731 1023.6652,433.9321 C1040.9842,387.5921 1074.2422,407.6981 1074.2422,407.6981" id="Fill-53" fill="#68E89D" mask="url(#mask-4)"></path>
            <polygon id="Fill-54" fill="#E7F0FF" mask="url(#mask-4)" points="877.821 940.396 1024.636 940.396 1024.636 782.01 877.821 782.01"></polygon>
            <path d="M513.8906,310.9784 C513.8906,310.9784 507.1796,269.3014 463.2366,278.0004 C429.1076,284.7564 435.0286,321.6544 432.5666,335.9624 C427.2956,366.5814 394.6986,358.7634 384.9756,384.9304 C379.5336,399.5764 381.7226,427.0184 415.9546,443.8914 C450.1876,460.7654 527.7816,483.0244 530.8796,422.9054 C532.5256,390.9594 507.4396,396.9364 523.8846,348.2584 C536.5926,310.6394 513.8906,310.9784 513.8906,310.9784" id="Fill-55" fill="#003151" mask="url(#mask-4)"></path>
            <path d="M1068.7759,379.9794 C1068.7759,379.9794 1070.4749,401.6274 1074.3019,408.6964 C1074.3019,408.6964 1056.1139,415.3294 1043.1429,406.4424 L1040.1949,368.6744 C1040.1949,368.6744 1064.8479,369.7504 1068.7759,379.9794" id="Fill-56" fill="#A97A5F" mask="url(#mask-4)"></path>
            <path d="M425.8315,445.621 C433.1505,435.18 430.6155,420.76 420.1745,413.441 C409.7335,406.122 395.3135,408.657 387.9945,419.099 L319.1445,517.318 C311.8255,527.759 314.3615,542.179 324.8025,549.497 C335.2435,556.817 349.6625,554.283 356.9805,543.84 L425.8315,445.621 Z" id="Fill-57" fill="#68E89D" mask="url(#mask-4)"></path>
            <path d="M324.8022,425.9657 C324.8022,425.9657 319.7902,408.1137 321.2852,400.1447 C322.7802,392.1747 309.4082,394.3147 310.3862,411.0907 C310.3862,411.0907 281.0202,391.5837 269.8412,398.5087 C263.0322,402.7277 265.7772,411.7557 276.2842,417.0997 C284.1532,421.1017 296.3922,431.0697 298.7072,434.8577 C298.7072,434.8577 314.6042,441.6827 324.8022,425.9657" id="Fill-58" fill="#FFD3BB" mask="url(#mask-4)"></path>
            <path d="M316.3178,537.9633 C317.4548,543.0503 320.5668,547.4793 324.9688,550.2723 C329.3708,553.0663 334.7018,553.9963 339.7908,552.8593 C339.8408,552.8473 339.8918,552.8363 339.9428,552.8243 C345.0308,551.6873 349.4588,548.5753 352.2518,544.1743 C355.0458,539.7723 355.9758,534.4403 354.8388,529.3533 C346.8158,493.4633 331.9318,425.9573 331.9318,425.9573 C316.5658,419.4903 303.7788,422.5583 293.4118,434.5673 C293.4118,434.5673 308.2958,502.0733 316.3178,537.9633" id="Fill-59" fill="#68E89D" mask="url(#mask-4)"></path>
            <path d="M436.9414,400.7074 C436.9414,400.7074 419.0484,405.8494 403.7684,409.4764 L403.9634,439.8944 C403.9634,439.8944 401.3334,444.2724 391.8904,454.3764 C381.7994,465.1734 372.9774,482.3444 372.4874,510.0374 C372.2024,526.2434 335.4384,575.7334 314.9624,586.7974 C314.9624,586.7974 326.3724,609.3694 344.8374,607.7834 C344.8374,607.7834 378.1214,559.8454 402.3054,510.8474 C434.1634,446.2994 436.9414,400.7074 436.9414,400.7074" id="Fill-60" fill="#68E89D" mask="url(#mask-4)"></path>
            <path d="M403.4116,439.3573 C403.4116,439.3573 393.8086,449.2363 386.3216,459.7263 C382.3796,465.2493 379.0326,470.9483 377.9206,475.4853 C375.4326,485.6293 374.5956,495.7823 372.9276,504.5423 C372.4546,507.0273 371.9136,509.4003 371.2466,511.6253 C369.3596,517.9183 365.6166,526.0843 361.3866,533.6633 C356.7326,542.0043 351.4946,549.6383 347.4856,553.2463 C347.1696,553.5313 347.1436,554.0173 347.4276,554.3333 C347.7126,554.6493 348.1986,554.6753 348.5146,554.3913 C352.6086,550.7073 357.9786,542.9293 362.7316,534.4133 C367.0196,526.7293 370.8086,518.4473 372.7216,512.0673 C373.4036,509.7933 373.9566,507.3693 374.4406,504.8303 C376.1036,496.0933 376.9346,485.9683 379.4156,475.8523 C380.4916,471.4623 383.7606,465.9643 387.5746,460.6203 C394.9956,450.2233 404.5146,440.4303 404.5146,440.4303 C404.8116,440.1253 404.8046,439.6383 404.4996,439.3423 C404.1946,439.0453 403.7076,439.0523 403.4116,439.3573" id="Fill-61" fill="#003151" mask="url(#mask-4)"></path>
            <path d="M245.9301,903.9296 C245.9301,903.9296 230.2581,933.0506 202.1311,962.2006 C198.5631,965.8986 202.1551,975.0626 202.1551,975.0626 C202.1551,975.0626 211.6021,981.4386 227.5831,979.6096 C244.0951,977.7216 267.5831,967.2176 294.8321,940.4156 C309.9341,925.5656 316.5251,922.2976 316.5251,922.2976 L315.6041,910.1756 C315.6041,910.1756 270.3131,883.2926 245.9301,903.9296" id="Fill-62" fill="#68E79D" mask="url(#mask-4)"></path>
            <path d="M278.8525,894.8353 C278.8525,894.8353 245.4405,947.4903 226.6815,953.3673 C207.9235,959.2433 216.3235,946.5013 216.3235,946.5013 C216.3235,946.5013 241.1815,918.2703 245.3775,898.9523 C245.3775,898.9523 271.7175,886.0913 278.8525,894.8353" id="Fill-63" fill="#9D94E7" mask="url(#mask-4)"></path>
            <path d="M252.1689,927.4838 C252.6469,926.1548 251.9619,924.6958 250.6409,924.2258 L236.0389,918.9398 C234.7189,918.4598 233.2579,919.1498 232.7799,920.4688 C232.3019,921.7878 232.9869,923.2468 234.3079,923.7268 L248.9099,929.0028 C250.2309,929.4828 251.6899,928.8028 252.1689,927.4838" id="Fill-64" fill="#003151" mask="url(#mask-4)"></path>
            <path d="M244.9907,933.83 C245.4687,932.501 244.7837,931.041 243.4637,930.562 L232.2137,926.495 C230.8927,926.015 229.4317,926.705 228.9537,928.024 C228.4767,929.343 229.1607,930.802 230.4827,931.282 L241.7317,935.349 C243.0537,935.829 244.5127,935.149 244.9907,933.83" id="Fill-65" fill="#003151" mask="url(#mask-4)"></path>
            <path d="M236.8789,939.2362 C237.3569,937.9172 236.6719,936.4582 235.3509,935.9782 L226.9829,932.9502 C225.6639,932.4702 224.2029,933.1502 223.7249,934.4792 C223.2469,935.7982 223.9319,937.2572 225.2529,937.7372 L233.6199,940.7652 C234.9419,941.2352 236.4009,940.5552 236.8789,939.2362" id="Fill-66" fill="#003151" mask="url(#mask-4)"></path>
            <path d="M229.3032,944.433 C229.7812,943.114 229.0962,941.655 227.7752,941.175 L221.5692,938.927 C220.2492,938.447 218.7892,939.136 218.3112,940.455 C217.8322,941.775 218.5172,943.234 219.8382,943.713 L226.0442,945.962 C227.3652,946.441 228.8252,945.752 229.3032,944.433" id="Fill-67" fill="#003151" mask="url(#mask-4)"></path>
            <path d="M358.164,585.7509 C358.164,585.7509 279.598,585.0019 249.065,586.7969 C221.636,588.4099 209.344,630.6999 236.074,642.7599 C255.623,651.5819 399.411,682.2989 413.956,681.7349 C428.502,681.1699 460.346,676.6029 449.933,627.7699 C440.529,583.6689 369.733,586.3709 358.164,585.7509" id="Fill-68" fill="#003151" mask="url(#mask-4)"></path>
            <path d="M337.4829,621.9428 C337.4829,621.9428 268.8479,660.1848 243.2069,676.8598 C220.1719,691.8388 230.4279,734.6708 259.6229,731.9128 C280.9749,729.9038 421.1159,685.4118 433.4739,677.7208 C445.8329,670.0308 471.2399,650.2978 438.0189,613.0238 C408.0169,579.3608 347.8399,616.7548 337.4829,621.9428" id="Fill-69" fill="#003151" mask="url(#mask-4)"></path>
            <path d="M460.4258,417.9603 C456.9618,416.9723 445.1788,415.4973 441.1478,418.9673 C413.9528,442.3813 383.6408,557.4693 358.1638,585.7513 C358.1638,585.7513 406.9558,585.0693 407.9608,640.7613 C407.9608,640.7613 433.7408,657.8093 453.9298,647.7573 C453.9298,647.7573 458.8118,497.5083 479.9128,433.8983 C481.5958,428.8243 470.5858,420.8583 460.4258,417.9603" id="Fill-70" fill="#277BFD" mask="url(#mask-4)"></path>
            <path d="M230.7632,697.4662 C229.1792,738.1182 230.7692,913.5632 230.7692,913.5632 C230.7692,913.5632 280.4412,942.3642 329.8092,909.1962 C329.8092,909.1962 301.2692,730.9932 289.5062,691.1382 C286.0522,679.4332 280.0392,666.3082 259.2272,670.0602 C244.3922,672.7352 231.2682,684.4832 230.7632,697.4662" id="Fill-71" fill="#003151" mask="url(#mask-4)"></path>
            <path d="M131.0039,856.3407 C131.0039,856.3407 164.5619,835.7647 180.0729,819.1057 C190.6499,807.7427 198.0399,832.9767 198.0399,832.9767 C198.0399,832.9767 134.1219,871.8907 131.0039,856.3407" id="Fill-72" fill="#9D94E7" mask="url(#mask-4)"></path>
            <path d="M220.6508,844.7484 C220.6508,844.7484 236.6768,843.0894 243.7058,831.9264 C243.7058,831.9264 248.7878,841.2904 248.7878,849.7054 C248.7878,849.7054 225.0038,863.5764 220.6508,844.7484" id="Fill-73" fill="#9D94E7" mask="url(#mask-4)"></path>
            <path d="M196.6665,829.079 C196.6665,829.079 208.8255,838.922 220.2695,837.823 C233.7435,836.534 238.3245,827.879 239.2515,826.52 C240.1785,825.162 246.3325,825.281 243.7055,831.927 C242.5755,834.785 236.1335,842.35 226.9465,844.898 C214.7945,848.276 199.0765,844.808 196.6665,829.079" id="Fill-74" fill="#FFD3BB" mask="url(#mask-4)"></path>
            <path d="M247.5669,864.8851 C247.5669,864.8851 248.7979,872.6501 247.1359,876.9671 C247.1359,876.9671 127.8709,886.1811 115.8739,884.7821 C112.5389,884.3921 112.3879,878.7761 112.3879,878.7761 C112.3879,878.7761 239.5109,857.4001 247.5669,864.8851" id="Fill-75" fill="#9D94E7" mask="url(#mask-4)"></path>
            <path d="M198.0698,833.0062 C197.8248,832.5262 192.4468,834.3452 187.2518,835.7842 C176.2718,838.8222 155.8518,852.6032 135.1158,857.7192 C133.4978,858.1192 131.7908,855.7612 130.3848,856.4812 C126.4168,858.4992 122.5278,860.0882 118.8478,861.0682 C111.3798,863.0662 108.3218,876.7972 113.6298,879.8652 C118.9358,882.9232 160.6178,879.6652 168.1808,878.5162 C175.7438,877.3572 197.8628,868.6932 210.3828,867.8132 C222.9048,866.9442 247.5668,864.8852 247.5668,864.8852 C247.5668,864.8852 249.1488,858.7292 248.8398,850.4642 C248.6878,846.4172 246.6948,843.4592 240.8768,844.8082 C236.6358,845.7982 234.7238,850.4152 228.5988,850.6742 C224.0038,850.8742 222.4538,844.8482 220.6508,844.7482 C212.5558,844.3082 201.6488,840.0712 198.0698,833.0062" id="Fill-76" fill="#68E79D" mask="url(#mask-4)"></path>
            <path d="M179.2651,836.3939 C180.0421,835.2249 179.7231,833.6459 178.5531,832.8659 L169.4221,826.7999 C168.2531,826.0209 166.6721,826.3409 165.8941,827.5099 C165.1171,828.6789 165.4361,830.2579 166.6061,831.0379 L175.7371,837.1029 C176.9081,837.8829 178.4871,837.5629 179.2651,836.3939" id="Fill-77" fill="#003151" mask="url(#mask-4)"></path>
            <path d="M170.394,840.1513 C171.171,838.9823 170.852,837.3933 169.682,836.6133 L163.606,832.5863 C162.437,831.8073 160.856,832.1273 160.079,833.2963 C159.301,834.4653 159.62,836.0443 160.79,836.8233 L166.866,840.8603 C168.035,841.6403 169.616,841.3203 170.394,840.1513" id="Fill-78" fill="#003151" mask="url(#mask-4)"></path>
            <path d="M161.0361,844.7885 C161.8121,843.6195 161.4941,842.0405 160.3241,841.2605 L156.4631,838.7025 C155.2931,837.9225 153.7121,838.2425 152.9351,839.4125 C152.1581,840.5815 152.4761,842.1605 153.6461,842.9395 L157.5071,845.4975 C158.6781,846.2775 160.2581,845.9575 161.0361,844.7885" id="Fill-79" fill="#003151" mask="url(#mask-4)"></path>
            <path d="M151.7519,848.9755 C152.5299,847.7965 152.2109,846.2175 151.0409,845.4485 L148.3709,843.6695 C147.2009,842.8895 145.6199,843.2095 144.8439,844.3785 C144.0659,845.5475 144.3849,847.1265 145.5539,847.9065 L148.2249,849.6855 C149.3949,850.4645 150.9749,850.1445 151.7519,848.9755" id="Fill-80" fill="#003151" mask="url(#mask-4)"></path>
            <path d="M224.7422,604.1269 C211.2582,642.5159 161.1232,810.6509 161.1232,810.6509 C161.1232,810.6509 200.1142,852.7929 257.0592,835.6339 C257.0592,835.6339 282.2522,656.9269 282.7452,615.3749 C282.8892,603.1709 281.0092,588.8579 260.0142,586.3149 C245.0502,584.5039 229.0482,591.8679 224.7422,604.1269" id="Fill-81" fill="#003151" mask="url(#mask-4)"></path>
            <path d="M462.9243,436.8959 C462.9243,436.8959 458.2483,452.6179 451.9563,461.8789 C443.2233,474.7349 434.7483,501.4199 431.7353,524.8379 C430.6513,533.2569 393.9693,639.7619 393.9693,639.7619 C393.9693,639.7619 415.1393,676.8129 462.9243,661.7479 C462.9243,661.7479 461.5213,537.7709 481.9123,491.8599 C502.3023,445.9489 526.8823,443.6229 526.8823,443.6229 C526.8823,443.6229 517.2693,428.5249 488.9073,407.9149 C488.9073,407.9149 465.5293,435.8169 462.9243,436.8959" id="Fill-82" fill="#68E89D" mask="url(#mask-4)"></path>
            <path d="M479.9131,387.9281 C480.5661,378.9661 449.9331,384.9301 449.9331,384.9301 C449.9331,384.9301 447.5241,397.5801 444.9361,403.9171 C442.3481,410.2541 441.6761,423.4771 448.9341,426.9021 C456.1911,430.3271 477.4621,414.0531 478.9141,404.9171 C479.8411,399.0841 479.1991,397.7481 479.9131,387.9281" id="Fill-83" fill="#FFD3BB" mask="url(#mask-4)"></path>
            <path d="M445.9355,307.9803 C445.9355,307.9803 427.0675,361.6213 437.9405,378.9343 C446.1625,392.0263 479.9135,387.9283 479.9135,387.9283 C479.9135,387.9283 480.4925,373.8843 482.9115,367.9413 C482.9115,367.9413 495.7705,365.0433 495.9025,355.9493 C496.0345,346.8553 487.3625,350.4713 484.9095,353.9503 C484.9095,353.9503 483.1885,348.3333 483.9105,340.9593 C483.9105,340.9593 457.7145,335.8103 445.9355,307.9803" id="Fill-84" fill="#FFD3BB" mask="url(#mask-4)"></path>
            <path d="M449.6362,386.4227 L463.6112,388.4297 C463.6112,388.4297 458.3202,391.5867 448.8532,390.0837 L449.6362,386.4227 Z" id="Fill-85" fill="#FE9A65" mask="url(#mask-4)"></path>
            <path d="M1069.7949,387.6063 L1055.9039,385.1063 C1055.9039,385.1063 1060.9209,391.7683 1070.3849,393.3253 L1069.7949,387.6063 Z" id="Fill-86" fill="#694B39" mask="url(#mask-4)"></path>
            <path d="M458.7021,338.6815 C458.7021,338.6815 464.4871,335.1755 467.7801,340.6495" id="Stroke-87" stroke="#003151" stroke-width="0.92" stroke-linecap="round" stroke-linejoin="round" mask="url(#mask-4)"></path>
            <path d="M440.8427,332.2635 C440.8427,332.2635 446.6287,328.7575 449.9207,334.2335" id="Stroke-88" stroke="#003151" stroke-width="0.92" stroke-linecap="round" stroke-linejoin="round" mask="url(#mask-4)"></path>
            <path d="M444.1508,367.0106 C444.1508,367.0106 444.2038,367.5856 444.4168,368.3176 C444.5928,368.9296 444.8838,369.6236 445.3238,370.1906 C445.8758,370.9036 446.6698,371.3376 447.6658,371.3086 C448.2128,371.2536 448.7138,371.1286 449.1388,370.9046 C449.8488,370.5266 450.3878,369.9446 450.6878,369.2166 C451.0808,368.2556 451.0938,367.0656 450.6248,365.7696 C450.6088,365.7046 450.5458,365.6646 450.4808,365.6796 C450.4168,365.6946 450.3768,365.7586 450.3918,365.8236 C450.5218,367.0076 450.2798,367.9906 449.7858,368.7396 C449.4888,369.1896 449.0708,369.5026 448.5678,369.7226 C448.2588,369.8576 447.9188,369.9616 447.5358,369.9996 C446.9478,370.1006 446.4668,369.8576 446.0638,369.4996 C444.9978,368.5546 444.3848,366.9566 444.3848,366.9566 C444.3688,366.8916 444.3048,366.8516 444.2408,366.8666 C444.1758,366.8816 444.1358,366.9466 444.1508,367.0106" id="Fill-89" fill="#003151" mask="url(#mask-4)"></path>
            <path d="M532.2226,469.4584 C536.9966,457.6354 531.2736,444.1594 519.4506,439.3854 C507.6266,434.6114 494.1516,440.3334 489.3766,452.1574 L444.4666,563.3804 C439.6916,575.2034 445.4146,588.6794 457.2396,593.4534 C469.0626,598.2274 482.5376,592.5044 487.3126,580.6814 L532.2226,469.4584 Z" id="Fill-90" fill="#68E89D" mask="url(#mask-4)"></path>
            <path d="M1073.3228,494.328 L1104.1528,468.838 C1104.1528,468.838 1135.3218,506.536 1153.4898,528.507 C1160.5258,537.02 1159.3368,549.625 1150.8218,556.664 L1150.8218,556.666 C1142.3078,563.704 1129.7058,562.51 1122.6598,553.999 C1104.4918,532.027 1073.3228,494.328 1073.3228,494.328" id="Fill-91" fill="#A97A5F" mask="url(#mask-4)"></path>
            <path d="M1042.2734,456.7758 C1035.2284,448.2628 1036.4274,435.6578 1044.9314,428.6188 C1044.9414,428.6178 1044.9414,428.6168 1044.9414,428.6168 C1053.4454,421.5778 1066.0574,422.7728 1073.0924,431.2848 C1086.0644,446.9628 1104.2624,468.9688 1104.2624,468.9688 L1073.4324,494.4598 C1073.4324,494.4598 1055.2344,472.4538 1042.2734,456.7758" id="Fill-92" fill="#49C97E" mask="url(#mask-4)"></path>
            <polygon id="Fill-93" fill="#417496" mask="url(#mask-4)" points="377.3217 449.8871 347.8357 449.8871 372.0007 508.8481 401.4857 508.8481"></polygon>
            <polygon id="Fill-94" fill="#003151" mask="url(#mask-4)" points="1213.3506 376.4613 1218.7466 379.3843 1189.1166 437.3623 1183.7206 434.4393"></polygon>
            <polygon id="Fill-95" fill="#417496" mask="url(#mask-4)" points="1196.7417 378.9789 1213.3507 376.4609 1183.7207 434.4389 1167.1207 436.9569"></polygon>
            <polygon id="Fill-96" fill="#003151" mask="url(#mask-4)" points="372.4878 449.8871 343.0038 449.8871 367.1678 508.8481 396.6528 508.8481"></polygon>
            <path d="M407.9604,481.8661 C407.9604,481.8661 395.9434,467.7441 393.9694,459.8811 C391.9964,452.0171 382.0684,460.0401 389.9724,474.8701 C389.9724,474.8701 353.1304,462.8241 348.9994,470.8731 C344.8684,478.9221 350.6774,486.0331 361.9904,490.8601 C373.3044,495.6871 384.2874,498.3801 387.9734,500.8531 C387.9734,500.8531 405.2684,500.4071 407.9604,481.8661" id="Fill-97" fill="#FFD3BB" mask="url(#mask-4)"></path>
            <path d="M1164.5029,434.5341 C1164.5029,434.5341 1171.6879,417.4401 1171.1979,409.3471 C1170.6989,401.2541 1182.5809,405.9011 1179.5329,422.4271 C1179.5329,422.4271 1211.0119,399.8051 1217.3779,406.2291 C1223.7539,412.6521 1220.3659,421.1861 1211.0419,429.2081 C1201.7179,437.2291 1192.0649,443.1171 1189.2959,446.5891 C1189.2959,446.5891 1172.6769,451.3931 1164.5029,434.5341" id="Fill-98" fill="#A97A5F" mask="url(#mask-4)"></path>
            <path d="M448.4907,588.2724 C451.6177,592.4434 456.2747,595.2004 461.4357,595.9394 C466.5957,596.6764 471.8397,595.3344 476.0097,592.2064 C476.0517,592.1754 476.0937,592.1434 476.1357,592.1124 C480.3067,588.9844 483.0637,584.3294 483.8027,579.1684 C484.5397,574.0064 483.1987,568.7644 480.0697,564.5924 C458.0087,535.1704 414.6997,478.7434 414.6997,478.7434 C398.0337,479.1634 387.6377,487.2144 383.1197,502.4224 C383.1197,502.4224 426.4287,558.8494 448.4907,588.2724" id="Fill-99" fill="#68E89D" mask="url(#mask-4)"></path>
            <path d="M481.4653,469.6952 C481.4653,469.6952 471.1193,495.4162 463.5503,514.1632 C459.5703,524.0232 456.3593,531.9522 455.8293,533.1842 C455.6613,533.5752 455.8423,534.0282 456.2333,534.1962 C456.6223,534.3632 457.0763,534.1822 457.2433,533.7932 C457.7753,532.5582 460.9913,524.6162 464.9793,514.7392 C472.5473,495.9922 482.8943,470.2702 482.8943,470.2702 C483.0523,469.8752 482.8613,469.4262 482.4673,469.2672 C482.0723,469.1102 481.6243,469.3002 481.4653,469.6952" id="Fill-100" fill="#003151" mask="url(#mask-4)"></path>
            <path d="M1235.0566,741.9159 C1235.0566,741.9159 1224.8926,780.6609 1217.3486,808.8219 C1213.2806,823.9719 1209.9936,836.0439 1209.4526,837.2929 C1209.2836,837.6829 1209.4636,838.1329 1209.8526,838.3029 C1210.2426,838.4729 1210.7026,838.2929 1210.8626,837.9029 C1211.4116,836.6439 1214.7396,824.4819 1218.8366,809.2219 C1226.3816,781.0609 1236.5456,742.3059 1236.5456,742.3059 C1236.6556,741.8959 1236.4056,741.4769 1235.9956,741.3669 C1235.5856,741.2569 1235.1666,741.5059 1235.0566,741.9159" id="Fill-101" fill="#003151" mask="url(#mask-4)"></path>
            <path d="M434.7007,506.288 C434.7007,506.288 447.7857,523.348 457.3797,535.801 C462.3167,542.208 466.3287,547.397 467.1657,548.423 C467.4347,548.753 467.9187,548.802 468.2487,548.533 C468.5777,548.266 468.6277,547.78 468.3587,547.451 C467.5247,546.428 463.5227,541.252 458.5987,534.861 C449.0077,522.41 435.9237,505.351 435.9237,505.351 C435.6637,505.014 435.1807,504.95 434.8437,505.209 C434.5077,505.468 434.4427,505.951 434.7007,506.288" id="Fill-102" fill="#003151" mask="url(#mask-4)"></path>
            <path d="M340.8808,470.6747 C340.8808,470.6747 344.2938,486.1837 346.8848,497.5677 C348.1708,503.2207 349.2568,507.8617 349.6258,509.1027 C349.7468,509.5097 350.1758,509.7417 350.5838,509.6207 C350.9898,509.4997 351.2228,509.0717 351.1018,508.6647 C350.7358,507.4337 349.6618,502.8327 348.3858,497.2257 C345.7958,485.8467 342.3848,470.3437 342.3848,470.3437 C342.2938,469.9277 341.8818,469.6657 341.4668,469.7577 C341.0528,469.8477 340.7898,470.2587 340.8808,470.6747" id="Fill-103" fill="#003151" mask="url(#mask-4)"></path>
            <path d="M421.0747,553.2064 C421.0747,553.2064 433.5727,568.8074 442.8757,580.0884 C447.6637,585.8944 451.6177,590.5614 452.6227,591.4284 C456.2087,594.5194 459.7827,595.8954 462.9597,596.3634 C469.4537,597.3204 474.3067,594.4564 474.3067,594.4564 C474.6737,594.2414 474.7967,593.7694 474.5807,593.4024 C474.3657,593.0364 473.8937,592.9144 473.5277,593.1284 C473.5277,593.1284 469.1017,595.7124 463.1827,594.8404 C460.2447,594.4084 456.9457,593.1214 453.6287,590.2614 C452.6407,589.4104 448.7677,584.8144 444.0627,579.1094 C434.7657,567.8344 422.2757,552.2444 422.2757,552.2444 C422.0107,551.9124 421.5257,551.8584 421.1937,552.1234 C420.8617,552.3894 420.8087,552.8744 421.0747,553.2064" id="Fill-104" fill="#003151" mask="url(#mask-4)"></path>
            <path d="M1158.0469,548.2147 C1156.3279,553.1347 1152.7209,557.1727 1148.0239,559.4357 C1143.3269,561.6997 1137.9209,562.0057 1133.0039,560.2857 C1132.9539,560.2677 1132.9039,560.2507 1132.8539,560.2337 C1127.9369,558.5137 1123.8999,554.9087 1121.6309,550.2127 C1119.3729,545.5167 1119.0629,540.1127 1120.7819,535.1907 C1132.9139,500.4757 1164.5029,434.5337 1164.5029,434.5337 C1175.6949,433.1687 1184.4399,434.2327 1189.2969,446.5887 C1189.2969,446.5887 1170.1789,513.4987 1158.0469,548.2147" id="Fill-105" fill="#A97A5F" mask="url(#mask-4)"></path>
            <path d="M446.9599,397.7406 C446.9599,397.7406 439.4789,396.9986 436.9409,400.7076 C436.9409,400.7076 430.5069,415.6906 431.9449,431.8986 C431.9449,431.8986 440.9659,427.7556 444.8279,422.6456 C444.8279,422.6456 443.4799,410.2666 446.9599,397.7406" id="Fill-106" fill="#49C97E" mask="url(#mask-4)"></path>
            <path d="M479.4433,399.7084 C479.4433,399.7084 486.3773,403.3714 488.9073,407.9154 C491.4373,412.4584 478.7233,435.0234 461.5283,441.8924 C461.5283,441.8924 456.4153,435.2154 456.7503,426.0864 C456.7503,426.0864 474.7953,415.7544 479.4433,399.7084" id="Fill-107" fill="#49C97E" mask="url(#mask-4)"></path>
            <path d="M318.8852,929.5326 C318.8852,929.5326 319.1532,921.9676 316.7912,919.3096 C316.7912,919.3096 297.2922,931.3716 289.9442,938.9766 C282.5972,946.5816 275.9092,954.3066 269.0702,959.1736 C262.2292,964.0496 238.2312,978.6996 225.2122,978.3206 C212.1922,977.9406 206.3522,974.0036 202.6762,972.2846 C199.0002,970.5756 201.7402,979.7796 214.8122,982.4076 C227.8842,985.0356 246.4702,980.6686 273.8672,961.6116 C301.2632,942.5636 318.8852,929.5326 318.8852,929.5326" id="Fill-108" fill="#9D94E7" mask="url(#mask-4)"></path>
            <path d="M1113.5762,330.184 C1113.5762,330.184 1105.9512,359.867 1107.0402,365.56 C1107.7702,369.381 1097.9072,370.987 1097.9072,370.987 C1097.9072,370.987 1088.8722,388.035 1080.3382,389.081 C1071.8042,390.128 1059.2122,384.103 1055.5142,380.429 C1055.5142,380.429 1031.2802,351.433 1049.8882,317.396 C1068.4962,283.36 1112.6372,324.36 1113.5762,330.184" id="Fill-109" fill="#A97A5F" mask="url(#mask-4)"></path>
            <path d="M1105.9116,348.0004 C1105.9116,348.0004 1099.9656,342.3874 1094.6286,348.0204" id="Stroke-110" stroke="#003151" stroke-width="1.08" stroke-linecap="round" stroke-linejoin="round" mask="url(#mask-4)"></path>
            <path d="M1091.4907,375.3641 C1091.4907,375.3641 1090.1017,375.7051 1088.2527,375.3391 C1087.9927,375.2861 1087.7137,375.2181 1087.4337,375.1411 C1087.0537,375.0371 1086.6737,374.8941 1086.2637,374.7311 C1086.0147,374.6301 1085.7647,374.5251 1085.5047,374.4041 C1085.1357,374.2351 1084.7647,374.0481 1084.3857,373.8171 C1083.5457,373.3141 1082.6867,372.6771 1081.8267,371.7441 C1081.7867,371.6911 1081.7067,371.6781 1081.6577,371.7171 C1081.6077,371.7561 1081.5877,371.8301 1081.6277,371.8851 C1081.9877,372.5561 1082.3567,373.1301 1082.7567,373.6401 C1083.0767,374.0351 1083.3957,374.3731 1083.7357,374.6771 C1084.1157,375.0211 1084.5057,375.3081 1084.8947,375.5451 C1085.1847,375.7191 1085.4747,375.8601 1085.7647,375.9761 C1086.0047,376.0691 1086.2347,376.1431 1086.4637,376.1991 C1087.0637,376.3461 1087.6237,376.4131 1088.1527,376.4131 C1088.8227,376.4121 1089.4227,376.3231 1089.9317,376.2001 C1090.9707,375.9471 1091.5807,375.5861 1091.5807,375.5861 C1091.6407,375.5601 1091.6707,375.4901 1091.6407,375.4291 C1091.6207,375.3681 1091.5507,375.3391 1091.4907,375.3641" id="Fill-111" fill="#003151" mask="url(#mask-4)"></path>
            <path d="M1101.814,351.4042 C1100.695,350.7472 1099.256,351.1252 1098.596,352.2452 C1097.937,353.3662 1098.316,354.8102 1099.436,355.4652 C1100.555,356.1222 1102.004,355.7442 1102.653,354.6242 C1103.313,353.5032 1102.934,352.0592 1101.814,351.4042" id="Fill-112" fill="#003151" mask="url(#mask-4)"></path>
            <path d="M1064.8481,335.4066 C1064.8481,335.4066 1061.0211,322.8646 1052.8061,329.1146 C1045.5611,334.6226 1049.6681,345.5786 1058.1931,349.4206 C1066.7171,353.2616 1066.9871,397.6856 1047.1901,414.4606 C1027.3931,431.2346 1015.8611,438.9316 1019.5181,495.0816 C1019.5181,495.0816 959.2281,502.5726 962.7951,444.9816 C962.7951,444.9816 999.1411,453.6336 1008.3351,413.1266 C1019.7181,363.0036 989.5481,280.0346 1068.4361,283.0236 C1068.4361,283.0236 1085.9341,271.1946 1105.0921,279.5146 C1128.5061,289.6816 1129.6461,325.1786 1114.0761,335.3606 C1095.0481,347.7996 1064.8481,335.4066 1064.8481,335.4066" id="Fill-113" fill="#003151" mask="url(#mask-4)"></path>
            <path d="M793.7695,280.0467 C793.7695,278.2047 792.2745,276.7097 790.4345,276.7097 L657.9505,276.7097 C656.1085,276.7097 654.6145,278.2047 654.6145,280.0467 L654.6145,286.7187 C654.6145,288.5597 656.1085,290.0547 657.9505,290.0547 L790.4345,290.0547 C792.2745,290.0547 793.7695,288.5597 793.7695,286.7187 L793.7695,280.0467 Z" id="Fill-114" fill="#ADCDFE" mask="url(#mask-4)"></path>
            <path d="M806.1987,167.1073 C806.1987,165.1763 804.6317,163.6093 802.7007,163.6093 L663.7917,163.6093 C661.8617,163.6093 660.2947,165.1763 660.2947,167.1073 L660.2947,174.1023 C660.2947,176.0333 661.8617,177.6003 663.7917,177.6003 L802.7007,177.6003 C804.6317,177.6003 806.1987,176.0333 806.1987,174.1023 L806.1987,167.1073 Z" id="Fill-115" fill="#49C97E" mask="url(#mask-4)"></path>
            <path d="M781.2758,652.5409 C781.2758,650.1319 779.3198,648.1769 776.9118,648.1769 L603.5928,648.1769 C601.1848,648.1769 599.2288,650.1319 599.2288,652.5409 L599.2288,661.2689 C599.2288,663.6779 601.1848,665.6329 603.5928,665.6329 L776.9118,665.6329 C779.3198,665.6329 781.2758,663.6779 781.2758,661.2689 L781.2758,652.5409 Z" id="Fill-116" fill="#ADCDFE" mask="url(#mask-4)"></path>
            <path d="M726.0981,299.9398 C726.0981,298.0988 724.6031,296.6038 722.7621,296.6038 L657.9501,296.6038 C656.1081,296.6038 654.6141,298.0988 654.6141,299.9398 L654.6141,306.6118 C654.6141,308.4528 656.1081,309.9478 657.9501,309.9478 L722.7621,309.9478 C724.6031,309.9478 726.0981,308.4528 726.0981,306.6118 L726.0981,299.9398 Z" id="Fill-117" fill="#ADCDFE" mask="url(#mask-4)"></path>
            <path d="M692.746,676.766 C692.746,675.351 691.597,674.202 690.182,674.202 L601.793,674.202 C600.378,674.202 599.228,675.351 599.228,676.766 L599.228,681.894 C599.228,683.309 600.378,684.459 601.793,684.459 L690.182,684.459 C691.597,684.459 692.746,683.309 692.746,681.894 L692.746,676.766 Z" id="Fill-118" fill="#ADCDFE" mask="url(#mask-4)"></path>
            <path d="M660.8622,693.537 C660.8622,692.122 659.7132,690.973 658.2982,690.973 L601.7932,690.973 C600.3782,690.973 599.2282,692.122 599.2282,693.537 L599.2282,698.665 C599.2282,700.08 600.3782,701.23 601.7932,701.23 L658.2982,701.23 C659.7132,701.23 660.8622,700.08 660.8622,698.665 L660.8622,693.537 Z" id="Fill-119" fill="#ADCDFE" mask="url(#mask-4)"></path>
            <path d="M372.4839,130.0975 C406.9789,130.0975 434.9429,158.0615 434.9429,192.5565 C434.9429,227.0515 406.9789,255.0155 372.4839,255.0155 C337.9889,255.0155 310.0249,227.0515 310.0249,192.5565 C310.0249,158.0615 337.9889,130.0975 372.4839,130.0975" id="Fill-120" fill="#9D94E7" mask="url(#mask-4)"></path>
            <path d="M181.2426,354.3173 C205.8036,354.3173 225.7136,374.2273 225.7136,398.7883 C225.7136,423.3483 205.8036,443.2583 181.2426,443.2583 C156.6816,443.2583 136.7716,423.3483 136.7716,398.7883 C136.7716,374.2273 156.6816,354.3173 181.2426,354.3173" id="Fill-121" fill="#9D94E7" mask="url(#mask-4)"></path>
            <path d="M1011.9633,117.5677 C1041.7673,117.5677 1065.9273,141.7287 1065.9273,171.5317 C1065.9273,201.3357 1041.7673,225.4967 1011.9633,225.4967 C982.1593,225.4967 957.9983,201.3357 957.9983,171.5317 C957.9983,141.7287 982.1593,117.5677 1011.9633,117.5677" id="Fill-122" fill="#9D94E7" mask="url(#mask-4)"></path>
            <path d="M1261.2095,267.0546 C1287.4255,267.0546 1308.6785,288.3066 1308.6785,314.5236 C1308.6785,340.7396 1287.4255,361.9926 1261.2095,361.9926 C1234.9935,361.9926 1213.7405,340.7396 1213.7405,314.5236 C1213.7405,288.3066 1234.9935,267.0546 1261.2095,267.0546" id="Fill-123" fill="#9D94E7" mask="url(#mask-4)"></path>
            <path d="M377.7944,210.8592 C380.9344,210.5772 383.2884,209.7692 384.8584,208.4342 C386.4284,207.0982 387.2144,205.4232 387.2144,203.4072 C387.2144,201.3452 386.4054,199.7632 384.7884,198.6622 C383.1714,197.5612 380.8404,196.5882 377.7944,195.7452 L377.7944,210.8592 Z M364.2974,180.4192 C364.2974,182.4352 365.0694,184.0052 366.6164,185.1302 C368.1634,186.2552 370.3894,187.1922 373.2954,187.9412 L373.2954,172.7572 C370.2954,173.1322 368.0454,174.0102 366.5464,175.3942 C365.0464,176.7762 364.2974,178.4512 364.2974,180.4192 L364.2974,180.4192 Z M394.1034,202.9852 C394.1034,206.6882 392.7084,209.8282 389.9204,212.4052 C387.1324,214.9832 383.0894,216.4832 377.7944,216.9042 L377.7944,224.8482 L373.2954,224.8482 L373.2954,216.9042 C369.8734,216.7172 366.6284,216.0732 363.5584,214.9712 C360.4884,213.8702 358.0404,212.4752 356.2124,210.7882 L358.8144,205.3052 C360.5014,206.8522 362.6334,208.1292 365.2104,209.1362 C367.7884,210.1442 370.4834,210.7412 373.2954,210.9292 L373.2954,194.6202 C370.0144,193.8232 367.2844,192.9562 365.1064,192.0192 C362.9264,191.0812 361.0984,189.6992 359.6224,187.8712 C358.1454,186.0442 357.4074,183.6532 357.4074,180.7012 C357.4074,176.9992 358.7544,173.8592 361.4504,171.2812 C364.1444,168.7032 368.0924,167.2042 373.2954,166.7822 L373.2954,158.7672 L377.7944,158.7672 L377.7944,166.7112 C380.4654,166.8052 383.0544,167.2272 385.5624,167.9772 C388.0694,168.7272 390.2374,169.7342 392.0654,171.0002 L389.7444,176.6242 C385.9494,174.2332 381.9654,172.9212 377.7944,172.6872 L377.7944,189.0672 C381.2154,189.9102 384.0274,190.7882 386.2304,191.7032 C388.4324,192.6162 390.2944,193.9752 391.8184,195.7802 C393.3424,197.5842 394.1034,199.9862 394.1034,202.9852 L394.1034,202.9852 Z" id="Fill-124" fill="#FFFFFF" mask="url(#mask-4)"></path>
            <path d="M185.0229,411.8192 C187.2589,411.6192 188.9359,411.0442 190.0539,410.0922 C191.1709,409.1422 191.7309,407.9482 191.7309,406.5132 C191.7309,405.0462 191.1549,403.9192 190.0039,403.1352 C188.8529,402.3512 187.1929,401.6592 185.0229,401.0582 L185.0229,411.8192 Z M175.4139,390.1462 C175.4139,391.5812 175.9639,392.6992 177.0649,393.5002 C178.1669,394.3002 179.7519,394.9682 181.8199,395.5022 L181.8199,384.6912 C179.6849,384.9582 178.0829,385.5832 177.0159,386.5682 C175.9469,387.5522 175.4139,388.7452 175.4139,390.1462 L175.4139,390.1462 Z M196.6359,406.2142 C196.6359,408.8492 195.6429,411.0862 193.6579,412.9202 C191.6719,414.7552 188.7939,415.8232 185.0229,416.1232 L185.0229,421.7792 L181.8199,421.7792 L181.8199,416.1232 C179.3839,415.9902 177.0729,415.5312 174.8879,414.7472 C172.7019,413.9632 170.9589,412.9702 169.6569,411.7692 L171.5089,407.8642 C172.7099,408.9662 174.2299,409.8752 176.0639,410.5932 C177.8999,411.3102 179.8169,411.7362 181.8199,411.8692 L181.8199,400.2562 C179.4849,399.6902 177.5409,399.0722 175.9889,398.4052 C174.4369,397.7372 173.1359,396.7532 172.0849,395.4522 C171.0329,394.1512 170.5089,392.4492 170.5089,390.3472 C170.5089,387.7112 171.4679,385.4752 173.3859,383.6392 C175.3049,381.8052 178.1169,380.7362 181.8199,380.4372 L181.8199,374.7312 L185.0229,374.7312 L185.0229,380.3872 C186.9259,380.4532 188.7689,380.7542 190.5549,381.2872 C192.3389,381.8202 193.8819,382.5382 195.1849,383.4402 L193.5329,387.4442 C190.8299,385.7422 187.9929,384.8082 185.0229,384.6412 L185.0229,396.3032 C187.4599,396.9042 189.4609,397.5292 191.0299,398.1802 C192.5979,398.8312 193.9239,399.7982 195.0089,401.0832 C196.0929,402.3672 196.6359,404.0782 196.6359,406.2142 L196.6359,406.2142 Z" id="Fill-125" fill="#FFFFFF" mask="url(#mask-4)"></path>
            <path d="M1016.5502,187.3461 C1019.2582,187.1021 1021.2972,186.4041 1022.6562,185.2501 C1024.0052,184.0961 1024.6842,182.6481 1024.6842,180.9071 C1024.6842,179.1251 1023.9852,177.7591 1022.5862,176.8081 C1021.1972,175.8551 1019.1782,175.0161 1016.5502,174.2861 L1016.5502,187.3461 Z M1004.8872,161.0461 C1004.8872,162.7871 1005.5572,164.1441 1006.8862,165.1161 C1008.2252,166.0871 1010.1542,166.8971 1012.6622,167.5451 L1012.6622,154.4261 C1010.0642,154.7491 1008.1262,155.5091 1006.8262,156.7031 C1005.5372,157.8981 1004.8872,159.3451 1004.8872,161.0461 L1004.8872,161.0461 Z M1030.6402,180.5421 C1030.6402,183.7411 1029.4312,186.4541 1027.0232,188.6821 C1024.6152,190.9091 1021.1272,192.2041 1016.5502,192.5681 L1016.5502,199.4321 L1012.6622,199.4321 L1012.6622,192.5681 C1009.7042,192.4071 1006.8962,191.8501 1004.2482,190.8981 C1001.6002,189.9471 999.4812,188.7421 997.9022,187.2851 L1000.1512,182.5471 C1001.6102,183.8831 1003.4482,184.9871 1005.6772,185.8571 C1007.9052,186.7281 1010.2342,187.2441 1012.6622,187.4061 L1012.6622,173.3151 C1009.8242,172.6261 1007.4662,171.8781 1005.5872,171.0681 C1003.6982,170.2581 1002.1192,169.0641 1000.8502,167.4841 C999.5712,165.9051 998.9312,163.8401 998.9312,161.2891 C998.9312,158.0901 1000.1012,155.3771 1002.4292,153.1501 C1004.7582,150.9231 1008.1652,149.6281 1012.6622,149.2631 L1012.6622,142.3381 L1016.5502,142.3381 L1016.5502,149.2021 C1018.8592,149.2831 1021.0972,149.6481 1023.2562,150.2951 C1025.4242,150.9441 1027.2932,151.8141 1028.8822,152.9081 L1026.8732,157.7661 C1023.5952,155.7001 1020.1482,154.5671 1016.5502,154.3651 L1016.5502,168.5171 C1019.4982,169.2461 1021.9362,170.0051 1023.8352,170.7951 C1025.7342,171.5841 1027.3532,172.7591 1028.6622,174.3171 C1029.9812,175.8761 1030.6402,177.9511 1030.6402,180.5421 L1030.6402,180.5421 Z" id="Fill-126" fill="#FFFFFF" mask="url(#mask-4)"></path>
            <path d="M1265.2466,328.433 C1267.6346,328.219 1269.4236,327.605 1270.6126,326.589 C1271.8126,325.575 1272.4016,324.301 1272.4016,322.77 C1272.4016,321.203 1271.7926,320.001 1270.5626,319.163 C1269.3336,318.327 1267.5556,317.587 1265.2466,316.946 L1265.2466,328.433 Z M1254.9836,305.299 C1254.9836,306.83 1255.5726,308.023 1256.7516,308.879 C1257.9216,309.733 1259.6206,310.446 1261.8286,311.016 L1261.8286,299.475 C1259.5506,299.761 1257.8316,300.429 1256.7026,301.479 C1255.5526,302.53 1254.9836,303.803 1254.9836,305.299 L1254.9836,305.299 Z M1277.6386,322.449 C1277.6386,325.263 1276.5796,327.65 1274.4606,329.608 C1272.3416,331.567 1269.2736,332.707 1265.2466,333.027 L1265.2466,339.065 L1261.8286,339.065 L1261.8286,333.027 C1259.2306,332.885 1256.7626,332.395 1254.4236,331.558 C1252.0956,330.722 1250.2366,329.662 1248.8476,328.379 L1250.8156,324.212 C1252.1046,325.387 1253.7246,326.358 1255.6826,327.124 C1257.6416,327.89 1259.6906,328.344 1261.8286,328.486 L1261.8286,316.091 C1259.3306,315.486 1257.2616,314.827 1255.6026,314.115 C1253.9436,313.402 1252.5546,312.351 1251.4356,310.963 C1250.3166,309.574 1249.7566,307.757 1249.7566,305.513 C1249.7566,302.699 1250.7756,300.312 1252.8246,298.354 C1254.8736,296.395 1257.8716,295.255 1261.8286,294.934 L1261.8286,288.844 L1265.2466,288.844 L1265.2466,294.881 C1267.2756,294.952 1269.2436,295.273 1271.1526,295.843 C1273.0516,296.412 1274.7006,297.179 1276.0896,298.14 L1274.3306,302.414 C1271.4426,300.598 1268.4146,299.6 1265.2466,299.422 L1265.2466,311.871 C1267.8446,312.512 1269.9836,313.179 1271.6526,313.874 C1273.3306,314.568 1274.7506,315.601 1275.8996,316.973 C1277.0586,318.344 1277.6386,320.169 1277.6386,322.449 L1277.6386,322.449 Z" id="Fill-127" fill="#FFFFFF" mask="url(#mask-4)"></path>
            <path d="M584.3012,171.0467 L594.8732,179.8557 C595.5582,180.4277 595.6512,181.4477 595.0802,182.1327 C594.5092,182.8177 593.4882,182.9107 592.8022,182.3397 L580.8112,172.3467 C580.4532,172.0477 580.2412,171.6087 580.2302,171.1427 C580.2192,170.6767 580.4102,170.2287 580.7542,169.9137 L592.7462,158.9207 C593.4032,158.3167 594.4262,158.3617 595.0292,159.0197 C595.6332,159.6767 595.5882,160.7007 594.9302,161.3027 L584.3012,171.0467 Z" id="Fill-128" fill="#003151" mask="url(#mask-4)"></path>
            <path d="M736.5825,367.1337 C736.5825,367.1337 730.6045,392.6397 749.9265,398.5867 C773.8635,405.9537 781.3785,377.6177 781.3785,377.6177 C781.3785,377.6177 808.2535,381.9437 809.9735,399.5397 C811.6915,417.1357 826.9625,435.4887 829.9885,447.1967 C832.5925,457.2687 825.1785,464.0547 814.7385,463.3997 C799.9175,462.4677 800.4905,478.6417 783.2855,464.3517 C783.2855,464.3517 770.1115,526.4657 778.5195,561.5707 C778.5195,561.5707 684.1125,606.2817 646.9895,519.6337 C646.9895,519.6337 683.8655,488.6017 687.9735,441.4767 C687.9735,441.4767 683.6755,428.8277 674.6285,430.0397 C665.5835,431.2517 658.2075,426.3717 661.2855,414.7897 C663.3555,407.0057 643.4185,407.1337 657.4735,390.9617 C657.4735,390.9617 678.8325,392.2717 699.4105,375.7117 C713.1455,364.6577 730.5645,365.1737 736.5825,367.1337" id="Fill-129" fill="#FF89AB" mask="url(#mask-4)"></path>
            <path d="M176,595.2606 C176,592.6416 173.874,590.5146 171.254,590.5146 L75.928,590.5146 C73.309,590.5146 71.182,592.6416 71.182,595.2606 L71.182,604.7516 C71.182,607.3706 73.309,609.4966 75.928,609.4966 L171.254,609.4966 C173.874,609.4966 176,607.3706 176,604.7516 L176,595.2606 Z" id="Fill-130" fill="#E7F0FF" mask="url(#mask-4)"></path>
            <polygon id="Fill-131" fill="#ADCDFE" mask="url(#mask-4)" points="940.72 839.632 961.436 839.632 961.436 781.67 940.72 781.67"></polygon>
            <polygon id="Fill-132" fill="#AECDFF" mask="url(#mask-4)" points="1085.705 742.766 1128.939 742.766 1128.939 709.397 1085.705 709.397"></polygon>
            <polygon id="Fill-133" fill="#D3E4FF" mask="url(#mask-4)" points="382.735 809.373 430.703 809.373 430.703 788.995 382.735 788.995"></polygon>
            <polygon id="Fill-134" fill="#D3E4FF" mask="url(#mask-4)" points="73.661 725.444 121.629 725.444 121.629 705.067 73.661 705.067"></polygon>
            <path d="M450.7524,341.3124 C450.7524,341.3124 444.3804,350.8224 442.2654,353.9374 C440.3994,356.6844 444.4614,357.5464 444.9774,357.6854" id="Stroke-135" stroke="#003151" stroke-width="1.08" stroke-linecap="round" stroke-linejoin="round" mask="url(#mask-4)"></path>
            <path d="M443.4204,334.1532 C444.5874,334.1532 445.5334,335.0992 445.5334,336.2672 C445.5334,337.4342 444.5874,338.3812 443.4204,338.3812 C442.2534,338.3812 441.3064,337.4342 441.3064,336.2672 C441.3064,335.0992 442.2534,334.1532 443.4204,334.1532" id="Fill-136" fill="#003151" mask="url(#mask-4)"></path>
            <path d="M460.7866,340.87 C461.9536,340.87 462.9006,341.816 462.9006,342.983 C462.9006,344.151 461.9536,345.097 460.7866,345.097 C459.6196,345.097 458.6736,344.151 458.6736,342.983 C458.6736,341.816 459.6196,340.87 460.7866,340.87" id="Fill-137" fill="#003151" mask="url(#mask-4)"></path>
            <path d="M257.3344,834.2255 L280.1544,653.2885 L280.5294,652.7195 C291.0324,646.5615 301.8424,640.4725 311.4434,635.1645 C329.1334,625.3845 342.7184,618.2615 342.7184,618.2615 C343.0954,618.0635 343.5614,618.2095 343.7574,618.5855 C343.9554,618.9615 343.8094,619.4275 343.4344,619.6245 C343.4344,619.6245 329.8604,626.7425 312.1884,636.5115 C302.6974,641.7585 292.0234,647.7705 281.6344,653.8565 L258.8224,834.7345 C258.7994,834.9145 258.7114,835.0845 258.5754,835.2045 C258.5754,835.2045 256.5044,837.1235 250.2134,838.6625 C247.0444,839.4325 242.7734,840.1115 237.1114,840.402363 C236.6874,840.4215 236.3254,840.0915 236.303355,839.6715 C236.2824,839.2425 236.6104,838.8825 237.0344,838.8625 C242.5714,838.5825 246.7484,837.9225 249.8484,837.1635 C254.5554,836.0145 256.7034,834.6755 257.3344,834.2255" id="Fill-138" fill="#000000" mask="url(#mask-4)"></path>
            <path d="M1129.7559,500.1703 L1146.2049,520.9063 C1146.4749,521.2403 1146.9539,521.2953 1147.2839,521.0313 C1147.6239,520.7673 1147.6739,520.2833 1147.4139,519.9503 L1130.9549,499.2123 C1130.6949,498.8793 1130.2059,498.8243 1129.8759,499.0883 C1129.5459,499.3523 1129.4859,499.8373 1129.7559,500.1703" id="Fill-139" fill="#003151" mask="url(#mask-4)"></path>
        </g>
    </g>
</svg>