<?xml version="1.0" encoding="UTF-8"?>
<svg width="1362px" height="1180px" viewBox="0 0 1362 1180" version="1.1" xmlns="http://www.w3.org/2000/svg" xmlns:xlink="http://www.w3.org/1999/xlink">
    <title>Illustrations / 1</title>
      <style>
        #animation {
          animation: move 5s linear;
          transform: translate(-10%);
        }

        @keyframes move {
          0% {
            transform: translate(0%);
          }
          100% {
            transform: translate(-10%);
          }
        }
      </style>
    <defs>
        <polygon id="path-1" points="0 959.747583 1108.48489 959.747583 1108.48489 -0.00325699746 0 -0.00325699746"></polygon>
    </defs>
    <g id="Illustrations-/-1" stroke="none" stroke-width="1" fill="none" fill-rule="evenodd">
        <g transform="translate(123.000000, 177.000000)">
            <path d="M24.802687,954.865506 C24.802687,954.865506 -24.8225547,847.224183 16.3165802,733.203216 C89.7073181,529.798025 257.202483,611.025099 268.334087,478.690036 C279.464875,346.355786 394.813069,165.604641 607.751491,175.417975 C958.463349,191.579196 788.334087,483.716397 925.104366,591.075176 C1032.62925,675.474565 1135.79139,751.929323 1097.35719,952.196397 L24.802687,954.865506 Z" id="Fill-1" fill="#F0F8FF"></path>
            <mask id="mask-2" fill="white">
                <use xlink:href="#path-1"></use>
            </mask>
            <g id="Clip-4"></g>
            <g id="animation">
            <path d="M174.983817,131.266768 L495.844478,131.266768 L495.844478,106.314097 L174.983817,106.314097 L174.983817,131.266768 Z M496.499949,103.180865 L174.329975,103.180865 C173.969262,103.180865 173.676947,103.881934 173.676947,104.747481 L173.676947,132.834198 C173.676947,133.699746 173.969262,134.400814 174.329975,134.400814 L496.499949,134.400814 C496.859847,134.400814 497.152163,133.699746 497.152163,132.834198 L497.152163,104.747481 C497.152163,103.881934 496.859847,103.180865 496.499949,103.180865 L496.499949,103.180865 Z" id="Fill-3" fill="#D3E4FF" mask="url(#mask-2)"></path>
            <path d="M243.258056,361.207776 L243.258056,524.228641 C243.258056,524.851542 243.763705,525.356377 244.385791,525.356377 C245.009506,525.356377 245.514341,524.851542 245.514341,524.228641 L245.514341,361.207776 C245.514341,360.58569 245.009506,360.080041 244.385791,360.080041 C243.763705,360.080041 243.258056,360.58569 243.258056,361.207776" id="Fill-5" fill="#D3E4FF" mask="url(#mask-2)"></path>
            <line x1="369.849975" y1="357.95314" x2="369.849975" y2="524.22856" id="Stroke-6" stroke="#D3E4FF" stroke-width="2.25547074" stroke-linecap="round" stroke-linejoin="round" mask="url(#mask-2)"></line>
            <path d="M494.186422,361.207776 L494.186422,524.228641 C494.186422,524.851542 494.692071,525.356377 495.314158,525.356377 C495.937059,525.356377 496.442707,524.851542 496.442707,524.228641 L496.442707,361.207776 C496.442707,360.58569 495.937059,360.080041 495.314158,360.080041 C494.692071,360.080041 494.186422,360.58569 494.186422,361.207776" id="Fill-7" fill="#D3E4FF" mask="url(#mask-2)"></path>
            <path d="M619.650768,361.207776 L619.650768,524.228641 C619.650768,524.851542 620.155603,525.356377 620.778504,525.356377 C621.40059,525.356377 621.907053,524.851542 621.907053,524.228641 L621.907053,361.207776 C621.907053,360.58569 621.40059,360.080041 620.778504,360.080041 C620.155603,360.080041 619.650768,360.58569 619.650768,361.207776" id="Fill-8" fill="#D3E4FF" mask="url(#mask-2)"></path>
            <path d="M745.114382,357.95314 L745.114382,524.22856 C745.114382,524.851461 745.620031,525.356295 746.242931,525.356295 C746.865018,525.356295 747.370667,524.851461 747.370667,524.22856 L747.370667,357.95314 C747.370667,357.330239 746.865018,356.825405 746.242931,356.825405 C745.620031,356.825405 745.114382,357.330239 745.114382,357.95314" id="Fill-9" fill="#D3E4FF" mask="url(#mask-2)"></path>
            <path d="M969.73826,441.590229 L152.884926,441.590229 C152.261211,441.590229 151.755562,442.095064 151.755562,442.718779 C151.755562,443.340865 152.261211,443.846514 152.884926,443.846514 L969.73826,443.846514 C970.357089,443.846514 970.861109,443.340865 970.861109,442.718779 C970.861109,442.095064 970.357089,441.590229 969.73826,441.590229" id="Fill-10" fill="#D3E4FF" mask="url(#mask-2)"></path>
            <path d="M189.874809,243.612824 L497.544631,243.612824 L497.544631,134.400814 L189.874809,134.400814 L189.874809,243.612824 Z M498.199288,131.266768 L189.221781,131.266768 C188.861069,131.266768 188.568753,131.968651 188.568753,132.834198 L188.568753,245.180254 C188.568753,246.046616 188.861069,246.747684 189.221781,246.747684 L498.199288,246.747684 C498.558372,246.747684 498.853944,246.046616 498.853944,245.180254 L498.853944,132.834198 C498.853944,131.968651 498.558372,131.266768 498.199288,131.266768 L498.199288,131.266768 Z" id="Fill-11" fill="#D3E4FF" mask="url(#mask-2)"></path>
            <path d="M635.646209,131.266768 L974.68173,131.266768 L974.68173,106.314097 L635.646209,106.314097 L635.646209,131.266768 Z M975.373842,103.180865 L634.955725,103.180865 C634.573842,103.180865 634.264427,103.881934 634.264427,104.747481 L634.264427,132.834198 C634.264427,133.699746 634.573842,134.400814 634.955725,134.400814 L975.373842,134.400814 C975.754911,134.400814 976.062697,133.699746 976.062697,132.834198 L976.062697,104.747481 C976.062697,103.881934 975.754911,103.180865 975.373842,103.180865 L975.373842,103.180865 Z" id="Fill-12" fill="#D3E4FF" mask="url(#mask-2)"></path>
            <path d="M633.69771,243.612824 L958.794911,243.612824 L958.794911,134.400814 L633.69771,134.400814 L633.69771,243.612824 Z M959.487023,131.266768 L633.008041,131.266768 C632.626972,131.266768 632.317557,131.968651 632.317557,132.834198 L632.317557,245.180254 C632.317557,246.046616 632.626972,246.747684 633.008041,246.747684 L959.487023,246.747684 C959.867277,246.747684 960.179135,246.046616 960.179135,245.180254 L960.179135,132.834198 C960.179135,131.968651 959.867277,131.266768 959.487023,131.266768 L959.487023,131.266768 Z" id="Fill-13" fill="#D3E4FF" mask="url(#mask-2)"></path>
            <path d="M154.759491,525.102087 L967.719898,525.102087 L967.719898,361.961527 L154.759491,361.961527 L154.759491,525.102087 Z M969.282443,358.827481 L153.192875,358.827481 C152.327328,358.827481 151.62626,359.529364 151.62626,360.394097 L151.62626,526.669517 C151.62626,527.535064 152.327328,528.236947 153.192875,528.236947 L969.282443,528.236947 C970.15369,528.236947 970.85313,527.535064 970.85313,526.669517 L970.85313,360.394097 C970.85313,359.529364 970.15369,358.827481 969.282443,358.827481 L969.282443,358.827481 Z" id="Fill-14" fill="#D3E4FF" mask="url(#mask-2)"></path>
            <path d="M129.320712,625.197761 L993.157048,625.197761 L993.157048,528.236947 L129.320712,528.236947 L129.320712,625.197761 Z M994.726921,525.102087 L127.754097,525.102087 C126.88855,525.102087 126.186667,525.803969 126.186667,526.669517 L126.186667,626.765191 C126.186667,627.629924 126.88855,628.332621 127.754097,628.332621 L994.726921,628.332621 C995.590025,628.332621 996.289466,627.629924 996.289466,626.765191 L996.289466,526.669517 C996.289466,525.803969 995.590025,525.102087 994.726921,525.102087 L994.726921,525.102087 Z" id="Fill-15" fill="#D3E4FF" mask="url(#mask-2)"></path>
            <path d="M250.855084,332.544407 L239.743023,332.589191 L239.743023,246.799064 L250.855084,246.75428 L250.855084,332.544407 Z M253.528265,244.071328 C253.232692,243.775756 252.832896,243.611277 252.416,243.612894 L238.169893,243.671532 C237.306789,243.673975 236.608977,244.375043 236.608977,245.237333 L236.608977,334.161506 C236.608977,334.578402 236.775084,334.978198 237.069842,335.272142 C237.365415,335.566087 237.766025,335.730565 238.182921,335.728948 L252.428214,335.671939 C253.291318,335.667868 253.98913,334.967613 253.98913,334.105323 L253.98913,245.180336 C253.98913,244.76344 253.823023,244.364458 253.528265,244.071328 L253.528265,244.071328 Z" id="Fill-16" fill="#D3E4FF" mask="url(#mask-2)"></path>
            <path d="M442.384529,332.544407 L431.272468,332.589191 L431.272468,246.799064 L442.384529,246.75428 L442.384529,332.544407 Z M445.05771,244.071328 C444.762137,243.775756 444.362341,243.611277 443.945445,243.612894 L429.699338,243.671532 C428.836234,243.673975 428.139237,244.375043 428.139237,245.237333 L428.139237,334.161506 C428.139237,334.578402 428.304529,334.978198 428.600102,335.272142 C428.89486,335.566087 429.295471,335.730565 429.712366,335.728948 L443.958473,335.671939 C444.820763,335.667868 445.519389,334.967613 445.519389,334.105323 L445.519389,245.180336 C445.519389,244.76344 445.353282,244.364458 445.05771,244.071328 L445.05771,244.071328 Z" id="Fill-17" fill="#D3E4FF" mask="url(#mask-2)"></path>
            <path d="M691.098789,332.544407 L679.986728,332.589191 L679.986728,246.799064 L691.098789,246.75428 L691.098789,332.544407 Z M693.771155,244.071328 C693.476397,243.775756 693.075786,243.611277 692.658891,243.612894 L678.413598,243.671532 C677.549679,243.673975 676.852682,244.375043 676.852682,245.237333 L676.852682,334.161506 C676.852682,334.578402 677.017975,334.978198 677.312733,335.272142 C677.60912,335.566087 678.008916,335.730565 678.425812,335.728948 L692.671919,335.671939 C693.534209,335.667868 694.23202,334.967613 694.23202,334.105323 L694.23202,245.180336 C694.23202,244.76344 694.066728,244.364458 693.771155,244.071328 L693.771155,244.071328 Z" id="Fill-18" fill="#D3E4FF" mask="url(#mask-2)"></path>
            <path d="M887.922158,332.544407 L876.80684,332.589191 L876.80684,246.799064 L887.922158,246.75428 L887.922158,332.544407 Z M890.590453,244.071328 C890.298137,243.775756 889.899969,243.611277 889.484702,243.612894 L875.236153,243.671532 C874.373048,243.673975 873.673608,244.375043 873.673608,245.237333 L873.673608,334.161506 C873.673608,334.578402 873.844601,334.978198 874.13773,335.272142 C874.43086,335.566087 874.829842,335.730565 875.244295,335.728948 L889.492845,335.671939 C890.355135,335.667868 891.055389,334.967613 891.055389,334.105323 L891.055389,245.180336 C891.055389,244.76344 890.891725,244.364458 890.590453,244.071328 L890.590453,244.071328 Z" id="Fill-19" fill="#D3E4FF" mask="url(#mask-2)"></path>
            <path d="M207.443053,358.827481 L915.032265,358.827481 L915.032265,335.728855 L207.443053,335.728855 L207.443053,358.827481 Z M916.602952,332.594809 L205.876438,332.594809 C205.011705,332.594809 204.309008,333.295878 204.309008,334.161425 L204.309008,360.394097 C204.309008,361.260458 205.011705,361.961527 205.876438,361.961527 L916.602952,361.961527 C917.465242,361.961527 918.173639,361.260458 918.173639,360.394097 L918.173639,334.161425 C918.173639,333.295878 917.465242,332.594809 916.602952,332.594809 L916.602952,332.594809 Z" id="Fill-20" fill="#D3E4FF" mask="url(#mask-2)"></path>
            <polygon id="Fill-21" fill="#E7F0FF" mask="url(#mask-2)" points="0 664.192977 1060.36682 664.192977 1060.36682 602.353995 0 602.353995"></polygon>
            <path d="M32.6740356,959.747827 L1105.57134,957.7863 C1107.18274,957.7863 1108.48395,956.468845 1108.48395,954.856631 C1108.48395,953.246046 1107.1746,951.944061 1105.5632,951.944061 L32.6634504,953.904774 C31.0512366,953.904774 29.7484316,955.215715 29.7484316,956.8263 C29.7484316,958.445028 31.0626361,959.747827 32.6740356,959.747827" id="Fill-22" fill="#A8C9FE" mask="url(#mask-2)"></path>
            <polygon id="Fill-23" fill="#68E89D" mask="url(#mask-2)" points="71.6967735 502.918921 330.457893 858.512204 519.23998 783.650117 270.243338 467.115562"></polygon>
            <polygon id="Fill-24" fill="#45D07F" mask="url(#mask-2)" points="519.239654 783.650524 742.196601 822.708438 519.239654 506.988132 270.243013 467.115969"></polygon>
            <polygon id="Fill-25" fill="#68E89D" mask="url(#mask-2)" points="519.239654 506.987807 683.60973 458.164601 896.802198 769.003481 742.196601 822.708112"></polygon>
            <polygon id="Fill-26" fill="#46D07F" mask="url(#mask-2)" points="683.609893 458.164682 855.303328 499.664529 1088.02557 813.757964 896.802361 769.003562"></polygon>
            <polygon id="Fill-27" fill="#003151" mask="url(#mask-2)" points="103.431817 515.938198 338.595176 832.472753 506.219807 767.099115 519.239654 783.650361 330.457567 858.512448 71.6964478 502.919165 270.243013 467.115807 283.999756 484.60344"></polygon>
            <path d="M281.943695,483.81427 L269.776366,468.345975 L73.6676641,503.710453 L330.85484,857.144346 L517.417282,783.162463 L505.85087,768.457934 L339.005476,833.522158 C338.531583,833.710249 337.99255,833.554728 337.689649,833.148417 L102.52629,516.610606 C102.292601,516.296305 102.23886,515.884295 102.383796,515.519511 C102.529547,515.156356 102.853618,514.893354 103.238758,514.826585 L281.943695,483.81427 Z M338.987562,831.10628 L505.810158,766.049384 C506.272651,765.870249 506.799471,766.008672 507.107257,766.399511 L520.127104,782.950758 C520.346137,783.235746 520.421863,783.601344 520.329038,783.943328 C520.236214,784.285313 519.987053,784.569486 519.655654,784.699766 L330.873567,859.561852 C330.394789,859.748316 329.848427,859.594422 329.545527,859.179155 L70.7844071,503.582616 C70.5564173,503.26913 70.5051196,502.859562 70.6492417,502.49885 C70.7949924,502.138952 71.1141781,501.877578 71.4968753,501.808366 L270.042626,466.005008 C270.453822,465.930911 270.872346,466.08969 271.130463,466.418646 L284.885578,483.905466 C285.131481,484.218137 285.194992,484.636662 285.052499,485.007145 C284.910819,485.377628 284.584305,485.647145 284.192651,485.714728 L105.429903,516.736814 L338.987562,831.10628 Z" id="Fill-28" fill="#FFFFFF" mask="url(#mask-2)"></path>
            <polygon id="Fill-29" fill="#003151" mask="url(#mask-2)" points="729.31599 804.464774 883.735125 749.945893 896.802198 769.003399 742.196601 822.708031"></polygon>
            <path d="M742.628641,821.365985 L731.098056,805.034585 L883.286962,751.29657 L895.037394,768.42512 L742.628641,821.365985 Z M897.730117,768.368936 L884.663043,749.31143 C884.377242,748.88802 883.840651,748.7097 883.360244,748.880692 L728.933781,803.399573 C728.608081,803.512753 728.348336,803.781455 728.242483,804.12344 C728.127674,804.456468 728.184186,804.823695 728.389048,805.11601 L741.277802,823.359267 C741.561975,823.774534 742.092051,823.937384 742.563501,823.774534 L897.169099,770.069089 C897.502941,769.955094 897.762687,769.686392 897.876682,769.353364 C897.982534,769.019522 897.933679,768.653924 897.730117,768.368936 L897.730117,768.368936 Z" id="Fill-30" fill="#FFFFFF" mask="url(#mask-2)"></path>
            <polygon id="Fill-31" fill="#003151" mask="url(#mask-2)" points="694.411399 474.890992 843.911654 511.055878 1054.66382 792.502799 883.734962 749.946056 896.80285 769.003562 1088.02524 813.757964 855.303817 499.664529 683.609567 458.164682"></polygon>
            <path d="M886.346911,751.761181 L897.486656,768.002198 L1085.29164,811.95945 L854.636784,500.66459 L686.089608,459.924438 L695.114748,473.900214 L844.180193,509.959247 C844.431796,510.02113 844.660601,510.170137 844.814494,510.380214 L1055.56666,791.827949 C1055.85164,792.210646 1055.86711,792.730952 1055.59923,793.129934 C1055.33867,793.528916 1054.85012,793.715379 1054.38681,793.602198 L886.346911,751.761181 Z M843.251949,512.056753 L694.145791,475.987135 C693.864875,475.919552 693.620601,475.746931 693.462636,475.503471 L682.662433,458.776346 C682.412458,458.388763 682.423043,457.888 682.690117,457.511003 C682.957191,457.134819 683.426198,456.958941 683.87485,457.067237 L855.571542,498.567084 C855.824774,498.629781 856.051949,498.779603 856.206656,498.992122 L1088.9289,813.0823 C1089.21388,813.464183 1089.23017,813.985303 1088.96961,814.375328 C1088.70905,814.775125 1088.22946,814.961588 1087.76533,814.855735 L896.542127,770.101333 C896.273425,770.036193 896.029964,769.874158 895.875257,769.638025 L882.799226,750.581333 C882.538667,750.198636 882.538667,749.685659 882.806555,749.302962 C883.075257,748.921079 883.547522,748.733802 884.003501,748.847796 L1051.86426,790.648102 L843.251949,512.056753 Z" id="Fill-32" fill="#FFFFFF" mask="url(#mask-2)"></path>
            <polygon id="Fill-33" fill="#FFFFFF" mask="url(#mask-2)" points="166.144489 505.054779 250.714056 612.770198 360.814412 582.253761 374.475074 599.619257 240.136142 641.657323 139.235176 510.242361"></polygon>
            <polygon id="Fill-34" fill="#FFFFFF" mask="url(#mask-2)" points="241.430392 701.684845 362.193344 662.814209 464.417466 783.398025 444.525354 791.161079 357.31029 684.37716 254.115583 718.765354"></polygon>
            <polygon id="Fill-35" fill="#DADADA" mask="url(#mask-2)" points="360.814494 582.253435 605.338463 628.909109 617.531033 646.173639 374.475155 599.618931"></polygon>
            <polygon id="Fill-36" fill="#DADADA" mask="url(#mask-2)" points="443.082341 612.759939 532.258931 726.990982 690.332417 749.263145 704.209669 768.913425 524.935573 746.219481 419.448753 608.232712"></polygon>
            <polygon id="Fill-37" fill="#FFFFFF" mask="url(#mask-2)" points="605.338626 628.908947 752.856997 559.822331 765.745751 578.55088 617.531196 646.173476"></polygon>
            <polygon id="Fill-38" fill="#DADADA" mask="url(#mask-2)" points="896.802524 582.253435 752.857079 559.822494 765.745832 578.551043 909.008122 598.123155"></polygon>
            <polyline id="Fill-39" fill="#DADADA" mask="url(#mask-2)" points="841.454249 688.575756 1000.95837 720.180031 1015.62137 740.368529 855.100254 708.405985"></polyline>
            <polygon id="Fill-40" fill="#DBDBDB" mask="url(#mask-2)" points="841.543328 530.313201 734.897832 508.19086 758.976 541.833201 865.613354 563.95717"></polygon>
            <polyline id="Fill-41" fill="#FFFFFF" mask="url(#mask-2)" points="690.332254 749.262819 841.454494 688.576 855.100499 708.406229 704.209506 768.913913"></polyline>
            <polygon id="Fill-42" fill="#003151" mask="url(#mask-2)" points="532.66402 525.997842 283.999593 484.603033 270.24285 467.116214 519.239491 506.987562"></polygon>
            <path d="M284.615817,483.56226 L272.913425,468.685924 L518.592,508.026382 L530.18284,524.440835 L284.615817,483.56226 Z M533.585588,525.34628 L520.161873,506.336814 C519.985995,506.088468 519.718107,505.921547 519.417649,505.873506 L270.421008,466.002158 C269.963399,465.928875 269.505791,466.143023 269.270473,466.543634 C269.034341,466.944244 269.068539,467.448265 269.355969,467.813048 L283.112712,485.300682 C283.286148,485.521344 283.536936,485.670351 283.814595,485.716763 L532.479023,527.10913 C532.927674,527.184855 533.377954,526.982921 533.619786,526.597781 C533.860804,526.211827 533.847776,525.718392 533.585588,525.34628 L533.585588,525.34628 Z" id="Fill-43" fill="#FFFFFF" mask="url(#mask-2)"></path>
            <polygon id="Fill-44" fill="#003151" mask="url(#mask-2)" points="506.220051 767.099115 729.316234 804.465018 742.196845 822.708275 519.239898 783.650361"></polygon>
            <path d="M519.859542,782.616835 L508.910331,768.693985 L728.665649,805.49887 L739.699542,821.121873 L519.859542,782.616835 Z M743.116947,822.057445 L730.236336,803.814188 C730.065344,803.569913 729.796641,803.398921 729.494555,803.350066 L506.406514,765.984163 C505.947277,765.91088 505.487226,766.122585 505.249466,766.521567 C505.011705,766.927878 505.045089,767.433527 505.333333,767.799125 L518.352366,784.350372 C518.524173,784.569405 518.770891,784.715969 519.045293,784.765639 L742.002239,823.822738 C742.450076,823.89602 742.905242,823.701415 743.149517,823.311389 C743.393791,822.928692 743.385649,822.432 743.116947,822.057445 L743.116947,822.057445 Z" id="Fill-45" fill="#FFFFFF" mask="url(#mask-2)"></path>
            <polygon id="Fill-46" fill="#003151" mask="url(#mask-2)" points="532.66402 525.997842 694.411399 474.890667 683.609567 458.164356 519.239491 506.987562"></polygon>
            <path d="M533.110148,524.673059 L521.068214,507.621863 L683.120936,459.486697 L692.660682,474.260438 L533.110148,524.673059 Z M695.359104,474.279165 L684.558087,457.552041 C684.286127,457.131888 683.769079,456.940539 683.288672,457.083033 L518.917781,505.906239 C518.570097,506.009649 518.292438,506.27428 518.173557,506.617893 C518.054677,506.961506 518.108417,507.341761 518.317679,507.638148 L531.742209,526.648427 C532.025567,527.049038 532.535288,527.221659 533.003481,527.072651 L694.75086,475.967104 C695.086331,475.861252 695.353405,475.603949 695.473099,475.273364 C695.591165,474.942779 695.550453,474.574738 695.359104,474.279165 L695.359104,474.279165 Z" id="Fill-47" fill="#FFFFFF" mask="url(#mask-2)"></path>
            <path d="M590.346504,651.990229 C533.682891,643.515522 490.163705,594.584835 490.163705,535.569669 C490.163705,470.595827 542.913221,417.845496 607.887064,417.845496 C672.860092,417.845496 725.611237,470.595827 725.611237,535.569669 C725.611237,594.584835 682.091237,643.515522 625.428438,651.990229 L607.887064,689.874809 L590.346504,651.990229 Z" id="Fill-48" fill="#003151" mask="url(#mask-2)"></path>
            <path d="M607.887064,433.892234 C663.932662,433.892234 709.366148,479.326534 709.366148,535.371318 C709.366148,591.416102 663.932662,636.850402 607.887064,636.850402 C551.84228,636.850402 506.408794,591.416102 506.408794,535.371318 C506.408794,479.326534 551.84228,433.892234 607.887064,433.892234" id="Fill-49" fill="#FF89AB" mask="url(#mask-2)"></path>
            <path d="M592.239064,550.682952 L645.315094,493.9143 C650.318656,488.341578 658.90573,487.879084 664.478453,492.883461 C670.051176,497.885394 670.513669,506.472468 665.509293,512.045191 L600.623389,581.969669 C597.806087,585.108601 593.688427,586.757455 589.482015,586.433384 C585.277232,586.109313 581.461659,583.848142 579.158148,580.3143 L551.369445,537.685903 C547.278656,531.410483 549.052092,522.996845 555.327511,518.90687 C561.601303,514.816896 570.014941,516.590331 574.104916,522.864122 L592.239064,550.682952 Z" id="Fill-50" fill="#FFFFFF" mask="url(#mask-2)"></path>
            <path d="M632.31772,243.571786 L498.225506,243.571786 L498.225506,81.2137201 L565.284641,30.3711756 L632.31772,79.4410992 L632.31772,243.571786 Z M634.240163,77.853313 L565.98571,27.8885293 C565.554158,27.5734148 564.967084,27.5783003 564.542046,27.900743 L496.287593,79.6503613 C495.985506,79.8783511 495.808814,80.2341781 495.808814,80.6128041 L495.808814,244.780132 C495.808814,245.448631 496.35029,245.990107 497.016346,245.990107 L633.526066,245.990107 C634.193751,245.990107 634.735226,245.448631 634.735226,244.780132 L634.735226,78.8287837 C634.735226,78.4428295 634.550392,78.0804885 634.240163,77.853313 L634.240163,77.853313 Z" id="Fill-51" fill="#CADFFF" mask="url(#mask-2)"></path>
            <path d="M663.636112,99.469598 L675.524153,84.4116845 L565.292702,2.72537405 L457.695349,87.0457812 L468.662473,100.363644 L564.543593,27.9003359 C564.969445,27.5787074 565.555705,27.5738219 565.986443,27.8897506 L663.636112,99.469598 Z M565.282931,30.3715827 L469.194992,102.989598 C468.677944,103.380438 467.94512,103.294127 467.533924,102.794178 L455.04171,87.626341 C454.835705,87.3747379 454.738809,87.0514809 454.773822,86.7274097 C454.809649,86.4033384 454.973313,86.1085802 455.228987,85.9066463 L564.526494,0.254127226 C564.954789,-0.0813435115 565.554076,-0.0894860051 565.991328,0.233770992 L677.965272,83.2106667 C678.226646,83.4052723 678.400081,83.698402 678.443237,84.0224733 C678.485578,84.3457303 678.39601,84.6730585 678.194076,84.9311756 L664.81026,101.883033 C664.407206,102.392753 663.672753,102.492906 663.147562,102.10858 L565.282931,30.3715827 Z" id="Fill-52" fill="#CADFFF" mask="url(#mask-2)"></path>
            <path d="M565.271776,94.2731399 C585.398392,94.2731399 601.713506,110.589069 601.713506,130.71487 C601.713506,150.841486 585.398392,167.157415 565.271776,167.157415 C545.14516,167.157415 528.830046,150.841486 528.830046,130.71487 C528.830046,110.589069 545.14516,94.2731399 565.271776,94.2731399 Z" id="Stroke-53" stroke="#CADFFF" stroke-width="2.44274809" mask="url(#mask-2)"></path>
            <path d="M318.681079,218.643379 C318.681079,218.643379 333.870087,209.707807 342.27884,231.662412 C350.521486,253.18058 356.965455,254.620987 371.573089,259.329791 C388.845761,264.898443 391.212784,279.418137 392.728916,295.946585 C395.444438,325.528265 415.45543,316.98516 418.767796,346.395847 C421.831817,373.597476 399.272224,388.200224 380.523318,386.268824 C361.019603,384.259257 231.855226,405.902819 250.636702,333.919919 C254.221842,320.177832 279.431817,319.337527 266.360672,298.999206 C255.258382,281.727349 273.900621,280.230758 260.907644,255.260987 C245.258585,225.187501 286.488916,186.141802 318.681079,218.643379" id="Fill-54" fill="#003151" mask="url(#mask-2)"></path>
            <path d="M328.649282,286.774718 C327.883074,278.573598 302.186992,288.337262 302.186992,288.337262 C302.186992,288.337262 302.037985,300.949985 300.674117,308.669069 C300.449384,309.939298 303.121751,319.130545 314.069333,319.12973 C329.272183,319.127288 333.914219,312.154056 333.562463,310.42459 C332.120427,303.333293 329.487959,295.761588 328.649282,286.774718" id="Fill-55" fill="#FFD3BB" mask="url(#mask-2)"></path>
            <path d="M301.371929,299.320835 L312.161547,296.06628 C312.161547,296.06628 311.253659,302.425567 301.161038,303.969384 L301.371929,299.320835 Z" id="Fill-56" fill="#FE9A65" mask="url(#mask-2)"></path>
            <path d="M267.828275,261.049486 C267.828275,261.049486 276.684051,293.301903 292.087206,299.614779 C303.735858,304.388723 328.464611,285.937832 328.464611,285.937832 C326.540539,272.025567 315.423593,277.854779 311.790412,264.394422 C310.005578,257.779461 313.28456,251.58058 293.872855,249.939053 C286.148885,249.28684 282.159064,247.71371 279.307562,243.734473 C279.307562,243.734473 279.670718,249.28114 273.47998,254.676356 C271.794483,256.146076 267.707766,258.790758 267.828275,261.049486" id="Fill-57" fill="#FFD3BB" mask="url(#mask-2)"></path>
            <path d="M290.774799,289.89256 C290.774799,289.89256 290.884723,290.349354 291.142025,290.914443 C291.356173,291.386707 291.672102,291.912712 292.09144,292.317394 C292.619074,292.827115 293.310372,293.084417 294.109964,292.945181 C294.543959,292.836885 294.932356,292.678921 295.249099,292.447674 C295.777547,292.060092 296.143145,291.529201 296.300295,290.9063 C296.505486,290.086351 296.376835,289.126351 295.846758,288.136224 C295.827216,288.08574 295.771033,288.060499 295.72055,288.080041 C295.67088,288.100397 295.645639,288.15658 295.665181,288.207064 C295.907827,289.145893 295.828845,289.967471 295.517802,290.627013 C295.332153,291.024366 295.031695,291.326453 294.650626,291.562585 C294.417751,291.707522 294.155562,291.830473 293.851847,291.905384 C293.389354,292.055206 292.974087,291.915969 292.60686,291.674952 C291.638718,291.03658 290.956377,289.820906 290.956377,289.820906 C290.936835,289.771237 290.880651,289.745181 290.830168,289.765537 C290.780499,289.785893 290.755257,289.842076 290.774799,289.89256" id="Fill-58" fill="#003151" mask="url(#mask-2)"></path>
            <path d="M295.735369,358.565455 C301.218524,349.047695 298.01201,336.752529 288.578931,331.12688 C279.145038,325.500417 267.033079,328.660519 261.549109,338.179094 L209.252316,428.947542 C203.768346,438.466931 206.975674,450.762097 216.408753,456.38856 C225.843461,462.013394 237.954606,458.853293 243.438575,449.334718 L295.735369,358.565455 Z" id="Fill-59" fill="#68E89D" mask="url(#mask-2)"></path>
            <path d="M250.724641,473.846148 C250.724641,473.846148 184.64342,468.057649 158.826015,467.563399 C135.632936,467.118819 122.510494,501.909252 144.216753,513.815206 C160.092987,522.522789 279.10286,557.81887 291.382555,558.299277 C303.662249,558.779684 330.765354,557.025791 325.207288,515.239328 C320.18744,477.502127 260.420723,475.126962 250.724641,473.846148" id="Fill-60" fill="#003151" mask="url(#mask-2)"></path>
            <path d="M52.9825547,695.764845 C52.9825547,695.764845 81.3143613,678.39202 94.4107481,664.322606 C103.339807,654.737262 109.577771,676.032326 109.577771,676.032326 C109.577771,676.032326 55.6158372,708.88973 52.9825547,695.764845" id="Fill-61" fill="#9D94E7" mask="url(#mask-2)"></path>
            <path d="M128.668336,685.975532 C128.668336,685.975532 142.198718,684.575837 148.132153,675.145201 C148.132153,675.145201 152.424061,683.062962 152.423247,690.158331 C152.423247,690.158331 132.343043,701.868051 128.668336,685.975532" id="Fill-62" fill="#9D94E7" mask="url(#mask-2)"></path>
            <path d="M108.419094,672.744794 C108.419094,672.744794 118.684336,681.060723 128.345405,680.133293 C139.722097,679.043013 143.589781,671.727796 144.372275,670.580519 C145.154768,669.44057 150.349679,669.53828 148.132478,675.145201 C147.178178,677.561893 141.739807,683.949679 133.983267,686.105812 C123.724539,688.954056 110.453903,686.025201 108.419094,672.744794" id="Fill-63" fill="#FFD3BB" mask="url(#mask-2)"></path>
            <path d="M151.392163,702.965903 C151.392163,702.965903 152.431959,709.532824 151.029008,713.178219 C151.029008,713.178219 50.338117,720.957557 40.2096692,719.769567 C37.3939949,719.443868 37.2661578,714.708193 37.2661578,714.708193 C37.2661578,714.708193 144.590738,696.659542 151.392163,702.965903" id="Fill-64" fill="#9D94E7" mask="url(#mask-2)"></path>
            <path d="M109.603908,676.064651 C109.397089,675.657527 104.857649,677.196458 100.470473,678.408061 C91.2010585,680.971318 73.9609567,692.606941 56.4545954,696.928163 C55.088285,697.262005 53.6470636,695.276865 52.459888,695.878595 C49.1100662,697.579562 45.8253842,698.921445 42.7198372,699.75198 C36.4142901,701.444804 33.8331196,713.031573 38.3147481,715.619257 C42.7947481,718.198799 77.9849771,715.456407 84.3703206,714.480122 C90.7556641,713.503023 109.429659,706.188621 120.001059,705.447654 C130.571644,704.715644 151.392,702.965822 151.392,702.965822 C151.392,702.965822 152.728183,697.774168 152.467623,690.801751 C152.338158,687.375389 150.655919,684.885415 145.743552,686.02455 C142.164112,686.863226 140.549455,690.760224 135.378158,690.980071 C131.49826,691.142921 130.189761,686.05712 128.668743,685.975695 C121.833934,685.610097 112.624774,682.020885 109.603908,676.064651" id="Fill-65" fill="#68E79D" mask="url(#mask-2)"></path>
            <path d="M93.7284071,678.920875 C94.3846921,677.928305 94.1151756,676.593751 93.1274911,675.943165 L85.4181781,670.816651 C84.4313079,670.165252 83.0959389,670.433954 82.4396539,671.418382 C81.7841832,672.402809 82.0536997,673.737364 83.04057,674.396092 L90.7490687,679.522606 C91.7375674,680.174005 93.0713079,679.905303 93.7284071,678.920875" id="Fill-66" fill="#003151" mask="url(#mask-2)"></path>
            <path d="M86.2379644,682.086433 C86.8950636,681.101191 86.6255471,679.766636 85.6378626,679.107908 L80.5080916,675.698646 C79.5204071,675.047247 78.1858524,675.316763 77.5295674,676.301191 C76.8740967,677.292947 77.142799,678.628316 78.1304835,679.278901 L83.2602545,682.688163 C84.2479389,683.347705 85.5824936,683.079003 86.2379644,682.086433" id="Fill-67" fill="#003151" mask="url(#mask-2)"></path>
            <path d="M78.3379542,686.008183 C78.9934249,685.023756 78.7247226,683.689201 77.7370382,683.030473 L74.4767837,680.866198 C73.4899135,680.206656 72.1545445,680.475359 71.4982595,681.467929 C70.8427888,682.452356 71.1114911,683.786097 72.0991756,684.445639 L75.3586158,686.609913 C76.3463003,687.269455 77.680855,687.001567 78.3379542,686.008183" id="Fill-68" fill="#003151" mask="url(#mask-2)"></path>
            <path d="M70.4999898,689.539501 C71.1562748,688.555074 70.8875725,687.220519 69.899888,686.561791 L67.6452316,685.064387 C66.6575471,684.404845 65.3229924,684.673547 64.6675216,685.666117 C64.0104224,686.651359 64.2799389,687.985913 65.2676234,688.644641 L67.5214656,690.142046 C68.5091501,690.792631 69.8437048,690.524743 70.4999898,689.539501" id="Fill-69" fill="#003151" mask="url(#mask-2)"></path>
            <path d="M132.122545,482.826748 C120.739338,515.23713 78.4113995,657.18685 78.4113995,657.18685 C78.4113995,657.18685 111.329873,692.770361 159.407226,678.278351 C159.407226,678.278351 180.676234,527.403644 181.092316,492.322524 C181.214453,482.019827 179.626667,469.935552 161.901272,467.789191 C149.267379,466.260031 135.758168,472.47601 132.122545,482.826748" id="Fill-70" fill="#003151" mask="url(#mask-2)"></path>
            <path d="M176.021659,751.097242 C176.021659,751.097242 159.156926,773.913323 131.713466,795.232814 C128.23255,797.934494 130.163949,806.152712 130.163949,806.152712 C130.163949,806.152712 137.407511,812.720448 151.200896,813.126758 C165.453517,813.541211 186.680183,807.479125 213.09199,788.047878 C227.728936,777.282687 233.724254,775.313018 233.724254,775.313018 L234.423695,764.906097 C234.423695,764.906097 199.244865,736.556377 176.021659,751.097242" id="Fill-71" fill="#68E79D" mask="url(#mask-2)"></path>
            <path d="M205.087756,747.394931 C205.087756,747.394931 170.285924,788.031674 153.63941,790.733354 C136.99371,793.426891 145.683379,783.629842 145.683379,783.629842 C145.683379,783.629842 170.237883,762.692234 176.159919,746.801344 C176.159919,746.801344 200.096407,739.102616 205.087756,747.394931" id="Fill-72" fill="#9D94E7" mask="url(#mask-2)"></path>
            <path d="M178.443318,771.855064 C179.010036,770.797354 178.607796,769.470941 177.544387,768.900967 L165.789069,762.636132 C164.726473,762.066158 163.402504,762.473282 162.835786,763.530992 C162.269069,764.596845 162.672122,765.923257 163.734718,766.484275 L175.490036,772.758066 C176.553445,773.319898 177.875786,772.92173 178.443318,771.855064" id="Fill-73" fill="#003151" mask="url(#mask-2)"></path>
            <path d="M171.573089,776.371542 C172.140621,775.304875 171.737567,773.979277 170.674972,773.417445 L161.618076,768.584061 C160.554667,768.014087 159.231511,768.421211 158.66398,769.487064 C158.097262,770.545588 158.500316,771.872 159.562911,772.44116 L168.620621,777.266402 C169.683216,777.836377 171.007186,777.429252 171.573089,776.371542" id="Fill-74" fill="#003151" mask="url(#mask-2)"></path>
            <path d="M164.024183,779.968081 C164.591715,778.909557 164.188662,777.583145 163.126066,777.013985 L156.390595,773.425588 C155.326372,772.856427 154.003216,773.262738 153.436499,774.320448 C152.868967,775.3863 153.27202,776.712712 154.33543,777.274545 L161.071715,780.871084 C162.13431,781.432916 163.45828,781.033934 164.024183,779.968081" id="Fill-75" fill="#003151" mask="url(#mask-2)"></path>
            <path d="M156.956336,783.45885 C157.523868,782.400326 157.120814,781.073913 156.058219,780.504753 L151.061985,777.843786 C149.999389,777.274626 148.67542,777.680936 148.107888,778.738646 C147.54117,779.805313 147.944224,781.131725 149.006819,781.692743 L154.003868,784.361852 C155.066463,784.923684 156.390433,784.524702 156.956336,783.45885" id="Fill-76" fill="#003151" mask="url(#mask-2)"></path>
            <path d="M275.10685,512.780621 C275.10685,512.780621 217.797537,543.658585 196.390107,557.225608 C177.158351,569.414107 185.764153,606.10174 210.153364,604.466728 C227.991125,603.269781 345.035399,568.800163 355.354382,562.555684 C365.673364,556.311206 381.179929,544.62917 363.028682,507.918738 C347.70288,476.923522 283.755807,508.61655 275.10685,512.780621" id="Fill-77" fill="#003151" mask="url(#mask-2)"></path>
            <path d="M294.831308,316.288896 C294.831308,316.288896 280.189476,321.788336 268.23141,331.159532 L284.331562,345.583145 C284.331562,345.583145 270.678229,373.927165 270.657059,381.386504 C270.635888,388.845028 275.40169,411.387522 276.556295,422.072102 C276.556295,422.072102 268.738687,461.957293 260.281893,471.708743 C260.281893,471.708743 269.290748,498.029354 292.51884,508.326351 C321.062351,520.977344 368.317313,505.070982 368.317313,505.070982 C368.317313,505.070982 367.323115,444.242483 372.386931,405.7977 C377.44912,367.352916 388.67029,328.233934 357.739399,321.985384 C343.077211,319.023145 338.210443,317.91658 338.210443,317.91658 C338.210443,317.91658 320.072224,333.317293 294.831308,316.288896" id="Fill-78" fill="#68E89D" mask="url(#mask-2)"></path>
            <path d="M186.723013,571.483684 C180.414209,605.816509 160.342962,754.986992 160.342962,754.986992 C160.342962,754.986992 199.005964,785.509944 244.977669,763.368061 C244.977669,763.368061 242.500723,608.558901 237.37828,573.282361 C235.873547,562.921038 232.371461,551.041954 214.239756,551.687654 C201.316804,552.146891 188.737466,560.520631 186.723013,571.483684" id="Fill-79" fill="#003151" mask="url(#mask-2)"></path>
            <path d="M234.846046,781.742087 C234.846046,781.742087 235.99658,775.353486 234.315969,772.806514 C234.315969,772.806514 216.285232,780.668092 209.118209,786.233486 C201.950372,791.791552 195.328081,797.535267 188.924824,800.839491 C182.520753,804.135573 160.353628,813.654962 149.344977,811.734962 C138.336326,809.823104 133.857954,805.770585 130.945384,803.858728 C128.032814,801.954198 129.236275,810.108092 140.016122,813.940763 C150.794341,817.764478 167.111084,816.324885 192.701313,803.492316 C218.291542,790.659746 234.846046,781.742087 234.846046,781.742087" id="Fill-80" fill="#9D94E7" mask="url(#mask-2)"></path>
            <path d="M339.024204,478.072427 C339.024204,478.072427 347.329547,469.387644 356.925476,466.826015 C356.925476,466.826015 383.662982,557.456041 387.03316,563.658178 C387.03316,563.658178 378.381761,566.398127 364.248835,565.285048 L339.024204,478.072427 Z" id="Fill-81" fill="#9D94E7" mask="url(#mask-2)"></path>
            <path d="M356.925802,466.826422 C356.925802,466.826422 382.985038,459.889018 403.307074,466.826422 L428.532519,538.179908 C428.532519,538.179908 398.823817,558.634667 387.033486,563.658585 C376.204784,532.807491 365.934656,500.953242 356.925802,466.826422" id="Fill-82" fill="#887DE1" mask="url(#mask-2)"></path>
            <path d="M356.925802,466.826422 C356.925802,466.826422 375.957252,505.209323 381.336997,509.95314 C386.717557,514.696957 419.581476,500.726066 419.581476,500.726066 L403.307074,466.826422 C403.307074,466.826422 386.188295,460.204947 356.925802,466.826422" id="Fill-83" fill="#9D94E7" mask="url(#mask-2)"></path>
            <path d="M339.950168,350.989109 C336.88859,340.508906 342.912407,329.514911 353.391796,326.453333 C363.872,323.391756 374.866809,329.415573 377.927573,339.894962 L399.763298,414.643053 C402.824875,425.123257 396.801873,436.118066 386.320855,439.17883 C375.841466,442.239593 364.847471,436.21659 361.785893,425.737201 L339.950168,350.989109 Z" id="Fill-84" fill="#68E89D" mask="url(#mask-2)"></path>
            <path d="M429.981964,527.216041 C429.981964,527.216041 433.342372,539.127695 454.823084,547.314158 C470.949293,553.458483 466.558046,557.498789 457.785323,558.68515 C449.013415,559.871511 426.893517,554.766982 426.893517,554.766982 C426.893517,554.766982 435.378809,559.103674 433.325272,561.424285 C431.661761,563.301944 412.011481,557.743878 408.995501,552.072631 C404.214229,543.083318 402.787664,532.327898 402.787664,532.327898 L429.981964,527.216041 Z" id="Fill-85" fill="#FFD3BB" mask="url(#mask-2)"></path>
            <path d="M363.006779,429.142718 C361.315583,424.183939 361.664081,418.758595 363.974107,414.057934 C366.284132,409.357272 370.366779,405.766433 375.324743,404.076865 C375.374412,404.059766 375.424081,404.042667 375.473751,404.025567 C380.430901,402.335186 385.856244,402.68287 390.556906,404.992896 C395.258382,407.302921 398.849221,411.386382 400.539603,416.343532 C412.463471,451.313099 431.981028,527.404702 431.981028,527.404702 C427.977364,535.797985 409.503674,538.340071 400.907644,532.86343 C400.907644,532.86343 374.930646,464.111471 363.006779,429.142718" id="Fill-86" fill="#68E89D" mask="url(#mask-2)"></path>
            <path d="M284.146239,271.907501 C284.146239,271.907501 284.583491,274.13773 284.646188,277.336102 C284.648631,277.442768 284.648631,277.551064 284.647003,277.658545 C284.616061,279.628214 284.362015,280.782819 284.009445,282.877883 C283.584407,285.392285 285.452295,285.833608 289.510514,285.706585" id="Stroke-87" stroke="#003151" stroke-width="0.879389313" stroke-linecap="round" stroke-linejoin="round" mask="url(#mask-2)"></path>
            <path d="M287.691888,260.843562 C287.691888,260.843562 293.539827,256.195827 298.689954,260.464122" id="Stroke-88" stroke="#003151" stroke-width="0.749109415" stroke-linecap="round" stroke-linejoin="round" mask="url(#mask-2)"></path>
            <path d="M271.168407,266.326229 C271.168407,266.326229 273.623369,260.920427 279.951715,263.029333" id="Stroke-89" stroke="#003151" stroke-width="0.749109415" stroke-linecap="round" stroke-linejoin="round" mask="url(#mask-2)"></path>
            <path d="M275.288102,267.050667 C276.191104,266.378911 277.506931,266.522219 278.222656,267.369852 C278.938382,268.2183 278.785303,269.452702 277.8823,270.123644 C276.979298,270.796214 275.664285,270.65372 274.94856,269.805272 C274.23202,268.956824 274.384285,267.722422 275.288102,267.050667" id="Fill-90" fill="#003151" mask="url(#mask-2)"></path>
            <path d="M290.537445,263.010361 C291.440448,262.338606 292.755461,262.481913 293.472,263.329547 C294.186911,264.178809 294.034646,265.411583 293.131644,266.083338 C292.227827,266.755908 290.912,266.612601 290.197089,265.764967 C289.481364,264.917333 289.633628,263.682117 290.537445,263.010361" id="Fill-91" fill="#003151" mask="url(#mask-2)"></path>
            <path d="M188.949822,248.262433 C151.651501,257.426809 110.756641,244.468031 85.9660051,212.021822 C52.5972519,168.348743 60.9612214,105.798921 104.635115,72.4301679 C148.309008,39.0597863 210.858015,47.4253842 244.229211,91.0984631 C277.598779,134.772356 269.232366,197.321364 225.558473,230.69256 C221.576794,233.73541 217.436336,236.431389 213.17374,238.786198 L233.771807,259.963196 L188.949822,248.262433 Z" id="Fill-92" fill="#9D94E7" mask="url(#mask-2)"></path>
            <path d="M234.831308,187.442646 C234.831308,187.442646 230.622453,185.671654 228.788763,182.342188 C227.271817,179.589211 227.967186,175.476438 228.778992,173.036947 C227.975328,175.45201 226.347644,178.452519 223.512427,179.74799 C220.023369,181.341476 215.30398,180.948193 215.30398,180.948193 C220.691868,182.740356 223.61258,188.570382 221.820417,193.959084 C223.61258,188.570382 229.442606,185.650483 234.831308,187.442646" id="Fill-93" fill="#FFFFFF" mask="url(#mask-2)"></path>
            <path d="M165.978707,96.3795216 C165.978707,96.3795216 161.808936,98.2417099 158.125272,97.3053232 C155.079165,96.530972 152.551735,93.2104631 151.325476,90.9517354 C152.540336,93.1892926 153.618402,96.4291908 152.625832,99.3824733 C151.404458,103.018911 147.891786,106.196112 147.891786,106.196112 C152.883135,103.487104 159.134127,105.339522 161.842321,110.33087 C159.134127,105.339522 160.987359,99.0885293 165.978707,96.3795216" id="Fill-94" fill="#FFFFFF" mask="url(#mask-2)"></path>
            <path d="M112.520142,174.480692 C112.520142,174.480692 107.957089,174.301557 105.070575,171.828682 C102.683196,169.784102 101.889303,165.688427 101.791593,163.119471 C101.888489,165.663186 101.418667,169.044763 99.2193791,171.253822 C96.512,173.971786 91.9554606,175.261557 91.9554606,175.261557 C97.6307786,175.045781 102.412865,179.478555 102.627827,185.153059 C102.412865,179.478555 106.845639,174.696468 112.520142,174.480692" id="Fill-95" fill="#FFFFFF" mask="url(#mask-2)"></path>
            <path d="M294.097344,319.084702 C294.097344,319.084702 296.334087,323.682768 302.592407,327.208468 C305.969913,329.110555 310.279735,330.698341 315.550372,331.081852 C321.309557,331.503634 326.946606,330.148723 331.759634,327.68399 C336.913018,325.043379 341.11943,321.130911 343.518209,316.760835 C345.125537,313.83198 344.05317,310.147501 341.123501,308.540173 C338.193832,306.932845 335.188438,307.692539 333.580295,310.621394 C330.892458,315.519919 323.342738,318.696305 316.430575,318.192285 C307.475461,317.539257 303.820295,311.867196 303.820295,311.867196 C301.828641,309.184244 298.033425,308.622412 295.350473,310.61488 C292.667522,312.60572 292.106504,316.401751 294.097344,319.084702" id="Fill-96" fill="#49C97E" mask="url(#mask-2)"></path>
            <path d="M353.670758,472.522178 C353.670758,472.522178 328.492539,376.049099 342.278595,344.170422 C349.106076,328.38457 358.552997,321.171135 358.552997,321.171135 C358.552997,321.171135 352.460784,317.187827 347.975084,317.91658 C347.975084,317.91658 320.879308,332.019379 327.631878,402.543145 C332.534473,453.742331 342.278595,481.473221 342.278595,481.473221 L353.670758,472.522178 Z" id="Fill-97" fill="#9D94E7" mask="url(#mask-2)"></path>
            <polygon id="Fill-98" fill="#407496" mask="url(#mask-2)" points="238.038962 303.68627 259.376366 302.253191 270.656977 348.797313 249.320387 350.230392"></polygon>
            <polygon id="Fill-99" fill="#003151" mask="url(#mask-2)" points="234.554545 303.920855 255.080142 302.542331 266.360753 349.087267 245.835155 350.464163"></polygon>
            <path d="M234.798738,343.096265 C234.798738,343.096265 243.266117,326.191634 246.966066,323.410158 C250.666015,320.627053 264.342962,318.207104 266.955888,319.087308 C269.568,319.967511 273.635176,331.739115 273.039145,335.274585 C272.443115,338.808427 260.871817,342.227461 260.871817,342.227461 C260.871817,342.227461 254.50113,348.689344 253.37828,351.538402 C252.25543,354.388275 239.988763,357.057384 234.798738,343.096265" id="Fill-100" fill="#FFD3BB" mask="url(#mask-2)"></path>
            <path d="M206.882443,435.184366 C205.86626,439.762891 206.62514,444.55312 208.98972,448.501415 C211.356743,452.448896 215.137303,455.230372 219.499237,456.235155 C219.543206,456.244112 219.586361,456.254697 219.630331,456.265282 C223.993893,457.269252 228.581374,456.412662 232.384733,453.885232 C236.188092,451.356173 238.895471,447.364723 239.911654,442.785384 C247.082748,410.484926 260.28173,347.859379 260.28173,347.859379 C250.797354,336.756275 239.755318,334.404723 227.252519,340.258361 C227.252519,340.258361 214.053537,402.883908 206.882443,435.184366" id="Fill-101" fill="#68E89D" mask="url(#mask-2)"></path>
            <path d="M259.668275,347.728936 L240.664509,436.467461 C240.592041,436.805374 240.808631,437.140031 241.146545,437.211684 C241.484458,437.284153 241.819115,437.069191 241.890768,436.730463 L260.894534,347.99031 C260.967003,347.653211 260.751226,347.319369 260.413313,347.246901 C260.074585,347.174433 259.740743,347.390209 259.668275,347.728936" id="Fill-102" fill="#003151" mask="url(#mask-2)"></path>
            <path d="M347.576997,379.333537 L368.562646,446.901578 C368.666056,447.232163 369.017812,447.416997 369.347583,447.313588 C369.678168,447.211807 369.863003,446.860051 369.760407,446.529466 L348.774758,378.961425 C348.672163,378.631654 348.321221,378.446005 347.990636,378.548601 C347.660051,378.651196 347.474402,379.002952 347.576997,379.333537" id="Fill-103" fill="#003151" mask="url(#mask-2)"></path>
            <path d="M280.630473,352.045028 C278.015919,357.19027 274.545588,364.104875 272.385384,371.864672 C271.126555,376.385384 270.311491,381.191084 270.361975,386.10345 C270.383959,388.214799 270.580193,390.348132 270.888794,392.474952 C271.192509,394.574901 271.604519,396.668336 272.063756,398.726758 C272.138667,399.063043 272.473323,399.276377 272.811237,399.201466 C273.14915,399.12574 273.362483,398.79027 273.287573,398.45317 C272.83485,396.42569 272.427725,394.36401 272.128896,392.295817 C271.829252,390.225181 271.637089,388.146402 271.615919,386.090422 C271.566249,381.298565 272.365028,376.610931 273.592102,372.200142 C275.727878,364.529913 279.16401,357.697547 281.748438,352.613374 C281.904774,352.304774 281.781822,351.926962 281.473221,351.770626 C281.164621,351.61429 280.787623,351.737242 280.630473,352.045028" id="Fill-104" fill="#003151" mask="url(#mask-2)"></path>
            <polygon id="Fill-105" fill="#FFFFFF" mask="url(#mask-2)" points="137.497893 209.123664 142.282422 220.580153 148.815959 218.238372 148.083949 214.950433 150.052804 217.935471 160.980031 214.023817 160.58512 211.396234 162.615043 213.623206 164.193059 212.98972 164.031837 210.305954 165.149802 212.507684 167.99316 211.316438 162.882117 199.504936"></polygon>
            <path d="M108.499786,110.674239 L137.223247,179.619176 C137.70284,180.821008 139.06915,181.407267 140.270982,180.926046 C141.472814,180.445639 142.05826,179.080142 141.577852,177.87831 L112.855206,108.93256 C112.373985,107.731542 111.008489,107.145282 109.806656,107.626504 C108.604824,108.106097 108.018565,109.472407 108.499786,110.674239" id="Fill-106" fill="#FFFFFF" mask="url(#mask-2)"></path>
            <path d="M157.609608,186.74288 C154.552102,179.472448 146.225588,176.002117 138.908743,178.947257 C138.907929,178.948071 138.907115,178.948071 138.9063,178.948071 C132.392305,181.569954 129.237089,188.977995 131.859786,195.491176 C134.300906,201.554891 136.76971,207.687817 136.76971,207.687817 L162.337954,197.98115 C162.337954,197.98115 160.032814,192.502066 157.609608,186.74288" id="Fill-107" fill="#FFFFFF" mask="url(#mask-2)"></path>
            <path d="M191.721364,113.190921 L188.380499,120.043644 L175.407064,130.004356 C175.407064,130.004356 167.762076,151.827053 164.33083,161.618402 C163.255206,164.687308 164.242891,168.101455 166.791491,170.122422 C171.47831,173.832142 179.856122,178.560489 190.215817,176.153567 C193.055104,175.516824 195.284519,173.317537 195.960346,170.486392 C198.20686,161.115196 203.525537,138.823491 203.525537,138.823491 L198.356682,124.886799 L198.546402,114.990412 L191.721364,113.190921 Z" id="Fill-108" fill="#FFFFFF" mask="url(#mask-2)"></path>
            <path d="M203.847654,105.749008 L201.844601,114.680509 L189.481852,111.071756 L196.886636,90.9516539 L206.266789,93.2478372 L206.299359,97.1114504 L225.522972,103.929975 L224.952997,106.757048 L209.641038,105.698524 C209.641038,105.698524 211.646534,113.53486 213.481038,120.374555 C214.051827,122.498931 212.173354,122.412621 210.740275,120.45028 C207.559003,116.094046 203.847654,105.749008 203.847654,105.749008" id="Fill-109" fill="#FFFFFF" mask="url(#mask-2)"></path>
            <path d="M264.06001,518.061272 L224.500519,540.543511 C224.199247,540.714504 224.093394,541.098015 224.264387,541.398473 C224.435379,541.698931 224.818891,541.803969 225.119349,541.632977 L264.67884,519.151552 C264.980112,518.98056 265.08515,518.597048 264.914158,518.295776 C264.743165,517.996132 264.360468,517.89028 264.06001,518.061272" id="Fill-110" fill="#000000" mask="url(#mask-2)"></path>
          </g>
            <g id="leg">
            <path d="M913.695837,429.731908 L913.695837,592.752774 C913.695837,593.37486 914.200672,593.880509 914.827644,593.880509 C915.444845,593.880509 915.950494,593.37486 915.950494,592.752774 L915.950494,429.731908 C915.950494,429.109008 915.444845,428.604173 914.827644,428.604173 C914.200672,428.604173 913.695837,429.109008 913.695837,429.731908" id="Fill-111" fill="#D3E4FF" mask="url(#mask-2)"></path>
            <polygon id="Fill-112" fill="#FFD8DB" mask="url(#mask-2)" points="835.237618 867.028356 808.890137 843.536448 781.071308 876.939399 807.416346 900.43945"></polygon>
            <path d="M963.161486,744.507684 L827.865812,884.002443 L792.861232,858.354402 L906.210443,704.759288 C906.210443,704.759288 928.505405,678.801832 955.764845,699.703613 C982.056142,719.853028 963.161486,744.507684 963.161486,744.507684" id="Fill-113" fill="#003151" mask="url(#mask-2)"></path>
            <path d="M848.614758,931.30398 C848.614758,931.30398 837.1257,902.197822 835.230127,884.198025 C833.936285,871.927288 817.180662,884.426015 817.180662,884.426015 C817.180662,884.426015 839.20855,939.693191 848.614758,931.30398" id="Fill-114" fill="#9D94E7" mask="url(#mask-2)"></path>
            <path d="M797.188967,881.105995 C797.188967,881.105995 787.799858,872.391084 788.668662,861.934494 C788.668662,861.934494 780.960977,865.466707 776.942656,870.812254 C776.942656,870.812254 785.429578,890.984468 797.188967,881.105995" id="Fill-115" fill="#9D94E7" mask="url(#mask-2)"></path>
            <path d="M819.923542,882.603318 C819.923542,882.603318 807.489954,883.051155 800.743898,876.883216 C792.796824,869.624997 794.023084,861.934412 794.08171,860.633242 C794.140336,859.3223 790.174127,856.458585 788.66858,861.934412 C788.020438,864.294921 788.499216,872.179298 793.119267,878.192529 C799.231023,886.14286 810.875603,891.447695 819.923542,882.603318" id="Fill-116" fill="#9D94E7" mask="url(#mask-2)"></path>
            <path d="M770.468234,881.032794 C770.468234,881.032794 765.972763,885.386585 764.96798,888.917985 C764.96798,888.917985 836.352407,951.760122 844.644723,956.602463 C846.94742,957.953303 849.721567,954.454473 849.721567,954.454473 C849.721567,954.454473 779.159532,880.129791 770.468234,881.032794" id="Fill-117" fill="#9D94E7" mask="url(#mask-2)"></path>
            <path d="M817.14915,884.433751 C817.531033,884.239145 820.086148,887.965964 822.69826,891.367084 C828.223756,898.543878 834.610728,917.055837 845.344163,930.214107 C846.182025,931.246575 848.395155,930.56342 848.948845,931.68627 C850.503247,934.860214 852.212356,937.732071 854.082687,940.117008 C857.875461,944.95772 853.253781,955.137466 848.419583,954.551206 C843.586198,953.957618 818.654697,931.979399 814.398616,927.626422 C810.150677,923.280774 800.231491,907.201791 792.69317,900.66744 C785.154036,894.124947 770.468234,881.032631 770.468234,881.032631 C770.468234,881.032631 772.402891,876.370239 776.546606,871.268153 C778.580601,868.761893 781.261109,867.833649 784.308845,871.479858 C786.530117,874.132682 785.540804,877.980824 789.308336,881.073344 C792.133781,883.392326 795.99658,880.308763 797.188641,881.105913 C802.543145,884.69431 811.501517,887.208712 817.14915,884.433751" id="Fill-118" fill="#68E79D" mask="url(#mask-2)"></path>
            <path d="M827.483115,895.565272 C827.548254,894.450565 828.508254,893.596417 829.622962,893.661557 L838.321588,894.174534 C839.436295,894.23886 840.291257,895.191532 840.225303,896.314382 C840.160163,897.420947 839.200977,898.275094 838.08627,898.209954 L829.38683,897.705934 C828.272122,897.640794 827.417975,896.67998 827.483115,895.565272" id="Fill-119" fill="#FFFFFF" mask="url(#mask-2)"></path>
            <path d="M831.323766,902.189028 C831.388906,901.074321 832.348906,900.228316 833.463613,900.285313 L839.248855,900.626483 C840.364377,900.691623 841.21771,901.652438 841.153384,902.767145 C841.088244,903.881852 840.128244,904.727858 839.012723,904.67086 L833.227481,904.32969 C832.112774,904.26455 831.258626,903.303735 831.323766,902.189028" id="Fill-120" fill="#FFFFFF" mask="url(#mask-2)"></path>
            <path d="M835.05083,909.61026 C835.115969,908.495552 836.075969,907.649547 837.190677,907.714687 L840.869455,907.926392 C841.983349,907.991532 842.837496,908.950718 842.772356,910.066239 C842.707216,911.180947 841.748031,912.035908 840.632509,911.969954 L836.954545,911.750107 C835.839837,911.684967 834.98569,910.724967 835.05083,909.61026" id="Fill-121" fill="#FFFFFF" mask="url(#mask-2)"></path>
            <path d="M838.956621,916.705547 C839.021761,915.59084 839.973618,914.736692 841.096468,914.801832 L843.635298,914.948397 C844.750005,915.021679 845.604153,915.973537 845.539013,917.088244 C845.473873,918.202952 844.513873,919.057913 843.399165,918.992774 L840.860336,918.846209 C839.737486,918.781069 838.891481,917.820254 838.956621,916.705547" id="Fill-122" fill="#FFFFFF" mask="url(#mask-2)"></path>
            </g>
            <polygon id="Fill-123" fill="#FFD8DB" mask="url(#mask-2)" points="867.330524 893.229842 832.023858 893.229842 833.49602 936.68226 868.803501 936.68226"></polygon>
            <path d="M923.688712,580.234504 L969.622148,717.525089 C969.622148,717.525089 976.628763,748.454351 946.122911,752.196641 C917.813089,755.663715 901.489832,716.876947 901.489832,716.876947 L809.019603,554.672774 L923.688712,580.234504 Z" id="Fill-124" fill="#003151" mask="url(#mask-2)"></path>
            <path d="M903.264081,571.015328 C903.264081,571.015328 893.65431,711.024692 887.282809,747.770952 C883.759552,768.097059 879.072733,796.479349 848.802198,792.206982 C820.558331,788.22856 823.512427,759.01655 821.730036,741.074565 C817.466626,698.127796 804.788763,554.673344 804.788763,554.673344 L903.264081,571.015328 Z" id="Fill-125" fill="#003151" mask="url(#mask-2)"></path>
            <path d="M888.576758,739.503715 L870.569445,904.858219 L827.156926,905.899644 L821.738097,743.986972 C821.738097,743.986972 818.931379,703.835522 850.950107,705.101679 C889.09769,706.611298 888.576758,739.503715 888.576758,739.503715" id="Fill-126" fill="#003151" mask="url(#mask-2)"></path>
            <path d="M919.953751,934.81942 C919.953751,934.81942 892.222046,920.318453 879.007593,907.941863 C870.007695,899.503796 865.516295,919.920285 865.516295,919.920285 C865.516295,919.920285 918.317924,947.318148 919.953751,934.81942" id="Fill-127" fill="#9D94E7" mask="url(#mask-2)"></path>
            <path d="M848.216346,930.481751 C848.216346,930.481751 835.416346,930.034728 829.232122,921.555135 C829.232122,921.555135 825.708865,929.270148 826.164845,935.942107 C826.164845,935.942107 845.783369,945.649588 848.216346,930.481751" id="Fill-128" fill="#9D94E7" mask="url(#mask-2)"></path>
            <path d="M866.386646,916.746911 C866.386646,916.746911 857.280896,925.22569 848.143389,924.973272 C837.386341,924.672 833.284967,918.056224 832.471532,917.031898 C831.665425,916.005944 826.791328,916.437496 829.232448,921.555053 C830.282015,923.768997 835.806697,929.416631 843.22858,930.945791 C853.050056,932.963501 865.337079,929.358819 866.386646,916.746911" id="Fill-129" fill="#9D94E7" mask="url(#mask-2)"></path>
            <path d="M827.954646,947.911817 C827.954646,947.911817 827.400957,954.136753 828.955359,957.472733 C828.955359,957.472733 924.054799,958.318738 933.493578,956.553445 C936.121975,956.06571 935.934697,951.606066 935.934697,951.606066 C935.934697,951.606066 833.944265,941.540316 827.954646,947.911817" id="Fill-130" fill="#9D94E7" mask="url(#mask-2)"></path>
            <path d="M865.491298,919.944224 C865.66229,919.554198 870.02341,920.701476 874.223308,921.563766 C883.092112,923.378728 900.042341,933.199389 916.763766,936.137201 C918.065751,936.365191 919.294453,934.404478 920.449873,934.892214 C923.704427,936.275623 926.878372,937.333333 929.847939,937.910636 C935.885598,939.091298 939.051399,949.81659 935.007023,952.53374 C930.962646,955.250891 897.722545,954.926005 891.668601,954.421985 C885.606514,953.909008 867.591247,948.236947 857.606107,948.221476 C847.629924,948.213333 827.954402,947.912061 827.954402,947.912061 C827.954402,947.912061 826.368244,943.119389 826.164682,936.544326 C826.066972,933.322341 827.491094,930.864122 832.177913,931.629517 C835.595318,932.182392 837.361425,935.738219 842.235522,935.616896 C845.889059,935.519186 846.792061,930.661374 848.216183,930.481425 C854.612112,929.70056 863.033893,925.737608 865.491298,919.944224" id="Fill-131" fill="#68E79D" mask="url(#mask-2)"></path>
            <path d="M880.593913,921.612539 C879.910758,920.725822 880.081751,919.456407 880.960326,918.773252 L887.87656,913.467603 C888.764092,912.783634 890.033506,912.954626 890.716662,913.841344 C891.392489,914.728875 891.229639,915.997476 890.342921,916.673303 L883.425873,921.987094 C882.539155,922.662107 881.26974,922.500071 880.593913,921.612539" id="Fill-132" fill="#FFFFFF" mask="url(#mask-2)"></path>
            <path d="M887.828275,924.110901 C887.152448,923.223369 887.315298,921.954768 888.202015,921.270799 L892.799267,917.739399 C893.686799,917.064387 894.964356,917.226422 895.640183,918.113954 C896.323338,919.000672 896.152346,920.270087 895.265628,920.953242 L890.667562,924.476499 C889.780845,925.160468 888.51143,924.997618 887.828275,924.110901" id="Fill-133" fill="#FFFFFF" mask="url(#mask-2)"></path>
            <path d="M895.501679,927.284438 C894.825852,926.396906 894.988702,925.128305 895.87542,924.444336 L898.805089,922.206779 C899.683664,921.523623 900.961221,921.693802 901.636234,922.573191 C902.320204,923.459908 902.149211,924.737466 901.262494,925.412478 L898.340967,927.658178 C897.454249,928.334005 896.184835,928.171155 895.501679,927.284438" id="Fill-134" fill="#FFFFFF" mask="url(#mask-2)"></path>
            <path d="M903.093089,930.099298 C902.418076,929.21258 902.580926,927.94398 903.467644,927.26001 L905.485354,925.705608 C906.372071,925.029781 907.650443,925.193445 908.325455,926.079349 C909.009425,926.96688 908.838433,928.236295 907.951715,928.920265 L905.933191,930.473852 C905.045659,931.148865 903.777059,930.978687 903.093089,930.099298" id="Fill-135" fill="#FFFFFF" mask="url(#mask-2)"></path>
            <path d="M850.177221,358.197252 C850.177221,358.197252 807.644906,372.211298 800.54058,382.607634 L811.932743,432.244275 L917.715135,423.294046 L912.832896,369.588601 C912.832896,369.588601 895.907908,361.838575 885.981394,358.197252 C876.053252,354.555115 850.177221,358.197252 850.177221,358.197252" id="Fill-136" fill="#68E89D" mask="url(#mask-2)"></path>
            <path d="M791.052621,393.016753 C794.920305,380.67599 807.815573,374.766982 820.419338,377.664896 C837.288142,381.542351 844.164478,397.719043 840.291094,410.059807 L790.698422,533.077415 C786.829924,545.418178 779.710127,550.800366 767.369364,546.932682 C755.029415,543.064997 748.149822,529.905913 752.017506,517.56515 L791.052621,393.016753 Z" id="Fill-137" fill="#68E89D" mask="url(#mask-2)"></path>
            <polygon id="Fill-138" fill="#407496" mask="url(#mask-2)" points="1029.78044 338.50341 1004.03469 333.192061 982.519776 387.982087 1008.25738 393.294249"></polygon>
            <polygon id="Fill-139" fill="#003151" mask="url(#mask-2)" points="1033.97887 339.370911 1009.21755 334.261496 987.70345 389.052336 1012.46477 394.161751"></polygon>
            <path d="M1010.8857,401.713506 C1010.8857,401.713506 1020.58504,380.477883 1019.52733,373.517679 C1017.59919,360.916356 999.412112,350.17885 994.88,353.018952 C990.356031,355.859868 989.159898,360.091522 987.092519,367.834219 C985.034097,375.575288 990.860051,382.328672 991.861578,385.389435 C992.853333,388.451013 990.282748,394.238697 990.282748,394.238697 C990.282748,394.238697 1007.41944,408.030453 1010.8857,401.713506" id="Fill-140" fill="#FFD8DB" mask="url(#mask-2)"></path>
            <path d="M1012.61126,401.937751 C1012.61126,401.937751 1024.36902,384.340193 1026.01299,382.749964 C1027.65696,381.159735 1022.65258,375.564214 1016.30551,382.12055 C1009.95843,388.6777 1009.73859,397.439023 1012.61126,401.937751" id="Fill-141" fill="#FFD8DB" mask="url(#mask-2)"></path>
            <path d="M880.447593,402.988132 C875.426931,391.06915 881.448305,378.227623 892.946321,372.295817 C908.325048,364.3577 924.022148,372.264875 929.042809,384.182229 L970.672122,510.118107 C975.692784,522.035461 973.731257,530.745486 961.819603,535.766148 C949.898178,540.787623 936.146321,535.188031 931.125659,523.270677 L880.447593,402.988132 Z" id="Fill-142" fill="#68E89D" mask="url(#mask-2)"></path>
            <path d="M973.30858,524.405089 C971.224916,529.716438 967.108071,533.980662 961.875705,536.259746 C956.643338,538.537201 950.720489,538.645496 945.41484,536.556947 C945.357842,536.534962 945.300845,536.513791 945.25199,536.494249 C939.939013,534.404885 935.673975,530.291298 933.395705,525.059746 C931.118249,519.827379 931.012397,513.904529 933.103389,508.592366 C947.831532,471.127125 988.459318,392.145751 988.459318,392.145751 C997.703491,387.992265 1009.94166,391.653944 1013.2296,402.262799 C1013.2296,402.262799 988.045679,486.939847 973.30858,524.405089" id="Fill-143" fill="#68E89D" mask="url(#mask-2)"></path>
            <path d="M900.318779,362.363929 C900.318779,362.363929 908.667277,361.058687 916.088346,369.35426 C918.366616,371.898789 911.840407,403.917517 911.588804,466.223878 C911.506565,486.291053 904.956743,492.327084 932.216183,586.401384 C932.216183,586.401384 864.035013,628.818076 799.629517,589.47029 C802.656896,574.308153 805.236438,539.273445 809.491705,498.673344 C813.812926,457.470697 822.437455,407.747746 817.262901,370.610646 C817.262901,370.610646 819.020051,366.906626 831.250891,364.547746 C833.471349,364.117008 840.290687,410.059399 840.290687,410.059399 C840.290687,410.059399 869.225852,417.430799 897.885802,412.469578 C900.066361,412.090952 901.164784,377.048916 900.318779,362.363929" id="Fill-144" fill="#277BFD" mask="url(#mask-2)"></path>
            <path d="M897.739237,510.729852 L838.883664,509.236519 C838.883664,509.236519 826.726107,550.488835 867.208957,554.41026 C905.01374,558.074382 897.739237,510.729852 897.739237,510.729852" id="Fill-145" fill="#74A9FE" mask="url(#mask-2)"></path>
            <polygon id="Fill-146" fill="#74A9FE" mask="url(#mask-2)" points="902.368733 438.494616 877.274382 437.571257 876.850972 448.956092 901.95428 449.878636"></polygon>
            <path d="M1017.80283,200.270249 C1042.29464,200.270249 1062.15011,220.12572 1062.15011,244.618341 C1062.15011,269.110148 1042.29464,288.965618 1017.80283,288.965618 C993.310209,288.965618 973.454738,269.110148 973.454738,244.618341 C973.454738,220.12572 993.310209,200.270249 1017.80283,200.270249" id="Fill-147" fill="#9D94E7" mask="url(#mask-2)"></path>
            <path d="M751.699949,288.965374 C771.023715,288.965374 786.689873,304.630718 786.689873,323.955298 C786.689873,343.279064 771.023715,358.944407 751.699949,358.944407 C732.376183,358.944407 716.710025,343.279064 716.710025,323.955298 C716.710025,304.630718 732.376183,288.965374 751.699949,288.965374" id="Fill-148" fill="#9D94E7" mask="url(#mask-2)"></path>
            <path d="M1021.57036,257.612784 C1023.79978,257.413293 1025.47632,256.839247 1026.59102,255.891461 C1027.70573,254.94286 1028.25861,253.753242 1028.25861,252.322606 C1028.25861,250.858585 1027.68945,249.734921 1026.54135,248.953242 C1025.39408,248.171562 1023.73464,247.481079 1021.57036,246.881791 L1021.57036,257.612784 Z M1011.99235,236.000977 C1011.99235,237.431613 1012.53789,238.546321 1013.63632,239.344285 C1014.73474,240.143064 1016.31357,240.808305 1018.38013,241.341639 L1018.38013,230.560163 C1016.24843,230.826422 1014.65331,231.450137 1013.58746,232.431308 C1012.52161,233.412478 1011.99235,234.602911 1011.99235,236.000977 L1011.99235,236.000977 Z M1033.15713,252.022962 C1033.15713,254.651359 1032.16456,256.880774 1030.17861,258.71202 C1028.20242,260.541639 1025.33789,261.605863 1021.57036,261.904692 L1021.57036,267.545812 L1018.38013,267.545812 L1018.38013,261.904692 C1015.94716,261.771969 1013.64446,261.314361 1011.4639,260.532682 C1009.28252,259.750188 1007.5498,258.760875 1006.24782,257.563115 L1008.09453,253.669374 C1009.29148,254.768611 1010.80436,255.67487 1012.6356,256.389781 C1014.46604,257.105506 1016.37871,257.52973 1018.38013,257.663267 L1018.38013,246.083013 C1016.05301,245.517109 1014.10858,244.902351 1012.56232,244.236295 C1011.01606,243.571053 1009.72222,242.589069 1008.67265,241.291155 C1007.62308,239.993242 1007.10196,238.295532 1007.10196,236.199654 C1007.10196,233.572071 1008.05382,231.341842 1009.96649,229.51141 C1011.87917,227.680977 1014.68588,226.617567 1018.38013,226.317109 L1018.38013,220.627135 L1021.57036,220.627135 L1021.57036,226.26744 C1023.46593,226.334209 1025.30532,226.633038 1027.0869,227.165557 C1028.86929,227.698891 1030.40741,228.413802 1031.70858,229.311919 L1030.05728,233.304183 C1027.36375,231.608102 1024.5326,230.676601 1021.57036,230.509679 L1021.57036,242.140417 C1024.00252,242.738891 1025.99662,243.362606 1027.55835,244.011562 C1029.12904,244.660519 1030.44731,245.625405 1031.52945,246.907033 C1032.6124,248.187847 1033.15713,249.8937 1033.15713,252.022962 L1033.15713,252.022962 Z" id="Fill-149" fill="#FFFFFF" mask="url(#mask-2)"></path>
            <path d="M754.675461,334.207919 C756.434239,334.050768 757.753323,333.597232 758.632712,332.849751 C759.512102,332.101455 759.951796,331.16344 759.951796,330.033262 C759.951796,328.877842 759.499888,327.992753 758.593628,327.374738 C757.688183,326.758351 756.381313,326.214433 754.675461,325.741354 L754.675461,334.207919 Z M747.114341,317.155908 C747.114341,318.284458 747.546707,319.164662 748.413883,319.794891 C749.280244,320.424305 750.52686,320.95031 752.154545,321.369649 L752.154545,312.863186 C750.474748,313.073262 749.21429,313.565069 748.374799,314.340234 C747.533679,315.115399 747.114341,316.052601 747.114341,317.155908 L747.114341,317.155908 Z M763.811338,329.79713 C763.811338,331.871837 763.030473,333.629802 761.468743,335.07428 C759.906198,336.517944 757.642585,337.358249 754.675461,337.594382 L754.675461,342.045069 L752.154545,342.045069 L752.154545,337.594382 C750.237802,337.489344 748.419583,337.129445 746.700702,336.51143 C744.981008,335.894229 743.608997,335.113364 742.584672,334.168835 L744.042178,331.097486 C744.988336,331.963847 746.182025,332.678758 747.62569,333.242219 C749.070168,333.807308 750.579786,334.142779 752.154545,334.247817 L752.154545,325.111125 C750.316784,324.664102 748.788438,324.178809 747.567878,323.653618 C746.346504,323.129242 745.322178,322.354076 744.495715,321.330565 C743.667623,320.306239 743.254799,318.967613 743.254799,317.313873 C743.254799,315.239165 744.009608,313.480387 745.519226,312.036723 C747.028031,310.592244 749.240346,309.752753 752.154545,309.515807 L752.154545,305.026036 L754.675461,305.026036 L754.675461,309.476723 C756.171237,309.52802 757.622229,309.764967 759.026809,310.18512 C760.431389,310.605272 761.645435,311.170361 762.669761,311.878758 L761.370219,315.029089 C759.242585,313.690463 757.012356,312.955196 754.675461,312.824102 L754.675461,321.999878 C756.591389,322.472142 758.166962,322.964763 759.401364,323.476112 C760.634137,323.988275 761.678819,324.750412 762.531338,325.760896 C763.384672,326.771379 763.811338,328.117333 763.811338,329.79713 L763.811338,329.79713 Z" id="Fill-150" fill="#FFFFFF" mask="url(#mask-2)"></path>
            <path d="M901.230005,541.377954 L897.413618,549.203705 L882.595908,560.581211 C882.595908,560.581211 873.473873,586.63312 869.69087,597.417852 C868.641303,600.415104 869.559776,603.75027 871.993567,605.78915 C877.298402,610.186911 887.575043,616.465588 900.407613,613.066911 C903.142677,612.364214 905.257282,610.205639 905.916824,607.460804 C908.382372,597.179277 914.71316,570.65429 914.71316,570.65429 L908.813109,554.736529 L909.024814,543.432305 L901.230005,541.377954 Z" id="Fill-151" fill="#9D94E7" mask="url(#mask-2)"></path>
            <path d="M913.330076,537.251013 L911.04285,547.451115 L896.925394,543.330198 L905.379746,520.349639 L916.096081,522.97315 L916.136794,527.385567 L938.091399,535.172234 L937.44,538.401547 L919.953995,537.194015 C919.953995,537.194015 922.239593,546.141802 924.331399,553.955338 C924.982799,556.380987 922.842137,556.281649 921.207125,554.040835 C917.569059,549.066585 913.330076,537.251013 913.330076,537.251013" id="Fill-152" fill="#003151" mask="url(#mask-2)"></path>
            <polygon id="Fill-153" fill="#FFD8DB" mask="url(#mask-2)" points="887.39656 338.696631 887.42913 354.630677 873.726127 377.962178 851.153506 359.391593 851.120936 333.975613"></polygon>
            <path d="M887.42913,349.174555 L874.548519,348.829313 C874.548519,348.829313 879.121344,353.806819 887.42913,353.272672 L887.42913,349.174555 Z" id="Fill-154" fill="#FFA3AB" mask="url(#mask-2)"></path>
            <path d="M921.37714,291.219705 C921.37714,291.219705 908.757089,344.784285 899.293069,347.526677 C888.462738,350.66398 870.845639,349.042809 863.383858,344.737059 C855.914748,340.431308 837.1577,325.545201 852.130117,289.969832 C867.110677,254.394463 921.37714,291.219705 921.37714,291.219705" id="Fill-155" fill="#FFD8DB" mask="url(#mask-2)"></path>
            <polygon id="Fill-156" fill="#277BFD" mask="url(#mask-2)" points="850.657466 356.557598 843.097975 358.982433 857.361995 395.171746 873.629069 377.659684"></polygon>
            <polygon id="Fill-157" fill="#277BFD" mask="url(#mask-2)" points="887.42913 354.630921 894.175186 359.713466 891.896102 391.050667 873.352387 377.659522"></polygon>
            <path d="M874.157842,292.371868 C874.157842,292.371868 924.689344,318.615939 938.188784,279.63945 C946.805985,254.75029 933.720997,257.687288 916.92629,253.474361 C899.113771,249.007389 867.346646,231.278738 860.576163,264.895023 C860.576163,264.895023 839.916214,257.058687 836.01026,288.720774 C832.096977,320.38286 843.86288,348.198433 854.9383,335.342249 C859.07143,330.540621 859.876723,315.526677 859.876723,315.526677 C859.876723,315.526677 849.209242,311.91141 853.733211,300.429679 C857.150616,291.733496 863.522117,298.91599 862.733109,302.47426 C862.733109,302.47426 868.689344,306.744997 874.157842,292.371868" id="Fill-158" fill="#003151" mask="url(#mask-2)"></path>
            <path d="M882.929262,541.851033 C882.929262,541.851033 902.596641,530.353018 905.835725,533.234646 C909.073995,536.117089 900.968957,542.302941 900.034198,542.969812 C899.407226,543.408692 918.553486,542.261415 924.167735,545.66742 C924.648142,545.958107 926.666667,550.004926 925.959084,551.743349 C925.348397,553.248896 921.100458,554.157598 920.791858,555.640346 C919.620153,561.281466 919.115318,566.882687 915.217506,568.319023 C897.60855,574.811847 877.298728,561.13083 877.298728,561.13083 L882.929262,541.851033 Z" id="Fill-159" fill="#FFD8DB" mask="url(#mask-2)"></path>
            <path d="M768.294188,549.293028 C762.707623,548.13028 757.809913,544.796743 754.681567,540.022799 C751.552407,535.249669 750.447471,529.429415 751.611033,523.842036 C751.621618,523.786667 751.633018,523.729669 751.646046,523.673486 C752.807165,518.086921 756.142331,513.190025 760.914646,510.060865 C765.68859,506.932519 771.508031,505.827583 777.096224,506.990331 C816.514036,515.190636 886.826911,536.816285 886.826911,536.816285 C892.482687,545.225852 892.03485,560.868397 882.131949,565.893944 C882.131949,565.893944 807.709557,557.493333 768.294188,549.293028" id="Fill-160" fill="#68E89D" mask="url(#mask-2)"></path>
            <path d="M954.007532,461.14174 L942.411807,485.215023 C942.265242,485.52688 942.395522,485.901435 942.704936,486.052071 C943.022494,486.201079 943.397048,486.069985 943.542799,485.758127 L955.138524,461.685659 C955.284275,461.372987 955.154809,460.999247 954.845394,460.848611 C954.528651,460.698789 954.154097,460.829883 954.007532,461.14174" id="Fill-161" fill="#003151" mask="url(#mask-2)"></path>
            <path d="M799.540275,511.386707 L782.707298,507.629761 C782.369384,507.55485 782.034728,507.767369 781.959817,508.105282 C781.884092,508.443196 782.097425,508.777852 782.434524,508.853578 L799.26343,512.610524 C799.605415,512.685435 799.938443,512.472916 800.011725,512.135817 C800.093964,511.797903 799.873303,511.462433 799.540275,511.386707" id="Fill-162" fill="#003151" mask="url(#mask-2)"></path>
            <path d="M902.328183,315.408611 C902.328183,315.408611 902.149048,317.745506 902.417751,321.039145 C902.434036,321.149883 902.442992,321.260621 902.458463,321.371359 C902.694595,323.393954 903.060193,324.555074 903.622025,326.674565 C904.297852,329.217466 902.539888,329.855837 898.610321,330.126982" id="Stroke-163" stroke="#003151" stroke-width="0.879389313" stroke-linecap="round" stroke-linejoin="round" mask="url(#mask-2)"></path>
            <path d="M897.747216,304.384407 C897.747216,304.384407 891.611847,300.184509 887.087064,305.081405" id="Stroke-164" stroke="#003151" stroke-width="0.749109415" stroke-linecap="round" stroke-linejoin="round" mask="url(#mask-2)"></path>
            <path d="M914.265975,308.388071 C914.265975,308.388071 911.328163,303.072651 905.445211,305.865527" id="Stroke-165" stroke="#003151" stroke-width="0.749109415" stroke-linecap="round" stroke-linejoin="round" mask="url(#mask-2)"></path>
            <path d="M910.368081,309.539501 C909.424366,308.938585 908.171237,309.214616 907.568692,310.157517 C906.966148,311.101232 907.242992,312.354361 908.186707,312.956092 C909.130422,313.557822 910.384366,313.280977 910.986097,312.338076 C911.588641,311.394361 911.311796,310.140417 910.368081,309.539501" id="Fill-166" fill="#003151" mask="url(#mask-2)"></path>
            <path d="M895.224916,306.894005 C894.281201,306.292275 893.028071,306.569934 892.425527,307.512835 C891.822982,308.454921 892.107969,309.708865 893.043542,310.310595 C893.987257,310.912326 895.241201,310.634667 895.842931,309.69258 C896.445476,308.748865 896.168631,307.494921 895.224916,306.894005" id="Fill-167" fill="#003151" mask="url(#mask-2)"></path>
            <path d="M888.714911,332.110249 C888.714911,332.110249 888.918473,332.749435 889.381781,333.624753 C889.715623,334.254168 890.179746,334.995949 890.798575,335.701089 C891.164173,336.117985 891.586768,336.512896 892.059033,336.865466 C892.36112,337.09427 892.694148,337.301903 893.043461,337.476153 C893.393588,337.647145 893.76,337.786382 894.142697,337.884906 C894.68743,338.025771 895.27369,338.093354 895.884377,338.066483 C896.429109,338.04287 896.990127,337.954117 897.576387,337.768468 C898.292926,337.542107 899.041221,337.183837 899.822087,336.665975 C899.862799,336.639919 899.887226,336.580478 899.862799,336.534066 C899.830229,336.486025 899.773232,336.468926 899.724377,336.494168 C898.544529,337.006331 897.494962,337.202565 896.534962,337.215593 C895.859135,337.22455 895.248448,337.12114 894.679288,336.954219 C894.272163,336.834524 893.889466,336.674117 893.523868,336.496611 C893.06056,336.269435 892.629008,336.012947 892.230025,335.723074 C891.945852,335.516254 891.67715,335.302107 891.424733,335.081445 C889.805191,333.672794 888.894046,332.032081 888.894046,332.032081 C888.869618,331.983226 888.812621,331.960427 888.76458,331.981598 C888.714911,332.003583 888.690483,332.059766 888.714911,332.110249" id="Fill-168" fill="#003151" mask="url(#mask-2)"></path>
            <path d="M897.836295,635.581964 L877.916499,831.566901 C877.884743,831.908885 878.13716,832.217486 878.479145,832.250056 C878.820316,832.282626 879.128916,832.031023 879.169628,831.689038 L899.081282,635.708987 C899.113852,635.36456 898.870392,635.055959 898.520265,635.021761 C898.17828,634.986748 897.868865,635.238351 897.836295,635.581964" id="Fill-169" fill="#000000" mask="url(#mask-2)"></path>
            <path d="M823.52798,816.236377 L825.618972,878.762585 C825.636071,879.10457 825.920244,879.380601 826.270372,879.364316 C826.620499,879.356987 826.889201,879.063043 826.872102,878.721059 L824.781109,816.195664 C824.772967,815.846351 824.480651,815.576835 824.138667,815.585574 C823.788539,815.602076 823.519837,815.886249 823.52798,816.236377" id="Fill-170" fill="#000000" mask="url(#mask-2)"></path>
            <polygon id="Fill-171" fill="#A8C9FE" mask="url(#mask-2)" points="999.172153 911.35487 1002.33225 953.243115 1025.80625 952.683725 1026.9633 941.347746 1030.10467 953.029781 1069.3637 952.108051 1070.89287 943.250646 1075.04147 952.564031 1080.78355 952.210646 1083.12452 943.419196 1084.36951 951.682198 1094.76828 950.886677 1090.93806 907.500214"></polygon>
            <path d="M1010.84043,502.377445 L1029.72043,816.309659 C1029.9818,820.681364 1033.74526,824.022229 1038.11778,823.752712 C1042.4903,823.492153 1045.82221,819.727878 1045.56165,815.356173 L1026.68083,501.424774 C1026.41213,497.053069 1022.65681,493.717903 1018.2843,493.980092 C1013.91096,494.243908 1010.57173,498.00574 1010.84043,502.377445" id="Fill-172" fill="#D3E4FF" mask="url(#mask-2)"></path>
            <path d="M1086.97429,852.885578 C1085.24727,830.729852 1066.05867,814.058097 1043.88014,815.448835 C1040.43505,815.661354 1036.95577,815.879573 1033.50986,816.092092 C1022.73653,816.767919 1012.67566,821.689242 1005.54203,829.784509 C998.401873,837.871634 994.764621,848.468275 995.440448,859.241608 C996.87027,882.043033 998.365232,905.967308 998.365232,905.967308 L1090.8151,902.028784 C1090.8151,902.028784 1088.83078,876.578606 1086.97429,852.885578" id="Fill-173" fill="#D3E4FF" mask="url(#mask-2)"></path>
        </g>
    </g>
</svg>
