<?xml version="1.0" encoding="UTF-8"?>
<svg width="1362px" height="1180px" viewBox="0 0 1362 1180" version="1.1" xmlns="http://www.w3.org/2000/svg" xmlns:xlink="http://www.w3.org/1999/xlink">
    <title>Illustrations / 3</title>
    <defs>
        <polygon id="path-1" points="0 0.132038348 1337.007 0.132038348 1337.007 943.2144 0 943.2144"></polygon>
        <polygon id="path-3" points="0 950.868 1337.007 950.868 1337.007 1 0 1"></polygon>
    </defs>
    <g id="Illustrations-/-3" stroke="none" stroke-width="1" fill="none" fill-rule="evenodd">
        <g id="Illusrtations-/-3" transform="translate(12.000000, 193.000000)">
            <g id="Group-3" transform="translate(0.000000, 0.868000)">
                <mask id="mask-2" fill="white">
                    <use xlink:href="#path-1"></use>
                </mask>
                <g id="Clip-2"></g>
                <path d="M29.994,943.2144 C29.994,943.2144 -30.019,813.0404 19.732,675.1524 C108.487,429.1614 311.045,527.3914 324.506,367.3544 C337.967,207.3174 477.463,-11.2716 734.976,0.5954 C1159.103,20.1404 953.358,373.4324 1118.769,503.2644 C1248.804,605.3334 1373.562,697.7894 1327.083,939.9764 L29.994,943.2144 Z" id="Fill-1" fill="#F0F8FF" mask="url(#mask-2)"></path>
            </g>
            <mask id="mask-4" fill="white">
                <use xlink:href="#path-3"></use>
            </mask>
            <g id="Clip-5"></g>
            <polygon id="Fill-4" fill="#FFFFFF" mask="url(#mask-4)" points="83.891 938.566 444.654 938.566 444.654 186.061 83.891 186.061"></polygon>
            <path d="M34.206,947.1503 L1314.361,947.1503 C1316.34,947.1503 1317.948,945.5413 1317.948,943.5633 C1317.948,941.5843 1316.34,939.9753 1314.361,939.9753 L34.206,939.9753 C32.227,939.9753 30.619,941.5843 30.619,943.5633 C30.619,945.5413 32.227,947.1503 34.206,947.1503" id="Fill-6" fill="#A8C9FE" mask="url(#mask-4)"></path>
            <path d="M434.6708,156.6146 C434.6708,145.0246 425.2748,135.6286 413.6848,135.6286 L113.4268,135.6286 C101.8368,135.6286 92.4408,145.0246 92.4408,156.6146 L92.4408,212.5776 L434.6708,212.5776 L434.6708,156.6146 Z" id="Fill-7" fill="#68E89D" mask="url(#mask-4)"></path>
            <path d="M336.5067,178.1004 C336.5067,176.1694 334.9407,174.6024 333.0097,174.6024 L194.1007,174.6024 C192.1707,174.6024 190.6037,176.1694 190.6037,178.1004 L190.6037,185.0954 C190.6037,187.0264 192.1707,188.5934 194.1007,188.5934 L333.0097,188.5934 C334.9407,188.5934 336.5067,187.0264 336.5067,185.0954 L336.5067,178.1004 Z" id="Fill-8" fill="#49C97E" mask="url(#mask-4)"></path>
            <path d="M114.6112,182.0399 L125.1822,190.8489 C125.8682,191.4209 125.9612,192.4409 125.3882,193.1259 C124.8182,193.8109 123.7982,193.9039 123.1122,193.3329 L111.1202,183.3399 C110.7612,183.0409 110.5492,182.6019 110.5392,182.1359 C110.5282,181.6699 110.7182,181.2209 111.0622,180.9069 L123.0542,169.9139 C123.7122,169.3099 124.7362,169.3549 125.3392,170.0129 C125.9412,170.6699 125.8972,171.6939 125.2392,172.2959 L114.6112,182.0399 Z" id="Fill-9" fill="#003151" mask="url(#mask-4)"></path>
            <polygon id="Fill-10" fill="#A8C9FE" mask="url(#mask-4)" points="1235.133 940.565 1250.123 940.565 1250.123 722.708 1235.133 722.708"></polygon>
            <polygon id="Fill-11" fill="#A8C9FE" mask="url(#mask-4)" points="1075.897 937.567 1090.887 937.567 1090.887 722.708 1075.897 722.708"></polygon>
            <polygon id="Fill-12" fill="#A8C9FE" mask="url(#mask-4)" points="1156.615 687.731 1173.906 687.731 1173.906 642.761 1156.615 642.761"></polygon>
            <path d="M1174.1727,131.4471 C1174.1727,126.8421 1170.4357,123.1021 1165.8287,123.1021 L527.9477,123.1021 C523.3437,123.1021 519.6037,126.8421 519.6037,131.4471 L519.6037,281.6481 C519.6037,286.2531 523.3437,289.9921 527.9477,289.9921 L1165.8287,289.9921 C1170.4357,289.9921 1174.1727,286.2531 1174.1727,281.6481 L1174.1727,131.4471 Z" id="Fill-13" fill="#D0E3FF" mask="url(#mask-4)"></path>
            <path d="M1158.8436,143.4813 C1158.8436,139.6133 1155.7046,136.4733 1151.8376,136.4733 L542.2616,136.4733 C538.3946,136.4733 535.2546,139.6133 535.2546,143.4813 L535.2546,269.6143 C535.2546,273.4813 538.3946,276.6213 542.2616,276.6213 L1151.8376,276.6213 C1155.7046,276.6213 1158.8436,273.4813 1158.8436,269.6143 L1158.8436,143.4813 Z" id="Fill-14" fill="#E7F0FF" mask="url(#mask-4)"></path>
            <polygon id="Fill-15" fill="#D0E3FF" mask="url(#mask-4)" points="842.553 281.998 851.547 281.998 851.547 130.098 842.553 130.098"></polygon>
            <polygon id="Fill-16" fill="#E7F0FF" mask="url(#mask-4)" points="807.43 941.317 1022.166 941.317 1022.166 732.522 807.43 732.522"></polygon>
            <polygon id="Fill-17" fill="#E7F0FF" mask="url(#mask-4)" points="436.322 940.319 651.059 940.319 651.059 701.543 436.322 701.543"></polygon>
            <polygon id="Fill-18" fill="#D0E3FF" mask="url(#mask-4)" points="1023.292 940.498 1185.064 940.498 1185.064 796.66 1023.292 796.66"></polygon>
            <polygon id="Fill-19" fill="#E7F0FF" mask="url(#mask-4)" points="1095.225 834.635 1112.213 834.635 1112.213 796.66 1095.225 796.66"></polygon>
            <polygon id="Fill-20" fill="#D0E3FF" mask="url(#mask-4)" points="883.113 732.523 1021.462 732.523 1021.462 598.002 883.113 598.002"></polygon>
            <path d="M1262.7352,554.5277 C1262.7352,553.4667 1262.3042,552.4507 1261.5552,551.7007 C1260.8052,550.9507 1259.7972,550.5297 1258.7372,550.5297 L1069.5612,550.5297 C1068.5032,550.5297 1067.4832,550.9507 1066.7332,551.7007 C1065.9842,552.4507 1065.5642,553.4667 1065.5642,554.5277 L1065.5642,659.1927 C1065.5642,660.2537 1065.9842,661.2707 1066.7332,662.0197 C1067.4832,662.7697 1068.5032,663.1907 1069.5612,663.1907 L1258.7372,663.1907 C1259.7972,663.1907 1260.8052,662.7697 1261.5552,662.0197 C1262.3042,661.2707 1262.7352,660.2537 1262.7352,659.1927 L1262.7352,554.5277 Z" id="Fill-21" fill="#D0E3FF" mask="url(#mask-4)"></path>
            <path d="M1253.0009,561.5472 C1253.0009,559.3392 1251.2129,557.5492 1249.0039,557.5492 L1079.2849,557.5492 C1077.0769,557.5492 1075.2879,559.3392 1075.2879,561.5472 L1075.2879,652.1742 C1075.2879,654.3822 1077.0769,656.1722 1079.2849,656.1722 L1249.0039,656.1722 C1251.2129,656.1722 1253.0009,654.3822 1253.0009,652.1742 L1253.0009,561.5472 Z" id="Fill-22" fill="#E7F0FF" mask="url(#mask-4)"></path>
            <polygon id="Fill-23" fill="#D0E3FF" mask="url(#mask-4)" points="1044.708 699.499 1283.577 699.499 1283.577 685.821 1044.708 685.821"></polygon>
            <polygon id="Fill-24" fill="#E7F0FF" mask="url(#mask-4)" points="1059.268 739.298 1269.021 739.298 1269.021 699.637 1059.268 699.637"></polygon>
            <polygon id="Fill-25" fill="#A8C9FE" mask="url(#mask-4)" points="942.386 647.231 961.907 647.231 961.907 598.002 942.386 598.002"></polygon>
            <polygon id="Fill-26" fill="#D3E4FF" mask="url(#mask-4)" points="968.668 773.464 1009.408 773.464 1009.408 745.123 968.668 745.123"></polygon>
            <polygon id="Fill-27" fill="#D3E4FF" mask="url(#mask-4)" points="459.649 748.373 500.389 748.373 500.389 715.962 459.649 715.962"></polygon>
            <path d="M672.1395,281.87 C655.8895,274.778 644.5215,258.563 644.5215,239.715 C644.5215,214.344 665.1195,193.745 690.4915,193.745 C715.8625,193.745 736.4605,214.344 736.4605,239.715 C736.4605,265.087 715.8625,285.684 690.4915,285.684 C688.1775,285.684 685.9035,285.514 683.6795,285.183 L672.3935,298.83 L672.1395,281.87 Z" id="Fill-28" fill="#9D94E7" mask="url(#mask-4)"></path>
            <path d="M811.6327,389.6639 C818.1337,379.4419 814.5757,366.6409 804.8897,359.3649 C791.9267,349.6309 776.1947,354.4789 769.6937,364.7009 L711.5637,474.4999 C705.0637,484.7229 705.5097,493.0719 715.7307,499.5729 C725.9527,506.0729 739.5287,503.0519 746.0297,492.8299 L811.6327,389.6639 Z" id="Fill-29" fill="#68E89D" mask="url(#mask-4)"></path>
            <path d="M707.578,488.4813 C708.977,493.5033 712.314,497.7643 716.855,500.3263 C721.395,502.8873 726.767,503.5413 731.789,502.1423 C731.84,502.1283 731.89,502.1143 731.941,502.1003 C736.963,500.7013 741.224,497.3643 743.785,492.8233 C746.348,488.2833 747,482.9113 745.601,477.8893 C735.731,442.4623 706.228,366.8803 706.228,366.8803 C698.22,362.2373 686.757,364.4173 682.778,373.7483 C682.778,373.7483 697.709,453.0553 707.578,488.4813" id="Fill-30" fill="#A97A5F" mask="url(#mask-4)"></path>
            <path d="M683.496,375.6253 C683.496,375.6253 650.245,350.8763 658.513,329.6553 C664.687,313.8083 681.497,346.6443 681.497,346.6443 C681.497,346.6443 695.664,365.9493 695.488,351.6413 C695.298,336.1963 703.495,344.7283 704.482,351.6413 C705.47,358.5553 704.128,361.1253 707.48,369.6293 C710.056,376.1633 686.268,377.8053 683.496,375.6253" id="Fill-31" fill="#A97A5F" mask="url(#mask-4)"></path>
            <path d="M620.0292,895.0848 C620.0292,895.0848 623.1612,923.0658 579.6822,925.9038 C570.3242,926.5138 571.9532,925.0748 569.6492,924.1158 C565.1132,922.2068 557.7582,932.2998 572.9572,939.0358 C588.1532,945.7718 609.0592,944.6418 619.9982,942.0638 C626.9262,940.4348 632.7372,939.3958 640.0022,942.6528 C648.3422,946.3908 658.7512,940.5748 657.7392,930.2918 C656.7252,920.0078 648.9842,910.0448 651.1462,901.4398 C653.3082,892.8358 620.0292,895.0848 620.0292,895.0848" id="Fill-32" fill="#A97A5F" mask="url(#mask-4)"></path>
            <path d="M881.827,895.0848 C881.827,895.0848 884.958,923.0658 841.48,925.9038 C832.122,926.5138 833.751,925.0748 831.447,924.1158 C826.91,922.2068 819.556,932.2998 834.755,939.0358 C849.951,945.7718 870.857,944.6418 881.796,942.0638 C888.723,940.4348 894.537,939.3958 901.803,942.6528 C910.137,946.3908 920.55,940.5748 919.53,930.2918 C918.521,920.0078 909.787,906.0468 911.945,897.4428 C914.104,888.8388 881.827,895.0848 881.827,895.0848" id="Fill-33" fill="#A97A5F" mask="url(#mask-4)"></path>
            <path d="M733.4628,588.4852 L631.5298,688.4202 C631.5298,688.4202 611.4858,712.4352 636.5268,729.3932 C659.7668,745.1332 691.4898,718.4012 691.4898,718.4012 L845.3898,617.4662 L733.4628,588.4852 Z" id="Fill-34" fill="#003151" mask="url(#mask-4)"></path>
            <path d="M750.9052,601.7035 C750.9052,601.7035 798.7612,731.5825 814.9632,764.6005 C823.9232,782.8585 836.2092,808.4315 863.6162,796.0195 C889.1872,784.4475 878.3012,757.6155 875.0132,740.1465 C867.1422,698.3095 839.3702,559.0165 839.3702,559.0165 L750.9052,601.7035 Z" id="Fill-35" fill="#003151" mask="url(#mask-4)"></path>
            <path d="M765.9569,647.1918 L772.4879,663.8508 C772.6439,664.2468 773.0899,664.4418 773.4849,664.2868 C773.8819,664.1318 774.0759,663.6848 773.9219,663.2888 L767.3899,646.6298 C767.2349,646.2338 766.7869,646.0398 766.3929,646.1938 C765.9969,646.3498 765.8009,646.7968 765.9569,647.1918" id="Fill-36" fill="#000000" mask="url(#mask-4)"></path>
            <path d="M624.535,703.4095 L613.542,896.2835 L655.514,904.2785 L690.491,719.4005 C690.491,719.4005 698.793,680.3475 667.507,676.4275 C630.232,671.7585 624.535,703.4095 624.535,703.4095" id="Fill-37" fill="#003151" mask="url(#mask-4)"></path>
            <path d="M811.4501,757.1254 L874.2671,908.6754 L915.5541,897.6634 L875.8111,742.9044 C875.8111,742.9044 867.3391,704.1184 837.4521,714.1634 C801.8451,726.1354 811.4501,757.1254 811.4501,757.1254" id="Fill-38" fill="#003151" mask="url(#mask-4)"></path>
            <path d="M868.3739,370.6287 C868.3739,370.6287 924.4569,371.0807 933.3319,393.6137 C933.3319,393.6137 870.0309,456.5127 857.3819,596.4807 C857.3819,596.4807 799.1459,632.7387 722.4709,592.4827 C722.4709,592.4827 780.6439,382.6057 803.4169,358.6367 C803.4169,358.6367 822.4559,367.2847 841.3929,366.6307 C855.3279,366.1507 868.3739,370.6287 868.3739,370.6287" id="Fill-39" fill="#68E89D" mask="url(#mask-4)"></path>
            <path d="M347.1396,136.1068 L414.6026,136.1068 C425.8756,136.1068 435.0286,145.2598 435.0286,156.5328 L435.0286,905.7578 C435.0286,917.0298 425.8756,926.1838 414.6026,926.1838 L112.7856,926.1838 C101.5116,926.1838 92.3586,917.0298 92.3586,905.7578 L92.3586,156.5328 C92.3586,145.2598 101.5116,136.1068 112.7856,136.1068 L180.2486,136.1068 L180.2486,139.3208 C180.2486,144.9738 184.8386,149.5648 190.4926,149.5648 L336.8956,149.5648 C342.5486,149.5648 347.1396,144.9738 347.1396,139.3208 L347.1396,136.1068 Z M448.9206,133.5018 C448.9206,121.3138 439.0266,111.4198 426.8396,111.4198 L100.5486,111.4198 C88.3606,111.4198 78.4656,121.3138 78.4656,133.5018 L78.4656,928.7828 C78.4656,940.9748 88.3606,950.8678 100.5486,950.8678 L426.8396,950.8678 C439.0266,950.8678 448.9206,940.9748 448.9206,928.7828 L448.9206,133.5018 Z" id="Fill-40" fill="#003151" mask="url(#mask-4)"></path>
            <path d="M152.8446,889.2484 L150.8466,915.2314 C159.8676,931.6304 171.0296,927.9234 182.8246,918.2294 L188.8216,887.2494 L152.8446,889.2484 Z" id="Fill-41" fill="#FFD3BB" mask="url(#mask-4)"></path>
            <path d="M229.8495,929.8617 C229.8495,929.8617 205.0775,916.9097 193.2795,905.8577 C185.2355,898.3227 181.2225,916.5507 181.2225,916.5507 C181.2225,916.5507 228.3925,941.0247 229.8495,929.8617" id="Fill-42" fill="#9D94E7" mask="url(#mask-4)"></path>
            <path d="M165.7714,925.9842 C165.7714,925.9842 154.3354,925.5852 148.8154,918.0192 C148.8154,918.0192 145.6684,924.9052 146.0764,930.8612 C146.0764,930.8612 163.5984,939.5352 165.7714,925.9842" id="Fill-43" fill="#9D94E7" mask="url(#mask-4)"></path>
            <path d="M182.0058,913.7225 C182.0058,913.7225 173.8678,921.2875 165.7078,921.0675 C156.0978,920.7975 152.4338,914.8915 151.7098,913.9725 C150.9868,913.0525 146.6338,913.4425 148.8158,918.0195 C149.7548,919.9885 154.6858,925.0355 161.3188,926.3935 C170.0918,928.2025 181.0608,924.9855 182.0058,913.7225" id="Fill-44" fill="#9D94E7" mask="url(#mask-4)"></path>
            <path d="M147.6757,941.5541 C147.6757,941.5541 147.1797,947.1201 148.5657,950.0981 C148.5657,950.0981 233.5137,950.8481 241.9457,949.2791 C244.2897,948.8391 244.1247,944.8621 244.1247,944.8621 C244.1247,944.8621 153.0217,935.8681 147.6757,941.5541" id="Fill-45" fill="#9D94E7" mask="url(#mask-4)"></path>
            <path d="M181.202,916.5804 C181.352,916.2204 185.251,917.2494 189.001,918.0194 C196.928,919.6384 212.063,928.4124 227.002,931.0404 C228.169,931.2414 229.263,929.4924 230.294,929.9314 C233.203,931.1614 236.036,932.1004 238.69,932.6204 C244.079,933.6794 246.91,943.2524 243.298,945.6814 C239.685,948.1094 209.996,947.8204 204.582,947.3704 C199.167,946.9104 183.076,941.8444 174.162,941.8334 C165.249,941.8244 147.676,941.5544 147.676,941.5544 C147.676,941.5544 146.257,937.2674 146.076,931.4004 C145.987,928.5224 147.257,926.3344 151.445,927.0134 C154.497,927.5034 156.075,930.6814 160.427,930.5714 C163.693,930.4914 164.499,926.1444 165.771,925.9844 C171.485,925.2844 179.009,921.7474 181.202,916.5804" id="Fill-46" fill="#68E79D" mask="url(#mask-4)"></path>
            <path d="M194.6893,918.0594 C194.0823,917.2694 194.2303,916.1414 195.0223,915.5314 L201.1983,910.7844 C201.9893,910.1844 203.1253,910.3344 203.7323,911.1234 C204.3383,911.9134 204.1903,913.0424 203.3983,913.6524 L197.2223,918.3994 C196.4323,918.9984 195.2953,918.8494 194.6893,918.0594" id="Fill-47" fill="#FFFFFF" mask="url(#mask-4)"></path>
            <path d="M201.1561,920.288 C200.5501,919.498 200.6981,918.37 201.4901,917.76 L205.5991,914.602 C206.3891,913.992 207.5261,914.142 208.1331,914.942 C208.7401,915.731 208.5921,916.86 207.8001,917.47 L203.6901,920.628 C202.8991,921.238 201.7631,921.088 201.1561,920.288" id="Fill-48" fill="#FFFFFF" mask="url(#mask-4)"></path>
            <path d="M208.0116,923.1263 C207.4046,922.3363 207.5536,921.2073 208.3446,920.5983 L210.9566,918.5893 C211.7476,917.9803 212.8836,918.1293 213.4906,918.9293 C214.0976,919.7183 213.9486,920.8473 213.1576,921.4573 L210.5456,923.4663 C209.7546,924.0753 208.6186,923.9253 208.0116,923.1263" id="Fill-49" fill="#FFFFFF" mask="url(#mask-4)"></path>
            <path d="M214.7909,925.6444 C214.1839,924.8544 214.3339,923.7154 215.1249,923.1064 L216.9299,921.7174 C217.7219,921.1174 218.8559,921.2674 219.4639,922.0574 C220.0719,922.8464 219.9219,923.9854 219.1319,924.5854 L217.3249,925.9744 C216.5339,926.5834 215.3979,926.4344 214.7909,925.6444" id="Fill-50" fill="#FFFFFF" mask="url(#mask-4)"></path>
            <path d="M116.869,755.3368 C116.869,755.3368 118.272,769.4468 109.873,779.3208 C104.191,786.0058 90.886,796.3098 90.886,796.3098 L90.886,752.3388 L116.869,755.3368 Z" id="Fill-51" fill="#003151" mask="url(#mask-4)"></path>
            <path d="M151.8456,580.4569 C151.8456,580.4569 208.4756,700.3779 217.8026,732.3519 C221.5186,745.1029 226.4476,761.6029 207.8086,772.3259 C181.9076,787.2359 161.8386,748.3409 161.8386,748.3409 L91.8846,631.4229 C91.8846,631.4229 89.9346,550.2659 151.8456,580.4569" id="Fill-52" fill="#003151" mask="url(#mask-4)"></path>
            <path d="M221.289,751.409 L191.819,899.242 L145.85,902.24 L166.836,755.337 C166.836,755.337 171.982,732.532 190.82,731.352 C218.674,729.623 221.289,751.409 221.289,751.409" id="Fill-53" fill="#003151" mask="url(#mask-4)"></path>
            <path d="M123.8642,602.4422 L116.8692,758.3352 C116.8692,758.3352 103.9432,767.8582 90.8852,759.3342 L90.8852,577.4592 L118.8672,574.4612 L123.8642,602.4422 Z" id="Fill-54" fill="#003151" mask="url(#mask-4)"></path>
            <path d="M161.41,436.3446 C154.173,426.6296 156.775,413.6006 165.898,405.6306 C178.106,394.9646 194.155,398.6386 201.392,408.3526 L251.48,491.5756 C258.718,501.2906 258.89,509.6506 249.175,516.8876 C239.461,524.1246 225.698,522.1136 218.461,512.3996 L161.41,436.3446 Z" id="Fill-55" fill="#FFD3BB" mask="url(#mask-4)"></path>
            <path d="M192.8183,393.5794 C192.8183,393.5794 227.0753,446.0854 228.7953,450.5424 C228.7953,450.5424 234.2733,478.4304 198.8143,490.5164 L170.8333,448.5434 L192.8183,393.5794 Z" id="Fill-56" fill="#68E89D" mask="url(#mask-4)"></path>
            <path d="M255.6747,508.8778 C253.7947,513.7408 250.0607,517.6578 245.2917,519.7668 C240.5257,521.8768 235.1147,522.0048 230.2517,520.1258 L230.1057,520.0678 C225.2427,518.1898 221.3257,514.4548 219.2167,509.6878 C217.1077,504.9198 216.3617,499.2228 218.8587,494.6458 C238.1137,459.3448 276.4157,381.5928 276.4157,381.5928 C285.8367,381.7468 291.0367,386.0268 293.0927,392.7018 C293.0927,392.7018 268.9337,474.5768 255.6747,508.8778" id="Fill-57" fill="#FFD3BB" mask="url(#mask-4)"></path>
            <path d="M276.5595,382.5955 C276.5595,382.5955 283.3835,364.5675 285.6215,358.1505 C287.8585,351.7335 308.8215,335.7545 311.3255,341.4815 C313.8295,347.2095 301.8225,373.5795 299.0295,377.4735 C296.2355,381.3675 312.4885,371.3735 312.1555,378.0375 C311.8225,384.7025 298.9445,387.7035 292.3935,393.2575 C292.3935,393.2575 279.9605,394.1225 276.5595,382.5955" id="Fill-58" fill="#FFD3BB" mask="url(#mask-4)"></path>
            <polygon id="Fill-59" fill="#FFFFFF" mask="url(#mask-4)" points="158.8407 576.4593 157.8417 585.4533 106.8747 576.4593 107.8747 567.4653"></polygon>
            <path d="M294.5624,403.6849 C295.0654,402.4009 294.4304,400.9509 293.1464,400.4479 L270.0174,391.3969 C268.7344,390.8939 267.2844,391.5289 266.7814,392.8129 L264.9594,397.4659 C264.4584,398.7499 265.0914,400.1999 266.3754,400.7029 L289.5044,409.7539 C290.7884,410.2569 292.2394,409.6219 292.7424,408.3379 L294.5624,403.6849 Z" id="Fill-60" fill="#003151" mask="url(#mask-4)"></path>
            <path d="M271.1845,389.6283 C271.6945,388.5913 271.2665,387.3363 270.2295,386.8273 L266.4745,384.9813 C265.4385,384.4713 264.1825,384.8993 263.6725,385.9353 L257.7955,397.8893 C257.2865,398.9263 257.7135,400.1813 258.7495,400.6913 L262.5065,402.5363 C263.5425,403.0463 264.7985,402.6183 265.3065,401.5823 L271.1845,389.6283 Z" id="Fill-61" fill="#003151" mask="url(#mask-4)"></path>
            <path d="M842.3915,346.6444 L837.3945,366.6314 C837.3945,366.6314 844.5575,390.5914 871.3715,372.6274 L878.3685,344.6454 L842.3915,346.6444 Z" id="Fill-62" fill="#A97A5F" mask="url(#mask-4)"></path>
            <path d="M842.0468,348.8192 L857.5078,351.8842 C857.5078,351.8842 849.9088,355.6762 840.3818,354.6262 L842.0468,348.8192 Z" id="Fill-63" fill="#694B39" mask="url(#mask-4)"></path>
            <polygon id="Fill-64" fill="#277BFD" mask="url(#mask-4)" points="130.8593 390.5814 171.8333 392.5804 158.8403 577.4584 107.8753 568.4644"></polygon>
            <path d="M167.8349,369.5955 L167.8349,394.5785 C167.8349,394.5785 159.8159,412.0365 134.8559,396.5775 L134.8559,351.6075 C134.8559,351.6075 166.1859,354.3575 167.8349,369.5955" id="Fill-65" fill="#FFD3BB" mask="url(#mask-4)"></path>
            <path d="M167.8349,373.2171 L154.5839,372.2171 C154.5839,372.2171 158.4389,377.0231 167.8349,378.9191 L167.8349,373.2171 Z" id="Fill-66" fill="#FE9A65" mask="url(#mask-4)"></path>
            <path d="M204.8104,315.6307 C204.8104,315.6307 194.2594,361.8377 185.8234,368.5957 C177.3864,375.3557 148.6854,377.3317 136.8554,361.6007 C125.0254,345.8707 136.8554,320.6277 136.8554,320.6277 C136.8554,320.6277 186.4824,290.1367 204.8104,315.6307" id="Fill-67" fill="#FFD3BB" mask="url(#mask-4)"></path>
            <path d="M186.4325,339.8768 C186.4325,339.8768 186.3825,342.4178 186.8955,345.9618 C186.9135,346.0808 186.9325,346.1998 186.9535,346.3198 C187.3425,348.4918 187.8135,349.7258 188.5585,351.9808 C189.4535,354.6888 187.5955,355.4938 183.3605,356.0418" id="Stroke-68" stroke="#003151" stroke-width="1.08" stroke-linecap="round" stroke-linejoin="round" mask="url(#mask-4)"></path>
            <path d="M180.7558,328.2464 C180.7558,328.2464 173.8478,324.1004 169.2738,329.6924" id="Stroke-69" stroke="#003151" stroke-width="0.92" stroke-linecap="round" stroke-linejoin="round" mask="url(#mask-4)"></path>
            <path d="M198.8925,331.5062 C198.8925,331.5062 195.3695,325.9462 189.1835,329.3502" id="Stroke-70" stroke="#003151" stroke-width="0.92" stroke-linecap="round" stroke-linejoin="round" mask="url(#mask-4)"></path>
            <path d="M194.5038,333.974 C193.4438,333.384 192.1058,333.765 191.5158,334.824 C190.9258,335.884 191.3078,337.222 192.3658,337.811 C193.4258,338.402 194.7648,338.02 195.3548,336.961 C195.9428,335.903 195.5618,334.563 194.5038,333.974" id="Fill-71" fill="#003151" mask="url(#mask-4)"></path>
            <path d="M177.9491,332.0941 C176.8901,331.5041 175.5511,331.8851 174.9621,332.9441 C174.3721,334.0041 174.7541,335.3421 175.8121,335.9311 C176.8711,336.5211 178.2101,336.1401 178.8001,335.0811 C179.3891,334.0221 179.0081,332.6831 177.9491,332.0941" id="Fill-72" fill="#003151" mask="url(#mask-4)"></path>
            <path d="M151.8456,335.6175 C151.8456,335.6175 157.6076,334.7905 160.8396,322.6265 C160.8396,322.6265 174.4496,327.4605 179.8266,318.6285 C179.8266,318.6285 194.4916,327.3265 200.8136,318.6285 C200.8136,318.6285 217.6256,322.7515 218.8016,308.6355 C219.8936,295.5135 211.8066,293.6455 211.8066,293.6455 C211.8066,293.6455 216.9376,277.1315 197.8156,274.6585 C197.8156,274.6585 193.5476,254.0825 171.8326,263.6645 C171.8326,263.6645 157.8236,255.1605 150.8466,266.6625 C150.8466,266.6625 136.0766,265.9875 134.8566,278.6555 C134.8566,278.6555 123.3956,278.9295 123.8646,288.6485 C123.8646,288.6485 108.0906,298.3185 119.8666,311.6335 C119.8666,311.6335 109.9556,318.9995 120.8666,327.6225 C120.8666,327.6225 110.6456,342.6445 125.8636,351.6075 C125.8636,351.6075 126.4106,368.9555 140.8526,358.6025 C147.1726,354.0725 142.8516,345.6115 142.8516,345.6115 C142.8516,345.6115 135.9806,330.9615 141.8526,327.6225 C147.7246,324.2845 150.5176,327.9445 151.8456,335.6175" id="Fill-73" fill="#003151" mask="url(#mask-4)"></path>
            <path d="M166.8358,379.5887 C166.8358,379.5887 189.3148,390.4657 192.8178,393.5797 C196.3228,396.6947 180.1518,587.3077 173.8308,616.4327 L147.8488,606.4397 C147.8488,606.4397 165.9448,431.3617 162.8388,390.5817 C162.8388,390.5817 167.4428,385.6477 166.8358,379.5887" id="Fill-74" fill="#68E89D" mask="url(#mask-4)"></path>
            <path d="M189.2684,424.2103 C189.1434,427.7803 189.0394,431.1573 188.9474,434.4233 C188.5694,447.9223 188.4044,459.5603 187.8894,475.2573 C187.8754,475.6823 188.2084,476.0383 188.6334,476.052725 C189.0584,476.0663 189.4144,475.7323 189.4274,475.3083 C189.9424,459.6073 190.1084,447.9683 190.4864,434.4663 C190.5784,431.2033 190.6824,427.8303 190.8054,424.2643 C190.8214,423.8393 190.4884,423.4823 190.0634,423.467872 C189.6384,423.4543 189.2824,423.7853 189.2684,424.2103" id="Fill-75" fill="#003151" mask="url(#mask-4)"></path>
            <path d="M234.703,463.3505 L225.33,479.4195 C225.116,479.7865 225.24,480.2575 225.607,480.4715 C225.974,480.6855 226.445,480.5615 226.66,480.1945 L236.033,464.1265 C236.247,463.7595 236.123,463.2875 235.756,463.0745 C235.389,462.8585 234.917,462.9835 234.703,463.3505" id="Fill-76" fill="#003151" mask="url(#mask-4)"></path>
            <path d="M134.8563,375.5916 L134.8563,379.5886 L142.8513,384.5856 L141.8523,394.5786 L138.8543,396.5776 C135.2663,470.1976 124.8613,539.0976 107.8753,603.4416 L90.8853,601.4426 L91.8843,394.5786 L134.8563,375.5916 Z" id="Fill-77" fill="#68E89D" mask="url(#mask-4)"></path>
            <path d="M109.7978,417.2581 L94.4288,453.2381 C94.2618,453.6291 94.4438,454.0821 94.8338,454.2491 C95.2248,454.4151 95.6778,454.2341 95.8448,453.8431 L111.2138,417.8621 C111.3798,417.4721 111.1978,417.0191 110.8078,416.8521 C110.4168,416.6851 109.9638,416.8671 109.7978,417.2581" id="Fill-78" fill="#003151" mask="url(#mask-4)"></path>
            <path d="M91.8847,455.5389 C91.8847,455.5389 106.9107,464.9209 101.8787,483.5199 C96.8457,502.1209 88.1577,500.0049 86.8887,498.5109 C85.6177,497.0179 82.0527,483.7139 84.8897,459.5359 C85.6967,452.6609 91.8847,455.5389 91.8847,455.5389" id="Fill-79" fill="#FFD3BB" mask="url(#mask-4)"></path>
            <polygon id="Fill-80" fill="#C1DAFF" mask="url(#mask-4)" points="852.9012 425.6034 819.1522 387.4744 795.9522 468.1494 829.7002 506.2774"></polygon>
            <polygon id="Fill-81" fill="#DCE9FF" mask="url(#mask-4)" points="818.9969 387.4295 738.3219 364.2285 715.1209 444.9035 795.7959 468.1045"></polygon>
            <polygon id="Fill-82" fill="#E7F0FF" mask="url(#mask-4)" points="809.9208 460.4525 691.7378 426.4635 648.5528 576.6255 766.7348 610.6135"></polygon>
            <polygon id="Fill-83" fill="#C1DAFF" mask="url(#mask-4)" points="760.2987 445.6913 742.6527 440.6163 731.1057 480.7683 748.7517 485.8423"></polygon>
            <polygon id="Fill-84" fill="#C1DAFF" mask="url(#mask-4)" points="812.2323 391.495 794.5863 386.42 791.9473 395.592 809.5933 400.667"></polygon>
            <polygon id="Fill-85" fill="#C1DAFF" mask="url(#mask-4)" points="648.5526 576.6254 684.4946 618.4654 802.4176 650.4444 766.4416 610.4714"></polygon>
            <polygon id="Fill-86" fill="#D0E3FF" mask="url(#mask-4)" points="695.33 590.0541 725.348 629.7121 745.264 635.0281 715.237 595.8911"></polygon>
            <polygon id="Fill-87" fill="#D0E3FF" mask="url(#mask-4)" points="845.6132 500.598 809.2202 459.481 765.7802 610.531 802.1732 651.648"></polygon>
            <path d="M932.702,412.8499 C938.338,402.1269 933.731,389.6619 923.478,383.2099 C909.757,374.5769 894.477,380.7069 888.844,391.4299 L839.963,505.6479 C834.328,516.3709 835.46,524.6549 846.183,530.2899 C856.907,535.9259 870.188,531.7959 875.823,521.0729 L932.702,412.8499 Z" id="Fill-88" fill="#A97A5F" mask="url(#mask-4)"></path>
            <path d="M874.4969,522.9213 C877.1259,518.4183 877.8569,513.0563 876.5309,508.0143 C875.2059,502.9723 871.9309,498.6633 867.4289,496.0353 C867.3829,496.0093 867.3379,495.9833 867.2929,495.9563 C862.7899,493.3293 857.4289,492.5973 852.3859,493.9223 C847.3439,495.2493 843.0349,498.5223 840.4079,503.0253 C821.8709,534.7863 788.2069,608.6113 788.2069,608.6113 C790.4569,617.5903 800.0049,624.2953 809.4719,620.6473 C809.4719,620.6473 855.9609,554.6823 874.4969,522.9213" id="Fill-89" fill="#A97A5F" mask="url(#mask-4)"></path>
            <path d="M791.4852,601.1649 C791.4852,601.1649 783.0192,600.2789 778.4332,600.4779 C773.8472,600.6769 773.0922,607.3589 783.4302,610.4709 C783.4302,610.4709 768.1072,612.7629 754.1022,607.7149 C753.8842,607.6359 752.6672,607.5559 752.4502,607.4729 C752.4502,607.4729 742.8422,612.1959 753.4502,623.4619 C764.0562,634.7299 790.5152,640.2889 809.4132,620.4639 L791.4852,601.1649 Z" id="Fill-90" fill="#A97A5F" mask="url(#mask-4)"></path>
            <path d="M830.3993,281.6873 C830.3993,281.6873 821.7553,335.5623 829.4003,341.6473 C838.1413,348.6093 854.9083,353.7713 863.3783,352.6403 C871.8463,351.5103 894.6673,344.9413 894.3573,306.6703 C894.0473,268.4003 830.3993,281.6873 830.3993,281.6873" id="Fill-91" fill="#A97A5F" mask="url(#mask-4)"></path>
            <path d="M873.371,300.6746 C873.371,300.6746 813.944,295.6246 818.407,254.7046 C821.258,228.5736 842.553,235.7176 842.553,235.7176 C842.553,235.7176 834.089,247.6926 852.385,246.7106 C870.681,245.7286 905.59,248.4706 897.355,281.6876 C897.355,281.6876 919.331,283.4356 909.348,313.6666 C899.364,343.8976 876.875,363.9676 872.372,347.6436 C870.689,341.5456 876.369,327.6566 876.369,327.6566 C876.369,327.6566 887.539,328.9506 888.361,316.6646 C888.984,307.3586 880.175,311.1186 879.367,314.6656 C879.367,314.6656 872.171,315.9756 873.371,300.6746" id="Fill-92" fill="#003151" mask="url(#mask-4)"></path>
            <polygon id="Fill-93" fill="#003151" mask="url(#mask-4)" points="666.2079 304.3084 660.3669 307.3884 692.6249 368.5774 698.4669 365.4964"></polygon>
            <polygon id="Fill-94" fill="#D3E4FF" mask="url(#mask-4)" points="586.7958 615.0629 500.5358 615.0629 512.4928 704.7379 573.9848 704.7379"></polygon>
            <path d="M525.6278,610.6346 C525.6278,610.6346 528.2768,554.0236 473.9228,509.2926 C473.9228,509.2926 534.6628,539.0856 538.0368,609.7056 L525.6278,610.6346 Z" id="Fill-95" fill="#A8C9FE" mask="url(#mask-4)"></path>
            <path d="M538.037,609.6005 C538.037,609.6005 532.013,518.9665 553.549,466.8945 C553.549,466.8945 541.409,515.4125 546.31,609.6005 L538.037,609.6005 Z" id="Fill-96" fill="#A8C9FE" mask="url(#mask-4)"></path>
            <path d="M560.0038,608.7748 C560.0038,608.7748 558.3888,562.3928 605.5038,531.6068 C605.5038,531.6068 548.8998,539.0858 545.5258,609.7058 L560.0038,608.7748 Z" id="Fill-97" fill="#A8C9FE" mask="url(#mask-4)"></path>
            <path d="M597.8983,608.0174 C597.8983,605.3074 595.6973,603.1064 592.9873,603.1064 L494.3453,603.1064 C491.6333,603.1064 489.4343,605.3074 489.4343,608.0174 L489.4343,617.8394 C489.4343,620.5494 491.6333,622.7494 494.3453,622.7494 L592.9873,622.7494 C595.6973,622.7494 597.8983,620.5494 597.8983,617.8394 L597.8983,608.0174 Z" id="Fill-98" fill="#E7F0FF" mask="url(#mask-4)"></path>
            <path d="M911.2362,242.9198 C911.2362,242.9198 917.2322,205.7168 929.6642,204.7318 C942.1052,203.7468 917.2022,237.5678 911.2362,242.9198" id="Fill-99" fill="#277BFD" mask="url(#mask-4)"></path>
            <path d="M920.9501,251.7767 C920.9501,251.7767 949.0311,226.6467 959.3141,233.7107 C969.5971,240.7757 928.9651,251.3807 920.9501,251.7767" id="Fill-100" fill="#277BFD" mask="url(#mask-4)"></path>
            <path d="M121.787,631.5409 L119.66,678.9749 C119.64,679.3999 119.97,679.7589 120.394,679.7779 C120.818,679.7969 121.179,679.4689 121.198,679.0439 L123.325,631.6099 C123.345,631.1869 123.016,630.8259 122.591,630.8069 C122.167,630.7879 121.807,631.1179 121.787,631.5409" id="Fill-101" fill="#000000" mask="url(#mask-4)"></path>
            <path d="M837.6864,310.2943 C837.6864,310.2943 837.0074,312.7433 835.5024,315.9943 C835.4534,316.1023 835.4004,316.2113 835.3444,316.3203 C834.3524,318.2913 833.5474,319.3373 832.1894,321.2863 C830.5574,323.6243 832.1084,324.9273 836.0094,326.6633" id="Stroke-102" stroke="#003151" stroke-width="1.08" stroke-linecap="round" stroke-linejoin="round" mask="url(#mask-4)"></path>
            <path d="M851.7118,301.3963 C851.7118,301.3963 853.6688,308.1463 860.0378,306.2783" id="Stroke-103" stroke="#003151" stroke-width="0.92" stroke-linecap="round" stroke-linejoin="round" mask="url(#mask-4)"></path>
            <path d="M825.8885,298.745 C825.8885,298.745 832.5665,300.939 834.6165,294.627" id="Stroke-104" stroke="#003151" stroke-width="0.92" stroke-linecap="round" stroke-linejoin="round" mask="url(#mask-4)"></path>
            <path d="M830.6425,302.3314 C831.8255,302.0684 832.9985,302.8174 833.2615,304.0004 C833.5235,305.1844 832.7755,306.3574 831.5915,306.6204 C830.4085,306.8814 829.2355,306.1344 828.9725,304.9514 C828.7095,303.7664 829.4575,302.5934 830.6425,302.3314" id="Fill-105" fill="#003151" mask="url(#mask-4)"></path>
            <path d="M847.0419,305.2625 C848.2259,305.0005 849.3989,305.7485 849.6619,306.9315 C849.9239,308.1155 849.1759,309.2885 847.9929,309.5505 C846.8089,309.8135 845.6359,309.0655 845.3729,307.8825 C845.1099,306.6985 845.8589,305.5245 847.0419,305.2625" id="Fill-106" fill="#003151" mask="url(#mask-4)"></path>
            <path d="M894.2372,380.2493 C878.4162,391.5843 859.5292,450.1373 857.3742,455.8413 C857.3742,455.8413 865.3822,477.2683 905.0802,480.1913 C905.0802,480.1913 917.5612,452.7963 925.5662,437.0593 C953.4882,382.1333 913.2552,366.6183 894.2372,380.2493" id="Fill-107" fill="#68E89D" mask="url(#mask-4)"></path>
            <path d="M858.2274,455.8514 L860.1104,459.8724 C860.2904,460.2564 860.1244,460.7154 859.7404,460.8964 C859.3554,461.0764 858.8964,460.9104 858.7164,460.5254 L856.6754,456.1674 C856.5774,455.9554 856.5794,455.7084 856.6834,455.4984 L884.8434,398.8224 C885.0324,398.4424 885.4954,398.2864 885.8754,398.4754 C886.2564,398.6654 886.4114,399.1264 886.2224,399.5074 L858.2274,455.8514 Z" id="Fill-108" fill="#003151" mask="url(#mask-4)"></path>
            <path d="M185.4208,360.4066 L174.5468,358.2886 C174.5468,358.2886 171.4528,364.3426 178.3638,366.0556 C184.9838,367.6956 185.4208,360.4066 185.4208,360.4066" id="Fill-109" fill="#FFFFFF" mask="url(#mask-4)"></path>
            <path d="M842.6591,331.4256 L831.7851,331.3066 C831.7851,331.3066 829.5141,338.3866 836.6021,339.0736 C843.2211,339.7146 842.6591,331.4256 842.6591,331.4256" id="Fill-110" fill="#FFFFFF" mask="url(#mask-4)"></path>
            <path d="M239.7382,302.2855 C229.4842,287.8225 228.1202,268.0665 237.8532,251.9245 C250.9532,230.1975 279.2282,223.1925 300.9572,236.2925 C322.6842,249.3935 329.6882,277.6695 316.5882,299.3975 C303.4882,321.1245 275.2132,328.1285 253.4842,315.0285 C251.5032,313.8335 249.6442,312.5135 247.9102,311.0815 L231.1982,316.9405 L239.7382,302.2855 Z" id="Fill-111" fill="#FF89AB" mask="url(#mask-4)"></path>
            <path d="M271.6942,282.12 L291.7442,260.675 C293.6332,258.57 296.8772,258.395 298.9832,260.287 C301.0882,262.176 301.2622,265.42 299.3722,267.525 L274.8602,293.939 C273.7972,295.124 272.2412,295.748 270.6522,295.625 C269.0632,295.503 267.6232,294.649 266.7522,293.313 L256.2552,277.21 C254.7102,274.841 255.3802,271.662 257.7502,270.117 C260.1192,268.572 263.2982,269.242 264.8432,271.612 L271.6942,282.12 Z" id="Fill-112" fill="#FFFFFF" mask="url(#mask-4)"></path>
            <path d="M690.0956,263.972 C688.7546,263.972 687.5836,263.537 686.5836,262.669 C685.5836,261.8 685.0826,260.586 685.0826,259.025 C685.0826,257.64 685.5666,256.475 686.5336,255.529 C687.5006,254.584 688.6886,254.111 690.0956,254.111 C691.4806,254.111 692.6456,254.584 693.5916,255.529 C694.5366,256.475 695.0096,257.64 695.0096,259.025 C695.0096,260.564 694.5146,261.773 693.5256,262.653 C692.5356,263.532 691.3926,263.972 690.0956,263.972 M674.0026,227.828 C674.0026,225.74 674.6736,223.624 676.0146,221.481 C677.3556,219.337 679.3116,217.562 681.8836,216.155 C684.4556,214.748 687.4566,214.045 690.8866,214.045 C694.0746,214.045 696.8886,214.632 699.3286,215.808 C701.7696,216.985 703.6546,218.584 704.9846,220.606 C706.3156,222.629 706.9796,224.827 706.9796,227.202 C706.9796,229.071 706.6006,230.709 705.8426,232.116 C705.0836,233.523 704.1826,234.737 703.1376,235.76 C702.0936,236.782 700.2196,238.503 697.5156,240.921 C696.7686,241.602 696.1686,242.201 695.7176,242.718 C695.2676,243.234 694.9326,243.707 694.7126,244.136 C694.4926,244.565 694.3226,244.993 694.2006,245.422 C694.0796,245.851 693.8996,246.603 693.6576,247.68 C693.2396,249.967 691.9316,251.11 689.7326,251.11 C688.5896,251.11 687.6276,250.737 686.8476,249.989 C686.0676,249.242 685.6766,248.131 685.6766,246.658 C685.6766,244.812 685.9616,243.213 686.5336,241.86 C687.1056,240.508 687.8646,239.321 688.8096,238.299 C689.7546,237.276 691.0306,236.062 692.6346,234.655 C694.0416,233.424 695.0586,232.494 695.6846,231.869 C696.3116,231.243 696.8386,230.544 697.2676,229.774 C697.6966,229.005 697.9106,228.169 697.9106,227.268 C697.9106,225.509 697.2566,224.025 695.9496,222.816 C694.6406,221.607 692.9536,221.002 690.8866,221.002 C688.4686,221.002 686.6876,221.613 685.5446,222.833 C684.4016,224.053 683.4336,225.85 682.6426,228.224 C681.8956,230.709 680.4766,231.951 678.3886,231.951 C677.1576,231.951 676.1186,231.517 675.2726,230.649 C674.4256,229.78 674.0026,228.84 674.0026,227.828" id="Fill-113" fill="#FFFFFF" mask="url(#mask-4)"></path>
        </g>
    </g>
</svg>