<?xml version="1.0" encoding="UTF-8"?>
<svg width="1362px" height="1180px" viewBox="0 0 1362 1180" version="1.1" xmlns="http://www.w3.org/2000/svg" xmlns:xlink="http://www.w3.org/1999/xlink">
    <title>Illustrations / 2</title>
    <defs>
        <polygon id="path-1" points="0.83591142 0.410922601 105.57718 0.410922601 105.57718 31.0423117 0.83591142 31.0423117"></polygon>
        <polygon id="path-3" points="0.869540226 0.410922601 105.610755 0.410922601 105.610755 31.0423117 0.869540226 31.0423117"></polygon>
        <polygon id="path-5" points="0 938.285882 1302.74784 938.285882 1302.74784 -1.10284445e-13 0 -1.10284445e-13"></polygon>
    </defs>
    <g id="Illustrations-/-2" stroke="none" stroke-width="1" fill="none" fill-rule="evenodd">
        <g transform="translate(30.000000, 215.000000)">
            <path d="M29.0959587,914.858541 C29.0959587,914.858541 -29.1200165,788.579387 19.1420475,654.818066 C105.240809,416.189026 301.735732,511.479222 314.793874,356.232741 C327.852987,200.98529 463.173214,-11.0618308 712.979426,0.450016512 C1124.41034,19.4100784 924.823802,362.12884 1085.28442,488.075259 C1211.42679,587.089562 1332.45107,676.777591 1287.36308,911.717447 L29.0959587,914.858541 Z" id="Fill-1" fill="#F0F8FF"></path>
            <path d="M19.8631992,920.257381 L1299.26722,917.83414 C1301.187,917.83414 1302.74784,916.263593 1302.74784,914.34382 C1302.74784,912.425018 1301.1773,910.873872 1299.25752,910.873872 L19.8496182,913.297112 C17.9298452,913.297112 16.3767523,914.867659 16.3767523,916.787432 C16.3767523,918.706235 17.9434262,920.257381 19.8631992,920.257381" id="Fill-3" fill="#A8C9FE"></path>
            <path d="M1285.09466,142.336178 C1286.24808,137.053164 1282.89357,131.823505 1277.61056,130.668149 L953.121391,59.6617709 C947.848078,58.5054448 942.612599,61.8560743 941.459183,67.1410279 L831.556788,569.364888 C830.400462,574.648871 833.752062,579.87756 839.036045,581.033886 L1163.51745,652.041234 C1168.80143,653.19659 1174.03594,649.845961 1175.19033,644.561977 L1285.09466,142.336178 Z" id="Fill-5" fill="#FFFFFF"></path>
            <path d="M1285.09466,142.336178 C1286.24808,137.053164 1282.89357,131.823505 1277.61056,130.668149 L953.121391,59.6617709 C947.848078,58.5054448 942.612599,61.8560743 941.459183,67.1410279 L831.556788,569.364888 C830.400462,574.648871 833.752062,579.87756 839.036045,581.033886 L1163.51745,652.041234 C1168.80143,653.19659 1174.03594,649.845961 1175.19033,644.561977 L1285.09466,142.336178 Z" id="Stroke-7" stroke="#DEEBFF" stroke-width="4.04520124" stroke-linecap="round" stroke-linejoin="round"></path>
            <path d="M1285.31729,141.286559 C1285.81203,139.026291 1285.3852,136.660285 1284.14448,134.71335 C1282.89405,132.765445 1280.92578,131.392793 1278.65775,130.898056 C1231.16495,120.503732 999.576696,69.8261878 952.074198,59.4318638 C949.81587,58.9371269 947.449864,59.3610485 945.501959,60.6095315 C943.553084,61.8580144 942.186252,63.8301713 941.681814,66.0904396 C937.280596,86.2398101 926.577789,135.125631 926.577789,135.125631 L1270.21424,210.32272 C1270.21424,210.32272 1280.90638,161.43593 1285.31729,141.286559" id="Fill-9" fill="#DEEBFF"></path>
            <path d="M1285.31729,141.286559 C1285.81203,139.026291 1285.3852,136.660285 1284.14448,134.71335 C1282.89405,132.765445 1280.92578,131.392793 1278.65775,130.898056 C1231.16495,120.503732 999.576696,69.8261878 952.074198,59.4318638 C949.81587,58.9371269 947.449864,59.3610485 945.501959,60.6095315 C943.553084,61.8580144 942.186252,63.8301713 941.681814,66.0904396 C937.280596,86.2398101 926.577789,135.125631 926.577789,135.125631 L1270.21424,210.32272 C1270.21424,210.32272 1280.90638,161.43593 1285.31729,141.286559 Z" id="Stroke-11" stroke="#DEEBFF" stroke-width="4.04520124" stroke-linecap="round" stroke-linejoin="round"></path>
            <path d="M1174.95693,645.611304 C1173.92962,650.319065 1169.27619,653.300097 1164.57425,652.26988 C1117.07272,641.875556 885.484462,591.198982 837.986815,580.803688 C833.279055,579.775412 830.297053,575.122945 831.327269,570.414215 C836.97503,544.605443 853.506031,469.063977 853.506031,469.063977 L1197.13763,544.259127 C1197.13763,544.259127 1180.60857,619.802533 1174.95693,645.611304" id="Fill-13" fill="#DEEBFF"></path>
            <path d="M1174.95693,645.611304 C1173.92962,650.319065 1169.27619,653.300097 1164.57425,652.26988 C1117.07272,641.875556 885.484462,591.198982 837.986815,580.803688 C833.279055,579.775412 830.297053,575.122945 831.327269,570.414215 C836.97503,544.605443 853.506031,469.063977 853.506031,469.063977 L1197.13763,544.259127 C1197.13763,544.259127 1180.60857,619.802533 1174.95693,645.611304 Z" id="Stroke-15" stroke="#DEEBFF" stroke-width="4.04520124" stroke-linecap="round" stroke-linejoin="round"></path>
            <path d="M980.701806,83.2669267 C991.995387,85.7386708 999.15937,96.9158431 996.687626,108.212334 C994.215882,119.508826 983.03774,126.672809 971.744159,124.201065 C960.450578,121.728351 953.285624,110.551179 955.758338,99.2537172 C958.230083,87.9581961 969.407255,80.7942126 980.701806,83.2669267" id="Fill-17" fill="#A8C9FE"></path>
            <path d="M980.701806,83.2669267 C991.995387,85.7386708 999.15937,96.9158431 996.687626,108.212334 C994.215882,119.508826 983.03774,126.672809 971.744159,124.201065 C960.450578,121.728351 953.285624,110.551179 955.758338,99.2537172 C958.230083,87.9581961 969.407255,80.7942126 980.701806,83.2669267 Z" id="Stroke-19" stroke="#DEEBFF" stroke-width="4.04520124" stroke-linecap="round" stroke-linejoin="round"></path>
            <polygon id="Fill-21" fill="#A8C9FE" points="1179.73618 128.585598 1022.45546 94.1693746 1019.15916 109.251088 1176.43018 143.667311"></polygon>
            <polygon id="Stroke-23" stroke="#DEEBFF" stroke-width="4.04520124" stroke-linecap="round" stroke-linejoin="round" points="1179.73618 128.585598 1022.45546 94.1693746 1019.15916 109.251088 1176.43018 143.667311"></polygon>
            <polygon id="Fill-25" fill="#A8C9FE" points="1073.74822 545.32543 867.993963 500.301467 863.677141 520.031767 1069.42461 565.053789"></polygon>
            <polygon id="Stroke-27" stroke="#DEEBFF" stroke-width="4.04520124" stroke-linecap="round" stroke-linejoin="round" points="1073.74822 545.32543 867.993963 500.301467 863.677141 520.031767 1069.42461 565.053789"></polygon>
            <polygon id="Fill-29" fill="#A8C9FE" points="1098.33306 134.333082 1017.54059 116.653515 1014.24428 131.735228 1095.02705 149.413825"></polygon>
            <polygon id="Stroke-31" stroke="#DEEBFF" stroke-width="4.04520124" stroke-linecap="round" stroke-linejoin="round" points="1098.33306 134.333082 1017.54059 116.653515 1014.24428 131.735228 1095.02705 149.413825"></polygon>
            <polygon id="Fill-33" fill="#A8C9FE" points="967.255829 552.844363 861.558698 529.714931 859.020989 541.307294 964.71618 564.436727"></polygon>
            <polygon id="Stroke-35" stroke="#DEEBFF" stroke-width="4.04520124" stroke-linecap="round" stroke-linejoin="round" points="967.255829 552.844363 861.558698 529.714931 859.020989 541.307294 964.71618 564.436727"></polygon>
            <polygon id="Fill-37" fill="#A8C9FE" points="927.072623 563.913082 857.410766 548.669366 854.874027 560.26173 924.532974 575.504475"></polygon>
            <polygon id="Stroke-39" stroke="#DEEBFF" stroke-width="4.04520124" stroke-linecap="round" stroke-linejoin="round" points="927.072623 563.913082 857.410766 548.669366 854.874027 560.26173 924.532974 575.504475"></polygon>
            <path d="M893.423728,710.695197 C893.423728,710.695197 893.355822,706.186301 894.955472,701.678376 C896.254398,698.008592 898.774646,694.141884 904.233243,694.143825 C909.923686,694.147705 912.890167,698.197756 914.605255,702.029542 C916.641437,706.580151 917.000363,711.13076 917.000363,711.13076 C917.194378,713.709212 919.452706,715.648386 922.040859,715.454372 C924.620281,715.261327 926.568186,713.002029 926.365441,710.413876 C926.365441,710.413876 925.68639,701.547416 921.188165,694.444547 C917.815224,689.114 912.482737,684.751585 904.233243,684.746728 C893.821457,684.738974 888.585977,691.5353 886.094832,698.532431 C883.913139,704.69045 884.019847,710.850409 884.019847,710.850409 C884.068351,713.448262 886.21124,715.513546 888.799393,715.474743 C891.397247,715.426239 893.46253,713.28335 893.423728,710.695197" id="Fill-41" fill="#A8C9FE"></path>
            <path d="M1001.17615,451.934151 C1001.17615,451.934151 998.675304,491.041643 996.3287,499.436648 L1114.59991,526.580239 C1114.59991,526.580239 1086.08948,460.149692 1079.70059,442.239249 C1073.31169,424.328805 1001.17615,451.934151 1001.17615,451.934151" id="Fill-43" fill="#49C97E"></path>
            <path d="M497.070157,9.87106708 C525.98219,9.87106708 549.420105,33.3089825 549.420105,62.2210155 C549.420105,91.1330485 525.98219,114.570964 497.070157,114.570964 C468.158124,114.570964 444.721179,91.1330485 444.721179,62.2210155 C444.721179,33.3089825 468.158124,9.87106708 497.070157,9.87106708" id="Fill-45" fill="#9D94E7"></path>
            <path d="M853.71382,8.52586791 C882.358114,8.52586791 905.577763,31.7464871 905.577763,60.3907802 C905.577763,89.0350733 882.358114,112.255692 853.71382,112.255692 C825.069527,112.255692 801.848908,89.0350733 801.848908,60.3907802 C801.848908,31.7464871 825.069527,8.52586791 853.71382,8.52586791" id="Fill-47" fill="#9D94E7"></path>
            <path d="M1222.1006,441.315449 C1245.92654,441.315449 1265.24068,460.629587 1265.24068,484.455531 C1265.24068,508.280506 1245.92654,527.594644 1222.1006,527.594644 C1198.27465,527.594644 1178.96051,508.280506 1178.96051,484.455531 C1178.96051,460.629587 1198.27465,441.315449 1222.1006,441.315449" id="Fill-49" fill="#FF89AB"></path>
            <polygon id="Fill-51" fill="#FFFFFF" points="475.96866 42.3362807 490.983439 92.6558679 501.128454 77.6420599 516.955183 84.5402436 502.751385 34.2196863"></polygon>
            <path d="M870.132099,56.0337977 C870.132099,56.0337977 866.271212,55.5196594 863.918786,50.5218473 C862.337569,47.1624871 862.098931,43.5276264 861.68859,36.7351806 C860.962976,24.7150155 850.355236,33.8036223 852.039282,50.0028586 C852.039282,50.0028586 837.561924,44.9487822 835.152264,48.7970588 C832.744545,52.6453354 836.360004,56.0337977 836.360004,56.0337977 C836.360004,56.0337977 829.494803,58.6258308 835.152264,63.2705366 C835.152264,63.2705366 829.673296,66.2864912 834.916537,71.1320021 C834.916537,71.1320021 829.225123,77.1105573 835.152264,80.1575542 C841.082316,83.203581 847.636124,85.4686997 859.276021,81.363354 C862.639261,80.1779257 866.51373,81.363354 866.51373,81.363354 C866.51373,81.363354 874.619653,70.1192466 870.132099,56.0337977" id="Fill-53" fill="#FFFFFF"></path>
            <path d="M879.279492,55.6899071 C879.483207,54.3735191 878.57231,53.1444376 877.254951,52.9465428 L872.483166,52.2315996 C871.166778,52.0337049 869.936727,52.9426625 869.740772,54.2590506 L865.805189,80.5014448 C865.608264,81.8188029 866.517222,83.0469143 867.83361,83.2448091 L872.605395,83.9607224 C873.921783,84.1576471 875.150865,83.2486894 875.34876,81.9323013 L879.279492,55.6899071 Z" id="Fill-55" fill="#F3F3F3"></path>
            <path d="M1203.74925,490.017053 C1199.09582,485.042522 1199.20253,477.22471 1204.05968,472.380169 C1208.89743,467.55309 1216.67159,467.451232 1221.63545,472.066836 C1226.61871,467.463843 1234.39287,467.586072 1239.22092,472.425763 C1244.03927,477.262543 1244.14597,485.034762 1239.54104,489.998621 L1239.60895,490.067496 L1221.65485,507.97503 L1203.74925,490.021903 L1203.74925,490.017053 Z" id="Fill-57" fill="#FFFFFF"></path>
            <path d="M998.432689,791.235833 C998.432689,745.730714 961.535992,708.834017 916.030873,708.834017 L916.021172,708.834017 C894.170295,708.834017 873.212854,717.520043 857.759604,732.963593 C842.307323,748.425575 833.626147,769.375255 833.626147,791.235833 L833.626147,899.134058 C833.626147,905.939115 839.137127,911.445245 845.935393,911.445245 L986.121503,911.445245 C992.916859,911.445245 998.432689,905.939115 998.432689,899.134058 L998.432689,791.235833 Z" id="Fill-59" fill="#D3E4FF"></path>
            <path d="M966.276735,779.117496 C966.276735,760.475618 958.870233,742.599127 945.695682,729.424576 C932.51143,716.240324 914.634939,708.833822 895.992091,708.833822 C857.17562,708.833822 825.708417,740.301026 825.708417,779.117496 L825.708417,899.133864 C825.708417,905.938921 831.219397,911.445051 838.019604,911.445051 L953.964578,911.445051 C960.770605,911.445051 966.276735,905.938921 966.276735,899.133864 L966.276735,779.117496 Z" id="Fill-61" fill="#E7F0FF"></path>
            <path d="M1003.58998,263.63498 C1003.58998,263.63498 986.605957,303.698964 982.853717,314.434753 C977.91993,328.555125 985.752293,359.10755 994.264677,376.639666 C1000.72051,389.954877 997.375699,454.395806 997.375699,454.395806 C997.375699,454.395806 1046.92408,474.901193 1084.88689,448.107798 C1084.88689,448.107798 1074.62061,419.185094 1073.05976,386.732297 C1071.54742,355.154506 1071.97425,317.270275 1070.84897,306.276446 C1067.48573,273.533598 1034.55372,250.291637 1034.55372,250.291637 C1034.55372,250.291637 1007.9621,251.775847 1003.58998,263.63498" id="Fill-63" fill="#68E89D"></path>
            <polygon id="Fill-65" fill="#D0E3FF" points="961.235463 294.042574 832.130489 257.396155 796.497796 382.932233 925.60859 419.578652"></polygon>
            <polygon id="Fill-67" fill="#A8C9FE" points="905.735302 277.997579 887.520256 272.827094 874.476665 318.766805 892.696561 323.93826"></polygon>
            <path d="M1053.63252,309.885794 C1057.539,299.918301 1052.62364,288.648972 1042.65809,284.735701 C1032.69254,280.824369 1021.41836,285.741666 1017.51091,295.709158 L978.511092,395.086268 C974.59394,405.054731 979.509296,416.32406 989.474848,420.235391 C999.450101,424.147692 1010.71555,419.231366 1014.63173,409.262904 L1053.63252,309.885794 Z" id="Fill-69" fill="#A97A5F"></path>
            <path d="M988.272929,420.519525 C992.936066,422.481011 998.190947,422.512054 1002.87252,420.603922 C1007.55505,418.694819 1011.28789,415.003695 1013.2455,410.343467 C1013.2746,410.296904 1013.294,410.250341 1013.3134,410.201837 C1015.27198,405.54161 1015.30108,400.291579 1013.39101,395.60807 C1011.48094,390.925531 1007.79757,387.192693 1003.13444,385.228297 C970.250927,371.387307 902.244982,351.243756 902.244982,351.243756 C893.985787,358.41162 889.061701,365.39808 894.800648,376.929329 C894.800648,376.929329 955.399121,406.677564 988.272929,420.519525" id="Fill-71" fill="#A97A5F"></path>
            <path d="M1001.17615,238.658433 C1001.17615,238.658433 1003.15413,259.219115 1003.11533,264.831953 C1003.11533,264.831953 1024.37543,264.693232 1033.16816,250.29154 L1031.22802,225.086153 C1031.22802,225.086153 1008.10829,228.436782 1001.17615,238.658433" id="Fill-73" fill="#A97A5F"></path>
            <path d="M1001.79661,242.743408 L1014.85475,238.930054 C1014.85475,238.930054 1014.27368,246.486916 1002.11673,248.376617 L1001.79661,242.743408 Z" id="Fill-75" fill="#694B39"></path>
            <path d="M908.11033,353.051195 C908.11033,353.051195 899.346698,331.704755 893.568947,329.784982 C887.791197,327.865209 891.629773,341.418089 891.629773,341.418089 C891.629773,341.418089 860.375015,330.636706 852.853075,339.479884 C845.330165,348.322093 878.69774,372.466221 896.477224,377.28651 L908.11033,353.051195 Z" id="Fill-77" fill="#A97A5F"></path>
            <path d="M396.647697,59.5456533 C395.715457,54.2180165 390.631309,50.6491207 385.304642,51.5813602 L58.1157668,108.856365 C52.78813,109.789575 49.2202043,114.871783 50.1534138,120.19942 L138.801525,626.609141 C139.733765,631.936778 144.815973,635.505674 150.14458,634.572464 L477.331515,577.298429 C482.660122,576.36619 486.228047,571.281071 485.295808,565.953434 L396.647697,59.5456533 Z" id="Fill-79" fill="#FFFFFF"></path>
            <path d="M396.647697,59.5456533 C395.715457,54.2180165 390.631309,50.6491207 385.304642,51.5813602 L58.1157668,108.856365 C52.78813,109.789575 49.2202043,114.871783 50.1534138,120.19942 L138.801525,626.609141 C139.733765,631.936778 144.815973,635.505674 150.14458,634.572464 L477.331515,577.298429 C482.660122,576.36619 486.228047,571.281071 485.295808,565.953434 L396.647697,59.5456533 Z" id="Stroke-81" stroke="#DEEBFF" stroke-width="4.04520124" stroke-linecap="round" stroke-linejoin="round"></path>
            <path d="M396.46251,58.4865284 C396.06284,56.2068586 394.774584,54.1803777 392.880033,52.8504087 C390.986452,51.5204396 388.641787,50.9975707 386.362118,51.3962704 C338.466741,59.7806047 104.953862,100.658479 57.057515,109.041843 C54.7778452,109.440543 52.7503942,110.728799 51.4213953,112.62432 C50.0914262,114.517901 49.5685573,116.862566 49.967257,119.141265 C53.5235418,139.459428 62.1523344,188.752679 62.1523344,188.752679 L408.647587,128.097942 C408.647587,128.097942 400.018795,78.8037214 396.46251,58.4865284" id="Fill-83" fill="#DEEBFF"></path>
            <path d="M485.480898,567.012753 C486.31128,571.760287 483.136233,576.281794 478.38967,577.112175 C430.495263,585.49651 196.981414,626.373414 149.086037,634.757748 C144.338504,635.5891 139.816997,632.414054 138.986615,627.66652 C134.430186,601.642392 121.096543,525.47135 121.096543,525.47135 L467.590826,464.816613 C467.590826,464.816613 480.924469,540.987655 485.480898,567.012753" id="Fill-85" fill="#DEEBFF"></path>
            <path d="M92.5793292,120.248991 C103.970888,118.254522 114.835697,125.88511 116.830165,137.274729 C118.823664,148.664347 111.195015,159.531096 99.8044272,161.525564 C88.4148091,163.519063 77.5480599,155.889445 75.5555315,144.499827 C73.561063,133.110208 81.189711,122.243459 92.5793292,120.248991" id="Fill-87" fill="#A8C9FE"></path>
            <polygon id="Fill-89" fill="#A8C9FE" points="293.93994 86.7512322 135.356411 114.511789 138.019259 129.718642 296.601818 101.958085"></polygon>
            <polygon id="Fill-91" fill="#A8C9FE" points="353.806299 512.571232 146.34374 548.887827 149.826299 568.781098 357.287889 532.464504"></polygon>
            <polygon id="Fill-93" fill="#A8C9FE" points="220.789024 122.923383 139.324297 137.183445 141.987146 152.390297 223.451872 138.130235"></polygon>
            <polygon id="Fill-95" fill="#A8C9FE" points="258.108382 559.890677 151.536246 578.546136 153.582128 590.234537 260.155234 571.579077"></polygon>
            <polygon id="Fill-97" fill="#A8C9FE" points="225.118747 585.36264 154.881637 597.658305 156.927519 609.347676 227.16463 597.05201"></polygon>
            <path d="M229.218369,278.522388 C229.218369,278.522388 268.067822,265.048085 286.770815,266.121955 L337.230093,486.672729 L248.974861,502.107548 L229.218369,278.522388 Z" id="Fill-99" fill="#277BFD"></path>
            <polygon id="Fill-101" fill="#FFD3BB" points="700.651748 848.432262 662.843183 848.432262 665.751459 894.965657 703.560025 894.965657"></polygon>
            <polygon id="Fill-103" fill="#FFD3BB" points="544.661028 848.432262 582.468623 848.432262 579.560347 894.965657 541.752751 894.965657"></polygon>
            <polygon id="Fill-105" fill="#003151" points="674.476871 517.855507 712.284466 860.06595 647.33328 860.06595 604.677263 536.274268"></polygon>
            <polygon id="Fill-107" fill="#003151" points="557.057872 529.488807 528.944208 860.065174 593.896365 860.065174 629.765756 545.968394"></polygon>
            <path d="M636.788012,321.289866 C630.955938,310.19418 635.717053,297.295129 646.326733,290.618122 C660.52665,281.684727 676.338828,288.027059 682.168962,299.123715 L732.752409,417.319257 C738.583513,428.415913 737.411666,436.989412 726.315979,442.819546 C715.218353,448.65259 701.47534,444.377482 695.643265,433.280826 L636.788012,321.289866 Z" id="Fill-109" fill="#68E89D"></path>
            <path d="M740.216241,303.616314 C740.216241,303.616314 751.248873,275.744198 754.453992,268.236809 C757.661051,260.73039 768.691742,251.270246 770.511598,254.187253 C772.619564,257.565044 767.866211,260.506303 764.489389,267.233754 C761.941979,272.310142 761.479255,275.262072 761.479255,275.262072 C761.479255,275.262072 775.3833,274.345354 777.536861,283.29136 C779.689451,292.236396 769.976118,302.643331 763.555209,311.321598 C763.555209,311.321598 744.658202,314.730431 740.216241,303.616314" id="Fill-111" fill="#FFD3BB"></path>
            <path d="M736.481851,430.899492 C734.901604,436.201907 731.282264,440.659389 726.416382,443.291195 C721.550499,445.922031 715.838714,446.513775 710.536299,444.934497 C710.483915,444.918976 710.430561,444.903455 710.377207,444.886964 C705.075763,443.307686 700.618281,439.687377 697.986475,434.821494 C695.354669,429.955612 694.762925,424.243827 696.342202,418.943352 C707.483482,381.545127 740.21663,301.917717 740.21663,301.917717 C748.800799,297.143992 760.918941,299.67297 764.964142,309.648223 C764.964142,309.648223 747.622161,393.503207 736.481851,430.899492" id="Fill-113" fill="#68E89D"></path>
            <path d="M633.760805,285.190665 C633.760805,285.190665 658.892466,284.981129 664.509185,286.712708 C670.125903,288.444287 678.579112,425.813307 682.232405,539.182739 C682.232405,539.182739 612.818885,576.353967 550.388916,538.213637 C553.591125,515.797207 561.272157,393.857187 552.328091,303.610396 C552.328091,303.610396 593.906357,280.739973 633.760805,285.190665" id="Fill-115" fill="#68E89D"></path>
            <polygon id="Fill-117" fill="#407496" points="660.621523 327.84639 635.143546 327.84639 625.449614 384.073717 650.927591 384.073717"></polygon>
            <polygon id="Fill-119" fill="#003151" points="664.78226 327.84639 640.274355 327.84639 630.579453 384.073717 655.088328 384.073717"></polygon>
            <polygon id="Fill-121" fill="#FFD3BB" points="628.362838 262.80324 631.817265 279.642724 617.483478 302.439422 595.599618 284.439732 590.839474 257.438741"></polygon>
            <path d="M641.932014,198.398592 C641.932014,198.398592 646.351664,256.088788 637.740332,261.851988 C627.893129,268.442658 609.722706,272.430625 600.870797,270.495331 C592.019858,268.558097 568.480085,259.619851 572.154718,219.203732 C575.830322,178.785672 641.932014,198.398592 641.932014,198.398592" id="Fill-123" fill="#FFD3BB"></path>
            <polygon id="Fill-125" fill="#277BFD" points="595.117977 283.269437 588.581631 287.198229 601.621342 319.121366 616.599257 302.146072"></polygon>
            <polygon id="Fill-127" fill="#277BFD" points="631.554958 278.247664 638.090334 283.17466 635.094751 315.12787 617.121253 302.146363"></polygon>
            <path d="M594.991092,214.593269 C594.991092,214.593269 657.747005,217.69362 658.853858,174.342062 C659.5591,146.65814 642.689544,144.538533 642.689544,144.538533 C642.689544,144.538533 643.468512,164.811102 624.50457,161.208254 C605.540627,157.605406 568.704074,155.549822 572.625106,191.390111 C572.625106,191.390111 549.430679,190.119317 555.599368,223.088192 C561.767088,256.058037 582.416045,280.180824 589.416087,263.772052 C592.032372,257.642165 588.058956,242.341216 588.058956,242.341216 C588.058956,242.341216 576.216314,242.119069 577.087439,229.174425 C577.748058,219.371845 586.416623,224.53942 586.760029,228.356654 C586.760029,228.356654 594.086985,230.738182 594.991092,214.593269" id="Fill-129" fill="#003151"></path>
            <path d="M536.114109,321.99472 C537.494522,309.534142 548.662964,301.512615 561.190477,301.922956 C577.958175,302.470076 587.507567,316.578807 586.126184,329.037445 L561.858857,455.290407 C560.477474,467.750014 554.706514,474.196144 542.246906,472.815732 C529.788268,471.435319 520.793759,460.198002 522.175141,447.739364 L536.114109,321.99472 Z" id="Fill-131" fill="#68E89D"></path>
            <path d="M621.481922,377.612745 C621.481922,377.612745 624.774347,355.775449 628.918495,355.086698 C633.062644,354.397946 632.799754,364.274252 632.731849,365.388865 C632.662974,366.503478 653.053893,348.209856 655.97866,346.627668 C658.902458,345.04548 668.4664,343.57097 663.63253,361.188452 C658.79769,378.804964 632.60283,393.590805 632.60283,393.590805 L621.481922,377.612745 Z" id="Fill-133" fill="#FFD3BB"></path>
            <path d="M557.343946,468.630937 C553.067868,472.139688 547.572409,473.805302 542.066279,473.262062 C536.562089,472.718821 531.497342,470.00941 527.98956,465.734301 C527.954638,465.690648 527.919715,465.646995 527.883822,465.604312 C524.376041,461.328233 522.709457,455.831804 523.253668,450.327614 C523.797878,444.821484 526.50535,439.758677 530.782398,436.249926 C560.952615,411.502413 620.054266,371.608192 620.054266,371.608192 C629.839385,372.458945 641.373544,382.309059 639.138497,392.840163 C639.138497,392.840163 587.515133,443.883424 557.343946,468.630937" id="Fill-135" fill="#68E89D"></path>
            <path d="M714.819653,878.862555 C714.819653,878.862555 733.055071,898.542411 761.423864,915.333391 C765.020892,917.46561 763.826733,925.628768 763.826733,925.628768 C764.266175,927.887096 735.8644,951.193082 681.929354,919.443587 C667.072698,910.698386 660.873936,909.981503 660.873936,909.981503 L662.128239,884.552999 C662.128239,884.552999 671.67666,888.441049 679.316949,885.872297 C689.93342,882.294671 701.030076,872.561936 714.819653,878.862555" id="Fill-137" fill="#277BFD"></path>
            <path d="M530.491668,878.862555 C530.491668,878.862555 512.25625,898.542411 483.888427,915.333391 C480.291399,917.46561 481.485558,925.628768 481.485558,925.628768 C481.046116,927.887096 509.446921,951.193082 563.382937,919.443587 C578.240563,910.698386 584.438355,909.981503 584.438355,909.981503 L583.184052,884.552999 C583.184052,884.552999 573.635631,888.441049 565.994372,885.872297 C555.377901,882.294671 544.282215,872.561936 530.491668,878.862555" id="Fill-139" fill="#277BFD"></path>
            <path d="M690.671063,879.949133 C690.671063,879.949133 723.430402,913.627131 739.792611,913.975387 C756.154819,914.314912 746.920702,906.065418 746.920702,906.065418 C746.920702,906.065418 719.759649,889.71097 713.520144,874.985273 C713.520144,874.985273 712.289123,868.712786 704.05806,867.801889 C697.053168,867.026801 688.280805,873.114004 690.671063,879.949133" id="Fill-141" fill="#9D94E7"></path>
            <path d="M554.640258,879.949133 C554.640258,879.949133 521.881889,913.627131 505.51968,913.975387 C489.158442,914.314912 498.391589,906.065418 498.391589,906.065418 C498.391589,906.065418 525.552642,889.71097 531.792147,874.985273 C531.792147,874.985273 533.023168,868.712786 541.254231,867.801889 C548.259123,867.026801 557.031486,873.114004 554.640258,879.949133" id="Fill-143" fill="#9D94E7"></path>
            <path d="M714.185808,899.172473 C713.548471,898.222772 713.789049,896.923845 714.724198,896.273897 L725.783992,888.519139 C726.717201,887.869191 727.994786,888.102008 728.631154,889.051709 C729.269461,889.991709 729.027913,891.290636 728.093734,891.950285 L717.03394,899.696312 C716.099761,900.355961 714.824116,900.122173 714.185808,899.172473" id="Fill-145" fill="#003151"></path>
            <path d="M531.125416,899.172473 C531.763723,898.222772 531.522175,896.923845 530.587996,896.273897 L519.528202,888.519139 C518.594023,887.869191 517.318378,888.102008 516.68007,889.051709 C516.042733,889.991709 516.283311,891.290636 517.21846,891.950285 L528.278254,899.696312 C529.211463,900.355961 530.489049,900.122173 531.125416,899.172473" id="Fill-147" fill="#003151"></path>
            <path d="M721.218832,902.584799 C720.582464,901.635098 720.822072,900.336171 721.757222,899.686223 L730.319079,893.685356 C731.253259,893.025707 732.529874,893.268225 733.167212,894.209195 C733.804549,895.158896 733.563971,896.458793 732.629792,897.107771 L724.066964,903.108638 C723.132784,903.768287 721.857139,903.525769 721.218832,902.584799" id="Fill-149" fill="#003151"></path>
            <path d="M524.092392,902.584799 C524.72973,901.635098 524.489152,900.336171 523.554972,899.686223 L514.992144,893.685356 C514.058935,893.025707 512.78135,893.268225 512.144982,894.209195 C511.506675,895.158896 511.748223,896.458793 512.682402,897.107771 L521.24523,903.108638 C522.17941,903.768287 523.455055,903.525769 524.092392,902.584799" id="Fill-151" fill="#003151"></path>
            <path d="M728.835936,905.028023 C728.197628,904.078322 728.438206,902.779395 729.373356,902.129447 L735.788444,897.631222 C736.722623,896.971573 737.998268,897.214091 738.636576,898.164762 C739.272943,899.104762 739.032365,900.403688 738.098186,901.063337 L731.683098,905.551862 C730.748918,906.210541 729.473273,905.968993 728.835936,905.028023" id="Fill-153" fill="#003151"></path>
            <path d="M516.476355,905.028023 C517.114663,904.078322 516.873115,902.779395 515.937965,902.129447 L509.523847,897.631222 C508.590638,896.971573 507.313053,897.214091 506.676685,898.164762 C506.038378,899.104762 506.279926,900.403688 507.214105,901.063337 L513.629193,905.551862 C514.562402,906.210541 515.839018,905.968993 516.476355,905.028023" id="Fill-155" fill="#003151"></path>
            <path d="M735.976929,907.42284 C735.338621,906.48187 735.579199,905.182943 736.513379,904.524264 L741.318147,901.160054 C742.253296,900.500405 743.528941,900.742923 744.165309,901.683893 C744.803616,902.633593 744.562068,903.93252 743.628859,904.592169 L738.824091,907.95541 C737.889911,908.605358 736.613296,908.372541 735.976929,907.42284" id="Fill-157" fill="#003151"></path>
            <path d="M509.33575,907.42284 C509.973088,906.48187 509.73251,905.182943 508.79833,904.524264 L503.994533,901.160054 C503.059383,900.500405 501.783738,900.742923 501.14543,901.683893 C500.509063,902.633593 500.748671,903.93252 501.68382,904.592169 L506.488588,907.95541 C507.421798,908.605358 508.697443,908.372541 509.33575,907.42284" id="Fill-159" fill="#003151"></path>
            <g id="Group-163" transform="translate(658.679051, 907.243571)">
                <mask id="mask-2" fill="white">
                    <use xlink:href="#path-1"></use>
                </mask>
                <g id="Clip-162"></g>
                <path d="M1.63748194,9.07851806 C1.63748194,9.07851806 -0.00582043344,3.08735191 1.41339525,0.410922601 C1.41339525,0.410922601 19.5440454,5.52999381 26.9534572,9.91181011 C34.3609288,14.2936264 41.2562023,18.9189309 47.7362848,21.2247926 C54.2173375,23.5422951 76.4960165,29.6886729 87.0115996,26.3632652 C97.5262126,23.0281569 101.534551,18.5202312 104.20031,16.2910052 C106.867038,14.0617792 106.373271,22.0687554 96.2389267,27.206258 C86.1026419,32.3544314 70.164355,33.1789928 44.2944685,24.2979814 C18.423612,15.4179401 1.63748194,9.07851806 1.63748194,9.07851806" id="Fill-161" fill="#9D94E7" mask="url(#mask-2)"></path>
            </g>
            <g id="Group-166" transform="translate(480.185759, 907.243571)">
                <mask id="mask-4" fill="white">
                    <use xlink:href="#path-3"></use>
                </mask>
                <g id="Clip-165"></g>
                <path d="M104.809515,9.07851806 C104.809515,9.07851806 106.452817,3.08735191 105.032632,0.410922601 C105.032632,0.410922601 86.9019814,5.52999381 79.4935397,9.91181011 C72.0860681,14.2936264 65.1917647,18.9189309 58.709742,21.2247926 C52.2286894,23.5422951 29.9519505,29.6886729 19.4363674,26.3632652 C8.92078431,23.0281569 4.91147575,18.5202312 2.24571723,16.2910052 C-0.42004128,14.0617792 0.0737254902,22.0687554 10.2090402,27.206258 C20.3433849,32.3544314 36.2826419,33.1789928 62.1534985,24.2979814 C88.0233849,15.4179401 104.809515,9.07851806 104.809515,9.07851806" id="Fill-164" fill="#9D94E7" mask="url(#mask-4)"></path>
            </g>
            <path d="M302.868097,320.345404 C296.031028,309.233226 300.065558,295.502824 310.614124,287.823732 C324.729645,277.544846 341.596291,283.017994 348.43336,294.130171 L394.229501,388.195166 C401.06754,399.307344 400.453484,408.292153 389.341307,415.131162 C378.228159,421.969201 363.655734,418.497313 356.818665,407.386105 L302.868097,320.345404 Z" id="Fill-167" fill="#FFD3BB"></path>
            <path d="M226.012572,332.488283 C231.619589,320.706755 226.134801,307.488551 214.823759,300.983247 C199.688691,292.279759 183.505946,299.528138 177.898929,311.310636 L142.453459,409.743866 C136.846442,421.525393 138.418929,430.392824 150.200456,435.998871 C161.981983,441.604918 176.099445,436.591585 181.706462,424.811028 L226.012572,332.488283 Z" id="Fill-169" fill="#FFD3BB"></path>
            <path d="M340.38729,280.36019 C340.38729,280.36019 372.386093,337.061882 373.806279,342.008281 C373.806279,342.008281 377.023038,372.451088 337.828239,382.033461 L311.812842,334.334039 L340.38729,280.36019 Z" id="Fill-171" fill="#68E89D"></path>
            <path d="M184.421695,296.756739 C184.421695,296.756739 158.687618,356.562663 157.804852,361.63323 C157.804852,361.63323 157.871787,392.24483 197.867866,397.568586 L218.618681,347.354737 L184.421695,296.756739 Z" id="Fill-173" fill="#68E89D"></path>
            <path d="M397.649975,405.79315 C395.487684,410.975276 391.353236,415.084502 386.16044,417.21866 C380.965703,419.353789 375.136539,419.337298 369.955383,417.173067 C369.902029,417.152696 369.851585,417.130384 369.799201,417.109042 C364.617075,414.944811 360.506879,410.811333 358.37369,405.617567 C356.238561,400.4238 355.599284,394.269662 358.419284,389.41251 C380.164423,351.957051 419.500852,278.928072 419.500852,278.928072 C429.639077,279.363635 437.99819,285.167577 440.01982,292.414017 C440.01982,292.414017 412.911152,369.240828 397.649975,405.79315" id="Fill-175" fill="#FFD3BB"></path>
            <path d="M140.938982,427.606582 C143.645484,432.526788 148.195123,436.16941 153.587754,437.734136 C158.981356,439.300803 164.774627,438.658615 169.694834,435.952114 C169.743337,435.923981 169.792811,435.897789 169.842285,435.870627 C174.762491,433.164126 178.406083,428.613517 179.969839,423.220885 C181.535536,417.828254 181.511284,411.640163 178.186846,407.114776 C157.937558,379.541443 125.019127,335.024828 111.817414,315.876572 C108.305752,310.782722 116.490252,301.862908 110.41954,293.536778 C100.385112,295.056881 87.890582,312.001133 86.6566502,319.423156 C86.6566502,319.423156 121.846991,392.901278 140.938982,427.606582" id="Fill-177" fill="#FFD3BB"></path>
            <path d="M108.153548,295.951482 L102.475715,304.631688 L99.8778617,326.735754 C99.8778617,326.735754 78.7923715,351.974124 70.0626914,362.422772 C67.6365408,365.328138 63.6670052,366.42432 60.0942291,365.179717 C52.3588731,362.436353 39.6615975,355.752555 35.3069432,340.548613 C34.3591827,337.323123 35.2739608,333.837653 37.6816801,331.492019 C46.6936512,322.688613 69.9715046,300.024815 69.9715046,300.024815 L89.8608958,296.350182 L101.295137,289.229851 L108.153548,295.951482 Z" id="Fill-179" fill="#9D94E7"></path>
            <path d="M104.992277,281.051754 L95.9512033,289.618462 L108.784289,301.549381 L127.136116,278.871032 L117.913639,269.511775 L113.376611,272.164923 L92.0097998,254.453344 L89.1024933,257.09 L101.0111,274.245728 C101.0111,274.245728 90.4586543,277.36451 81.1847637,279.987585 C78.3046192,280.803416 79.7160743,282.935635 83.0075294,283.243148 C90.3150836,283.925108 104.992277,281.051754 104.992277,281.051754" id="Fill-181" fill="#CFCAF3"></path>
            <path d="M95.4308566,286.534894 C93.8147162,284.524904 91.1421672,283.694522 88.6723633,284.436627 C80.9864809,286.767711 75.7587616,291.690828 72.0695769,298.275678 C70.8792982,300.391406 71.0092879,303.00478 72.4032817,304.992458 C74.0815067,307.422489 76.449453,310.800281 78.2149845,313.317618 C79.8291847,315.61863 82.7665635,316.582881 85.4284417,315.681684 C92.2111868,313.34769 97.5097214,308.583666 102.068091,302.225812 C103.733705,299.91995 103.653189,296.783707 101.871166,294.566122 C99.8999794,292.094378 97.303096,288.865007 95.4308566,286.534894" id="Fill-183" fill="#FFD3BB"></path>
            <path d="M420.909494,263.902138 C418.452301,286.364161 411.803426,330.346266 405.065304,353.311756 C401.855335,364.252231 411.18064,366.199166 417.48805,363.177391 C424.422126,359.854894 428.77096,351.041787 433.584458,353.546514 C442.776863,358.33091 446.63969,365.03896 454.628235,347.210972 C458.977069,337.504429 461.80483,354.088784 464.09614,341.440012 C466.386481,328.79124 466.478638,250.399703 447.763034,239.185668 C427.735893,227.187814 422.571228,248.719538 420.909494,263.902138" id="Fill-185" fill="#FF89AB"></path>
            <path d="M285.354704,260.156398 C285.354704,260.156398 327.999079,265.049443 337.691071,273.570557 C347.383063,282.091672 340.423765,393.231878 374.781783,480.281311 L333.194786,488.262095 C333.194786,488.262095 283.669688,296.715511 285.354704,260.156398" id="Fill-187" fill="#68E89D"></path>
            <path d="M237.196826,271.540487 C237.196826,271.540487 191.006836,286.734729 184.123203,297.650951 C177.239571,308.568144 215.282894,414.159538 213.724958,507.975224 L268.472925,499.981829 C268.472925,499.981829 249.159756,306.127443 237.196826,271.540487" id="Fill-189" fill="#68E89D"></path>
            <path d="M190.531015,346.15078 L199.503214,387.77561 C199.59052,388.17722 199.98922,388.434289 200.3918,388.346012 C200.79438,388.258706 201.050479,387.861946 200.963172,387.458396 L191.990004,345.833567 C191.902698,345.430987 191.503998,345.174888 191.102388,345.262194 C190.699808,345.350471 190.443709,345.74723 190.531015,346.15078" id="Fill-191" fill="#003151"></path>
            <path d="M335.711736,323.601354 L353.409734,402.064677 C353.49995,402.466287 353.90059,402.719476 354.30317,402.628289 C354.70478,402.538072 354.956999,402.137432 354.866782,401.735822 L337.168784,323.272499 C337.078568,322.86992 336.678898,322.616731 336.276318,322.707917 C335.874708,322.798134 335.621519,323.198774 335.711736,323.601354" id="Fill-193" fill="#003151"></path>
            <path d="M583.013416,341.274906 L571.151373,402.988962 C571.072797,403.394452 571.338596,403.785391 571.744087,403.863967 C572.147637,403.941573 572.539546,403.675773 572.618122,403.271253 L584.480165,341.557197 C584.557771,341.151707 584.292941,340.759798 583.887451,340.683162 C583.483901,340.605556 583.091992,340.869416 583.013416,341.274906" id="Fill-195" fill="#003151"></path>
            <path d="M674.085059,338.676277 L675.794326,395.835843 C675.806937,396.248124 676.151313,396.572128 676.562623,396.559873 C676.974904,396.546906 677.299878,396.203501 677.287267,395.79122 L675.578,338.631653 C675.565389,338.219373 675.221013,337.895368 674.809703,337.907623 C674.397422,337.92059 674.072448,338.263996 674.085059,338.676277" id="Fill-197" fill="#003151"></path>
            <path d="M712.491965,371.342392 L703.281129,395.547635 C703.134648,395.932753 703.327692,396.364436 703.713781,396.510916 C704.0989,396.657397 704.529612,396.463383 704.676093,396.078264 L713.887899,371.873992 C714.03438,371.488873 713.840365,371.056221 713.456217,370.91071 C713.070128,370.763259 712.638446,370.958244 712.491965,371.342392" id="Fill-199" fill="#003151"></path>
            <path d="M638.671796,393.237214 L638.654334,389.459752 C638.652394,389.048442 638.985129,388.712797 639.39741,388.710848 C639.80872,388.708916 640.145335,389.041651 640.147276,389.453932 L640.166685,393.563158 C640.167647,393.775604 640.0784,393.978349 639.922219,394.119979 L555.107833,471.08066 C554.80323,471.357131 554.329835,471.334819 554.053364,471.029247 C553.775924,470.724644 553.799205,470.252219 554.103808,469.974778 L638.671796,393.237214 Z" id="Fill-201" fill="#003151"></path>
            <path d="M620.22238,372.394824 L548.160563,420.637486 C547.818128,420.868363 547.353463,420.776206 547.124526,420.433771 C546.895589,420.090365 546.987746,419.625701 547.329212,419.397734 L619.638396,370.988219 C619.797488,370.880541 619.990533,370.839798 620.178727,370.87181 L622.985146,371.346175 C623.391606,371.415051 623.666136,371.801139 623.597261,372.2076 C623.528386,372.61503 623.142297,372.88762 622.735837,372.818745 L620.22238,372.394824 Z" id="Fill-203" fill="#003151"></path>
            <path d="M270.677123,250.091899 C270.677123,250.091899 297.563645,244.921414 304.388103,254.063375 C311.213531,263.205335 304.859558,270.64967 304.859558,270.64967 C304.859558,270.64967 315.035616,270.554603 309.537247,283.718483 C304.038877,296.883333 300.102324,321.800609 294.256669,324.209298 C285.488186,327.823787 286.792933,307.403767 281.190766,285.091135 C275.449878,262.231383 270.677123,250.091899 270.677123,250.091899" id="Fill-205" fill="#49C97E"></path>
            <path d="M271.018685,238.268173 L276.137756,266.651517 C276.137756,266.651517 270.111668,291.005181 236.592762,278.133292 L226.321637,224.101238 C226.321637,224.101238 265.556208,220.336388 271.018685,238.268173" id="Fill-207" fill="#FFD3BB"></path>
            <path d="M273.327748,248.567624 L260.473321,252.445003 C260.473321,252.445003 265.183022,256.138068 274.29782,255.068078 L273.327748,248.567624 Z" id="Fill-209" fill="#FE9A65"></path>
            <path d="M629.025106,266.442854 L616.170679,268.382029 C616.170679,268.382029 621.129688,273.050987 630.245457,271.980997 L629.025106,266.442854 Z" id="Fill-211" fill="#FE9A65"></path>
            <path d="M294.868784,179.94064 C294.868784,179.94064 292.939311,232.58064 285.130229,241.7129 C277.322118,250.84419 246.394275,258.957874 230.212499,244.237998 C214.029754,229.518122 221.707876,199.500206 221.707876,199.500206 C221.707876,199.500206 269.56445,155.9071 294.868784,179.94064" id="Fill-213" fill="#FFD3BB"></path>
            <path d="M280.727459,209.005847 C280.727459,209.005847 281.119368,211.439759 282.222341,214.734124 C282.259203,214.845682 282.298006,214.9553 282.339719,215.065889 C283.086675,217.071998 283.749234,218.16818 284.851236,220.19078 C286.173445,222.620811 284.538873,223.711172 280.592619,224.967416" id="Stroke-215" stroke="#003151" stroke-width="1.04767802" stroke-linecap="round" stroke-linejoin="round"></path>
            <path d="M630.556462,228.702 C630.556462,228.702 631.114254,231.102929 632.440343,234.314838 C632.484966,234.421546 632.531529,234.529224 632.580033,234.636902 C633.461829,236.587717 634.199084,237.635395 635.436896,239.57942 C636.923046,241.911474 635.36608,243.111453 631.513924,244.634466" id="Stroke-217" stroke="#003151" stroke-width="1.04767802" stroke-linecap="round" stroke-linejoin="round"></path>
            <path d="M273.294572,198.889255 C273.294572,198.889255 265.982167,196.125519 262.584974,202.256376" id="Stroke-219" stroke="#003151" stroke-width="0.89246646" stroke-linecap="round" stroke-linejoin="round"></path>
            <path d="M622.448211,219.116813 C622.448211,219.116813 614.964103,216.861395 611.994712,223.209548" id="Stroke-221" stroke="#003151" stroke-width="0.89246646" stroke-linecap="round" stroke-linejoin="round"></path>
            <path d="M291.170384,198.859959 C291.170384,198.859959 286.844832,194.162869 281.529806,198.482601" id="Stroke-223" stroke="#003151" stroke-width="0.89246646" stroke-linecap="round" stroke-linejoin="round"></path>
            <path d="M640.280854,217.86348 C640.280854,217.86348 635.642939,213.475843 630.636396,218.147711" id="Stroke-225" stroke="#003151" stroke-width="0.89246646" stroke-linecap="round" stroke-linejoin="round"></path>
            <path d="M287.407571,201.974764 C286.294898,201.595465 285.083278,202.19109 284.703979,203.303763 C284.323711,204.417406 284.920305,205.629026 286.032978,206.008324 C287.145651,206.387622 288.357271,205.792968 288.73657,204.679325 C289.116838,203.565682 288.520244,202.355032 287.407571,201.974764" id="Fill-227" fill="#003151"></path>
            <path d="M636.740673,220.260237 C635.603748,219.957575 634.435781,220.635655 634.134089,221.77161 C633.831426,222.907564 634.507567,224.076502 635.644491,224.378194 C636.780446,224.680857 637.948413,224.002776 638.251075,222.867792 C638.553738,221.730867 637.876627,220.5629 636.740673,220.260237" id="Fill-229" fill="#003151"></path>
            <path d="M271.28109,203.046208 C270.168417,202.66691 268.956797,203.262535 268.577498,204.375207 C268.1982,205.48788 268.793825,206.700471 269.906497,207.079769 C271.01917,207.459067 272.230791,206.864413 272.610089,205.75077 C272.990357,204.638097 272.393763,203.426477 271.28109,203.046208" id="Fill-231" fill="#003151"></path>
            <path d="M620.724489,222.43252 C619.588535,222.129858 618.420568,222.807938 618.117905,223.944863 C617.815243,225.079847 618.493323,226.248784 619.629278,226.550477 C620.765232,226.854109 621.933199,226.175059 622.235862,225.040074 C622.538524,223.90412 621.861414,222.735183 620.724489,222.43252" id="Fill-233" fill="#003151"></path>
            <path d="M274.609505,230.697051 C274.609505,230.697051 274.936419,231.193728 275.630991,231.76704 C275.970516,232.048361 276.387647,232.330652 276.900815,232.57608 C277.303395,232.769125 277.758359,232.921426 278.261827,233.021344 C278.458751,233.061117 278.664407,233.087309 278.875882,233.098949 C279.140712,233.11253 279.416213,233.10768 279.697534,233.073728 C280.082652,233.028134 280.478442,232.941798 280.887812,232.805988 C281.248679,232.685699 281.614396,232.538248 281.988844,232.339383 C282.47194,232.082314 282.946305,231.76801 283.446863,231.369311 C283.503127,231.337298 283.522528,231.267453 283.490516,231.210219 C283.458504,231.155895 283.387688,231.136493 283.332394,231.166566 C282.349711,231.554594 281.475676,231.709806 280.668576,231.785472 C280.300918,231.820394 279.957513,231.824275 279.626718,231.822334 C279.391961,231.821364 279.165934,231.810693 278.946698,231.800993 C278.586801,231.783531 278.248246,231.76219 277.929092,231.711746 C277.691424,231.675853 277.466367,231.638021 277.250041,231.590487 C275.719267,231.247082 274.780237,230.538929 274.780237,230.538929 C274.737554,230.492365 274.663829,230.489455 274.616295,230.533108 C274.568762,230.575792 274.565851,230.649517 274.609505,230.697051" id="Fill-235" fill="#003151"></path>
            <path d="M241.186054,212.756438 C241.186054,212.756438 247.305269,210.657201 248.309294,196.704652 C248.309294,196.704652 264.172885,199.156995 268.212266,188.399864 C268.212266,188.399864 286.029583,194.852784 291.126343,184.042299 C291.126343,184.042299 310.339593,185.054085 308.692411,169.398089 C307.161637,154.843125 297.94304,154.483228 297.94304,154.483228 C297.94304,154.483228 300.118912,135.386386 278.726879,136.65524 C278.726879,136.65524 269.796394,115.075013 248.074537,130.045168 C248.074537,130.045168 231.011936,123.667913 225.783247,137.675756 C225.783247,137.675756 209.516105,140.00199 210.812122,154.087439 C210.812122,154.087439 198.355424,156.765808 200.885373,167.280421 C200.885373,167.280421 185.669789,181.111711 201.290863,193.207542 C201.290863,193.207542 191.998541,203.306964 205.700811,210.458336 C205.700811,210.458336 197.659882,228.981866 216.134908,235.608429 C216.134908,235.608429 220.335321,254.436561 233.954165,240.135756 C239.914289,233.87685 233.440027,225.536169 233.440027,225.536169 C233.440027,225.536169 222.896312,210.964714 228.615858,206.101742 C234.334433,201.23877 238.142937,204.653424 241.186054,212.756438" id="Fill-237" fill="#003151"></path>
            <path d="M232.494303,257.588132 C232.494303,257.588132 211.213829,259.57387 208.766336,270.71709 C206.320784,281.86031 215.179484,286.02192 215.179484,286.02192 C215.179484,286.02192 205.869701,290.131146 216.309618,299.85515 C226.748566,309.580124 240.611868,330.654943 246.930918,330.438617 C256.410464,330.113643 250.374675,311.100227 242.697523,289.413292 C236.135955,270.876182 232.494303,257.588132 232.494303,257.588132" id="Fill-239" fill="#49C97E"></path>
            <path d="M973.372716,183.789692 C974.313686,183.533593 976.368299,210.602489 972.820745,215.810807 C970.87187,218.67252 979.829517,222.1609 979.829517,222.1609 C979.829517,222.1609 983.842706,240.340054 991.103697,242.762324 C998.364687,245.186535 1011.26762,240.446762 1015.14597,237.895472 C1015.14597,237.895472 1041.41746,216.885647 1031.19969,183.899311 C1020.99162,150.913944 975.224584,178.876277 973.372716,183.789692" id="Fill-241" fill="#A97A5F"></path>
            <path d="M975.680033,201.865825 C975.680033,201.865825 981.448083,196.419839 986.625358,201.886196" id="Stroke-243" stroke="#003151" stroke-width="1.04767802" stroke-linecap="round" stroke-linejoin="round"></path>
            <path d="M984.73459,230.564442 C984.73459,230.564442 985.325364,230.914638 986.334239,231.160066 C986.828976,231.280355 987.400349,231.366691 988.059998,231.366691 C988.574136,231.366691 989.116407,231.303637 989.687779,231.160066 C989.921567,231.105742 990.143713,231.032017 990.36683,230.94374 C990.657851,230.830241 990.939172,230.693461 991.220493,230.524669 C991.597851,230.294762 991.97618,230.018291 992.344807,229.683616 C992.664931,229.388714 992.984085,229.06083 993.284807,228.676681 C993.682537,228.182914 994.041463,227.625123 994.390689,226.973234 C994.429492,226.92085 994.410091,226.849065 994.360617,226.812202 C994.303383,226.774369 994.234508,226.78601 994.195705,226.838394 C993.362413,227.742502 992.529121,228.361408 991.71426,228.849354 C991.345633,229.073441 990.987676,229.252904 990.628749,229.416846 C990.37653,229.534225 990.134012,229.638023 989.891494,229.73503 C989.494735,229.895092 989.116407,230.031872 988.75748,230.13276 C988.476159,230.208425 988.214239,230.27439 987.962991,230.324834 C986.169327,230.67988 984.821897,230.350056 984.821897,230.350056 C984.763692,230.325804 984.695787,230.353936 984.666685,230.41311 C984.647284,230.472285 984.676386,230.54019 984.73459,230.564442" id="Fill-245" fill="#003151"></path>
            <path d="M978.685414,205.167271 C979.770925,204.530904 981.166859,204.896621 981.807106,205.984072 C982.446384,207.072493 982.078727,208.470367 980.992246,209.107705 C979.906735,209.744072 978.5011,209.378355 977.860852,208.290904 C977.231276,207.203453 977.599903,205.803639 978.685414,205.167271" id="Fill-247" fill="#003151"></path>
            <path d="M1008.98028,196.965214 C1008.98028,196.965214 1014.54462,186.700879 1020.60369,193.607794 C1025.95558,199.694027 1020.41938,208.525564 1012.30569,210.368702 C1007.03141,211.568681 1011.38509,227.540921 1018.23768,234.10831 C1030.62745,245.969383 1054.80553,236.045544 1057.94662,217.254275 C1063.88928,181.676875 1052.75964,192.716297 1050.42371,174.900921 C1047.50573,152.612541 1014.94235,133.852314 989.736962,144.503707 C967.100326,154.068619 960.237065,176.582056 972.025383,188.218072 C986.421255,202.435451 1008.98028,196.965214 1008.98028,196.965214" id="Fill-249" fill="#003151"></path>
            <path d="M1063.26834,155.484246 C1073.41433,155.484246 1081.64054,163.709488 1081.64054,173.855474 C1081.64054,184.002429 1073.41433,192.227672 1063.26834,192.227672 C1053.12236,192.227672 1044.89711,184.002429 1044.89711,173.855474 C1044.89711,163.709488 1053.12236,155.484246 1063.26834,155.484246" id="Fill-251" fill="#003151"></path>
            <path d="M938.163071,833.64807 C938.163071,822.548504 929.14722,813.532652 918.047653,813.532652 L832.252524,813.532652 C821.150047,813.532652 812.136136,822.548504 812.136136,833.64807 L812.136136,873.879876 C812.136136,884.980413 821.150047,893.996264 832.252524,893.996264 L918.047653,893.996264 C929.14722,893.996264 938.163071,884.980413 938.163071,873.879876 L938.163071,833.64807 Z" id="Fill-253" fill="#D3E4FF"></path>
            <path d="M1013.16799,827.599379 C1013.16799,823.05265 1009.48463,819.359585 1004.9282,819.359585 L988.447639,819.359585 C983.90091,819.359585 980.206875,823.05265 980.206875,827.599379 L980.206875,891.581463 C980.206875,896.129162 983.90091,899.822227 988.447639,899.822227 L1004.9282,899.822227 C1009.48463,899.822227 1013.16799,896.129162 1013.16799,891.581463 L1013.16799,827.599379 Z" id="Fill-255" fill="#A8C9FE"></path>
            <mask id="mask-6" fill="white">
                <use xlink:href="#path-5"></use>
            </mask>
            <g id="Clip-258"></g>
            <polygon id="Fill-257" fill="#A8C9FE" mask="url(#mask-6)" points="847.036037 781.54161 929.437853 781.54161 929.437853 764.09195 847.036037 764.09195"></polygon>
            <polygon id="Fill-259" fill="#A8C9FE" mask="url(#mask-6)" points="820.201899 843.682497 918.11517 843.682497 918.11517 836.896842 820.201899 836.896842"></polygon>
            <polygon id="Fill-260" fill="#D3E4FF" mask="url(#mask-6)" points="378.987531 811.642466 283.708006 811.642466 296.91554 910.698483 364.838058 910.698483"></polygon>
            <path d="M311.422485,806.746609 C311.422485,806.746609 314.349193,744.218663 254.310452,694.809003 C254.310452,694.809003 321.402588,727.717734 325.129606,805.718332 L311.422485,806.746609 Z" id="Fill-261" fill="#A8C9FE" mask="url(#mask-6)"></path>
            <path d="M325.129509,805.612594 C325.129509,805.612594 318.475783,705.494349 342.262925,647.977796 C342.262925,647.977796 328.855556,701.568466 334.268559,805.612594 L325.129509,805.612594 Z" id="Fill-262" fill="#A8C9FE" mask="url(#mask-6)"></path>
            <path d="M349.394605,804.691802 C349.394605,804.691802 347.609672,753.466167 399.653077,719.459315 C399.653077,719.459315 337.129981,727.71754 333.402964,805.719108 L349.394605,804.691802 Z" id="Fill-263" fill="#A8C9FE" mask="url(#mask-6)"></path>
            <path d="M391.25167,803.858122 C391.25167,800.862539 388.820669,798.428627 385.827026,798.428627 L276.868512,798.428627 C273.873899,798.428627 271.443868,800.862539 271.443868,803.858122 L271.443868,814.70644 C271.443868,817.702023 273.873899,820.133994 276.868512,820.133994 L385.827026,820.133994 C388.820669,820.133994 391.25167,817.702023 391.25167,814.70644 L391.25167,803.858122 Z" id="Fill-264" fill="#E7F0FF" mask="url(#mask-6)"></path>
            <path d="M1053.80684,309.971063 C1055.75571,305.084809 1055.66841,299.626213 1053.57402,294.801073 C1051.49031,289.976904 1047.56345,286.182951 1042.66847,284.258328 C1037.78221,282.338555 1032.33429,282.448173 1027.53534,284.566811 C1022.73639,286.684479 1018.97542,290.633643 1017.10415,295.535418 C1010.00808,314.102601 1000.12983,339.935624 1000.12983,339.935624 L1036.11466,354.466336 C1036.11466,354.466336 1046.41974,328.544066 1053.80684,309.971063" id="Fill-265" fill="#49C97E" mask="url(#mask-6)"></path>
            <path d="M95.7244974,464.536553 C119.282702,464.536553 138.379544,483.634365 138.379544,507.1916 C138.379544,530.749804 119.282702,549.846646 95.7244974,549.846646 C72.1662931,549.846646 53.069451,530.749804 53.069451,507.1916 C53.069451,483.634365 72.1662931,464.536553 95.7244974,464.536553" id="Fill-266" fill="#FF89AB" mask="url(#mask-6)"></path>
            <path d="M100.682828,517.730464 C101.736326,517.496677 102.527905,517.115439 103.054654,516.588689 C103.581404,516.06194 103.844293,515.432363 103.844293,514.700929 C103.844293,513.968524 103.573643,513.36902 103.033313,512.900475 C102.491042,512.43193 101.708194,512.021589 100.682828,511.671393 L100.682828,517.730464 Z M93.0435088,501.133498 C93.0435088,501.865903 93.3219195,502.465408 93.8777709,502.933953 C94.4345924,503.401527 95.2387822,503.797317 96.2922807,504.119381 L96.2922807,497.883756 C95.1805779,498.147616 94.3598968,498.564747 93.8341176,499.13515 C93.3073684,499.706522 93.0435088,500.371992 93.0435088,501.133498 L93.0435088,501.133498 Z M110.913209,514.173209 C110.913209,516.574138 110.036264,518.630691 108.279463,520.342869 C106.522663,522.055046 103.990774,523.116305 100.682828,523.526646 L100.682828,528.443942 L96.2922807,528.443942 L96.2922807,523.656636 C94.1270795,523.541197 92.0627657,523.159959 90.1012797,522.516801 C88.1407637,521.872673 86.560516,521.081094 85.3605366,520.144974 L87.7750464,514.789205 C88.8867492,515.607946 90.1895562,516.295728 91.6824974,516.852549 C93.1754386,517.4084 94.712033,517.758596 96.2922807,517.906047 L96.2922807,510.574241 C94.215356,510.075624 92.4585552,509.519773 91.0238184,508.904747 C89.5900516,508.290691 88.3900722,507.390464 87.4229102,506.204066 C86.4576883,505.018638 85.9745924,503.445181 85.9745924,501.484665 C85.9745924,499.054634 86.8592982,496.969948 88.6306502,495.227699 C90.4020021,493.486419 92.9562023,492.42516 96.2922807,492.044892 L96.2922807,487.170279 L100.682828,487.170279 L100.682828,491.957585 C104.283736,492.249577 107.255067,493.142043 109.596821,494.634985 L107.401548,500.036347 C105.205304,498.777193 102.966378,498.015686 100.682828,497.751827 L100.682828,505.217503 C102.73259,505.685077 104.467079,506.219587 105.887265,506.819092 C107.306481,507.419567 108.4987,508.312033 109.464892,509.498431 C110.431084,510.68289 110.913209,512.242766 110.913209,514.173209 L110.913209,514.173209 Z" id="Fill-267" fill="#FFFFFF" mask="url(#mask-6)"></path>
            <path d="M214.686687,286.5833 L230.625944,300.593084 C230.936367,300.865674 231.408793,300.835602 231.680413,300.525179 C231.952033,300.216696 231.921961,299.74427 231.611538,299.47168 L215.672281,285.460927 C215.362828,285.189307 214.890402,285.219379 214.618782,285.527862 C214.346192,285.838285 214.376264,286.31071 214.686687,286.5833" id="Fill-268" fill="#003151" mask="url(#mask-6)"></path>
            <path d="M304.199521,270.301414 L293.345383,290.860155 C293.152338,291.223932 293.292029,291.675986 293.656776,291.86903 C294.021523,292.062074 294.473577,291.921414 294.665651,291.557637 L305.52076,270.999866 C305.712834,270.635119 305.573143,270.182095 305.208396,269.990991 C304.844619,269.796976 304.392566,269.936667 304.199521,270.301414" id="Fill-269" fill="#003151" mask="url(#mask-6)"></path>
            <path d="M635.556021,250.736997 L625.006485,250.621558 C625.006485,250.621558 622.804421,257.49064 629.679323,258.156109 C636.101201,258.777926 635.556021,250.736997 635.556021,250.736997" id="Fill-270" fill="#FFFFFF" mask="url(#mask-6)"></path>
        </g>
    </g>
</svg>