<?xml version="1.0" encoding="UTF-8"?>
<svg width="375px" height="400px" viewBox="0 0 375 400" version="1.1" xmlns="http://www.w3.org/2000/svg" xmlns:xlink="http://www.w3.org/1999/xlink">
    <title>Patterns / Light - 2</title>
    <defs>
        <rect id="path-1" x="0.520833333" y="0.291666667" width="375" height="400"></rect>
        <linearGradient x1="95.063165%" y1="109.64838%" x2="23.2244431%" y2="14.558217%" id="linearGradient-3">
            <stop stop-color="#94DDC1" offset="0%"></stop>
            <stop stop-color="#FFFFFF" offset="100%"></stop>
        </linearGradient>
        <linearGradient x1="40.1872404%" y1="10.7489618%" x2="35.7377476%" y2="-7.04828604%" id="linearGradient-4">
            <stop stop-color="#94DDC1" offset="0%"></stop>
            <stop stop-color="#FFFFFF" offset="100%"></stop>
        </linearGradient>
        <linearGradient x1="51.9704357%" y1="45.3462862%" x2="68.8153902%" y2="5.56801819%" id="linearGradient-5">
            <stop stop-color="#94DDC1" offset="0%"></stop>
            <stop stop-color="#FFFFFF" offset="100%"></stop>
        </linearGradient>
        <linearGradient x1="50.0603763%" y1="49.5059532%" x2="13.3795812%" y2="3.06309068%" id="linearGradient-6">
            <stop stop-color="#FFFFFF" offset="0%"></stop>
            <stop stop-color="#94DDC1" offset="100%"></stop>
        </linearGradient>
        <linearGradient x1="65.308415%" y1="95.7209967%" x2="33.1137663%" y2="-0.439133987%" id="linearGradient-7">
            <stop stop-color="#94DDC1" offset="0%"></stop>
            <stop stop-color="#FFFFFF" offset="100%"></stop>
        </linearGradient>
        <linearGradient x1="55.2667651%" y1="8.28658794%" x2="56.3211725%" y2="-0.0643188528%" id="linearGradient-8">
            <stop stop-color="#FFFFFF" offset="0%"></stop>
            <stop stop-color="#94DDC1" offset="100%"></stop>
        </linearGradient>
        <linearGradient x1="47.8656362%" y1="88.3275971%" x2="54.5473982%" y2="-1.58366047%" id="linearGradient-9">
            <stop stop-color="#94DDC1" offset="0%"></stop>
            <stop stop-color="#FFFFFF" offset="100%"></stop>
        </linearGradient>
        <linearGradient x1="0.0647866746%" y1="20.7884188%" x2="42.5316439%" y2="15.083677%" id="linearGradient-10">
            <stop stop-color="#94DDC1" offset="0%"></stop>
            <stop stop-color="#FFFFFF" offset="100%"></stop>
        </linearGradient>
        <linearGradient x1="41.3186098%" y1="20.7979269%" x2="33.6770619%" y2="4.01242509%" id="linearGradient-11">
            <stop stop-color="#FFFFFF" offset="0%"></stop>
            <stop stop-color="#94DDC1" offset="100%"></stop>
        </linearGradient>
        <linearGradient x1="40.7633638%" y1="81.8558152%" x2="62.3740263%" y2="-8.23954076%" id="linearGradient-12">
            <stop stop-color="#94DDC1" offset="0%"></stop>
            <stop stop-color="#FFFFFF" offset="100%"></stop>
        </linearGradient>
    </defs>
    <g id="Patterns-/-Light---2" stroke="none" stroke-width="1" fill="none" fill-rule="evenodd">
        <g id="Group-2">
            <mask id="mask-2" fill="white">
                <use xlink:href="#path-1"></use>
            </mask>
            <use id="Rectangle" fill="#FFFFFF" fill-rule="nonzero" transform="translate(188.020833, 200.291667) scale(1, -1) translate(-188.020833, -200.291667) " xlink:href="#path-1"></use>
            <g id="Group" opacity="0.200000003" mask="url(#mask-2)" fill-rule="nonzero">
                <g transform="translate(18.020833, -371.708333) scale(1, -1) translate(-18.020833, 371.708333) translate(-599.479167, -1127.708333)">
                    <path d="M1073.74219,139.864583 C1073.74219,62.6197917 1011.1224,0 933.875,0 C856.627604,0 794.010417,62.6197917 794.010417,139.864583 C794.010417,217.109375 856.630208,279.731771 933.875,279.731771 C1011.11979,279.731771 1073.74219,217.111979 1073.74219,139.864583 Z M864.138021,139.864583 C864.138021,101.351562 895.361979,70.1276042 933.875,70.1276042 C972.388021,70.1276042 1003.61458,101.351562 1003.61458,139.864583 C1003.61458,178.377604 972.390625,209.604167 933.875,209.604167 C895.359375,209.604167 864.138021,178.385417 864.138021,139.864583 Z" id="Shape" fill="url(#linearGradient-3)"></path>
                    <circle id="Oval" fill="url(#linearGradient-4)" cx="962.739583" cy="522.721354" r="179.971354"></circle>
                    <path d="M866.450521,254.447917 C866.450521,138.083333 772.117188,43.75 655.75,43.75 C539.382813,43.75 445.052083,138.083333 445.052083,254.447917 C445.052083,370.8125 539.385417,465.148438 655.75,465.148438 C772.114583,465.148438 866.450521,370.815104 866.450521,254.447917 Z M550.695313,254.447917 C550.695313,196.427083 597.729167,149.393229 655.75,149.393229 C713.770833,149.393229 760.807292,196.427083 760.807292,254.447917 C760.807292,312.46875 713.770833,359.505208 655.75,359.505208 C597.729167,359.505208 550.695313,312.46875 550.695313,254.447917 Z" id="Shape" fill="url(#linearGradient-5)"></path>
                    <path d="M752.388021,310.958333 C752.388021,255.575521 707.489583,210.677083 652.104167,210.677083 C596.71875,210.677083 551.822917,255.575521 551.822917,310.958333 C551.822917,366.341146 596.721354,411.242188 652.104167,411.242188 C707.486979,411.242188 752.388021,366.34375 752.388021,310.958333 Z M602.104167,310.958333 C602.104167,283.354167 624.5,260.958333 652.104167,260.958333 C679.708333,260.958333 702.104167,283.354167 702.104167,310.958333 C702.104167,338.5625 679.708333,360.958333 652.104167,360.958333 C624.5,360.958333 602.104167,338.572917 602.104167,310.958333 L602.104167,310.958333 Z" id="Shape" fill="url(#linearGradient-6)"></path>
                    <path d="M902.604167,147.677083 C902.604167,133.593822 891.187428,122.177083 877.104167,122.177083 C863.020906,122.177083 851.604167,133.593822 851.604167,147.677083 C851.604167,161.760344 863.020906,173.177083 877.104167,173.177083 C891.187428,173.177083 902.604167,161.760344 902.604167,147.677083 Z M864.390625,147.677083 C864.390625,142.533645 867.489096,137.896713 872.241114,135.928648 C876.993132,133.960582 882.462777,135.048999 886.099365,138.686332 C889.735952,142.323664 890.823248,147.793532 888.85421,152.545146 C886.885172,157.296761 882.247604,160.394283 877.104167,160.393229 C873.731875,160.393229 870.497741,159.053413 868.113414,156.668598 C865.729088,154.283784 864.389934,151.049375 864.390625,147.677083 Z" id="Shape" fill="url(#linearGradient-7)"></path>
                    <circle id="Oval" fill="url(#linearGradient-8)" cx="617.447917" cy="894.054688" r="617.447917"></circle>
                    <path d="M917.049479,259.557292 L916.997396,259.502604 C914.7258,257.132831 914.765468,253.381834 917.086671,251.06063 C919.407875,248.739426 923.158872,248.699758 925.528646,250.971354 C928.576568,254.019742 933.019259,255.210521 937.183201,254.095137 C941.347143,252.979752 944.599734,249.727658 945.715754,245.563886 C946.831773,241.400115 945.641672,236.957241 942.59375,233.908854 C942.447507,233.763711 942.309281,233.610706 942.179688,233.450521 L942.179688,233.450521 C940.182402,230.981001 940.441474,227.385944 942.772208,225.228316 C945.102941,223.070687 948.707272,223.089277 951.015625,225.270833 C951.054688,225.304688 951.091146,225.341146 951.127604,225.377604 L951.236979,225.489583 L951.390625,225.645833 C960.547398,235.136395 960.389962,250.219989 951.037089,259.517356 C941.684216,268.814722 926.599952,268.882373 917.164062,259.669271 L917.049479,259.557292 Z" id="Path" fill="url(#linearGradient-9)"></path>
                    <path d="M819.140625,268.25 C820.462728,278.018578 816.96841,287.822079 809.765625,294.552083 C798.244792,305.34375 780.111979,305.473958 768.447917,294.838542 C758.579698,285.87349 755.6863,271.533709 761.306123,259.443569 C766.925946,247.353429 779.753619,240.321226 792.96875,242.085938 C799.344683,242.975339 805.590687,239.757448 808.567708,234.049479 L808.760417,233.674479 C813.5,224.484375 807.841146,213.247396 797.604167,211.799479 C778.526073,209.050499 759.270859,215.477915 745.669271,229.135417 C721.8125,253.049479 722.005208,292.1875 746.085938,315.875 C769.981771,339.377604 808.40625,339.257813 832.151042,315.513021 C845.766727,301.920663 852.173486,282.702317 849.4375,263.658854 C847.981771,253.408854 836.75,247.729167 827.549479,252.473958 L827.091146,252.710938 C821.382813,255.643229 818.291667,261.882812 819.140625,268.25 Z" id="Path" fill="url(#linearGradient-10)"></path>
                    <path d="M1085.20052,424.239583 C1085.20052,332.036458 1010.46094,257.291667 918.25,257.291667 C826.039062,257.291667 751.302083,332.03125 751.302083,424.239583 C751.302083,516.447917 826.041667,591.190104 918.25,591.190104 C1010.45833,591.190104 1085.20052,516.442708 1085.20052,424.239583 Z M835.007812,424.239583 C835.007812,378.268229 872.278646,340.997396 918.25,340.997396 C964.221354,340.997396 1001.49219,378.268229 1001.49219,424.239583 C1001.49219,470.210938 964.223958,507.481771 918.25,507.481771 C872.276042,507.481771 835.007812,470.213542 835.007812,424.239583 Z" id="Shape" fill="url(#linearGradient-11)"></path>
                    <path d="M706.523438,192.950521 L706.432292,193.041667 C702.38508,197.088159 695.823836,197.087576 691.777344,193.040364 C687.730851,188.993153 687.731434,182.431909 691.778646,178.385417 C697.013424,173.150638 699.057838,165.520783 697.141776,158.369943 C695.225714,151.219103 689.640272,145.633661 682.489432,143.717599 C675.338592,141.801537 667.708737,143.845951 662.473958,149.080729 C662.213542,149.341146 661.953125,149.570313 661.692708,149.791667 L661.692708,149.791667 C657.456675,153.280496 651.235123,152.861645 647.504949,148.836511 C643.774775,144.811376 643.829703,138.575984 647.630208,134.617187 C647.690104,134.552083 647.755208,134.486979 647.817708,134.424479 C647.880208,134.361979 647.942708,134.299479 648.007812,134.239583 C648.072917,134.179687 648.184896,134.0625 648.268229,133.979167 C664.515017,117.928892 690.684286,118.046295 706.786411,134.241695 C722.888536,150.437095 722.854784,176.606605 706.710938,192.760417 L706.523438,192.950521 Z" id="Path" fill="url(#linearGradient-12)"></path>
                </g>
            </g>
        </g>
    </g>
</svg>