<?xml version="1.0" standalone="no"?>
<!DOCTYPE svg PUBLIC "-//W3C//DTD SVG 20010904//EN"
 "http://www.w3.org/TR/2001/REC-SVG-20010904/DTD/svg10.dtd">
<svg version="1.0" xmlns="http://www.w3.org/2000/svg"
 width="1280.000000pt" height="1280.000000pt" viewBox="0 0 1280.000000 1280.000000"
 preserveAspectRatio="xMidYMid meet">
<metadata>
Created by potrace 1.16, written by Peter Selinger 2001-2019
</metadata>
<g transform="translate(0.000000,1280.000000) scale(0.100000,-0.100000)"
fill="#000000" stroke="none">
<path d="M5987 8785 c-135 -37 -26 67 -2081 -1984 -1266 -1264 -1931 -1936
-1957 -1975 -164 -248 -90 -581 165 -748 86 -56 168 -78 286 -78 119 0 199 22
291 81 47 30 502 479 1754 1730 l1690 1689 1685 -1686 c1019 -1018 1708 -1700
1743 -1724 90 -61 157 -82 271 -88 177 -8 293 35 411 153 118 117 161 234 153
411 -6 114 -27 181 -88 271 -24 36 -784 802 -1947 1964 -2051 2048 -1938 1941
-2082 1983 -66 19 -225 20 -294 1z"/>
</g>
</svg>
