<?xml version="1.0" encoding="UTF-8"?>
<svg width="24px" height="24px" viewBox="0 0 24 24" version="1.1" xmlns="http://www.w3.org/2000/svg" xmlns:xlink="http://www.w3.org/1999/xlink">
    <title>A32E5A08-0496-442B-9C8F-274A6D81C1FB</title>
    <g id="02---Business-Flow" stroke="none" stroke-width="1" fill="none" fill-rule="evenodd">
        <g id="07-18_Provider-Mode---Inventory---Business-Page---Add" transform="translate(-24.000000, -622.000000)">
            <g id="Bottom-Sheets-/-Default---Short" transform="translate(0.000000, 482.000000)">
                <g id="Text-Input-/-Default---Tail-Icon" transform="translate(24.000000, 124.000000)">
                    <g id="Icons-/-Ic_24_Search" transform="translate(0.000000, 16.000000)">
                        <rect id="Bounding-Box" fill-opacity="0" fill="#FFFFFF" fill-rule="nonzero" x="0" y="0" width="24" height="24"></rect>
                        <g id="Group-4" transform="translate(1.000000, 2.000000)" stroke-linejoin="round">
                            <path d="M5,9 L5,7 M9,9 L9,7 M13,9 L13,7 M17,9 L17,7" id="Combined-Shape" stroke="#4CBD97" stroke-width="2" stroke-linecap="round"></path>
                            <path d="M19.5,10 C19.7761424,10 20,10.2238576 20,10.5 L20,19.5 C20,19.7761424 19.7761424,20 19.5,20 L2.5,20 C2.22385763,20 2,19.7761424 2,19.5 L2,10.5 C2,10.2238576 2.22385763,10 2.5,10 L19.5,10 Z M18.5,0 C18.7761424,-5.07265313e-17 19,0.223857625 19,0.5 L19,3.5 C19,3.77614237 18.7761424,4 18.5,4 L3.5,4 C3.22385763,4 3,3.77614237 3,3.5 L3,0.5 C3,0.223857625 3.22385763,5.07265313e-17 3.5,0 L18.5,0 Z" id="Combined-Shape" stroke="#323F4B" stroke-width="2" stroke-linecap="round"></path>
                            <rect id="Rectangle" stroke="#323F4B" stroke-width="2" stroke-linecap="round" x="9" y="14" width="4" height="6" rx="1"></rect>
                            <path d="M3.30901699,4 L18.690983,4 C18.880369,4 19.0535006,4.10700119 19.1381966,4.2763932 L21.6381966,9.2763932 C21.7616912,9.52338245 21.6615791,9.82371897 21.4145898,9.9472136 C21.3451621,9.98192745 21.2686056,10 21.190983,10 L0.809016994,10 C0.532874619,10 0.309016994,9.77614237 0.309016994,9.5 C0.309016994,9.42237745 0.32708954,9.34582092 0.361803399,9.2763932 L2.8618034,4.2763932 C2.94649941,4.10700119 3.11963097,4 3.30901699,4 Z" id="Rectangle" stroke="#4CBD97" stroke-width="2" stroke-linecap="round"></path>
                            <line x1="1.5" y1="9.5" x2="1.5" y2="9.5" id="Line" stroke="#979797" stroke-linecap="square" fill-rule="nonzero"></line>
                        </g>
                    </g>
                </g>
            </g>
        </g>
    </g>
</svg>