<?xml version="1.0" encoding="UTF-8"?>
<svg width="16px" height="16px" viewBox="0 0 16 16" version="1.1" xmlns="http://www.w3.org/2000/svg" xmlns:xlink="http://www.w3.org/1999/xlink">
    <title>Icons / Ic_16_Date</title>
    <g id="Icons-/-Ic_16_Date" stroke="none" stroke-width="1" fill="none" fill-rule="evenodd">
        <rect id="Bounding-Box" fill-rule="nonzero" x="0" y="0" width="16" height="16"></rect>
        <g id="Group">
            <path d="M15,2 L13,2 L13,1 C13,0.44771525 12.5522847,-1.01453063e-16 12,0 L11,0 C10.4477153,1.01453063e-16 10,0.44771525 10,1 L10,2 L10,2 L6,2 L6,1 C6,0.44771525 5.55228475,-1.01453063e-16 5,0 L4,0 C3.44771525,1.01453063e-16 3,0.44771525 3,1 L3,2 L3,2 L1,2 C0.448,2 0,2.448 0,3 L0,15 C0,15.552 0.448,16 1,16 L15,16 C15.552,16 16,15.552 16,15 L16,3 C16,2.448 15.552,2 15,2 Z M14,14 L2,14 L2,5 L14,5 L14,14 Z" id="Shape" fill="#CBD2D9"></path>
            <path d="M5,10 C5.55228475,10 6,10.4477153 6,11 C6,11.5522847 5.55228475,12 5,12 C4.44771525,12 4,11.5522847 4,11 C4,10.4477153 4.44771525,10 5,10 Z M8,10 C8.55228475,10 9,10.4477153 9,11 C9,11.5522847 8.55228475,12 8,12 C7.44771525,12 7,11.5522847 7,11 C7,10.4477153 7.44771525,10 8,10 Z M11,10 C11.5522847,10 12,10.4477153 12,11 C12,11.5522847 11.5522847,12 11,12 C10.4477153,12 10,11.5522847 10,11 C10,10.4477153 10.4477153,10 11,10 Z M5,7 C5.55228475,7 6,7.44771525 6,8 C6,8.55228475 5.55228475,9 5,9 C4.44771525,9 4,8.55228475 4,8 C4,7.44771525 4.44771525,7 5,7 Z M8,7 C8.55228475,7 9,7.44771525 9,8 C9,8.55228475 8.55228475,9 8,9 C7.44771525,9 7,8.55228475 7,8 C7,7.44771525 7.44771525,7 8,7 Z M11,7 C11.5522847,7 12,7.44771525 12,8 C12,8.55228475 11.5522847,9 11,9 C10.4477153,9 10,8.55228475 10,8 C10,7.44771525 10.4477153,7 11,7 Z" id="Combined-Shape" fill="#9AA5B1"></path>
        </g>
    </g>
</svg>