<?xml version="1.0" encoding="UTF-8"?>
<svg width="24px" height="24px" viewBox="0 0 24 24" version="1.1" xmlns="http://www.w3.org/2000/svg" xmlns:xlink="http://www.w3.org/1999/xlink">
    <title>9692B299-874F-44E4-94D5-8F085B4C5600</title>
    <g id="Page-1" stroke="none" stroke-width="1" fill="none" fill-rule="evenodd">
        <g id="03-08_Account---Registration---Email-Verification" transform="translate(-44.000000, -116.000000)" fill-rule="nonzero">
            <g id="Group" transform="translate(24.000000, 96.000000)">
                <g id="Icons-/-Ic_24_Email---Glyph" transform="translate(20.000000, 20.000000)">
                    <rect id="Bounding-Box" x="0" y="0" width="24" height="24"></rect>
                    <g id="letter" transform="translate(0.000000, 2.000000)">
                        <path d="M21.3913043,0 L2.60869565,0 C1.16795283,0 -8.98096855e-09,1.16795283 -8.98096855e-09,2.60869565 L-8.98096855e-09,4.69565217 C-8.98096855e-09,4.88658271 0.104224416,5.06228341 0.271826087,5.15373913 L11.750087,11.4146087 C11.9058548,11.499607 12.0941452,11.499607 12.249913,11.4146087 L23.7281739,5.15373913 C23.8957756,5.06228341 24,4.88658271 24,4.69565217 L24,2.60869565 C24,1.16795283 22.8320472,0 21.3913043,0 Z" id="Path" fill="#2E9B74"></path>
                        <path d="M12.7497391,12.3307826 C12.2829831,12.5850191 11.7191039,12.5850191 11.2523478,12.3307826 L0.012,6.20086957 L0,6.20869565 L0,17.2173913 C0,18.6581341 1.16795283,19.826087 2.60869565,19.826087 L21.3913043,19.826087 C22.8320472,19.826087 24,18.6581341 24,17.2173913 L24,6.20869565 L23.988,6.2013913 L12.7497391,12.3307826 Z" id="Path" fill="#4CBD97"></path>
                    </g>
                </g>
            </g>
        </g>
    </g>
</svg>