<?xml version="1.0" encoding="UTF-8"?>
<svg width="24px" height="24px" viewBox="0 0 24 24" version="1.1" xmlns="http://www.w3.org/2000/svg" xmlns:xlink="http://www.w3.org/1999/xlink">
    <title>314179ED-B929-4BCE-A17F-347E0E1AA2C5</title>
    <g id="02---Business-Flow" stroke="none" stroke-width="1" fill="none" fill-rule="evenodd">
        <g id="07-09B_Provider-Mode---Inventory---Create---Delivery---Vehicle-Photo---Add" transform="translate(-24.000000, -690.000000)">
            <g id="Bottom-Sheets-/-Default---Short" transform="translate(0.000000, 482.000000)">
                <g id="Text-Input-/-Default---Tail-Icon" transform="translate(24.000000, 192.000000)">
                    <g id="Icons-/-Ic_24_Search" transform="translate(0.000000, 16.000000)">
                        <rect id="Bounding-Box" fill-rule="nonzero" x="0" y="0" width="24" height="24"></rect>
                        <g id="photo" transform="translate(2.000000, 2.000000)">
                            <rect id="Rectangle" stroke="#323F4B" stroke-width="2" stroke-linecap="round" stroke-linejoin="round" x="0" y="0" width="20" height="20"></rect>
                            <path d="M4,17.0000001 L16,17.0000001 C16.346618,17.0001616 16.6685998,16.8208177 16.8509316,16.5260309 C17.0332634,16.2312442 17.0499383,15.8630616 16.895,15.553 L12.895,7.553 C12.7511264,7.26524942 12.4775992,7.06429067 12.16,7.013 C11.8425951,6.9588599 11.518782,7.06343622 11.293,7.293 L3.293,15.293 C3.00709208,15.5789943 2.92157809,16.0090366 3.07632202,16.3826546 C3.23106595,16.7562725 3.5956041,17.0000001 4,17.0000001 Z" id="Path" fill="#4CBD97" fill-rule="nonzero"></path>
                            <circle id="Oval" fill="#4CBD97" fill-rule="nonzero" cx="6" cy="6" r="2"></circle>
                        </g>
                    </g>
                </g>
            </g>
        </g>
    </g>
</svg>