<?xml version="1.0" encoding="UTF-8"?>
<svg width="24px" height="24px" viewBox="0 0 24 24" version="1.1" xmlns="http://www.w3.org/2000/svg" xmlns:xlink="http://www.w3.org/1999/xlink">
    <title>Icons / Ic_24_Help</title>
    <g id="Icons-/-Ic_24_Help" stroke="none" stroke-width="1" fill="none" fill-rule="evenodd">
        <rect id="Bounding-Box" fill-rule="nonzero" x="0" y="0" width="24" height="24"></rect>
        <path d="M12,1 C5.93441667,1 1,5.93441667 1,12 C1,18.0655833 5.93441667,23 12,23 C18.0655833,23 23,18.0655833 23,12 C23,5.93441667 18.0655833,1 12,1 Z" id="Path" stroke="#323F4B" stroke-width="2" stroke-linecap="round" stroke-linejoin="round"></path>
        <path d="M11.77,16.1360634 C12.4366667,16.1360634 12.8333333,15.7926024 12.96,15.1056803 C13.0333333,14.7820343 13.0883333,14.5558124 13.125,14.4270145 C13.1616667,14.2982166 13.2133333,14.1694188 13.28,14.0406209 C13.3466667,13.911823 13.4483333,13.7698151 13.585,13.6145971 C13.7216667,13.4593791 13.9033333,13.2793923 14.13,13.0746367 C14.95,12.3480845 15.5183333,11.8312417 15.835,11.5241083 C16.1516667,11.2169749 16.425,10.8520476 16.655,10.4293263 C16.885,10.006605 17,9.51453104 17,8.95310436 C17,8.23976222 16.7983333,7.57926024 16.395,6.97159841 C15.9916667,6.36393659 15.42,5.8834214 14.68,5.53005284 C13.94,5.17668428 13.0866667,5 12.12,5 C11.08,5 10.17,5.21136063 9.39,5.6340819 C8.61,6.05680317 8.01666667,6.59015852 7.61,7.23414795 C7.20333333,7.87813738 7,8.51387054 7,9.14134742 C7,9.44517834 7.12833333,9.72754293 7.385,9.98844122 C7.64166667,10.2493395 7.95666667,10.3797886 8.33,10.3797886 C8.96333333,10.3797886 9.39333333,10.006605 9.62,9.26023778 C9.86,8.54689564 10.1533333,8.00693527 10.5,7.64035667 C10.8466667,7.27377807 11.3866667,7.09048877 12.12,7.09048877 C12.7466667,7.09048877 13.2583333,7.27212682 13.655,7.63540291 C14.0516667,7.998679 14.25,8.44451783 14.25,8.97291942 C14.25,9.24372523 14.185,9.49471598 14.055,9.72589168 C13.925,9.95706737 13.765,10.1667768 13.575,10.3550198 C13.385,10.5432629 13.0766667,10.822325 12.65,11.1922061 C12.1633333,11.6149273 11.7766667,11.9798547 11.49,12.2869881 C11.2033333,12.5941215 10.9733333,12.9507926 10.8,13.3570013 C10.6266667,13.76321 10.54,14.2437252 10.54,14.7985469 C10.54,15.2410832 10.6583333,15.5746367 10.895,15.7992074 C11.1316667,16.0237781 11.4233333,16.1360634 11.77,16.1360634 Z M11.88,20 C12.2733333,20 12.62,19.8678996 12.92,19.6036988 C13.22,19.339498 13.37,18.9762219 13.37,18.5138705 C13.37,18.0977543 13.2266667,17.7476882 12.94,17.4636724 C12.6533333,17.1796565 12.3,17.0376486 11.88,17.0376486 C11.4533333,17.0376486 11.0933333,17.1796565 10.8,17.4636724 C10.5066667,17.7476882 10.36,18.0977543 10.36,18.5138705 C10.36,18.9828269 10.5116667,19.3477543 10.815,19.6086526 C11.1183333,19.8695509 11.4733333,20 11.88,20 Z" id="?" fill="#4CBD97" fill-rule="nonzero"></path>
    </g>
</svg>