<?xml version="1.0" encoding="UTF-8"?>
<svg width="16px" height="16px" viewBox="0 0 16 16" version="1.1" xmlns="http://www.w3.org/2000/svg" xmlns:xlink="http://www.w3.org/1999/xlink">
    <title>B2AC3C93-E825-4E21-9CF7-88658F74ED5B</title>
    <g id="02---Business-Flow" stroke="none" stroke-width="1" fill="none" fill-rule="evenodd">
        <g id="07-05A_Provider-Mode---Inventory---Create---Business-Profile---Service" transform="translate(-40.000000, -522.000000)">
            <g id="Group-4" transform="translate(24.000000, 392.000000)">
                <g id="Info" transform="translate(0.000000, 120.000000)">
                    <g id="Icons-/-Ic_16_Info" transform="translate(16.000000, 10.000000)">
                        <rect id="Bounding-Box" fill-rule="nonzero" x="0" y="0" width="16" height="16"></rect>
                        <circle id="Oval" fill="#2E9B74" fill-rule="nonzero" cx="8" cy="8" r="7"></circle>
                        <path d="M8,7 C8.41421356,7 8.75,7.33578644 8.75,7.75 L8.75,11.25 C8.75,11.6642136 8.41421356,12 8,12 C7.58578644,12 7.25,11.6642136 7.25,11.25 L7.25,7.75 C7.25,7.33578644 7.58578644,7 8,7 Z M8,4.5 C8.22297297,4.5 8.40371622,4.56766917 8.54222973,4.70300752 C8.68074324,4.83834586 8.75,5.01879699 8.75,5.2443609 C8.75,5.46992481 8.68243243,5.65225564 8.5472973,5.79135338 C8.41216216,5.93045113 8.22972973,6 8,6 C7.77027027,6 7.58783784,5.93045113 7.4527027,5.79135338 C7.31756757,5.65225564 7.25,5.46992481 7.25,5.2443609 C7.25,5.01879699 7.31756757,4.83834586 7.4527027,4.70300752 C7.58783784,4.56766917 7.77027027,4.5 8,4.5 Z" id="Combined-Shape" fill="#FFFFFF"></path>
                    </g>
                </g>
            </g>
        </g>
    </g>
</svg>