<?xml version="1.0" encoding="UTF-8"?>
<svg width="24px" height="24px" viewBox="0 0 24 24" version="1.1" xmlns="http://www.w3.org/2000/svg" xmlns:xlink="http://www.w3.org/1999/xlink">
    <title>4B2CDBD6-5B0F-41EE-9359-E05DC3A4A169</title>
    <g id="03---Consumer-Mode" stroke="none" stroke-width="1" fill="none" fill-rule="evenodd">
        <g id="08-01A_Consumer-Mode---Business-Directory---Map-View" transform="translate(-136.000000, -322.000000)">
            <g id="Group-7" transform="translate(0.000000, 306.000000)">
                <g id="Floating-Buttons" transform="translate(116.000000, 0.000000)">
                    <g id="Button" transform="translate(0.000000, 4.000000)">
                        <g id="Icons-/-Ic_24_List" transform="translate(20.000000, 12.000000)">
                            <rect id="Bounding-Box" fill-rule="nonzero" x="0" y="0" width="24" height="24"></rect>
                            <g id="Group" transform="translate(2.000000, 2.000000)" stroke-linecap="round" stroke-linejoin="round" stroke-width="2">
                                <path d="M2,16 C3.1045695,16 4,16.8954305 4,18 C4,19.1045695 3.1045695,20 2,20 C0.8954305,20 0,19.1045695 0,18 C0,16.8954305 0.8954305,16 2,16 Z M2,8 C3.1045695,8 4,8.8954305 4,10 C4,11.1045695 3.1045695,12 2,12 C0.8954305,12 0,11.1045695 0,10 C0,8.8954305 0.8954305,8 2,8 Z M2,0 C3.1045695,0 4,0.8954305 4,2 C4,3.1045695 3.1045695,4 2,4 C0.8954305,4 0,3.1045695 0,2 C0,0.8954305 0.8954305,0 2,0 Z" id="Combined-Shape" stroke="#323F4B"></path>
                                <path d="M8,2 L20,2 M8,10 L20,10 M8,18 L20,18" id="Combined-Shape" stroke="#4CBD97"></path>
                            </g>
                        </g>
                    </g>
                </g>
            </g>
        </g>
    </g>
</svg>