<?xml version="1.0" encoding="UTF-8"?>
<svg width="64px" height="64px" viewBox="0 0 64 64" version="1.1" xmlns="http://www.w3.org/2000/svg" xmlns:xlink="http://www.w3.org/1999/xlink">
    <title>47A2B279-331F-4D81-9B63-EF548F8D74A0</title>
    <g id="Page-1" stroke="none" stroke-width="1" fill="none" fill-rule="evenodd">
        <g id="06-01_Account---Forgot-Password" transform="translate(-156.000000, -44.000000)" fill-rule="nonzero">
            <g id="Group-6" transform="translate(156.000000, 44.000000)">
                <rect id="Rectangle" fill="#053B4C" x="1.05097166e-13" y="-2.4253192e-14" width="64" height="64" rx="12"></rect>
                <g id="Group" transform="translate(14.000000, 11.000000)">
                    <path d="M9.21031111,4.60515556 L9.21031111,12.4871111 C3.32863782,19.1323381 0.0571462308,27.685515 0.00284444444,36.5596444 C0.00284444444,36.6165333 0.00284444444,36.6705778 0.00284444444,36.7274667 L0.00284444444,4.60515556 C0.00284444444,2.06179837 2.06464282,0 4.608,0 L4.608,0 C7.15024629,0.00157025743 9.21031111,2.06290878 9.21031111,4.60515556 L9.21031111,4.60515556 Z" id="Path" fill="#2E9B74"></path>
                    <path d="M30.4156444,6.22933333 C30.5706684,8.28944256 29.3186285,10.1955331 27.3664,10.8714667 L27.0136889,10.9994667 L27.0136889,10.9994667 C22.8157183,12.6000113 19.0707109,15.1988668 16.1024,18.5713778 C7.00975147,19.726184 0.152241814,27.3949534 0.0170666667,36.5596444 C0.139349864,21.2847407 9.67447395,7.66943893 23.9872,2.33244444 L23.9872,2.33244444 L24.5390222,2.13333333 L24.5390222,2.13333333 C25.875772,1.74774791 27.3151713,1.98675182 28.4555758,2.78365432 C29.5959803,3.58055682 30.3152931,4.85003801 30.4128,6.23786667 L30.4156444,6.22933333 Z" id="Path" fill="#6BE89F"></path>
                    <path d="M36.8469333,36.7872 L36.8469333,36.8611556 C36.7848169,39.3607152 34.7406869,41.3546777 32.2403556,41.3546777 C29.7400242,41.3546777 27.6958942,39.3607152 27.6337778,36.8611556 C27.692289,33.5315383 25.9494518,30.4294977 23.0752753,28.7475691 C20.2010988,27.0656405 16.6429901,27.0656405 13.7688136,28.7475691 C10.894637,30.4294977 9.1517999,33.5315383 9.21031111,36.8611556 C9.21031111,37.0204444 9.21031111,37.1768889 9.18755556,37.3304889 L9.18755556,37.3304889 C8.92856932,39.7392528 6.84860137,41.5361224 4.42776672,41.4424369 C2.00693207,41.3487513 0.0720536106,39.3965084 -3.55271368e-15,36.9749333 L-3.55271368e-15,36.7388444 C-3.55271368e-15,36.6819556 -3.55271368e-15,36.6279111 -3.55271368e-15,36.5710222 C0.130718712,27.3962732 6.99877073,19.7190018 16.1024,18.5713778 C16.8768144,18.47165 17.6568805,18.4222426 18.4376889,18.4234445 C28.5437407,18.4230183 36.7631182,26.5649743 36.8583111,36.6705778 C36.8469333,36.7075556 36.8469333,36.7473778 36.8469333,36.7872 Z" id="Path" fill="#FFFFFF"></path>
                </g>
            </g>
        </g>
    </g>
</svg>