<?xml version="1.0" encoding="UTF-8"?>
<svg width="24px" height="24px" viewBox="0 0 24 24" version="1.1" xmlns="http://www.w3.org/2000/svg" xmlns:xlink="http://www.w3.org/1999/xlink">
    <title>75723A15-EDB8-4701-8158-6E0F12E9DB47</title>
    <g id="02---Business-Flow" stroke="none" stroke-width="1" fill="none" fill-rule="evenodd">
        <g id="07-09A_Provider-Mode---Inventory---Create---Business-Profile---Payment-Method" transform="translate(-24.000000, -408.000000)" fill-rule="nonzero">
            <g id="Text-Input-/-Default---Lead-Icon" transform="translate(24.000000, 392.000000)">
                <g id="Icons-/-Ic_24_Search" transform="translate(0.000000, 16.000000)">
                    <rect id="Bounding-Box" x="0" y="0" width="24" height="24"></rect>
                    <g id="icons8-paypal">
                        <path d="M9.13333333,5.178 L9.13666667,5.17933333 C9.206,4.884 9.458,4.66666667 9.77333333,4.66666667 L18.7546667,4.66666667 C18.766,4.66666667 18.7773333,4.662 18.7886667,4.66266667 C18.5973333,1.47666667 15.9246667,0 13.5666667,0 L4.58533333,0 C4.26933333,0 4.01733333,0.223333333 3.94866667,0.518 L3.94533333,0.516666667 L0.0193333333,18.542 L0.028,18.5426667 C0.0186666667,18.5853333 0.002,18.626 0.002,18.672 C0.002,19.0406667 0.3,19.3326667 0.668666667,19.3326667 L6.04933333,19.3326667 L9.13333333,5.178 Z" id="Path" fill="#394C89"></path>
                        <path d="M18.7886667,4.66266667 C18.824,5.24666667 18.7853333,5.882 18.636,6.584 C17.782,10.5806667 14.6946667,12.6606667 10.8793333,12.6606667 C10.8793333,12.6606667 8.566,12.6606667 8.004,12.6606667 C7.65666667,12.6606667 7.49266667,12.8646667 7.41733333,13.0206667 L6.25733333,18.3866667 L6.054,19.3393333 L6.05,19.3393333 L5.208,23.2033333 L5.21666667,23.204 C5.20733333,23.2466667 5.19066667,23.2873333 5.19066667,23.3333333 C5.19066667,23.702 5.48866667,24 5.85733333,24 L10.746,24 L10.7546667,23.9933333 C11.0693333,23.9886667 11.3193333,23.764 11.3846667,23.468 L11.3966667,23.458 L12.6046667,17.8473333 C12.6046667,17.8473333 12.6886667,17.312 13.2513333,17.312 C13.814,17.312 16.0366667,17.312 16.0366667,17.312 C19.852,17.312 22.9706667,15.2413333 23.8253333,11.244 C24.7866667,6.73733333 21.572,4.67933333 18.7886667,4.66266667 Z" id="Path" fill="#039BE5"></path>
                        <path d="M9.77333333,4.66666667 C9.45733333,4.66666667 9.20533333,4.884 9.13666667,5.17933333 L9.13333333,5.178 L7.41666667,13.0213333 C7.492,12.8653333 7.656,12.6613333 8.00333333,12.6613333 C8.566,12.6613333 10.8266667,12.6613333 10.8266667,12.6613333 C14.642,12.6613333 17.7813333,10.5813333 18.6353333,6.58466667 C18.7853333,5.88266667 18.8233333,5.24733333 18.788,4.66333333 C18.7773333,4.662 18.7653333,4.66666667 18.7546667,4.66666667 L9.77333333,4.66666667 Z" id="Path" fill="#24397C" style="mix-blend-mode: multiply;"></path>
                    </g>
                </g>
            </g>
        </g>
    </g>
</svg>