<?xml version="1.0" encoding="UTF-8"?>
<svg width="20px" height="40px" viewBox="0 0 20 40" version="1.1" xmlns="http://www.w3.org/2000/svg" xmlns:xlink="http://www.w3.org/1999/xlink">
    <title>C0CF760F-5EEB-4C8F-BFA8-5D1616C598A3</title>
    <g id="04---Account" stroke="none" stroke-width="1" fill="none" fill-rule="evenodd">
        <g id="13-03A_Account---Detail---Business-Report---Full" transform="translate(-49.000000, -2182.000000)">
            <g id="Group-5" transform="translate(24.000000, 1134.000000)">
                <g id="Cards-/-Business-Report" transform="translate(0.000000, 958.000000)">
                    <g id="Group-13" transform="translate(25.000000, 88.000000)">
                        <g id="Group-14" transform="translate(0.000000, 2.000000)">
                            <circle id="Oval" fill="#48CF97" fill-rule="nonzero" cx="8" cy="5" r="4"></circle>
                            <path d="M2.73834972,24.3587671 L4.5,15 L4.5,15 L3.79685392,38.4382027 C3.77174187,39.2752709 4.4299624,39.9742061 5.26703062,39.9993181 C5.28218282,39.9997727 5.29734098,40 5.3125,40 C6.18594309,40 6.90417115,39.3115608 6.94114827,38.4389008 L7.44708138,26.4988793 C7.47666308,25.8007513 8.05124553,25.25 8.75,25.25 C9.44875447,25.25 10.0233369,25.8007513 10.0529186,26.4988793 L10.5588517,38.4389008 C10.5958288,39.3115608 11.3140569,40 12.1875,40 C13.0249448,40 13.703828,39.3211168 13.703828,38.483672 C13.703828,38.468513 13.7036006,38.4533549 13.7031461,38.4382027 L13,15 L13,15 L19.2647059,3.25367647 C19.6878217,2.4603344 19.4692968,1.47697261 18.75,0.9375 C18.1505076,0.487880699 17.3000345,0.609376852 16.8504152,1.20886925 C16.8122293,1.25978388 16.7776728,1.3133221 16.747002,1.36908736 L12,10 L12,10 L3.97237484,10 C2.982382,10 2.14135812,10.7242792 1.99450214,11.7033191 L0.191132299,23.7257847 C0.0827297025,24.4484686 0.541049989,25.1352625 1.25,25.3125 C1.90083276,25.4752082 2.560338,25.079505 2.72304619,24.4286723 C2.72883278,24.4055259 2.73393617,24.3822141 2.73834972,24.3587671 Z" id="Path" fill="#323F4B"></path>
                        </g>
                    </g>
                </g>
            </g>
        </g>
    </g>
</svg>