<?xml version="1.0" encoding="UTF-8"?>
<svg width="1362px" height="1180px" viewBox="0 0 1362 1180" version="1.1" xmlns="http://www.w3.org/2000/svg" xmlns:xlink="http://www.w3.org/1999/xlink">
    <title>Illustrations / 4</title>
    <defs>
        <polygon id="path-1" points="0.736626048 0.00586478668 14.3279671 0.00586478668 14.3279671 119.03738 0.736626048 119.03738"></polygon>
    </defs>
    <g id="Illustrations-/-4" stroke="none" stroke-width="1" fill="none" fill-rule="evenodd">
        <g id="Illusrtations-/-4" transform="translate(0.000000, 124.000000)">
            <path d="M29.3180686,1006.32047 C29.3180686,1006.32047 -29.3425052,879.080011 19.2883059,744.299393 C106.042185,503.851937 304.035429,599.868269 317.193078,443.437792 C330.351704,287.008291 466.70213,73.344338 718.412909,84.9439086 C1132.98002,104.048451 931.872573,449.378821 1093.55594,576.285962 C1220.65956,676.054781 1342.60607,766.426256 1297.17352,1003.15544 L29.3180686,1006.32047 Z" id="Fill-1" fill="#D2F8E2" opacity="0.300000012"></path>
            <path d="M1103.28475,202.812241 C1103.28475,199.988346 1100.98868,197.697169 1098.16674,197.697169 L925.679456,197.697169 C922.855561,197.697169 920.559497,199.988346 920.559497,202.812241 L920.559497,213.045316 C920.559497,215.868233 922.855561,218.161365 925.679456,218.161365 L1098.16674,218.161365 C1100.98868,218.161365 1103.28475,215.868233 1103.28475,213.045316 L1103.28475,202.812241 Z" id="Fill-3" fill="#D2F8E2"></path>
            <polygon id="Fill-5" fill="#D3E4FF" points="1031.24444 124.561129 959.301105 124.561129 969.275152 199.359641 1020.5676 199.359641"></polygon>
            <path d="M980.224318,120.867975 C980.224318,120.867975 982.442184,73.6476452 937.097609,36.3378273 C937.097609,36.3378273 987.765456,61.1879059 990.578599,120.092846 L980.224318,120.867975 Z" id="Fill-7" fill="#A8C9FE"></path>
            <g id="Group-11" transform="translate(989.194020, 0.967690)">
                <mask id="mask-2" fill="white">
                    <use xlink:href="#path-1"></use>
                </mask>
                <g id="Clip-10"></g>
                <path d="M1.3843829,119.03738 C1.3843829,119.03738 -3.64564915,43.4383245 14.3279671,0.00566929379 C14.3279671,0.00566929379 4.19850304,40.4746523 8.28137203,119.03738 L1.3843829,119.03738 Z" id="Fill-9" fill="#A8C9FE" mask="url(#mask-2)"></path>
            </g>
            <path d="M1008.904,119.316837 C1008.904,119.316837 1007.55608,80.628794 1046.85308,54.9498256 C1046.85308,54.9498256 999.643506,61.1880037 996.830363,120.091966 L1008.904,119.316837 Z" id="Fill-12" fill="#A8C9FE"></path>
            <path d="M1040.50455,118.684417 C1040.50455,116.423542 1038.67767,114.588841 1036.41191,114.588841 L954.133837,114.588841 C951.876871,114.588841 950.040216,116.423542 950.040216,118.684417 L950.040216,126.877524 C950.040216,129.137422 951.876871,130.9731 954.133837,130.9731 L1036.41191,130.9731 C1038.67767,130.9731 1040.50455,129.137422 1040.50455,126.877524 L1040.50455,118.684417 Z" id="Fill-14" fill="#BDF5D4"></path>
            <path d="M172.307042,505.202402 C175.286353,495.005492 169.426454,484.309099 159.229545,481.330765 C149.032636,478.351453 138.336242,484.21233 135.357908,494.408262 L114.112718,567.132594 C111.134384,577.329503 116.994284,588.025897 127.191193,591.005208 C137.387124,593.983542 148.084495,588.123643 151.062829,577.926734 L172.307042,505.202402 Z" id="Fill-16" fill="#1F6BFF"></path>
            <path d="M84.7123473,676.660124 C84.7123473,676.660124 81.4427287,688.247965 60.5435614,696.212346 C44.8542795,702.192473 49.1257992,706.122858 57.6610187,707.277243 C66.1962383,708.431629 87.7180504,703.465132 87.7180504,703.465132 C87.7180504,703.465132 79.4614083,707.684846 81.4593456,709.940834 C83.0770492,711.767715 102.196254,706.361359 105.130602,700.843572 C109.783333,692.09722 111.170355,681.632486 111.170355,681.632486 L84.7123473,676.660124 Z" id="Fill-18" fill="#FFD3BB"></path>
            <path d="M149.875503,581.239947 C151.520576,576.41616 151.181396,571.137852 148.934205,566.564296 C146.686037,561.99074 142.714599,558.497282 137.890812,556.853187 C137.842916,556.83657 137.794043,556.819953 137.746147,556.803336 C132.92236,555.159241 127.644052,555.497444 123.070496,557.744634 C118.49694,559.991825 115.002504,563.965218 113.358409,568.78705 C101.756884,602.809655 82.7676817,676.842813 82.7676817,676.842813 C86.6628776,685.009528 104.636494,687.482513 112.998702,682.153377 C112.998702,682.153377 138.273,615.262552 149.875503,581.239947" id="Fill-20" fill="#1F6BFF"></path>
            <path d="M33.4350511,1009.31923 L1284.74887,1009.31923 C1286.68327,1009.31923 1288.24624,1007.74649 1288.24624,1005.81307 C1288.24624,1003.87866 1286.68327,1002.30592 1284.74887,1002.30592 L33.4350511,1002.30592 C31.500649,1002.30592 29.9308411,1003.87866 29.9308411,1005.81307 C29.9308411,1007.74649 31.500649,1009.31923 33.4350511,1009.31923" id="Fill-22" fill="#27DD73"></path>
            <path d="M1096.87678,294.238107 C1096.87678,294.238107 1102.73766,257.873497 1114.89829,256.909717 C1127.05111,255.946915 1102.71811,289.006717 1096.87678,294.238107" id="Fill-24" fill="#277BFD"></path>
            <path d="M1106.37177,302.895412 C1106.37177,302.895412 1133.81995,278.330753 1143.87122,285.235562 C1153.92249,292.141348 1114.20615,302.507359 1106.37177,302.895412" id="Fill-26" fill="#277BFD"></path>
            <path d="M125.06902,976.00998 L187.391175,987.155029 C187.391175,987.155029 203.104894,994.236759 208.09876,995.546562 C213.093603,996.845612 210.861074,1000.62547 208.09876,1001.40744 C205.336445,1002.17866 188.76549,1013.27581 140.697699,1004.33788 L133.860335,989.685685 L131.906383,1004.33788 L124.091555,1004.33788 L125.06902,976.00998 Z" id="Fill-28" fill="#003151"></path>
            <path d="M170.979254,799.202105 C170.979254,799.202105 154.543189,924.629366 154.373111,953.542764 C154.291981,967.433511 165.995163,975.931587 178.794082,981.870661 C191.592024,987.79996 192.171661,992.146745 177.817595,992.615928 C163.462552,993.075336 125.068726,976.009784 125.068726,976.009784 L114.324437,800.17957 L170.979254,799.202105 Z" id="Fill-30" fill="#FFD3BB"></path>
            <path d="M139.309992,976.986564 L201.633126,988.132591 C201.633126,988.132591 217.345866,995.214321 222.339732,996.523146 C227.334576,997.822197 225.102047,1001.60303 222.339732,1002.38402 C219.578395,1003.15524 203.006463,1014.2524 154.938671,1005.31446 L148.101308,990.662269 L146.147356,1005.31446 L138.332528,1005.31446 L139.309992,976.986564 Z" id="Fill-32" fill="#003151"></path>
            <path d="M185.220715,800.179081 C185.220715,800.179081 168.784651,925.605364 168.614572,954.51974 C168.533442,968.410487 180.236624,976.908563 193.035544,982.847637 C205.833486,988.776936 206.4141,993.12372 192.058079,993.592903 C177.704014,994.051334 139.310188,976.98676 139.310188,976.98676 L128.564921,801.156545 L185.220715,800.179081 Z" id="Fill-34" fill="#FFD3BB"></path>
            <path d="M189.243275,668.809325 C189.243275,668.809325 205.978444,793.373485 207.802392,812.401785 C207.802392,812.401785 158.652548,851.611794 90.5838785,807.517395 L111.096947,653.179669 C111.096947,653.179669 170.75649,650.651946 189.243275,668.809325" id="Fill-36" fill="#003151"></path>
            <polygon id="Fill-38" fill="#D2F8E2" points="256.658705 1003.61846 443.781566 1003.61846 443.781566 821.672253 256.658705 821.672253"></polygon>
            <polygon id="Fill-40" fill="#BDF5D4" points="444.75903 1002.90687 585.727975 1002.90687 585.727975 877.565625 444.75903 877.565625"></polygon>
            <polygon id="Fill-41" fill="#6BE89F" points="507.44578 910.656707 522.249479 910.656707 522.249479 877.565625 507.44578 877.565625"></polygon>
            <polygon id="Fill-42" fill="#BDF5D4" points="308.934481 821.672253 443.167718 821.672253 443.167718 691.153381 308.934481 691.153381"></polygon>
            <polygon id="Fill-43" fill="#6BE89F" points="366.440669 738.637626 385.380998 738.637626 385.380998 690.873826 366.440669 690.873826"></polygon>
            <polygon id="Fill-44" fill="#6BE89F" points="397.160422 857.358503 432.66193 857.358503 432.66193 832.660909 397.160422 832.660909"></polygon>
            <path d="M186.143833,467.919855 C186.143833,467.919855 205.255218,510.860846 210.68992,524.593244 C216.124622,538.324664 196.022089,643.445101 194.292954,671.334116 C194.292954,671.334116 159.250854,704.853327 107.19012,658.178422 C107.19012,658.178422 122.201041,581.448441 126.660234,515.48523 C129.966019,466.589526 153.867957,462.14695 160.476594,458.811841 C167.085231,455.47771 186.143833,467.919855 186.143833,467.919855" id="Fill-45" fill="#1F6BFF"></path>
            <path d="M763.704506,222.216963 C762.666439,216.674739 757.323618,213.018045 751.781395,214.056112 L411.447824,277.814163 C405.905601,278.853208 402.248906,284.195051 403.286973,289.738252 L501.970806,816.493842 C503.008874,822.034111 508.351694,825.69667 513.89294,824.651761 L854.226511,760.896642 C859.768735,759.857597 863.426407,754.515754 862.387362,748.972553 L763.704506,222.216963 Z" id="Fill-46" fill="#FFFFFF"></path>
            <path d="M763.704506,222.216963 C762.666439,216.674739 757.323618,213.018045 751.781395,214.056112 L411.447824,277.814163 C405.905601,278.853208 402.248906,284.195051 403.286973,289.738252 L501.970806,816.493842 C503.008874,822.034111 508.351694,825.69667 513.89294,824.651761 L854.226511,760.896642 C859.768735,759.857597 863.426407,754.515754 862.387362,748.972553 L763.704506,222.216963 Z" id="Stroke-47" stroke="#DEEBFF" stroke-width="3.16698481" stroke-linecap="round" stroke-linejoin="round"></path>
            <path d="M763.442057,220.817038 C763.01295,218.524884 761.690441,216.497623 759.765813,215.180001 C757.842163,213.863356 755.473767,213.364849 753.180635,213.793956 C703.943796,223.017311 459.285423,268.852574 410.048584,278.077883 C407.756429,278.50699 405.728191,279.829499 404.411546,281.753149 C403.093924,283.677777 402.596395,286.045196 403.024524,288.338327 C406.948066,309.281481 416.646469,361.044088 416.646469,361.044088 L777.064002,293.522799 C777.064002,293.522799 767.366577,241.761169 763.442057,220.817038" id="Fill-48" fill="#D2F8E2"></path>
            <path d="M862.649909,750.372771 C863.544289,755.14573 860.399786,759.739813 855.626827,760.633215 C806.388033,769.858525 561.731614,815.69281 512.49282,824.915187 C507.719861,825.813477 503.126756,822.667996 502.232376,817.89406 C497.216028,791.113489 482.260822,711.293742 482.260822,711.293742 L842.679333,643.771476 C842.679333,643.771476 857.632584,723.591223 862.649909,750.372771" id="Fill-49" fill="#D2F8E2"></path>
            <path d="M447.511961,289.263009 C459.359808,287.043187 470.780502,294.860948 473.000324,306.707817 C475.219168,318.555663 467.403363,329.977335 455.555516,332.19618 C443.706692,334.416001 432.285998,326.599218 430.067153,314.751372 C427.846354,302.903525 435.664115,291.48283 447.511961,289.263009" id="Fill-50" fill="#6BE89F"></path>
            <polygon id="Fill-51" fill="#6BE89F" points="656.984352 251.8487 492.028429 282.751238 494.992101 298.569545 659.948024 267.667007"></polygon>
            <polygon id="Fill-52" fill="#6BE89F" points="724.66702 694.959823 508.869262 735.386775 512.745886 756.080675 728.543644 715.652745"></polygon>
            <polygon id="Fill-53" fill="#6BE89F" points="581.184036 290.458545 496.446666 306.334523 499.410338 322.151853 584.147709 306.276853"></polygon>
            <polygon id="Fill-54" fill="#6BE89F" points="625.503545 745.4702 514.648325 766.238387 516.926794 778.397068 627.782015 757.628881"></polygon>
            <polygon id="Fill-55" fill="#6BE89F" points="591.433142 772.431602 518.372562 786.118059 520.650054 798.27674 593.710634 784.589305"></polygon>
            <path d="M689.504105,470.145932 C695.471525,457.999959 694.568348,442.975353 683.774208,436.499651 C669.329239,427.834429 653.204008,435.511435 647.23561,447.65643 L627.320749,545.106703 C625.259277,559.206628 626.911192,568.433892 638.70039,572.827595 C650.968547,577.399196 659.119623,572.043669 665.088998,559.897695 L689.504105,470.145932 Z" id="Fill-56" fill="#FFD8DB"></path>
            <path d="M649.102567,434.229295 C637.216599,446.428051 634.827676,500.758457 633.847279,506.004509 C633.847279,506.004509 644.042234,523.23623 678.699213,519.651868 C678.699213,519.651868 685.240405,494.129293 689.716215,479.338301 C705.337074,427.719381 663.393097,419.561463 649.102567,434.229295" id="Fill-57" fill="#68E89D"></path>
            <path d="M522.776235,664.109579 L525.269747,702.998002 L627.836069,684.757538 L618.068266,646.342207 C618.068266,646.342207 509.179704,607.475289 522.776235,664.109579" id="Fill-58" fill="#323F4B"></path>
            <path d="M520.018514,433.395029 C520.018514,433.395029 563.558691,444.557673 569.956196,467.583803 C574.937354,485.51441 621.974898,646.342501 621.974898,646.342501 C621.974898,646.342501 586.536925,676.322313 532.501713,666.85557 L526.260602,654.157329 L526.260602,665.879083 C526.260602,665.879083 521.083951,663.120678 517.936515,661.97118 C517.936515,661.97118 484.484749,504.242629 484.644479,479.305556 C484.806335,454.368483 495.748072,444.00736 520.018514,433.395029" id="Fill-59" fill="#B37EFF"></path>
            <polygon id="Fill-60" fill="#9D94E7" points="399.062567 436.325565 400.057626 449.024783 426.926169 469.537852 436.878712 455.862147 413.989427 437.303029"></polygon>
            <path d="M794.872622,604.338703 C794.872622,604.338703 806.908142,644.739263 808.548327,650.249231 L690.352349,672.716251 L688.398397,620.944846 L794.872622,604.338703 Z" id="Fill-61" fill="#168AB1"></path>
            <path d="M1238.88692,943.296004 C1258.57892,943.296004 1274.54189,959.258976 1274.54189,978.949997 C1274.54189,998.641019 1258.57892,1014.60399 1238.88692,1014.60399 C1219.1959,1014.60399 1203.23293,998.641019 1203.23293,978.949997 C1203.23293,959.258976 1219.1959,943.296004 1238.88692,943.296004" id="Fill-62" fill="#D0E3FF"></path>
            <path d="M1246.25221,943.296004 C1265.94421,943.296004 1281.90621,959.258976 1281.90621,978.949997 C1281.90621,998.641019 1265.94421,1014.60399 1246.25221,1014.60399 C1226.56022,1014.60399 1210.59822,998.641019 1210.59822,978.949997 C1210.59822,959.258976 1226.56022,943.296004 1246.25221,943.296004" id="Fill-63" fill="#ADCDFE"></path>
            <path d="M1202.20718,992.137263 C1202.20718,992.137263 1167.13966,962.451668 1216.85937,903.246647 C1264.75317,846.219416 1370.34768,886.767573 1360.45281,951.110148 C1351.3487,1010.30637 1277.1787,1008.58701 1202.20718,992.137263" id="Fill-64" fill="#E7F0FF"></path>
            <path d="M1196.3462,945.249956 L1190.48533,936.45864 C1190.48533,936.45864 1196.24846,883.251341 1253.002,871.011531 C1286.4,863.812505 1309.65779,872.964505 1309.65779,872.964505 L1309.65779,880.779333 C1309.65779,880.779333 1277.38289,959.882598 1196.3462,945.249956" id="Fill-65" fill="#D0E3FF"></path>
            <polygon id="Fill-66" fill="#ADCDFE" points="1263.90385 905.444084 1221.57769 889.248476 1209.11306 900.706314 1251.449 916.911697"></polygon>
            <path d="M997.553394,961.660215 C997.553394,961.660215 1000.62068,989.011625 958.118568,991.785669 C948.966569,992.381923 950.558858,990.975351 948.311667,990.036985 C943.876911,988.171006 936.68766,998.037532 951.54512,1004.62076 C966.402579,1011.20496 986.837451,1010.1014 997.52407,1007.58052 C1004.29399,1005.98921 1009.97892,1004.97264 1017.0802,1008.15722 C1025.22737,1011.81098 1035.4057,1006.12507 1034.41847,996.073806 C1033.42243,986.022539 1025.86174,976.292858 1027.97111,967.872979 C1030.08146,959.461898 997.553394,961.660215 997.553394,961.660215" id="Fill-67" fill="#A97A5F"></path>
            <path d="M1091.42624,961.660215 C1091.42624,961.660215 1094.48375,989.011625 1051.98164,991.785669 C1042.83844,992.381923 1044.43073,990.975351 1042.18452,990.036985 C1037.74976,988.171006 1030.55953,998.037532 1045.41797,1004.62076 C1060.26566,1011.20496 1080.70053,1010.1014 1091.39692,1007.58052 C1098.16684,1005.98921 1103.85177,1004.97264 1110.94328,1008.15722 C1119.10022,1011.81098 1129.27856,1006.12507 1128.28154,996.073806 C1127.2943,986.022539 1119.72482,976.292858 1121.84396,967.872979 C1123.95431,959.461898 1091.42624,961.660215 1091.42624,961.660215" id="Fill-68" fill="#A97A5F"></path>
            <path d="M1007.41972,653.614738 C1007.41972,653.614738 975.671679,779.299072 972.742218,811.727432 C971.570238,824.651467 969.9584,841.413028 989.855666,848.182946 C1017.50032,857.609613 1029.42734,816.530693 1029.42734,816.530693 L1074.51777,691.215841 C1074.51777,691.215841 1061.11576,613.003046 1007.41972,653.614738" id="Fill-69" fill="#003151"></path>
            <path d="M1049.10985,659.374057 C1049.10985,659.374057 1056.33918,788.803056 1063.22444,820.626366 C1065.97014,833.306035 1069.42743,849.785108 1090.43901,850.311962 C1119.64662,851.054835 1118.76788,808.2849 1118.76788,808.2849 L1123.40693,658.616522 C1123.40693,658.616522 1088.23091,604.580332 1049.10985,659.374057" id="Fill-70" fill="#003151"></path>
            <path d="M753.595765,459.476419 C744.994077,449.029279 742.417481,434.198211 751.433613,425.414716 C763.498457,413.659728 780.956949,417.421989 789.558636,427.869129 L831.353061,518.127218 C839.955726,528.574358 840.894092,537.650116 831.181028,545.64773 C821.468941,553.643389 806.600729,551.655226 797.999042,541.207109 L753.595765,459.476419 Z" id="Fill-71" fill="#FFD8DB"></path>
            <path d="M971.999932,823.869691 L991.535536,973.558597 L1033.33485,974.838098 L1025.16911,826.146206 C1025.16911,826.146206 1026.91682,795.325774 1007.6246,794.075597 C968.658958,791.551784 971.999932,823.869691 971.999932,823.869691" id="Fill-72" fill="#003151"></path>
            <path d="M1063.47878,823.869691 L1083.00656,973.558597 L1124.80392,974.838098 L1118.60191,810.51264 C1118.60191,810.51264 1114.49851,784.427046 1087.37192,786.260769 C1060.15833,788.101335 1063.47878,823.869691 1063.47878,823.869691" id="Fill-73" fill="#003151"></path>
            <path d="M786.963273,420.235523 C801.334933,429.373838 813.846478,476.693869 816.007651,481.573372 C816.007651,481.573372 810.048051,500.687689 775.496637,505.170341 C775.496637,505.170341 770.099079,484.767725 762.341921,471.401876 C735.267133,424.759228 769.680724,409.246867 786.963273,420.235523" id="Fill-74" fill="#68E89D"></path>
            <path d="M1036.23577,475.098647 C1047.8109,482.402261 1063.03002,483.100171 1070.69823,472.932586 C1080.96454,459.327258 1074.95607,442.282233 1063.38093,434.978619 L967.467234,404.518872 C955.882325,397.21428 946.651151,397.427367 939.861683,408.194138 C933.073192,418.960909 936.960568,433.631673 948.546454,440.935287 L1036.23577,475.098647 Z" id="Fill-75" fill="#A97A5F"></path>
            <path d="M740.170975,411.90518 C740.170975,411.90518 781.503059,413.837627 786.081502,419.720008 C788.185006,422.423674 776.538517,466.476042 780.56958,510.018173 C785.498933,563.24209 800.733694,607.269044 800.733694,607.269044 C800.733694,607.269044 771.835935,621.094301 754.823167,625.829139 L747.008338,616.060359 L744.0779,627.782112 C744.0779,627.782112 707.772915,638.17256 686.445619,634.620454 C679.11268,563.003589 664.531843,494.785367 654.508923,430.343091 C654.508923,430.343091 691.874456,417.440561 703.050785,415.812105 C714.228091,414.184627 740.170975,411.90518 740.170975,411.90518" id="Fill-76" fill="#68E89D"></path>
            <path d="M1077.13464,434.310522 C1066.13621,421.048284 1011.27797,416.815863 1006.11012,415.268537 C1006.11012,415.268537 987.677093,423.682551 987.580324,458.932851 C987.580324,458.932851 1012.55747,468.2432 1026.9653,474.328894 C1077.22359,495.565286 1090.37146,450.257854 1077.13464,434.310522" id="Fill-77" fill="#FFD12F"></path>
            <path d="M947.315142,400.208547 C942.070068,402.897551 938.103517,407.560057 936.306938,413.168748 C934.499606,418.778416 934.988338,424.873885 937.683208,430.117981 C937.703734,430.170764 937.733058,430.223548 937.762382,430.276331 C940.448455,435.51945 945.117802,439.480136 950.724538,441.284535 C956.332252,443.090889 962.817729,443.255104 967.672794,439.90631 C1005.06472,414.079745 1077.61409,367.74402 1077.61409,367.74402 C1076.32383,357.172742 1070.89304,351.834809 1063.14663,350.314852 C1063.14663,350.314852 984.298487,381.240849 947.315142,400.208547" id="Fill-78" fill="#A97A5F"></path>
            <path d="M1054.7074,423.627129 C1054.7074,423.627129 1021.58309,432.501528 1016.61072,477.352485 C1011.63836,522.203441 998.051607,654.157231 998.051607,654.157231 C998.051607,654.157231 1090.73185,696.508811 1126.01539,655.133718 C1126.01539,655.133718 1118.65997,628.450894 1118.22988,594.012866 C1117.67371,550.096366 1124.09076,493.566665 1125.03792,463.676779 C1126.73773,410.348274 1054.7074,423.627129 1054.7074,423.627129" id="Fill-79" fill="#FFD12F"></path>
            <path d="M1060.39273,646.72811 C1060.39273,646.72811 1099.28995,642.152599 1118.33682,670.853888 C1131.83756,691.188081 1134.94394,727.058094 1111.39291,790.329367 C1089.25725,849.775822 1079.3917,899.163191 1081.69656,935.423212 C1083.3475,961.347524 1091.23075,980.884106 1104.71096,993.368282 C1126.71858,1013.76406 1157.12749,1016.06892 1211.86844,992.977296 C1215.57009,991.414331 1217.29923,987.145743 1215.74702,983.452883 C1214.18307,979.751225 1209.91448,978.02209 1206.22162,979.575281 C1181.77231,989.890464 1168.85902,994.980121 1151.75437,995.096439 C1136.04652,995.20396 1123.62295,991.072218 1114.58629,982.710987 C1103.44124,972.376256 1097.56961,955.946056 1096.21289,934.504396 C1093.99502,899.720346 1103.78335,852.413022 1125.00899,795.40143 C1151.1288,725.245874 1145.42431,685.361415 1130.45054,662.814243 C1106.80176,627.195438 1058.78968,632.281186 1058.78968,632.281186 C1054.80456,632.723977 1051.923,636.321046 1052.37263,640.307146 C1052.81249,644.294224 1056.40663,647.171879 1060.39273,646.72811" id="Fill-80" fill="#A8C9FE"></path>
            <path d="M841.173353,535.767715 C839.685652,541.398888 836.022116,546.20899 830.988174,549.139428 C825.955209,552.068889 819.96433,552.880185 814.333157,551.393461 C814.276464,551.3788 814.220749,551.36316 814.164056,551.348498 C808.531906,549.861775 803.722781,546.19726 800.792342,541.164296 C797.861904,536.131332 796.332172,529.898041 798.539287,524.509279 C815.563785,482.937716 840.871317,417.360604 840.871317,417.360604 C848.848404,412.175155 857.82837,416.961799 860.93573,424.119771 C860.93573,424.119771 851.662524,496.046492 841.173353,535.767715" id="Fill-81" fill="#FFD8DB"></path>
            <path d="M1118.36673,476.501309 C1122.90901,463.751262 1120.28158,448.928991 1108.82277,443.733768 C1093.47755,436.782041 1078.33663,446.257581 1073.80412,459.008605 L1065.19755,558.099063 C1060.65625,570.849109 1062.86434,579.704937 1074.71317,583.920741 C1086.57177,588.1385 1099.87603,581.21121 1104.40854,568.461164 L1118.36673,476.501309 Z" id="Fill-82" fill="#A97A5F"></path>
            <path d="M510.404761,473.662459 C513.933407,460.581052 524.672809,449.834808 537.299695,452.030193 C554.196145,454.968451 561.461639,471.34098 557.932992,484.423365 L508.106742,571.033557 C500.266499,583.026068 492.82995,588.904539 480.829619,584.485423 C468.341533,579.88743 465.654483,570.496929 469.184107,557.414545 L510.404761,473.662459 Z" id="Fill-83" fill="#FFD8DB"></path>
            <path d="M1079.07911,445.865325 C1068.67596,459.346514 1067.56262,513.182324 1067.19119,518.506572 C1067.19119,518.506572 1079.29415,534.453905 1113.31676,526.918631 C1113.31676,526.918631 1116.88255,500.815443 1119.63606,485.608052 C1129.22988,432.538574 1091.59261,429.655054 1079.07911,445.865325" id="Fill-84" fill="#FFD12F"></path>
            <path d="M561.065374,470.598401 C562.048704,487.602372 531.978965,532.638069 529.225448,537.240949 C529.225448,537.240949 509.870674,543.556347 485.620759,518.11197 C485.620759,518.11197 497.652368,494.559964 504.096792,480.461017 C526.590203,431.256434 559.882642,450.151799 561.065374,470.598401" id="Fill-85" fill="#B37EFF"></path>
            <path d="M1064.46582,626.78461 C1070.9425,627.316351 1075.77704,633.012036 1075.23943,639.492625 C1074.71258,645.974192 1069.01787,650.803844 1062.53142,650.271126 C1062.53142,650.271126 1046.10122,648.965233 1028.17648,653.958122 C1011.6886,658.554159 991.761037,669.619057 983.154463,692.006903 C958.802891,755.292838 891.299196,973.45997 891.299196,973.45997 C889.74796,979.770481 883.361208,983.639285 877.04581,982.086094 C870.729435,980.542678 866.862585,974.15397 868.413821,967.833685 C868.413821,967.833685 937.820639,750.845375 960.209462,686.63769 C971.520681,654.160457 998.208393,637.847553 1021.85619,631.258465 C1044.07982,625.066228 1064.45605,626.78461 1064.46582,626.78461 L1064.46582,626.78461 Z" id="Fill-86" fill="#9D94E7"></path>
            <path d="M1048.64116,405.188435 C1048.07423,413.83704 1048.12408,422.430908 1048.64116,430.981767 C1048.64116,430.981767 1056.92517,449.003279 1082.68331,433.044217 L1082.68331,386.617588 C1082.68331,386.617588 1050.35074,389.457122 1048.64116,405.188435" id="Fill-87" fill="#A97A5F"></path>
            <path d="M1048.25076,415.055156 L1063.35161,412.924284 C1063.35161,412.924284 1057.46239,419.438107 1048.22144,420.960019 L1048.25076,415.055156 Z" id="Fill-88" fill="#694B39"></path>
            <path d="M1010.46668,355.338237 C1010.46668,355.338237 1021.35954,403.039479 1030.07266,410.017598 C1038.78578,416.996694 1068.41175,419.035685 1080.62223,402.796091 C1092.84249,386.556496 1080.62223,360.496317 1080.62223,360.496317 C1080.62223,360.496317 1029.38746,329.018052 1010.46668,355.338237" id="Fill-89" fill="#A97A5F"></path>
            <path d="M1029.96436,378.263297 C1029.96436,378.263297 1030.16962,381.147795 1029.80796,385.210137 C1029.78841,385.346004 1029.77961,385.481872 1029.75909,385.619694 C1029.44728,388.113206 1028.98787,389.544214 1028.27432,392.152089 C1027.42393,395.28584 1029.58314,396.088339 1034.42844,396.456843" id="Stroke-90" stroke="#003151" stroke-width="1.0556616" stroke-linecap="round" stroke-linejoin="round"></path>
            <path d="M1034.9462,365.325284 C1034.9462,365.325284 1039.75239,370.382685 1045.54485,365.027158" id="Stroke-91" stroke="#003151" stroke-width="0.899267291" stroke-linecap="round" stroke-linejoin="round"></path>
            <path d="M1017.38331,372.168904 C1017.38331,372.168904 1018.55529,366.135993 1026.77088,368.194533" id="Stroke-92" stroke="#003151" stroke-width="0.899267291" stroke-linecap="round" stroke-linejoin="round"></path>
            <path d="M1021.73997,373.055757 C1022.75556,372.416496 1024.10348,372.723419 1024.74763,373.742915 C1025.38396,374.760455 1025.07997,376.107401 1024.05461,376.747641 C1023.03902,377.38788 1021.69012,377.079979 1021.05574,376.061461 C1020.4116,375.042943 1020.72341,373.695997 1021.73997,373.055757" id="Fill-93" fill="#003151"></path>
            <path d="M1037.06632,370.322865 C1038.09168,369.682625 1039.4396,369.990527 1040.07398,371.009045 C1040.7191,372.027563 1040.40631,373.374509 1039.39073,374.01377 C1038.37514,374.654987 1037.02722,374.347086 1036.38209,373.328568 C1035.74674,372.31005 1036.04976,370.962126 1037.06632,370.322865" id="Fill-94" fill="#003151"></path>
            <path d="M1043.98198,401.258539 C1043.98198,401.258539 1043.12181,402.356232 1041.47185,403.190009 C1041.23628,403.308282 1040.99191,403.417758 1040.72898,403.529189 C1040.37709,403.677764 1039.9861,403.801902 1039.57655,403.919197 C1039.33218,403.99153 1039.06826,404.063862 1038.79457,404.127397 C1038.41434,404.216346 1038.01358,404.298453 1037.5835,404.351237 C1036.63535,404.467555 1035.58067,404.496879 1034.35982,404.296499 C1034.30215,404.278904 1034.23275,404.314093 1034.21418,404.376651 C1034.20342,404.438231 1034.23275,404.503721 1034.30215,404.521315 C1034.97562,404.822374 1035.61097,405.042304 1036.2258,405.190879 C1036.70475,405.307197 1037.16319,405.370732 1037.60304,405.402011 C1038.10057,405.439155 1038.57073,405.42547 1039.01939,405.371709 C1039.34195,405.331633 1039.65377,405.262233 1039.947,405.175239 C1040.1816,405.106817 1040.40641,405.022755 1040.62145,404.926963 C1041.16883,404.684552 1041.63802,404.394245 1042.04758,404.075592 C1042.56563,403.668966 1042.96541,403.241814 1043.28798,402.841054 C1043.9331,402.021939 1044.18725,401.37388 1044.18725,401.37388 C1044.21559,401.317187 1044.19702,401.245832 1044.13837,401.214553 C1044.08852,401.182297 1044.0113,401.202824 1043.98198,401.258539" id="Fill-95" fill="#003151"></path>
            <path d="M1065.14926,375.971436 C1065.14926,375.971436 1059.20041,375.11811 1055.85944,362.559646 C1055.85944,362.559646 1041.81328,367.55058 1036.26421,358.433769 C1036.26421,358.433769 1021.12426,367.412757 1014.59871,358.433769 C1014.59871,358.433769 997.240898,362.688672 996.02982,348.116632 C994.896939,334.568975 1003.24839,332.640437 1003.24839,332.640437 C1003.24839,332.640437 997.943695,315.59248 1017.69532,313.039343 C1017.69532,313.039343 1022.10075,291.797085 1044.51988,301.690003 C1044.51988,301.690003 1058.97658,292.910417 1066.18538,304.785633 C1066.18538,304.785633 1081.42307,304.086746 1082.68302,317.166197 C1082.68302,317.166197 1094.52305,317.447707 1094.03432,327.482357 C1094.03432,327.482357 1110.3179,337.464224 1098.16606,351.211284 C1098.16606,351.211284 1108.39327,358.815958 1097.13092,367.718704 C1097.13092,367.718704 1107.6807,383.226177 1091.97284,392.478856 C1091.97284,392.478856 1091.40591,410.388937 1076.49958,399.700363 C1069.97501,395.023196 1074.42931,386.288573 1074.42931,386.288573 C1074.42931,386.288573 1081.53059,371.165243 1075.46542,367.718704 C1069.40808,364.272164 1066.51674,368.050064 1065.14926,375.971436" id="Fill-96" fill="#003151"></path>
            <path d="M1097.62894,579.037231 C1101.70204,574.87421 1103.959,569.263564 1103.8896,563.439831 C1103.83193,557.616098 1101.45767,552.05628 1097.28683,547.983186 C1097.24773,547.94311 1097.20863,547.902056 1097.16074,547.861003 C1092.99869,543.787908 1087.39098,541.53583 1081.5692,541.599365 C1075.73765,541.662901 1069.60406,543.543542 1066.10669,548.202138 C1039.13649,584.127866 988.58594,648.334573 988.58594,648.334573 C988.214503,657.839437 996.927621,663.098196 1004.67403,662.095318 C1004.67403,662.095318 1068.90028,608.405151 1097.62894,579.037231" id="Fill-97" fill="#A97A5F"></path>
            <path d="M665.198279,550.085125 C664.309763,544.9984 660.517201,540.888162 656.020865,538.347732 C651.527461,535.807302 646.208099,535.155333 641.232805,536.536491 C641.183932,536.550175 641.133104,536.56386 641.084231,536.577544 C636.108937,537.958701 631.88629,541.260576 629.344883,545.754958 C626.804453,550.249339 625.518109,555.790585 627.534618,560.543017 C643.090965,597.201844 673.843952,649.790409 673.843952,649.790409 C680.970645,654.297497 688.878332,649.953645 691.551698,643.573735 C691.551698,643.573735 671.593828,586.687259 665.198279,550.085125" id="Fill-98" fill="#FFD8DB"></path>
            <path d="M489.856014,543.67247 C495.681702,544.777982 500.326613,549.140406 503.152463,554.26232 C505.978313,559.382278 506.616597,565.396617 504.926561,570.978917 C504.908967,571.03561 504.89235,571.091325 504.875733,571.146063 C503.184719,576.730317 499.304186,581.425079 494.08648,584.199123 C488.869753,586.973167 482.47518,588.311316 477.056117,585.939987 C435.25876,567.645763 375.245375,543.264867 375.245375,543.264867 C370.215343,535.13334 375.369513,524.349953 382.75719,521.465455 C382.75719,521.465455 447.930609,535.711999 489.856014,543.67247" id="Fill-99" fill="#FFD8DB"></path>
            <path d="M385.129887,523.262621 C385.129887,523.262621 370.955675,503.513929 366.222792,504.703504 C361.489909,505.8921 366.599116,515.371551 367.217851,516.425257 C367.836586,517.477987 337.258566,508.838178 333.382919,508.610429 C329.507273,508.38268 318.642755,511.238831 332.38786,526.19306 C346.132965,541.147288 381.149652,543.77569 381.149652,543.77569 L385.129887,523.262621 Z" id="Fill-100" fill="#FFD8DB"></path>
            <path d="M690.333581,639.458707 C690.333581,639.458707 713.79957,645.803429 714.34695,650.651653 C714.89433,655.500854 704.223351,654.042477 703.02107,653.832322 C701.818789,653.623145 720.637912,679.224893 722.210652,682.775044 C723.783392,686.324218 724.922138,697.500546 706.094218,689.876323 C687.267275,682.251123 674.305119,649.586216 674.305119,649.586216 L690.333581,639.458707 Z" id="Fill-101" fill="#FFD8DB"></path>
            <path d="M998.109864,643.414897 C998.109864,643.414897 967.35981,649.497658 966.792881,661.160764 C966.158507,674.54714 978.818626,658.52161 978.281021,658.028968 C978.281021,658.028968 991.516867,663.931876 986.837744,680.152898 C983.653165,691.188472 998.803864,686.6286 1002.5544,678.975053 C1008.99198,665.870188 1004.77128,663.315096 1004.38128,655.941104 C1003.98052,648.567112 998.109864,643.414897 998.109864,643.414897" id="Fill-102" fill="#A97A5F"></path>
            <path d="M797.803158,1003.85921 C797.803158,1003.85921 808.46143,979.917198 816.362276,973.578341 C822.198716,968.898242 880.832898,963.809562 880.832898,963.809562 L952.140884,976.507802 L939.441666,1009.72009 L797.803158,1003.85921 Z" id="Fill-103" fill="#ADCDFE"></path>
            <polygon id="Fill-104" fill="#97BFFE" points="963.863322 1008.74311 939.442351 1009.72058 952.141569 976.507314"></polygon>
            <path d="M1290.0826,952.087417 C1309.77362,952.087417 1325.73659,968.050389 1325.73659,987.74141 C1325.73659,1007.43243 1309.77362,1023.3954 1290.0826,1023.3954 C1270.3906,1023.3954 1254.42763,1007.43243 1254.42763,987.74141 C1254.42763,968.050389 1270.3906,952.087417 1290.0826,952.087417" id="Fill-105" fill="#D0E3FF"></path>
            <path d="M1297.44789,952.087417 C1317.13891,952.087417 1333.10189,968.050389 1333.10189,987.74141 C1333.10189,1007.43243 1317.13891,1023.3954 1297.44789,1023.3954 C1277.75589,1023.3954 1261.79292,1007.43243 1261.79292,987.74141 C1261.79292,968.050389 1277.75589,952.087417 1297.44789,952.087417" id="Fill-106" fill="#ADCDFE"></path>
            <path d="M1297.44789,972.871439 C1305.65957,972.871439 1312.31806,979.528949 1312.31806,987.741606 C1312.31806,995.954262 1305.65957,1002.61177 1297.44789,1002.61177 C1289.23524,1002.61177 1282.57675,995.954262 1282.57675,987.741606 C1282.57675,979.528949 1289.23524,972.871439 1297.44789,972.871439" id="Fill-107" fill="#D0E3FF"></path>
            <polygon id="Fill-108" fill="#FFD8DB" points="732.860029 391.954446 736.526498 407.501018 721.700318 430.687452 698.699602 412.946472 693.566936 386.492375"></polygon>
            <path d="M751.920586,321.770837 C751.920586,321.770837 756.508804,381.668881 747.568914,387.651941 C737.344636,394.496147 718.478595,398.636686 709.288474,396.627019 C700.098353,394.616375 675.657832,385.33535 679.472876,343.371824 C683.288897,301.40732 751.920586,321.770837 751.920586,321.770837" id="Fill-109" fill="#FFD8DB"></path>
            <path d="M738.150165,351.63218 C738.150165,351.63218 738.815818,354.439458 740.270285,358.250592 C741.361135,361.107721 742.486197,362.712717 743.702163,364.475086 C745.546638,367.147474 744.53985,368.62149 739.99464,370.346715" id="Stroke-110" stroke="#003151" stroke-width="1.0556616" stroke-linecap="round" stroke-linejoin="round"></path>
            <path d="M728.527223,342.355359 C728.527223,342.355359 720.97631,339.703497 718.496482,346.84192" id="Stroke-111" stroke="#003151" stroke-width="0.899267291" stroke-linecap="round" stroke-linejoin="round"></path>
            <path d="M751.198924,343.50124 C751.198924,343.50124 746.670331,336.904333 740.454635,341.201266" id="Stroke-112" stroke="#003151" stroke-width="0.899267291" stroke-linecap="round" stroke-linejoin="round"></path>
            <path d="M747.568719,344.916413 C746.241322,344.543022 744.859187,345.319128 744.485796,346.647503 C744.112404,347.976854 744.887534,349.358012 746.216885,349.731403 C747.546237,350.104794 748.927394,349.328688 749.299808,348.000313 C749.6732,346.671939 748.897093,345.289805 747.568719,344.916413" id="Fill-113" fill="#003151"></path>
            <path d="M728.739137,347.208274 C727.410763,346.834883 726.028628,347.610989 725.655237,348.940341 C725.281845,350.268715 726.058929,351.649872 727.386326,352.023264 C728.715678,352.395678 730.097812,351.620549 730.470226,350.292174 C730.843618,348.9638 730.067511,347.581665 728.739137,347.208274" id="Fill-114" fill="#003151"></path>
            <path d="M703.045409,338.69886 C703.045409,338.69886 748.219906,336.092939 757.180322,323.454324 C767.825887,308.439493 759.410896,279.951291 731.951965,278.462613 C711.808377,277.371763 675.363616,287.283252 678.454358,315.686414 C678.454358,315.686414 654.178051,315.606262 662.38973,349.68556 C670.601409,383.762903 693.44964,407.829055 699.873537,390.326577 C702.273212,383.788317 697.303783,368.032568 697.303783,368.032568 C697.303783,368.032568 684.931038,368.437238 685.145102,354.880783 C685.306384,344.613497 694.631395,349.540895 695.195392,353.505491 C695.195392,353.505491 702.971121,355.597265 703.045409,338.69886" id="Fill-115" fill="#003151"></path>
            <polygon id="Fill-116" fill="#49C97E" points="698.699309 412.946081 692.306691 416.789472 706.958883 447.070343 721.610098 430.464199"></polygon>
            <polygon id="Fill-117" fill="#49C97E" points="736.241958 407.085107 742.635553 411.904984 739.705115 443.16332 722.122485 430.464102"></polygon>
            <path d="M840.714238,416.897481 C840.714238,416.897481 843.987767,395.187019 844.93884,387.505126 C845.888935,379.822255 865.39717,356.999438 869.560192,362.775275 C873.722235,368.55209 866.679604,400.796687 864.504745,405.802283 C862.327932,410.809833 878.027966,395.78034 879.256639,403.280424 C880.484334,410.781486 866.864345,417.21418 860.902789,424.971338 C860.902789,424.971338 847.266182,428.916384 840.714238,416.897481" id="Fill-118" fill="#FFD8DB"></path>
            <path d="M243.343586,469.452421 C243.343586,469.452421 240.534353,450.820972 239.718171,444.228951 C238.902965,437.636931 222.161932,418.051476 218.590276,423.007221 C215.018621,427.96492 221.061307,455.634984 222.929241,459.931918 C224.795221,464.227874 214.253267,447.423305 213.19956,453.860886 C212.145853,460.296512 220.902957,469.724157 226.018029,476.379712 C226.018029,476.379712 237.721211,479.766626 243.343586,469.452421" id="Fill-119" fill="#FFD3BB"></path>
            <path d="M486.461671,424.489546 C486.261291,424.022318 490.761537,443.916651 493.327382,455.264036 C493.327382,455.264036 509.466297,452.025697 518.574311,433.074616 L513.735862,402.616824 C513.735862,402.616824 486.595584,412.491169 486.461671,424.489546" id="Fill-120" fill="#FFD8DB"></path>
            <polygon id="Fill-121" fill="#5518AB" points="518.47979 426.557567 489.62113 445.116685 491.611247 468.561169 522.460025 434.372395"></polygon>
            <path d="M372.581785,406.148696 C372.581785,406.148696 391.880843,416.900805 389.984562,432.070076 C388.619044,442.995196 389.047173,462.260043 391.944378,474.312179 C391.944378,474.312179 389.458686,475.898604 387.032619,475.097083 C387.032619,475.097083 383.006443,445.602093 381.440545,441.351101 C379.874647,437.101085 367.019035,453.950617 365.174559,458.792976 C363.331061,463.636312 358.903147,484.877592 343.630265,486.974254 C330.494121,488.778653 311.613417,489.019109 304.868913,484.256902 C298.122453,479.494696 322.116273,466.657655 322.116273,466.657655 C322.116273,466.657655 336.212288,473.042453 346.696571,456.796016 C357.177923,440.54958 372.581785,406.148696 372.581785,406.148696" id="Fill-122" fill="#FF89AB"></path>
            <path d="M322.116371,466.657948 C322.116371,466.657948 324.361607,470.701719 331.755148,470.067344 C339.148689,469.43297 348.826564,464.686403 357.706829,444.150852 C367.321169,421.921355 373.778299,407.927974 372.581883,406.148989 C371.386444,404.369026 355.762652,435.508111 346.240193,447.961986 C336.716757,460.414883 336.543746,462.643502 322.116371,466.657948" id="Fill-123" fill="#FF3871"></path>
            <path d="M388.116236,429.487615 C388.116236,429.487615 398.823382,435.86948 403.043096,439.256394" id="Stroke-124" stroke="#003151" stroke-width="1.35867558" stroke-linecap="round" stroke-linejoin="round"></path>
            <path d="M449.43825,364.605479 C449.43825,364.605479 453.518187,377.279284 454.137899,387.123328 C454.550389,393.680159 452.727418,399.848938 452.015824,402.198762 C450.82234,406.143809 461.48941,408.744842 461.48941,408.744842 C461.48941,408.744842 468.791069,425.532793 478.059387,427.425165 C487.326727,429.315581 501.765832,424.157501 506.206453,420.641561 C506.206453,420.641561 535.791369,392.440735 518.848001,354.968658 C501.905609,317.498535 451.068661,358.576479 449.43825,364.605479" id="Fill-125" fill="#FFD8DB"></path>
            <path d="M455.935945,379.943363 C455.935945,379.943363 461.326662,374.036545 466.942195,379.137932" id="Stroke-126" stroke="#003151" stroke-width="1.0556616" stroke-linecap="round" stroke-linejoin="round"></path>
            <path d="M467.873621,410.843262 C467.873621,410.843262 468.472807,411.198082 469.486437,411.444403 C469.982989,411.564631 470.56458,411.652603 471.224369,411.652603 C471.741448,411.652603 472.293715,411.58809 472.872374,411.444403 C473.098168,411.388687 473.325918,411.315378 473.554644,411.225451 C473.839086,411.112065 474.126461,410.974242 474.408948,410.804164 C474.794069,410.571527 475.172348,410.29295 475.542807,409.956702 C475.870257,409.658575 476.188911,409.328192 476.494857,408.941116 C476.889753,408.44261 477.252392,407.881545 477.601347,407.224689 C477.638491,407.173861 477.626761,407.099573 477.573978,407.061452 C477.522172,407.025286 477.448863,407.036038 477.410741,407.089799 C476.570122,407.999818 475.72657,408.62344 474.910387,409.115105 C474.537973,409.340899 474.172402,409.522708 473.815627,409.688877 C473.561486,409.806172 473.312233,409.908806 473.071777,410.00753 C472.673949,410.168812 472.294693,410.307612 471.925211,410.409268 C471.648589,410.484533 471.385651,410.551 471.1276,410.601828 C469.317336,410.960558 467.963548,410.627243 467.963548,410.627243 C467.903922,410.602806 467.8355,410.631152 467.810086,410.690778 C467.785649,410.750403 467.813995,410.818826 467.873621,410.843262" id="Fill-127" fill="#003151"></path>
            <path d="M458.227806,381.984113 C459.272716,381.261767 460.706656,381.524705 461.427047,382.569614 C462.149394,383.614524 461.887433,385.047487 460.842524,385.768855 C459.798592,386.491202 458.364651,386.228264 457.642305,385.184332 C456.921914,384.1404 457.183874,382.705482 458.227806,381.984113" id="Fill-128" fill="#003151"></path>
            <path d="M495.429712,368.832329 C495.429712,368.832329 453.369417,374.973738 442.916412,363.364393 C430.498704,349.573347 435.922654,317.417699 463.575123,313.005425 C483.859465,309.76904 517.874251,311.821715 517.835152,340.393001 C517.835152,340.393001 542.415451,337.721591 537.805728,372.481204 C533.196983,407.241794 512.673162,433.609875 504.261103,416.894256 C501.118555,410.650213 504.438024,394.453627 504.438024,394.453627 C504.438024,394.453627 517.014082,393.533833 515.324046,380.079035 C514.041613,369.887013 505.133002,375.782101 504.994202,379.784818 C504.994202,379.784818 497.344565,385.626146 495.429712,368.832329" id="Fill-129" fill="#FD9B09"></path>
            <path d="M186.276475,433.688073 C186.514976,433.688073 183.679352,448.880802 186.034064,467.794739 C186.034064,467.794739 170.455235,479.428521 153.35254,463.548634 L152.302743,421.205852 C152.302743,421.205852 182.27669,423.277099 186.276475,433.688073" id="Fill-130" fill="#FFD3BB"></path>
            <path d="M185.006455,452.859376 L171.520378,449.928938 C171.520378,449.928938 176.265968,456.579606 185.450224,458.432878 L185.006455,452.859376 Z" id="Fill-131" fill="#FE9A65"></path>
            <path d="M487.109339,427.597589 L502.948173,422.938994 C502.948173,422.938994 497.662045,431.898433 488.477789,433.751705 L487.109339,427.597589 Z" id="Fill-132" fill="#FFA3AB"></path>
            <path d="M733.378281,394.15423 L718.496385,396.670223 C718.496385,396.670223 725.766765,402.645463 734.77019,400.05225 L733.378281,394.15423 Z" id="Fill-133" fill="#FFA3AB"></path>
            <path d="M213.559071,384.461204 C213.559071,384.461204 210.939467,398.84557 210.872999,408.217499 C210.819239,415.915032 212.999962,423.600835 214.009683,426.064045 C215.510091,429.726605 205.997407,433.321719 205.997407,433.321719 C205.997407,433.321719 201.593929,449.10777 193.291346,451.877904 C184.986808,454.648038 170.239802,449.229953 165.806023,446.313199 C165.806023,446.313199 135.773428,422.29592 147.449241,384.587296 C159.124076,346.877696 211.442861,378.842738 213.559071,384.461204" id="Fill-134" fill="#FFD3BB"></path>
            <path d="M208.052721,405.112095 C208.052721,405.112095 204.189782,398.6491 197.017147,405.131644" id="Stroke-135" stroke="#003151" stroke-width="1.0556616" stroke-linecap="round" stroke-linejoin="round"></path>
            <path d="M205.997602,407.462701 C204.902842,406.820507 203.492361,407.189989 202.850167,408.284749 C202.209927,409.380487 202.577454,410.790968 203.674169,411.432185 C204.769907,412.074379 206.17941,411.704897 206.820627,410.610137 C207.461844,409.514399 207.09334,408.102941 205.997602,407.462701" id="Fill-136" fill="#003151"></path>
            <path d="M172.852076,399.52266 C172.852076,399.52266 166.497579,387.789177 159.563447,395.684157 C153.451362,402.643704 159.772624,412.737002 169.048762,414.845393 C175.084605,416.216775 168.950038,418.565622 167.150526,444.914154 C165.993208,461.836018 178.063916,467.285383 178.063916,467.285383 C178.063916,467.285383 167.270754,480.458671 154.757254,477.355221 C139.625127,473.601758 123.930958,461.685489 119.810945,440.299544 C111.326554,396.261839 121.415942,349.380689 165.834859,346.555817 C165.834859,346.555817 176.013196,336.103789 196.80582,340.526816 C222.213053,345.932194 228.573414,376.221862 215.102977,389.523199 C198.643453,405.776477 172.852076,399.52266 172.852076,399.52266" id="Fill-137" fill="#FF89AB"></path>
            <path d="M143.692845,513.364327 C135.31402,505.886724 134.580922,493.013518 142.058525,484.632738 C149.536128,476.253912 162.410312,475.521791 170.790115,482.999394 L260.649399,563.186668 C269.030179,570.664271 269.7623,583.538455 262.283719,591.918258 C254.806116,600.29806 241.932909,601.030181 233.553107,593.552578 L143.692845,513.364327 Z" id="Fill-138" fill="#1F6BFF"></path>
            <path d="M268.428354,575.528329 C269.069571,581.028522 267.593599,586.548264 264.322026,590.872566 C261.050452,595.196869 256.252079,597.971891 250.982569,598.586716 C250.930763,598.593558 250.877002,598.599423 250.825197,598.605287 C245.556663,599.219135 240.249031,597.623913 236.069393,594.169554 C231.890733,590.714217 229.181202,585.683208 228.539985,580.182038 C224.01237,541.379631 219.156326,472.537788 219.156326,472.537788 C223.971316,464.736644 237.380173,461.142507 247.372792,470.738276 C247.372792,470.738276 263.900739,536.724946 268.428354,575.528329" id="Fill-139" fill="#1F6BFF"></path>
            <path d="M812.089974,321.300677 C801.523583,306.395321 800.117989,286.036692 810.14873,269.402202 C823.648491,247.010446 852.788661,239.791871 875.180417,253.29261 C897.576082,266.793349 904.784882,295.932542 891.288053,318.324297 C877.788292,340.716053 848.648122,347.935605 826.256366,334.434866 C824.21542,333.202284 822.298613,331.841653 820.511808,330.365682 L803.289862,336.405435 L812.089974,321.300677 Z" id="Fill-140" fill="#FF89AB"></path>
            <path d="M845.023097,300.520076 L865.685718,278.420582 C867.633805,276.250611 870.975756,276.06978 873.145727,278.017867 C875.31472,279.966931 875.494574,283.309859 873.547465,285.478853 L848.286851,312.70026 C847.189158,313.922091 845.586117,314.564285 843.948864,314.438192 C842.312588,314.312099 840.826842,313.430426 839.930507,312.055134 L829.112908,295.459742 C827.520619,293.017059 828.209731,289.741575 830.652415,288.149286 C833.095098,286.556996 836.370582,287.248063 837.962871,289.68977 L845.023097,300.520076 Z" id="Fill-141" fill="#FFFFFF"></path>
            <path d="M328.848364,433.035713 C328.848364,433.035713 322.997262,433.852873 318.755066,431.366203 C315.246946,429.308641 313.297882,424.276654 312.58531,421.027562 C313.290062,424.244397 313.467961,428.657649 311.172874,431.973209 C308.348979,436.054123 302.842922,438.740195 302.842922,438.740195 C310.018489,437.166477 317.123678,441.71462 318.697396,448.891164 C317.123678,441.71462 321.67182,434.610408 328.848364,433.035713" id="Fill-142" fill="#9D94E7"></path>
            <path d="M415.454744,398.066531 C415.454744,398.066531 408.469783,395.128273 405.427914,389.604621 C402.910943,385.034975 404.066306,378.209341 405.412274,374.162638 C404.078035,378.17122 401.377301,383.150424 396.67472,385.297913 C390.883243,387.942932 383.052775,387.289986 383.052775,387.289986 C391.99462,390.263432 396.839911,399.938376 393.866464,408.88022 C396.839911,399.938376 406.513877,395.093084 415.454744,398.066531" id="Fill-143" fill="#9D94E7"></path>
            <path d="M323.170175,287.989079 C323.170175,285.530756 321.174193,283.534774 318.71587,283.534774 L93.1874528,283.534774 C90.7291297,283.534774 88.7331473,285.530756 88.7331473,287.989079 L88.7331473,296.89769 C88.7331473,299.356013 90.7291297,301.351996 93.1874528,301.351996 L318.71587,301.351996 C321.174193,301.351996 323.170175,299.356013 323.170175,296.89769 L323.170175,287.989079 Z" id="Fill-144" fill="#D2F8E2"></path>
            <polygon id="Fill-145" fill="#E6F0FF" points="98.1100615 283.536044 127.180832 283.536044 127.180832 172.881204 98.1100615 172.881204"></polygon>
            <polygon id="Fill-146" fill="#D2F8E2" points="265.567316 283.536044 294.637108 283.536044 294.637108 172.881204 265.567316 172.881204"></polygon>
            <polygon id="Fill-147" fill="#D8E7FF" points="126.952105 283.535067 156.021898 283.535067 156.021898 192.573203 126.952105 192.573203"></polygon>
            <polygon id="Fill-148" fill="#D3E4FF" points="236.725272 283.535067 265.795065 283.535067 265.795065 182.664646 236.725272 182.664646"></polygon>
            <polygon id="Fill-149" fill="#E6F0FF" points="168.456223 283.535067 197.526015 283.535067 197.526015 179.444878 168.456223 179.444878"></polygon>
            <polygon id="Fill-150" fill="#D8E7FF" points="197.650153 283.535067 226.720924 283.535067 226.720924 216.01671 197.650153 216.01671"></polygon>
            <path d="M863.227395,430.218269 C863.522589,428.902602 862.694677,427.595732 861.37901,427.301515 L838.807401,422.243137 C837.492711,421.94892 836.185841,422.776832 835.890647,424.091522 L834.822278,428.857639 C834.528061,430.173306 835.355974,431.481153 836.671641,431.774393 L859.24325,436.833749 C860.558917,437.126988 861.864809,436.299076 862.160004,434.984386 L863.227395,430.218269 Z" id="Fill-151" fill="#277BFD"></path>
            <path d="M839.670893,420.361518 C840.010073,419.283374 839.40991,418.134854 838.332744,417.796651 L834.430706,416.571888 C833.352563,416.232708 832.203064,416.831894 831.865839,417.909059 L827.962824,430.331655 C827.625598,431.407843 828.224784,432.557342 829.30195,432.895544 L833.204965,434.122262 C834.281154,434.459487 835.430652,433.860302 835.769832,432.783136 L839.670893,420.361518 Z" id="Fill-152" fill="#277BFD"></path>
            <path d="M223.693618,531.409299 L243.872394,547.607839 C244.194958,547.868822 244.669028,547.816039 244.930011,547.492499 C245.190016,547.168958 245.137233,546.694888 244.813693,546.434882 L224.634917,530.235364 C224.312353,529.975358 223.838283,530.027164 223.5773,530.351682 C223.317295,530.675223 223.3691,531.148316 223.693618,531.409299" id="Fill-153" fill="#003151"></path>
            <path d="M182.762783,496.284993 L205.871998,515.413973 C206.190651,515.679843 206.665699,515.63488 206.930592,515.314271 C207.195485,514.99464 207.151499,514.52057 206.83089,514.255677 L183.721676,495.124743 C183.403023,494.860828 182.927975,494.905791 182.663082,495.225422 C182.398189,495.545053 182.442175,496.020101 182.762783,496.284993" id="Fill-154" fill="#003151"></path>
            <path d="M157.720047,528.067836 L208.179694,571.618765 C208.49346,571.8905 208.969485,571.854334 209.240243,571.540568 C209.511978,571.225824 209.476789,570.749799 209.162045,570.479041 L158.702398,526.928113 C158.388632,526.657355 157.913584,526.692544 157.641849,527.007287 C157.370114,527.321054 157.405303,527.796101 157.720047,528.067836" id="Fill-155" fill="#003151"></path>
            <path d="M529.191823,536.451744 L558.077852,482.043141 C558.272368,481.675614 558.728843,481.535837 559.09637,481.73133 C559.462919,481.925845 559.601719,482.382321 559.408181,482.747893 L530.457639,537.276724 C530.42636,537.334395 530.387262,537.389133 530.342298,537.438006 C530.342298,537.438006 529.790031,538.081178 528.271051,538.447727 C527.531111,538.626603 526.535074,538.744876 525.224295,538.666679 C524.810827,538.642242 524.494129,538.285468 524.518565,537.870045 C524.543002,537.4556 524.899776,537.139879 525.315199,537.164316 C526.204691,537.217099 526.92606,537.168226 527.502764,537.070479 C528.530079,536.894536 529.038361,536.567085 529.191823,536.451744" id="Fill-156" fill="#003151"></path>
            <path d="M514.116486,461.539162 L485.165944,518.020968 C484.977294,518.39045 485.122936,518.843993 485.492417,519.033621 C485.861899,519.223249 486.31642,519.07663 486.505071,518.708126 L515.455613,462.225343 C515.645241,461.855861 515.498621,461.40134 515.12914,461.213667 C514.759658,461.024039 514.306114,461.169681 514.116486,461.539162" id="Fill-157" fill="#003151"></path>
            <path d="M722.219547,434.95907 L746.718716,611.415839 C746.776386,611.827351 747.15662,612.115703 747.568132,612.058033 C747.979645,612.00134 748.267019,611.620129 748.210326,611.208616 L723.71018,434.751847 C723.65251,434.340335 723.272276,434.051983 722.860763,434.109653 C722.450228,434.166346 722.161876,434.547557 722.219547,434.95907" id="Fill-158" fill="#003151"></path>
            <path d="M666.969933,472.920368 L673.887449,527.274233 C673.939254,527.686723 674.316556,527.978985 674.728068,527.926202 C675.140558,527.874396 675.43282,527.497095 675.380037,527.085582 L668.461544,472.729762 C668.410715,472.318249 668.033414,472.025988 667.620924,472.079748 C667.208434,472.130576 666.916172,472.507878 666.969933,472.920368" id="Fill-159" fill="#003151"></path>
            <path d="M772.524657,452.787826 L779.441195,506.165204 C779.495933,506.577694 779.874212,506.868978 780.284747,506.815218 C780.69626,506.762435 780.987544,506.384156 780.934761,505.971666 L774.017245,452.594288 C773.964462,452.181798 773.586183,451.891491 773.174671,451.945251 C772.762181,451.998034 772.470896,452.376313 772.524657,452.787826" id="Fill-160" fill="#003151"></path>
            <path d="M815.481482,482.508805 L806.884683,504.465589 C806.733176,504.852665 806.924759,505.289591 807.311834,505.440121 C807.697933,505.591628 808.13486,505.401022 808.286367,505.014924 L816.883166,483.05814 C817.033696,482.671064 816.844068,482.234137 816.456014,482.082631 C816.069916,481.931124 815.632989,482.121729 815.481482,482.508805" id="Fill-161" fill="#003151"></path>
            <path d="M1013.53455,370.424521 L1023.81943,401.271344 C1023.95725,401.665262 1024.38733,401.879327 1024.77734,401.747369 C1025.16833,401.615411 1025.38337,401.189237 1025.2563,400.794341 L1014.96067,369.947518 C1014.82382,369.5536 1014.40351,369.34149 1014.01253,369.471493 C1013.61274,369.603451 1013.39672,370.029625 1013.53455,370.424521" id="Fill-162" fill="#003151"></path>
            <path d="M1049.51081,709.101094 L1063.70457,823.958054 C1063.76224,824.367612 1064.13368,824.660851 1064.54421,824.611978 C1064.96452,824.564082 1065.25678,824.181893 1065.19814,823.772336 L1051.00438,708.916353 C1050.95648,708.504841 1050.57527,708.210624 1050.16473,708.26243 C1049.75518,708.31228 1049.46194,708.688604 1049.51081,709.101094" id="Fill-163" fill="#000000"></path>
            <path d="M976.913059,411.211669 L1003.72784,417.369695 C1004.12762,417.462554 1004.53816,417.20939 1004.62613,416.803743 C1004.7229,416.399072 1004.46876,415.99538 1004.0592,415.90252 L977.255172,409.744494 C976.845614,409.651635 976.444854,409.904799 976.356882,410.309469 C976.258158,410.714139 976.513276,411.118809 976.913059,411.211669" id="Fill-164" fill="#003151"></path>
            <path d="M1028.20609,442.883863 C1025.4907,447.042974 1023.16629,451.504121 1021.24166,456.274148 C1019.41478,460.801763 1017.93978,465.607956 1016.83623,470.699568 C1016.73848,471.104239 1017.00239,471.505976 1017.40218,471.593948 C1017.81271,471.68192 1018.2125,471.423869 1018.30047,471.018222 C1019.38545,466.014581 1020.8409,461.289518 1022.63845,456.839122 C1024.52301,452.160978 1026.8093,447.785847 1029.46604,443.70591 C1029.69184,443.357933 1029.59311,442.890705 1029.251,442.663933 C1028.90009,442.437161 1028.42993,442.536863 1028.20609,442.883863" id="Fill-165" fill="#003151"></path>
            <path d="M1067.97286,518.224476 L1069.6326,519.910602 C1069.92584,520.205797 1069.92584,520.682799 1069.62282,520.975061 C1069.33056,521.266346 1068.85161,521.262436 1068.55934,520.966264 L1066.66306,519.033817 C1066.50765,518.8784 1066.42945,518.663358 1066.44802,518.445383 L1070.82511,464.871534 C1070.85443,464.458067 1071.21511,464.149188 1071.63542,464.183399 C1072.04596,464.217611 1072.35777,464.581227 1072.31965,464.994695 L1067.97286,518.224476 Z" id="Fill-166" fill="#003151"></path>
            <path d="M1111.9397,525.835601 L1117.2923,467.794739 C1117.3314,467.381272 1117.69306,467.077281 1118.11239,467.115402 C1118.52293,467.152545 1118.82594,467.519094 1118.78684,467.933539 L1113.39417,526.390801 C1113.3756,526.648851 1113.21921,526.8766 1112.98461,526.992919 L1111.07954,527.948879 C1110.7081,528.135575 1110.25847,527.985045 1110.07372,527.613609 C1109.88801,527.24315 1110.03463,526.790584 1110.40606,526.603888 L1111.9397,525.835601 Z" id="Fill-167" fill="#003151"></path>
            <path d="M506.905829,574.633949 L525.191256,652.182069 C525.28607,652.585762 525.691718,652.835992 526.096388,652.740201 C526.499104,652.646364 526.750312,652.240717 526.656475,651.836046 L508.371048,574.288904 C508.275257,573.884234 507.869609,573.634003 507.464939,573.729795 C507.061246,573.823631 506.811015,574.229279 506.905829,574.633949" id="Fill-168" fill="#003151"></path>
            <path d="M527.917991,669.607327 L535.458152,700.266477 C535.556876,700.67017 535.964478,700.917469 536.369149,700.817767 C536.771864,700.719043 537.018185,700.310463 536.919461,699.907748 L529.3793,669.247621 C529.279599,668.843928 528.872974,668.597607 528.468304,668.696331 C528.065588,668.796032 527.81829,669.203635 527.917991,669.607327" id="Fill-169" fill="#003151"></path>
            <path d="M749.556099,635.75744 L753.875515,660.629023 C753.94687,661.038581 754.336878,661.313248 754.746436,661.242871 C755.155993,661.171516 755.429683,660.781508 755.358328,660.372928 L751.037936,635.500367 C750.966581,635.09081 750.57755,634.81712 750.167992,634.88652 C749.759412,634.958852 749.484745,635.347883 749.556099,635.75744" id="Fill-170" fill="#003151"></path>
            <path d="M107.467426,655.98636 C107.702995,656.393963 108.280677,657.347968 109.155507,658.499421 C109.743941,659.273573 110.466287,660.135697 111.309839,660.981204 C111.603078,661.27542 111.602101,661.751446 111.309839,662.044685 C111.015622,662.338902 110.53862,662.337924 110.244403,662.044685 C109.349045,661.14835 108.581736,660.231488 107.956159,659.410418 C106.704027,657.761436 106.022734,656.486822 106.022734,656.486822 C105.945514,656.344112 105.917168,656.179898 105.941604,656.019594 L125.414651,525.240716 C125.475254,524.829203 125.85842,524.546716 126.268955,524.606342 C126.680468,524.667922 126.963932,525.051088 126.903329,525.4626 L107.467426,655.98636 Z" id="Fill-171" fill="#003151"></path>
            <path d="M128.272953,824.758891 L138.628211,980.86485 C138.65558,981.28516 139.014309,981.596971 139.428754,981.567647 C139.842222,981.539301 140.156965,981.187413 140.129596,980.767104 L129.775315,824.661144 C129.747946,824.250609 129.38824,823.928046 128.973795,823.958347 C128.55935,823.986694 128.245584,824.348356 128.272953,824.758891" id="Fill-172" fill="#003151"></path>
            <path d="M202.918687,434.372004 L192.251617,432.418053 C192.251617,432.418053 190.061119,438.709014 196.862317,440.232881 C202.570709,441.511405 202.918687,434.372004 202.918687,434.372004" id="Fill-173" fill="#FFFFFF"></path>
            <path d="M744.335657,374.507585 L733.600165,375.922954 C733.600165,375.922954 732.612926,382.494447 739.549991,381.935338 C746.195772,381.39871 744.335657,374.507585 744.335657,374.507585" id="Fill-174" fill="#FFFFFF"></path>
        </g>
    </g>
</svg>
