<?xml version="1.0" encoding="UTF-8"?>
<svg width="24px" height="24px" viewBox="0 0 24 24" version="1.1" xmlns="http://www.w3.org/2000/svg" xmlns:xlink="http://www.w3.org/1999/xlink">
    <title>6BD3A973-D273-44D6-93D2-AE7FB2C93902</title>
    <g id="02---Business-Flow" stroke="none" stroke-width="1" fill="none" fill-rule="evenodd">
        <g id="07-01_Provider-Mode---Inventory---Empty" transform="translate(-327.000000, -58.000000)">
            <rect fill="#FFFFFF" x="0" y="0" width="375" height="812"></rect>
            <g id="Bars-/-Header">
                <rect id="Container" fill-rule="nonzero" x="0" y="0" width="375" height="96"></rect>
                <g id="Group" transform="translate(302.000000, 58.000000)">
                    <g id="Icons-/-Ic_24_Dots" transform="translate(25.000000, 0.000000)">
                        <rect id="Bounding-Box" fill-rule="nonzero" x="0" y="0" width="24" height="24"></rect>
                        <g id="chart-bar-33" transform="translate(2.000000, 1.000000)" stroke-linecap="round" stroke-linejoin="round" stroke-width="2">
                            <path d="M4,16 L4,21 L0,21 L0,16 L4,16 Z M20,9 L20,21 L16,21 L16,9 L20,9 Z" id="Combined-Shape" stroke="#323F4B"></path>
                            <path d="M1,10 L7,5 L10,8 L18,0 M13,0 L18,0 L18,5 M8,12 L12,12 L12,21 L8,21 L8,12 Z" id="Combined-Shape" stroke="#4CBD97"></path>
                        </g>
                    </g>
                </g>
            </g>
        </g>
    </g>
</svg>