<?xml version="1.0" encoding="UTF-8"?>
<svg width="40px" height="40px" viewBox="0 0 40 40" version="1.1" xmlns="http://www.w3.org/2000/svg" xmlns:xlink="http://www.w3.org/1999/xlink">
    <title>4EEF30A8-FF3E-4636-A18B-9253E1857FFF</title>
    <g id="01---Create-Account" stroke="none" stroke-width="1" fill="none" fill-rule="evenodd">
        <g id="03-11_Account---Registration---Personal-Info---Interests" transform="translate(-36.000000, -452.000000)">
            <g id="Group-5" transform="translate(24.000000, 440.000000)">
                <g id="Icons-/-Ic_48_Ride" transform="translate(12.000000, 12.000000)">
                    <rect id="Bounding-Box" fill-rule="nonzero" x="0" y="0" width="40" height="40"></rect>
                    <g id="car-simple" transform="translate(1.666667, 8.333333)" stroke-linecap="round" stroke-linejoin="round">
                        <path d="M33.3333333,19.1666667 C35.1742825,19.1666667 36.6666667,17.6742825 36.6666667,15.8333333 L36.6666667,12.5 C36.6666667,10.6590508 35.1742825,9.16666667 33.3333333,9.16666667 L26.6666667,9.16666667 L26.6666667,9.16666667 L23.7325,1.0975 C23.4925,0.438333333 22.8666667,0 22.1658333,0 L7.83416667,0 C7.13333333,0 6.5075,0.438333333 6.2675,1.0975 L3.33333333,9.16666667 L1.66666667,9.16666667 C0.745833333,9.16666667 0,9.9125 0,10.8333333 L0,15.8333333 C2.2545125e-16,17.6742825 1.49238417,19.1666667 3.33333333,19.1666667 L3.33333333,19.1666667 L3.33333333,19.1666667 M2.5,9.16666667 L27.5,9.16666667 M15.8333333,0 L15.8333333,9.16666667" id="Combined-Shape" stroke="#323F4B" stroke-width="1.66666667"></path>
                        <line x1="11.6666667" y1="19.1666667" x2="25" y2="19.1666667" id="Path" stroke="#323F4B" stroke-width="1.66666667"></line>
                        <path d="M7.5,15 C9.80118646,15 11.6666667,16.8654802 11.6666667,19.1666667 C11.6666667,21.4678531 9.80118646,23.3333333 7.5,23.3333333 C5.19881354,23.3333333 3.33333333,21.4678531 3.33333333,19.1666667 C3.33333333,16.8654802 5.19881354,15 7.5,15 Z M29.1666667,15 C31.4678531,15 33.3333333,16.8654802 33.3333333,19.1666667 C33.3333333,21.4678531 31.4678531,23.3333333 29.1666667,23.3333333 C26.8654802,23.3333333 25,21.4678531 25,19.1666667 C25,16.8654802 26.8654802,15 29.1666667,15 Z" id="Combined-Shape" stroke="#B37EFF" stroke-width="2"></path>
                    </g>
                </g>
            </g>
        </g>
    </g>
</svg>