<?xml version="1.0" encoding="UTF-8"?>
<svg width="24px" height="24px" viewBox="0 0 24 24" version="1.1" xmlns="http://www.w3.org/2000/svg" xmlns:xlink="http://www.w3.org/1999/xlink">
    <title>Icons / Ic_24_Trash</title>
    <g id="Icons-/-Ic_24_Trash" stroke="none" stroke-width="1" fill="none" fill-rule="evenodd">
        <rect id="Bounding-Box" fill-rule="nonzero" x="0" y="0" width="24" height="24"></rect>
        <g id="Group" transform="translate(3.000000, 2.000000)" stroke-linecap="round" stroke-linejoin="round" stroke-width="2">
            <path d="M16,4 L16,18 C16,19.1045695 15.1045695,20 14,20 L4,20 C2.8954305,20 2,19.1045695 2,18 L2,4 M7,9 L7,15 M11,9 L11,15" id="Combined-Shape" stroke="#323F4B"></path>
            <path d="M0,4 L18,4 M5,4 L5,2 C5,0.8954305 5.8954305,0 7,0 L11,0 C12.1045695,0 13,0.8954305 13,2 L13,4" id="Combined-Shape" stroke="#4CBD97"></path>
        </g>
    </g>
</svg>