<?xml version="1.0" encoding="UTF-8"?>
<svg width="24px" height="24px" viewBox="0 0 24 24" version="1.1" xmlns="http://www.w3.org/2000/svg" xmlns:xlink="http://www.w3.org/1999/xlink">
    <title>7AFF50A7-B6EF-429B-8F1F-DF162A2C697A</title>
    <g id="Page-1" stroke="none" stroke-width="1" fill="none" fill-rule="evenodd">
        <g id="03-03_Account---Registration---University-Info" transform="translate(-44.000000, -116.000000)" fill-rule="nonzero">
            <g id="Icon" transform="translate(24.000000, 96.000000)">
                <g id="Icons-/-Ic_24_University---Glyph" transform="translate(20.000000, 20.000000)">
                    <rect id="Bounding-Box" x="0" y="0" width="24" height="24"></rect>
                    <g id="temple-25">
                        <path d="M23,22 L23,13 L24,13 L24,11 L0,11 L0,13 L1,13 L1,22 L0,22 L0,24 L24,24 L24,22 L23,22 Z M21,22 L18,22 L18,13 L21,13 L21,22 Z M13,13 L16,13 L16,22 L13,22 L13,13 Z M11,22 L8,22 L8,13 L11,13 L11,22 Z M3,13 L6,13 L6,22 L3,22 L3,13 Z" id="Shape" fill="#2E9B74"></path>
                        <path d="M13,3.1 L13,1 C13,0.4 12.6,0 12,0 C11.4,0 11,0.4 11,1 L11,3.1 C7.5,3.4 4.7,5.8 3.5,9 L20.4,9 C19.3,5.8 16.5,3.4 13,3.1 Z" id="Path" fill="#4CBD97"></path>
                    </g>
                </g>
            </g>
        </g>
    </g>
</svg>