<?xml version="1.0" encoding="UTF-8"?>
<svg width="24px" height="24px" viewBox="0 0 24 24" version="1.1" xmlns="http://www.w3.org/2000/svg" xmlns:xlink="http://www.w3.org/1999/xlink">
    <title>Icons / Ic_24_User - Add</title>
    <g id="Icons-/-Ic_24_User---Add" stroke="none" stroke-width="1" fill="none" fill-rule="evenodd">
        <rect id="Bounding-Box" fill-rule="nonzero" x="0" y="0" width="24" height="24"></rect>
        <path d="M15,14 L8.66666667,14 C4.98444444,14 2,17.02175 2,20.75 L2,21.875 C2,21.875 5.47222222,23 12,23 C13.0869752,23 14.0892279,22.9688067 15.0048344,22.9168085" id="Path" stroke="#323F4B" stroke-width="2" stroke-linecap="round" stroke-linejoin="round"></path>
        <path d="M19,16 L19,22 M16,19 L22,19" id="Combined-Shape" stroke="#4CBD97" stroke-width="2" stroke-linecap="round" stroke-linejoin="round"></path>
        <path d="M7,6 C7,3.239 9.239,1 12,1 C14.761,1 17,3.239 17,6 C17,8.761 14.761,12 12,12 C9.239,12 7,8.761 7,6 Z" id="Path" stroke="#4CBD97" stroke-width="2" stroke-linecap="round" stroke-linejoin="round"></path>
    </g>
</svg>