<?xml version="1.0" encoding="UTF-8"?>
<svg width="24px" height="24px" viewBox="0 0 24 24" version="1.1" xmlns="http://www.w3.org/2000/svg" xmlns:xlink="http://www.w3.org/1999/xlink">
    <title>0C4EF500-28D9-4964-A9D7-7DFF7D7ACDB8</title>
    <g id="Page-1" stroke="none" stroke-width="1" fill="none" fill-rule="evenodd">
        <g id="03-01_Account---Registration---Personal-Info" transform="translate(-44.000000, -116.000000)" fill-rule="nonzero">
            <g id="Icon" transform="translate(24.000000, 96.000000)">
                <g id="Icons-/-Ic_24_User---Glyph" transform="translate(20.000000, 20.000000)">
                    <rect id="Bounding-Box" x="0" y="0" width="24" height="24"></rect>
                    <g id="single-02" transform="translate(2.000000, 0.000000)">
                        <path d="M13.461,14.023 C12.424,14.632 11.258,15 10,15 C8.742,15 7.576,14.632 6.539,14.023 C2.894,14.262 0,17.296 0,21 L0,22.73 L0.695,22.953 C0.829,22.995 4.038,24 10,24 C15.962,24 19.171,22.995 19.305,22.953 L20,22.73 L20,21 C20,17.296 17.106,14.262 13.461,14.023 Z" id="Path" fill="#2E9B74"></path>
                        <path d="M10,13 C13.379,13 16,9.237 16,6 C16,2.691 13.309,0 10,0 C6.691,0 4,2.691 4,6 C4,9.237 6.621,13 10,13 Z" id="Path" fill="#4CBD97"></path>
                    </g>
                </g>
            </g>
        </g>
    </g>
</svg>