<?xml version="1.0" encoding="UTF-8"?>
<svg width="16px" height="16px" viewBox="0 0 16 16" version="1.1" xmlns="http://www.w3.org/2000/svg" xmlns:xlink="http://www.w3.org/1999/xlink">
    <title>Icons / Ic_16_Money - Glyph</title>
    <g id="Icons-/-Ic_16_Money---Glyph" stroke="none" stroke-width="1" fill="none" fill-rule="evenodd">
        <rect id="Bounding-Box" fill-rule="nonzero" x="0" y="0" width="16" height="16"></rect>
        <g id="money" transform="translate(1.000000, 1.000000)">
            <circle id="Oval" fill="#2E9B74" fill-rule="nonzero" cx="7" cy="7" r="7"></circle>
            <path d="M7.10299625,11 C7.24656679,11 7.36204744,10.9590829 7.4494382,10.8772487 C7.53682896,10.7954145 7.58052434,10.6895944 7.58052434,10.5597884 L7.58052434,10.5597884 L7.58052434,10.026455 C8.16729089,9.94744268 8.63389513,9.75273369 8.98033708,9.44232804 C9.32677903,9.1319224 9.5,8.75097002 9.5,8.2994709 C9.5,7.92698413 9.39856429,7.63209877 9.19569288,7.41481481 C8.99282147,7.19753086 8.74781523,7.03527337 8.46067416,6.92804233 C8.17353308,6.82081129 7.80212235,6.71640212 7.34644195,6.61481481 C7.0031211,6.53580247 6.73158552,6.46525573 6.53183521,6.4031746 C6.33208489,6.34109347 6.16666667,6.25220459 6.03558052,6.13650794 C5.90449438,6.02081129 5.83895131,5.86984127 5.83895131,5.68359788 C5.83895131,5.41269841 5.95443196,5.19964727 6.18539326,5.04444444 C6.41635456,4.88924162 6.72534332,4.81164021 7.11235955,4.81164021 C7.42446941,4.81164021 7.69444444,4.85255732 7.92228464,4.93439153 C8.15012484,5.01622575 8.39200999,5.13897707 8.64794007,5.3026455 C8.73533084,5.35343915 8.80555556,5.38730159 8.85861423,5.4042328 C8.91167291,5.42116402 8.96629213,5.42962963 9.02247191,5.42962963 C9.12858926,5.42962963 9.22066167,5.38447972 9.29868914,5.29417989 C9.3767166,5.20388007 9.41573034,5.0994709 9.41573034,4.98095238 C9.41573034,4.81728395 9.34082397,4.68465608 9.19101124,4.58306878 C8.73533084,4.24444444 8.19225968,4.03844797 7.56179775,3.96507937 L7.56179775,3.96507937 L7.56179775,3.44021164 C7.56179775,3.31040564 7.51810237,3.20458554 7.43071161,3.12275132 C7.34332085,3.04091711 7.2278402,3 7.08426966,3 C6.94069913,3 6.82521848,3.04091711 6.73782772,3.12275132 C6.65043695,3.20458554 6.60674157,3.31040564 6.60674157,3.44021164 L6.60674157,3.44021164 L6.60674157,3.97354497 C6.01997503,4.05255732 5.54556804,4.25291005 5.1835206,4.57460317 C4.82147316,4.8962963 4.64044944,5.28571429 4.64044944,5.74285714 C4.64044944,6.12663139 4.74656679,6.4313933 4.9588015,6.65714286 C5.1710362,6.88289242 5.42384519,7.05079365 5.71722846,7.16084656 C6.01061174,7.27089947 6.39138577,7.37954145 6.85955056,7.48677249 C7.19662921,7.56578483 7.4588015,7.63492063 7.64606742,7.69417989 C7.83333333,7.75343915 7.98938826,7.83386243 8.11423221,7.93544974 C8.23907615,8.03703704 8.30149813,8.1696649 8.30149813,8.33333333 C8.30149813,8.60987654 8.18757803,8.82151675 7.95973783,8.96825397 C7.73189763,9.11499118 7.40886392,9.18835979 6.9906367,9.18835979 C6.68476904,9.18835979 6.39294632,9.14885362 6.11516854,9.06984127 C5.83739076,8.99082892 5.55493134,8.86666667 5.26779026,8.6973545 C5.1803995,8.65220459 5.11017478,8.61975309 5.0571161,8.6 C5.00405743,8.58024691 4.9463171,8.57037037 4.88389513,8.57037037 C4.78401998,8.57037037 4.69506866,8.61552028 4.6170412,8.70582011 C4.53901373,8.79611993 4.5,8.9005291 4.5,9.01904762 C4.5,9.10934744 4.51560549,9.18553792 4.54681648,9.24761905 C4.57802747,9.30970018 4.63420724,9.36613757 4.71535581,9.41693122 C4.9588015,9.59188713 5.24906367,9.7329806 5.58614232,9.84021164 C5.92322097,9.94744268 6.26966292,10.0151675 6.62546816,10.0433862 L6.62546816,10.0433862 L6.62546816,10.5597884 C6.62546816,10.6895944 6.66916355,10.7954145 6.75655431,10.8772487 C6.84394507,10.9590829 6.95942572,11 7.10299625,11 Z" id="$" fill="#FFFFFF"></path>
        </g>
    </g>
</svg>