<?xml version="1.0" encoding="UTF-8"?>
<svg width="24px" height="24px" viewBox="0 0 24 24" version="1.1" xmlns="http://www.w3.org/2000/svg" xmlns:xlink="http://www.w3.org/1999/xlink">
    <title>Icons / Ic_24_Nav - Performance - Active</title>
    <g id="Icons-/-Ic_24_Nav---Performance---Active" stroke="none" stroke-width="1" fill="none" fill-rule="evenodd">
        <rect id="Bounding-Box" fill-rule="nonzero" x="0" y="0" width="24" height="24"></rect>
        <g id="chart-bar-33" transform="translate(1.000000, 0.000000)" fill-rule="nonzero">
            <path d="M5,16 C5.55228475,16 6,16.4477153 6,17 L6,22 C6,22.5522847 5.55228475,23 5,23 L1,23 C0.44771525,23 6.76353751e-17,22.5522847 0,22 L0,17 C-6.76353751e-17,16.4477153 0.44771525,16 1,16 L5,16 Z M21,9 C21.5522847,9 22,9.44771525 22,10 L22,22 C22,22.5522847 21.5522847,23 21,23 L17,23 C16.4477153,23 16,22.5522847 16,22 L16,10 C16,9.44771525 16.4477153,9 17,9 L21,9 Z" id="Combined-Shape" fill="#2E9B74"></path>
            <path d="M13,12 C13.5522847,12 14,12.4477153 14,13 L14,22 C14,22.5522847 13.5522847,23 13,23 L9,23 C8.44771525,23 8,22.5522847 8,22 L8,13 C8,12.4477153 8.44771525,12 9,12 L13,12 Z M19,0 L19.0193545,0.000186147798 C19.042681,0.000634893312 19.0659949,0.00189498016 19.0892501,0.00396640833 L19,0 C19.0506203,0 19.1003621,0.00376118706 19.1489612,0.0110193427 C19.165949,0.0136280806 19.1833753,0.0167021706 19.2007258,0.020240071 C19.2227461,0.0246397952 19.2444365,0.0298336259 19.2658396,0.0357209664 C19.2814633,0.0400977346 19.2968513,0.0447287157 19.3121425,0.0497380859 C19.3317977,0.0561224864 19.3515792,0.0633157362 19.3710585,0.0711039637 C19.3887956,0.0781964242 19.4060985,0.0856790475 19.4232215,0.0936733617 C19.4438914,0.103376643 19.4642939,0.11379392 19.484277,0.12487577 C19.4963944,0.131498828 19.5086131,0.138606922 19.5207088,0.145995454 C19.546275,0.1617187 19.5711307,0.178490093 19.5951593,0.196313506 C19.602603,0.201753444 19.6098424,0.207284482 19.6170223,0.212927691 C19.6801818,0.262551711 19.7374483,0.319818245 19.787214,0.383249919 L19.7071068,0.292893219 C19.7425008,0.328287271 19.774687,0.365674419 19.8036654,0.404693385 C19.8215099,0.428869307 19.8382813,0.453725048 19.8539326,0.479339815 C19.8613931,0.491386894 19.8685012,0.503605559 19.8753288,0.515937903 C19.8862061,0.535706055 19.8966234,0.556108604 19.9063462,0.576900852 C19.914321,0.593901505 19.9218036,0.611204351 19.9287745,0.628663976 C19.9366843,0.648420797 19.9438775,0.668202324 19.9504533,0.688263589 C19.9552713,0.703148659 19.9599023,0.718536724 19.9641549,0.734007034 C19.9701664,0.755563524 19.9753602,0.777253921 19.9798348,0.799205901 C19.9832978,0.816624737 19.9863719,0.83405099 19.9889822,0.851533135 C19.9905825,0.861764108 19.9920139,0.872545084 19.9932723,0.883378875 L19.9962979,0.913769205 C19.9978436,0.931734513 19.9989053,0.949733631 19.9994829,0.967745384 L20,1 L20,6 C20,6.55228475 19.5522847,7 19,7 C18.4871642,7 18.0644928,6.61395981 18.0067277,6.11662113 L18,6 L17.9999749,3.414 L11.7071068,9.70710678 C11.3466228,10.0675907 10.7793918,10.0953203 10.3871006,9.79029539 L10.2928932,9.70710678 L7.938,7.353 L2.6401844,11.7682213 C2.24854419,12.0945881 1.68113212,12.0708491 1.31806763,11.7315605 L1.23177872,11.6401844 C0.905411876,11.2485442 0.929150907,10.6811321 1.2684395,10.3180676 L1.3598156,10.2317787 L7.3598156,5.23177872 C7.72403157,4.92826542 8.24531248,4.92524171 8.61135926,5.20854139 L8.70710678,5.29289322 L11,7.585 L16.5839749,2 L14,2 C13.4871642,2 13.0644928,1.61395981 13.0067277,1.11662113 L13,1 C13,0.487164161 13.3860402,0.0644928393 13.8833789,0.00672773133 L14,0 L19,0 Z" id="Combined-Shape" fill="#48CF97"></path>
        </g>
    </g>
</svg>