<?xml version="1.0" encoding="UTF-8"?>
<svg width="24px" height="24px" viewBox="0 0 24 24" version="1.1" xmlns="http://www.w3.org/2000/svg" xmlns:xlink="http://www.w3.org/1999/xlink">
    <title>Icons / Ic_24_Nav - Classroom - Active</title>
    <g id="Icons-/-Ic_24_Nav---Classroom---Active" stroke="none" stroke-width="1" fill="none" fill-rule="evenodd">
        <g id="Group" fill-rule="nonzero">
            <rect id="Bounding-Box" x="0" y="0" width="24" height="24"></rect>
            <path d="M12,1 C13.6545,1 15,2.449 15,4.23076923 C15,5.20693467 14.5889552,6.27193683 13.930495,7.0200908 C15.6578714,7.23250374 17,8.70880431 17,10.496542 L17,10.496542 L17,11.3635361 L16.6525,11.4752932 C16.5855,11.4963416 14.981,12 12,12 C9.019,12 7.4145,11.4963416 7.3475,11.4752932 L7.3475,11.4752932 L7,11.3635361 L7,10.496542 C7,8.70880431 8.34212858,7.23250374 10.0692345,7.01894001 C9.41104475,6.27193683 9,5.20693467 9,4.23076923 C9,2.449 10.3455,1 12,1 Z" id="Combined-Shape" fill="#48CF97"></path>
            <path d="M6,13 C7.6545,13 9,14.449 9,16.2307692 C9,17.2069347 8.58895525,18.2719368 7.93049501,19.0200908 C9.65787142,19.2325037 11,20.7088043 11,22.496542 L11,22.496542 L11,23.3635361 L10.6525,23.4752932 C10.5855,23.4963416 8.981,24 6,24 C3.019,24 1.4145,23.4963416 1.3475,23.4752932 L1.3475,23.4752932 L1,23.3635361 L1,22.496542 C1,20.7088043 2.34212858,19.2325037 4.0692345,19.01894 C3.41104475,18.2719368 3,17.2069347 3,16.2307692 C3,14.449 4.3455,13 6,13 Z M18,13 C19.6545,13 21,14.449 21,16.2307692 C21,17.2069347 20.5889552,18.2719368 19.930495,19.0200908 C21.6578714,19.2325037 23,20.7088043 23,22.496542 L23,22.496542 L23,23.3635361 L22.6525,23.4752932 C22.5855,23.4963416 20.981,24 18,24 C15.019,24 13.4145,23.4963416 13.3475,23.4752932 L13.3475,23.4752932 L13,23.3635361 L13,22.496542 C13,20.7088043 14.3421286,19.2325037 16.0692345,19.01894 C15.4110448,18.2719368 15,17.2069347 15,16.2307692 C15,14.449 16.3455,13 18,13 Z" id="Combined-Shape" fill="#2E9B74"></path>
        </g>
    </g>
</svg>