<?xml version="1.0" encoding="UTF-8"?>
<svg width="24px" height="24px" viewBox="0 0 24 24" version="1.1" xmlns="http://www.w3.org/2000/svg" xmlns:xlink="http://www.w3.org/1999/xlink">
    <title>Icons / Ic_24_Warning - Glyph</title>
    <g id="Icons-/-Ic_24_Warning---Glyph" stroke="none" stroke-width="1" fill="none" fill-rule="evenodd">
        <rect id="Bounding-Box" fill-rule="nonzero" x="0" y="0" width="24" height="24"></rect>
        <circle id="Oval" fill="#FD9B09" cx="12" cy="12" r="10.5"></circle>
        <path d="M12,10.5 C12.6213203,10.5 13.125,11.0036797 13.125,11.625 L13.125,16.875 C13.125,17.4963203 12.6213203,18 12,18 C11.3786797,18 10.875,17.4963203 10.875,16.875 L10.875,11.625 C10.875,11.0036797 11.3786797,10.5 12,10.5 Z M12,6.75 C12.3344595,6.75 12.6055743,6.85150376 12.8133446,7.05451128 C13.0211149,7.2575188 13.125,7.52819549 13.125,7.86654135 C13.125,8.20488722 13.0236486,8.47838346 12.8209459,8.68703008 C12.6182432,8.89567669 12.3445946,9 12,9 C11.6554054,9 11.3817568,8.89567669 11.1790541,8.68703008 C10.9763514,8.47838346 10.875,8.20488722 10.875,7.86654135 C10.875,7.52819549 10.9763514,7.2575188 11.1790541,7.05451128 C11.3817568,6.85150376 11.6554054,6.75 12,6.75 Z" id="Combined-Shape" fill="#FFFFFF" transform="translate(12.000000, 12.375000) scale(1, -1) translate(-12.000000, -12.375000) "></path>
    </g>
</svg>