<?xml version="1.0" encoding="UTF-8"?>
<svg width="64px" height="64px" viewBox="0 0 64 64" version="1.1" xmlns="http://www.w3.org/2000/svg" xmlns:xlink="http://www.w3.org/1999/xlink">
    <title>B2E5D60D-2FD9-4B60-9E0F-8EDD463ACE11</title>
    <defs>
        <linearGradient x1="50%" y1="0%" x2="50%" y2="100%" id="linearGradient-1">
            <stop stop-color="#6BE89F" offset="0%"></stop>
            <stop stop-color="#4CBD97" offset="100%"></stop>
        </linearGradient>
    </defs>
    <g id="03---Consumer-Mode" stroke="none" stroke-width="1" fill="none" fill-rule="evenodd">
        <g id="08-02A_Consumer-Mode---Business-Directory---List-View" transform="translate(-199.000000, -456.000000)">
            <g id="Services" transform="translate(24.000000, 292.000000)">
                <g id="Icons-/-Thumbnail_48" transform="translate(175.000000, 164.000000)">
                    <rect id="Container---Active" fill="url(#linearGradient-1)" fill-rule="nonzero" x="0" y="0" width="64" height="64" rx="12"></rect>
                    <g id="Icons-/-Ic_32_Beauty---Glyph" transform="translate(16.000000, 16.000000)">
                        <rect id="Bounding-Box" fill-rule="nonzero" x="0" y="0" width="32" height="32"></rect>
                        <path d="M6.91787145,3.60288253 L6.95782629,3.71265211 L9.99938245,13.852 L13.0421737,3.71265211 C13.2008716,3.18365926 13.758355,2.88347586 14.2873479,3.04217371 C14.7785555,3.18953601 15.0724734,3.68074916 14.9848931,4.17371191 L14.9578263,4.28734789 L11.0433824,17.333 L12.9578263,23.7126521 C13.1165241,24.241645 12.8163407,24.7991284 12.2873479,24.9578263 C11.7961402,25.1051886 11.2803667,24.8568828 11.0821285,24.3971175 L11.0421737,24.2873479 L9.99938245,20.814 L8.95782629,24.2873479 C8.79912843,24.8163407 8.24164496,25.1165241 7.71265211,24.9578263 C7.22144447,24.810464 6.9275266,24.3192508 7.01510688,23.8262881 L7.04217371,23.7126521 L8.95538245,17.333 L5.04217371,4.28734789 C4.88347586,3.75835504 5.18365926,3.20087157 5.71265211,3.04217371 C6.16607456,2.90614698 6.64042888,3.1072575 6.86664318,3.5006204 L6.91787145,3.60288253 Z M24,15 C24.5522847,15 25,15.4477153 25,16 C25,16.5128358 24.6139598,16.9355072 24.1166211,16.9932723 L24,17 L19,17 C18.4477153,17 18,16.5522847 18,16 C18,15.4871642 18.3860402,15.0644928 18.8833789,15.0067277 L19,15 L24,15 Z M24,11 C24.5522847,11 25,11.4477153 25,12 C25,12.5128358 24.6139598,12.9355072 24.1166211,12.9932723 L24,13 L19,13 C18.4477153,13 18,12.5522847 18,12 C18,11.4871642 18.3860402,11.0644928 18.8833789,11.0067277 L19,11 L24,11 Z M24,7 C24.5522847,7 25,7.44771525 25,8 C25,8.51283584 24.6139598,8.93550716 24.1166211,8.99327227 L24,9 L19,9 C18.4477153,9 18,8.55228475 18,8 C18,7.48716416 18.3860402,7.06449284 18.8833789,7.00672773 L19,7 L24,7 Z M24,3 C24.5522847,3 25,3.44771525 25,4 C25,4.51283584 24.6139598,4.93550716 24.1166211,4.99327227 L24,5 L19,5 C18.4477153,5 18,4.55228475 18,4 C18,3.48716416 18.3860402,3.06449284 18.8833789,3.00672773 L19,3 L24,3 Z" id="Combined-Shape" fill="#FFFFFF"></path>
                        <path d="M28,3 C29.1045695,3 30,3.8954305 30,5 L30,27 C30,28.1045695 29.1045695,29 28,29 C26.8954305,29 26,28.1045695 26,27 L26,4 C26,3.44771525 26.4477153,3 27,3 L28,3 Z M5,20.5839895 C7.209139,20.5839895 9,22.3748505 9,24.5839895 C9,26.7931285 7.209139,28.5839895 5,28.5839895 C2.790861,28.5839895 1,26.7931285 1,24.5839895 C1,22.3748505 2.790861,20.5839895 5,20.5839895 Z M15,20.5839895 C17.209139,20.5839895 19,22.3748505 19,24.5839895 C19,26.7931285 17.209139,28.5839895 15,28.5839895 C12.790861,28.5839895 11,26.7931285 11,24.5839895 C11,22.3748505 12.790861,20.5839895 15,20.5839895 Z M5,22.5839895 C3.8954305,22.5839895 3,23.47942 3,24.5839895 C3,25.688559 3.8954305,26.5839895 5,26.5839895 C6.1045695,26.5839895 7,25.688559 7,24.5839895 C7,23.47942 6.1045695,22.5839895 5,22.5839895 Z M15,22.5839895 C13.8954305,22.5839895 13,23.47942 13,24.5839895 C13,25.688559 13.8954305,26.5839895 15,26.5839895 C16.1045695,26.5839895 17,25.688559 17,24.5839895 C17,23.47942 16.1045695,22.5839895 15,22.5839895 Z" id="Combined-Shape" fill="#FFFFFF"></path>
                    </g>
                </g>
            </g>
        </g>
    </g>
</svg>