<?xml version="1.0" encoding="UTF-8"?>
<svg width="64px" height="64px" viewBox="0 0 64 64" version="1.1" xmlns="http://www.w3.org/2000/svg" xmlns:xlink="http://www.w3.org/1999/xlink">
    <title>CE6DEF04-97F5-4D45-8D89-5A321F88437F</title>
    <defs>
        <linearGradient x1="50%" y1="0%" x2="50%" y2="100%" id="linearGradient-1">
            <stop stop-color="#6BE89F" offset="0%"></stop>
            <stop stop-color="#4CBD97" offset="100%"></stop>
        </linearGradient>
    </defs>
    <g id="03---Consumer-Mode" stroke="none" stroke-width="1" fill="none" fill-rule="evenodd">
        <g id="08-02A_Consumer-Mode---Business-Directory---List-View" transform="translate(-24.000000, -456.000000)">
            <g id="Services" transform="translate(24.000000, 292.000000)">
                <g id="Icons-/-Thumbnail_48" transform="translate(0.000000, 164.000000)">
                    <rect id="Container---Active" fill="url(#linearGradient-1)" fill-rule="nonzero" x="0" y="0" width="64" height="64" rx="9"></rect>
                    <g id="Icons-/-Ic_24_Delivery---Glyph" transform="translate(15.000000, 16.000000)">
                        <rect id="Bounding-Box" fill-rule="nonzero" x="1" y="0" width="32" height="32"></rect>
                        <g id="delivery-fast" transform="translate(0.333333, 4.333333)" fill="#FFFFFF">
                            <path d="M1.66666667,19.6666667 C1.11438192,19.6666667 0.666666667,19.2189514 0.666666667,18.6666667 C0.666666667,18.1538308 1.05270686,17.7311595 1.55004554,17.6733944 L1.66666667,17.6666667 L11.6666667,17.6666667 L11.6666667,1.66666667 C11.6666667,1.15383083 12.0527069,0.731159506 12.5500455,0.673394398 L12.6666667,0.666666667 L19.6580951,0.666666667 C23.1169013,0.666666667 26.2054789,2.80154979 27.4376916,6.01287806 L27.5335034,6.27559403 L28.377,8.713 L30.1212711,9.27383602 C31.5116243,9.72040019 32.491836,10.9430706 32.6455493,12.3708128 L32.6613482,12.5667224 L32.6666667,12.7648524 L32.6666667,18.6666667 C32.6666667,19.1795025 32.2806265,19.6021738 31.7832878,19.6599389 L31.6666667,19.6666667 L26.5664076,19.6678531 C26.6321521,19.3443754 26.6666667,19.0095517 26.6666667,18.6666667 C26.6666667,15.9052429 24.4280904,13.6666667 21.6666667,13.6666667 C18.9052429,13.6666667 16.6666667,15.9052429 16.6666667,18.6666667 C16.6666667,19.0095517 16.7011813,19.3443754 16.7669258,19.6678531 L1.66666667,19.6666667 Z M18.6666667,4.66666667 C18.1538308,4.66666667 17.7311595,5.05270686 17.6733944,5.55004554 L17.6666667,5.66666667 L17.6666667,9.66666667 L17.6733944,9.78328779 C17.726716,10.2423697 18.0909637,10.6066173 18.5500455,10.6599389 L18.6666667,10.6666667 L22.6666667,10.6666667 L22.7832878,10.6599389 C23.2423697,10.6066173 23.6066173,10.2423697 23.6599389,9.78328779 L23.6666667,9.66666667 L23.6599389,9.55004554 C23.6066173,9.09096368 23.2423697,8.72671604 22.7832878,8.6733944 L22.6666667,8.66666667 L19.666,8.666 L19.6666667,5.66666667 L19.6599389,5.55004554 C19.6021738,5.05270686 19.1795025,4.66666667 18.6666667,4.66666667 Z" id="Combined-Shape"></path>
                            <path d="M21.6666667,13.6666667 C24.4280904,13.6666667 26.6666667,15.9052429 26.6666667,18.6666667 C26.6666667,21.4280904 24.4280904,23.6666667 21.6666667,23.6666667 C18.9052429,23.6666667 16.6666667,21.4280904 16.6666667,18.6666667 C16.6666667,15.9052429 18.9052429,13.6666667 21.6666667,13.6666667 Z M21.6666667,15.6666667 C20.0098124,15.6666667 18.6666667,17.0098124 18.6666667,18.6666667 C18.6666667,20.3235209 20.0098124,21.6666667 21.6666667,21.6666667 C23.3235209,21.6666667 24.6666667,20.3235209 24.6666667,18.6666667 C24.6666667,17.0098124 23.3235209,15.6666667 21.6666667,15.6666667 Z M8.66666667,10.6666667 C9.21895142,10.6666667 9.66666667,11.1143819 9.66666667,11.6666667 C9.66666667,12.1795025 9.28062648,12.6021738 8.78328779,12.6599389 L8.66666667,12.6666667 L6.66666667,12.6666667 C6.11438192,12.6666667 5.66666667,12.2189514 5.66666667,11.6666667 C5.66666667,11.1538308 6.05270686,10.7311595 6.55004554,10.6733944 L6.66666667,10.6666667 L8.66666667,10.6666667 Z M8.66666667,5.66666667 C9.21895142,5.66666667 9.66666667,6.11438192 9.66666667,6.66666667 C9.66666667,7.17950251 9.28062648,7.60217383 8.78328779,7.65993894 L8.66666667,7.66666667 L4.66666667,7.66666667 C4.11438192,7.66666667 3.66666667,7.21895142 3.66666667,6.66666667 C3.66666667,6.15383083 4.05270686,5.73115951 4.55004554,5.6733944 L4.66666667,5.66666667 L8.66666667,5.66666667 Z M8.66666667,0.666666667 C9.21895142,0.666666667 9.66666667,1.11438192 9.66666667,1.66666667 C9.66666667,2.17950251 9.28062648,2.60217383 8.78328779,2.65993894 L8.66666667,2.66666667 L1.66666667,2.66666667 C1.11438192,2.66666667 0.666666667,2.21895142 0.666666667,1.66666667 C0.666666667,1.15383083 1.05270686,0.731159506 1.55004554,0.673394398 L1.66666667,0.666666667 L8.66666667,0.666666667 Z" id="Combined-Shape"></path>
                        </g>
                    </g>
                </g>
            </g>
        </g>
    </g>
</svg>