<?xml version="1.0" encoding="UTF-8"?>
<svg width="50px" height="50px" viewBox="0 0 50 50" version="1.1" xmlns="http://www.w3.org/2000/svg" xmlns:xlink="http://www.w3.org/1999/xlink">
    <title>FF82CD2F-F9B6-41CD-B32A-6340B738016F</title>
    <g id="02---Business-Flow" stroke="none" stroke-width="1" fill="none" fill-rule="evenodd">
        <g id="08-01_Provider-Mode---Inventory---Create---Service---Category" transform="translate(-23.000000, -699.000000)">
            <g id="Icon" transform="translate(24.000000, 700.000000)">
                <rect id="Container" stroke="none" stroke-width="2" stroke-linecap="round" stroke-linejoin="round" x="0" y="0" width="48" height="48" rx="16"></rect>
                <g id="Icons-/-Ic_32_Handyman" transform="translate(8.000000, 8.000000)">
                    <rect id="Bounding-Box" fill-rule="nonzero" x="0" y="0" width="32" height="32"></rect>
                    <g id="settings" transform="translate(2.000000, 2.000000)" stroke-linecap="round" stroke-linejoin="round" stroke-width="2">
                        <path d="M23.3333333,17.8466667 L25.9926667,20.2466667 C26.8195657,20.9936796 27.3036954,22.0472906 27.3319235,23.1612894 C27.3601515,24.2752883 26.9300044,25.3520664 26.142,26.14 L26.142,26.14 C25.3540664,26.9280044 24.2772883,27.3581515 23.1632894,27.3299235 C22.0492906,27.3016954 20.9956796,26.8175657 20.2486667,25.9906667 L16.6426667,22" id="Path" stroke="#4CBD97"></path>
                        <polyline id="Path" stroke="#4CBD97" points="12.8166667 10.46 8 5.64266667 8 4 4 0 0 4 4 8 5.64266667 8 10.34 12.6973333"></polyline>
                        <path d="M27.676,4.92733333 L23.8506667,8.752 L19.2506667,4.152 L23.0753333,0.326666667 C22.1902483,0.0657930092 21.2661248,-0.0371130433 20.3453333,0.0226666667 C16.8359148,0.313056107 14.0507447,3.09794418 13.76,6.60733333 C13.6997477,7.52927793 13.8028891,8.45461661 14.0646667,9.34066667 L0.666666667,21.4366667 C0.25673898,21.8072247 0.0167618019,22.3297161 0.00277510797,22.8821275 C-0.0112115859,23.4345389 0.202016779,23.9685052 0.592666667,24.3593333 L3.64266667,27.4093333 C4.03369452,27.7990884 4.5673749,28.011552 5.11928572,27.9971905 C5.67119653,27.982829 6.19310493,27.7428974 6.56333333,27.3333333 L18.6666667,13.938 C19.5527167,14.1997775 20.4780554,14.3029189 21.4,14.2426667 C24.9093892,13.9519219 27.6942772,11.1667519 27.9846667,7.65733333 C28.042934,6.73626699 27.9384477,5.81213812 27.676,4.92733333 L27.676,4.92733333 Z" id="Path" stroke="#323F4B"></path>
                    </g>
                </g>
            </g>
        </g>
    </g>
</svg>
