<?xml version="1.0" encoding="UTF-8"?>
<svg width="32px" height="32px" viewBox="0 0 32 32" version="1.1" xmlns="http://www.w3.org/2000/svg" xmlns:xlink="http://www.w3.org/1999/xlink">
    <title>Icons / Ic_32_Handyman - Glyph</title>
    <g id="Icons-/-Ic_32_Handyman---Glyph" stroke="none" stroke-width="1" fill="none" fill-rule="evenodd">
        <rect id="Bounding-Box" fill-rule="nonzero" x="0" y="0" width="32" height="32"></rect>
        <g id="settings">
            <path d="M23,17.5 L28.757,23.757 C29.5528065,24.5525661 29.9999061,25.6317296 29.9999061,26.757 C29.9999061,27.8822704 29.5528065,28.9614339 28.757,29.757 C27.9614339,30.5528065 26.8822704,30.9999061 25.757,30.9999061 C24.6317296,30.9999061 23.5525661,30.5528065 22.757,29.757 L22.757,29.757 L17,24 L23,17.5 Z M4.99349805,-4.52970994e-13 L9.9869961,5.04042844 L9.9869961,7.11036438 L13.5,10.5 L10,13.5 L7.04416125,10.0808569 L4.99349805,10.0808569 L0,5.04042844 L4.99349805,-4.52970994e-13 Z" id="Combined-Shape" fill="#4CBD97" fill-rule="nonzero"></path>
            <path d="M30.634,5.366 L27,9 L23,5 L26.634,1.366 C24.3352333,0.561369807 21.7794783,1.11149635 20.0153496,2.79066518 C18.251221,4.46983401 17.5757193,6.99534795 18.266,9.331 L1.652,24.484 C0.83616668,25.2282822 0.777970203,26.4929365 1.522,27.309 C1.543,27.332 1.564,27.354 1.586,27.376 L4.624,30.414 C5.4049997,31.1947639 6.6710003,31.1947639 7.452,30.414 C7.474,30.392 7.495,30.37 7.516,30.347 L22.669,13.734 C25.0050758,14.427469 27.5327271,13.7530278 29.2128004,11.987949 C30.8928736,10.2228702 31.4418355,7.66503264 30.634,5.366 Z" id="Path" fill="#323F4B"></path>
        </g>
    </g>
</svg>