<?xml version="1.0" encoding="UTF-8"?>
<svg width="64px" height="64px" viewBox="0 0 64 64" version="1.1" xmlns="http://www.w3.org/2000/svg" xmlns:xlink="http://www.w3.org/1999/xlink">
    <title>436DA033-B214-49F2-B35F-934819A2F4DF</title>
    <defs>
        <linearGradient x1="50%" y1="0%" x2="50%" y2="100%" id="linearGradient-1">
            <stop stop-color="#6BE89F" offset="0%"></stop>
            <stop stop-color="#4CBD97" offset="100%"></stop>
        </linearGradient>
    </defs>
    <g id="03---Consumer-Mode" stroke="none" stroke-width="1" fill="none" fill-rule="evenodd">
        <g id="08-02A_Consumer-Mode---Business-Directory---List-View" transform="translate(-112.000000, -344.000000)">
            <g id="Services" transform="translate(24.000000, 292.000000)">
                <g id="Icons-/-Thumbnail_48" transform="translate(88.000000, 52.000000)">
                    <rect id="Container---Active" fill="url(#linearGradient-1)" fill-rule="nonzero" x="0" y="0" width="64" height="64" rx="12"></rect>
                    <g id="Icons-/-Ic_32_Laundry---Glyph" transform="translate(16.000000, 16.000000)">
                        <rect id="Bounding-Box" fill-rule="nonzero" x="0" y="0" width="32" height="32"></rect>
                        <g id="wash-2" transform="translate(2.000000, 2.000000)" fill="#FFFFFF">
                            <path d="M28,4 L28,26.6666667 C28,27.4030463 27.4030463,28 26.6666667,28 L1.33333333,28 C0.596953667,28 7.56314315e-16,27.4030463 0,26.6666667 L0,4 L28,4 Z M14,8 C9.02943725,8 5,12.0294373 5,17 C5,21.9705627 9.02943725,26 14,26 C18.9705627,26 23,21.9705627 23,17 C23,12.0294373 18.9705627,8 14,8 Z M3,6 C2.44771525,6 2,6.44771525 2,7 C2,7.55228475 2.44771525,8 3,8 C3.55228475,8 4,7.55228475 4,7 C4,6.44771525 3.55228475,6 3,6 Z M7,6 C6.44771525,6 6,6.44771525 6,7 C6,7.55228475 6.44771525,8 7,8 C7.55228475,8 8,7.55228475 8,7 C8,6.44771525 7.55228475,6 7,6 Z M25,6 L22,6 C21.4477153,6 21,6.44771525 21,7 C21,7.55228475 21.4477153,8 22,8 L22,8 L25,8 C25.5522847,8 26,7.55228475 26,7 C26,6.44771525 25.5522847,6 25,6 L25,6 Z M26.6666667,0 C27.4030463,1.82683884e-15 28,0.596953667 28,1.33333333 L28,2 L0,2 L0,1.33333333 C-9.01805001e-17,0.596953667 0.596953667,8.01404565e-16 1.33333333,0 L26.6666667,0 Z" id="Combined-Shape"></path>
                            <circle id="Oval" cx="14" cy="17" r="7"></circle>
                        </g>
                    </g>
                </g>
            </g>
        </g>
    </g>
</svg>