<?xml version="1.0" encoding="UTF-8"?>
<svg width="50px" height="50px" viewBox="0 0 50 50" version="1.1" xmlns="http://www.w3.org/2000/svg" xmlns:xlink="http://www.w3.org/1999/xlink">
    <title>FDD313C5-7B70-4D50-84AF-DC0236421BC3</title>
    <g id="02---Business-Flow" stroke="none" stroke-width="1" fill="none" fill-rule="evenodd">
        <g id="08-01_Provider-Mode---Inventory---Create---Service---Category" transform="translate(-23.000000, -447.000000)">
            <g id="Icon" transform="translate(24.000000, 448.000000)">
                <rect id="Container" stroke="none" stroke-width="2" stroke-linecap="round" stroke-linejoin="round" x="0" y="0" width="48" height="48" rx="16"></rect>
                <g id="Icons-/-Ic_32_Laundry" transform="translate(8.000000, 8.000000)">
                    <rect id="Bounding-Box" fill-rule="nonzero" x="0" y="0" width="32" height="32"></rect>
                    <g id="wash-2" transform="translate(2.000000, 2.000000)">
                        <line x1="0" y1="3.33333333" x2="28" y2="3.33333333" id="Path" stroke="#323F4B" stroke-width="2" stroke-linecap="round" stroke-linejoin="round"></line>
                        <rect id="Rectangle" stroke="#323F4B" stroke-width="2" stroke-linecap="round" stroke-linejoin="round" x="0" y="0" width="28" height="28" rx="1.33333333"></rect>
                        <circle id="Oval" stroke="#4CBD97" stroke-width="2" stroke-linecap="round" stroke-linejoin="round" cx="14" cy="17" r="7"></circle>
                        <path d="M4,6 C4.55228475,6 5,6.44771525 5,7 C5,7.55228475 4.55228475,8 4,8 C3.44771525,8 3,7.55228475 3,7 C3,6.44771525 3.44771525,6 4,6 Z M8,6 C8.55228475,6 9,6.44771525 9,7 C9,7.55228475 8.55228475,8 8,8 C7.44771525,8 7,7.55228475 7,7 C7,6.44771525 7.44771525,6 8,6 Z M24,6 C24.5522847,6 25,6.44771525 25,7 C25,7.55228475 24.5522847,8 24,8 L20,8 C19.4477153,8 19,7.55228475 19,7 C19,6.44771525 19.4477153,6 20,6 L24,6 Z" id="Combined-Shape" fill="#4CBD97" fill-rule="nonzero"></path>
                    </g>
                </g>
            </g>
        </g>
    </g>
</svg>
