<?xml version="1.0" encoding="UTF-8"?>
<svg width="64px" height="64px" viewBox="0 0 64 64" version="1.1" xmlns="http://www.w3.org/2000/svg" xmlns:xlink="http://www.w3.org/1999/xlink">
    <title>D7292963-9DC6-43F4-84BD-ED6AAD109F5F</title>
    <defs>
        <linearGradient x1="50%" y1="0%" x2="50%" y2="100%" id="linearGradient-1">
            <stop stop-color="#6BE89F" offset="0%"></stop>
            <stop stop-color="#4CBD97" offset="100%"></stop>
        </linearGradient>
    </defs>
    <g id="03---Consumer-Mode" stroke="none" stroke-width="1" fill="none" fill-rule="evenodd">
        <g id="08-02A_Consumer-Mode---Business-Directory---List-View" transform="translate(-287.000000, -456.000000)">
            <g id="Services" transform="translate(24.000000, 292.000000)">
                <g id="Icons-/-Thumbnail_48" transform="translate(263.000000, 164.000000)">
                    <rect id="Container---Active" fill="url(#linearGradient-1)" fill-rule="nonzero" x="0" y="0" width="64" height="64" rx="12"></rect>
                    <g id="Icons-/-Ic_32_Other---Glyph" transform="translate(16.000000, 16.000000)">
                        <rect id="Bounding-Box" fill-rule="nonzero" x="0" y="0" width="32" height="32"></rect>
                        <g id="apps" transform="translate(2.666667, 2.666667)" fill="#FFFFFF">
                            <path d="M3.33333333,20 C5.1742825,20 6.66666667,21.4923842 6.66666667,23.3333333 C6.66666667,25.1742825 5.1742825,26.6666667 3.33333333,26.6666667 C1.49238417,26.6666667 0,25.1742825 0,23.3333333 C0,21.4923842 1.49238417,20 3.33333333,20 Z M23.3333333,20 C25.1742825,20 26.6666667,21.4923842 26.6666667,23.3333333 C26.6666667,25.1742825 25.1742825,26.6666667 23.3333333,26.6666667 C21.4923842,26.6666667 20,25.1742825 20,23.3333333 C20,21.4923842 21.4923842,20 23.3333333,20 Z M13.3333333,10 C15.1742825,10 16.6666667,11.4923842 16.6666667,13.3333333 C16.6666667,15.1742825 15.1742825,16.6666667 13.3333333,16.6666667 C11.4923842,16.6666667 10,15.1742825 10,13.3333333 C10,11.4923842 11.4923842,10 13.3333333,10 Z M3.33333333,0 C5.1742825,0 6.66666667,1.49238417 6.66666667,3.33333333 C6.66666667,5.1742825 5.1742825,6.66666667 3.33333333,6.66666667 C1.49238417,6.66666667 0,5.1742825 0,3.33333333 C0,1.49238417 1.49238417,0 3.33333333,0 Z M23.3333333,0 C25.1742825,0 26.6666667,1.49238417 26.6666667,3.33333333 C26.6666667,5.1742825 25.1742825,6.66666667 23.3333333,6.66666667 C21.4923842,6.66666667 20,5.1742825 20,3.33333333 C20,1.49238417 21.4923842,0 23.3333333,0 Z" id="Combined-Shape"></path>
                            <path d="M13.3333333,20 C15.1742825,20 16.6666667,21.4923842 16.6666667,23.3333333 C16.6666667,25.1742825 15.1742825,26.6666667 13.3333333,26.6666667 C11.4923842,26.6666667 10,25.1742825 10,23.3333333 C10,21.4923842 11.4923842,20 13.3333333,20 Z M3.33333333,10 C5.1742825,10 6.66666667,11.4923842 6.66666667,13.3333333 C6.66666667,15.1742825 5.1742825,16.6666667 3.33333333,16.6666667 C1.49238417,16.6666667 0,15.1742825 0,13.3333333 C0,11.4923842 1.49238417,10 3.33333333,10 Z M23.3333333,10 C25.1742825,10 26.6666667,11.4923842 26.6666667,13.3333333 C26.6666667,15.1742825 25.1742825,16.6666667 23.3333333,16.6666667 C21.4923842,16.6666667 20,15.1742825 20,13.3333333 C20,11.4923842 21.4923842,10 23.3333333,10 Z M13.3333333,0 C15.1742825,0 16.6666667,1.49238417 16.6666667,3.33333333 C16.6666667,5.1742825 15.1742825,6.66666667 13.3333333,6.66666667 C11.4923842,6.66666667 10,5.1742825 10,3.33333333 C10,1.49238417 11.4923842,0 13.3333333,0 Z" id="Combined-Shape"></path>
                        </g>
                    </g>
                </g>
            </g>
        </g>
    </g>
</svg>