<?xml version="1.0" encoding="UTF-8"?>
<svg width="32px" height="32px" viewBox="0 0 32 32" version="1.1" xmlns="http://www.w3.org/2000/svg" xmlns:xlink="http://www.w3.org/1999/xlink">
    <title>Icons / Ic_32_Study - Glyph</title>
    <g id="Icons-/-Ic_32_Study---Glyph" stroke="none" stroke-width="1" fill="none" fill-rule="evenodd">
        <rect id="Bounding-Box" fill-rule="nonzero" x="0" y="0" width="32" height="32"></rect>
        <g id="Group" transform="translate(3.000000, 2.000000)">
            <path d="M1.58578644,17.5505103 L3.51763809,18.0681483 C4.5845703,18.354032 5.21773528,19.4507059 4.93185165,20.5176381 C4.64596803,21.5845703 3.54929412,22.2177353 2.48236191,21.9318517 L0.550510257,21.4142136 L1.58578644,17.5505103 Z M24.4142136,17.5505103 L25.4494897,21.4142136 L23.5176381,21.9318517 C22.4507059,22.2177353 21.354032,21.5845703 21.0681483,20.5176381 C20.7822647,19.4507059 21.4154297,18.354032 22.4823619,18.0681483 L22.4823619,18.0681483 L24.4142136,17.5505103 Z M15.3333333,10 C17.5332799,10 19.3774122,11.3044365 19.8705237,13.0602754 L19.8705237,13.0602754 L13,15 L6.12515035,13.0758161 C6.61171765,11.312139 8.46023451,10 10.6666667,10 L10.6666667,10 Z M13,0 C15.6887547,0 17.8818181,2.12230671 17.9953805,4.78311038 L18,5 C18,7.6887547 15.8776933,9.88181811 13.2168896,9.99538049 L13,10 C10.3112453,10 8.11818189,7.87769329 8.00461951,5.21688962 L8,5 C8,2.3112453 10.1223067,0.118181885 12.7831104,0.00461951385 L13,0 Z" id="Combined-Shape" fill="#323F4B"></path>
            <path d="M4,14 L12,16.667 L12,27.791 L4,26.1176471 L4.00095084,22.8283874 C4.90005802,22.5092961 5.63218237,21.7676716 5.89777748,20.7764571 C6.30621397,19.2521514 5.46405242,17.6873745 4.00024394,17.1715018 L4,14 Z M22,14 L22.0000887,17.1713846 C20.5360752,17.6871375 19.6937551,19.2520359 20.1022225,20.7764571 C20.3678822,21.7679127 21.1002982,22.5096569 21.9997053,22.8286202 L22,26.1176471 L14,27.791 L14,16.667 L22,14 Z" id="Combined-Shape" fill="#4CBD97" fill-rule="nonzero"></path>
        </g>
    </g>
</svg>