<?xml version="1.0" encoding="UTF-8"?>
<svg width="64px" height="64px" viewBox="0 0 64 64" version="1.1" xmlns="http://www.w3.org/2000/svg" xmlns:xlink="http://www.w3.org/1999/xlink">
    <title>E9775BCA-33A3-4F85-A381-23265D1671F6</title>
    <defs>
        <linearGradient x1="50%" y1="0%" x2="50%" y2="100%" id="linearGradient-1">
            <stop stop-color="#6BE89F" offset="0%"></stop>
            <stop stop-color="#4CBD97" offset="100%"></stop>
        </linearGradient>
    </defs>
    <g id="03---Consumer-Mode" stroke="none" stroke-width="1" fill="none" fill-rule="evenodd">
        <g id="08-02A_Consumer-Mode---Business-Directory---List-View" transform="translate(-24.000000, -344.000000)">
            <g id="Services" transform="translate(24.000000, 292.000000)">
                <g id="Icons-/-Thumbnail_48" transform="translate(0.000000, 52.000000)">
                    <rect id="Container---Active" fill="url(#linearGradient-1)" fill-rule="nonzero" x="0" y="0" width="64" height="64" rx="12"></rect>
                    <g id="Icons-/-Ic_32_Tutor---Glyph" transform="translate(16.000000, 16.000000)">
                        <rect id="Bounding-Box" fill-rule="nonzero" x="0" y="0" width="32" height="32"></rect>
                        <g id="Teach" transform="translate(2.000000, 2.000000)" fill="#FFFFFF">
                            <path d="M25.4567091,19.0909091 L20.6049455,19.0909091 L24.0567091,26.0989273 C24.1578909,26.4057818 24.1497455,26.7382182 24.0338,27.0397273 C23.9177273,27.3413636 23.7011091,27.5934909 23.4203455,27.7534727 L22.9112545,27.8807455 C22.6671455,27.8766727 22.4294,27.8026 22.2264,27.6671818 C22.0232727,27.5317636 21.8634182,27.3408545 21.7658,27.1171091 L17.7526364,19.0909091 L14.0021636,19.0909091 C13.8300909,19.1114 13.6556,19.0925636 13.4918,19.0358 C13.3281273,18.9790364 13.1793455,18.886 13.0569091,18.7634364 C12.9343455,18.6408727 12.8411818,18.4922182 12.7845455,18.3284182 C12.7277818,18.1647455 12.7089455,17.9902545 12.7294364,17.8181818 C12.7294364,17.4806545 12.8634545,17.1568727 13.1022182,16.9182364 C13.3408545,16.6796 13.6645091,16.5454545 14.0021636,16.5454545 L25.4567091,16.5454545 L25.4567091,2.55347273 L22.9192727,2.55347273 L22.9192727,3.69894 C22.9397636,3.87101273 22.9209273,4.04547818 22.8641636,4.20920182 C22.8075273,4.37293818 22.7143636,4.52166909 22.5918,4.64419455 C22.4692364,4.76672 22.3205818,4.85984545 22.1567818,4.91657091 C21.9931091,4.97329636 21.8186182,4.99213273 21.6465455,4.97166727 C21.4744727,4.99213273 21.2999818,4.97329636 21.1363091,4.91657091 C20.9725091,4.85984545 20.8238545,4.76672 20.7012909,4.64419455 C20.5787273,4.52166909 20.4856909,4.37293818 20.4289273,4.20920182 C20.3721636,4.04547818 20.3533273,3.87101273 20.3738182,3.69894 L20.3738182,2.55347273 L14.0021636,2.55347273 C13.8300909,2.57393818 13.6556,2.55510182 13.4918,2.49837636 C13.3281273,2.44165091 13.1793455,2.34852545 13.0569091,2.226 C12.9343455,2.10346182 12.8411818,1.95474364 12.7845455,1.79100727 C12.7277818,1.62728364 12.7089455,1.45280545 12.7294364,1.28074545 C12.7089455,1.10868545 12.7277818,0.934207273 12.7845455,0.770483636 C12.8411818,0.606747273 12.9343455,0.458016364 13.0569091,0.335490909 C13.1793455,0.212965455 13.3281273,0.11984 13.4918,0.0631145455 C13.6556,0.00638909091 13.8300909,-0.0124485455 14.0021636,0.00801818182 L25.4567091,0.00801818182 C25.8018727,0.00758545455 26.1436,0.0773945455 26.4611455,0.213207273 C26.7785636,0.349007273 27.0650545,0.547972727 27.3030545,0.797987273 C27.5411818,1.04800182 27.7259818,1.34384727 27.8461273,1.66751455 C27.9662727,1.99118182 28.0193455,2.33591273 28.0021636,2.68074545 L28.0021636,16.4181818 C28.0193455,16.7629636 27.9662727,17.1077455 27.8461273,17.4314 C27.7259818,17.7550545 27.5411818,18.0509636 27.3030545,18.3009273 C27.0650545,18.5510182 26.7785636,18.7499455 26.4611455,18.8857455 C26.1436,19.0215455 25.8018727,19.0912909 25.4567091,19.0909091 Z" id="Path"></path>
                            <path d="M15.2748909,8.78984909 C15.6028727,8.81852364 15.9101091,8.96182 16.1428909,9.19457636 C16.3756727,9.42733273 16.5189818,9.73465818 16.5476182,10.0625764 C16.5189818,10.3904945 16.3756727,10.69782 16.1428909,10.9305764 C15.9101091,11.1633327 15.6028727,11.3066291 15.2748909,11.3353036 L15.2748909,11.3353036 L10.1840964,11.3353036 L10.1840964,26.6080182 C10.1554218,26.9358727 10.0121255,27.2432364 9.77936909,27.4760182 C9.54661273,27.7088 9.23928727,27.8521091 8.91136909,27.8807455 L8.91136909,27.8807455 L3.82046,27.8807455 C3.11754545,27.8807455 2.54773273,27.3109455 2.54773273,26.6080182 L2.54773273,26.6080182 L2.54773273,20.2443818 L1.27500545,20.2443818 C0.947087273,20.2157455 0.639761818,20.0724364 0.407005455,19.8396545 C0.174249091,19.6068727 0.0309527273,19.2995091 0.00227818182,18.9716545 L0.00227818182,18.9716545 L0.00206084596,12.3552205 C0.0161125505,11.9346086 0.102026061,11.5188033 0.256683636,11.1260927 C0.442272727,10.6548018 0.722883636,10.2267582 1.08104182,9.8686 C1.4392,9.51044182 1.86724364,9.22983091 2.33853455,9.04424182 C2.80981273,8.85865273 3.31425818,8.77205636 3.82046,8.78983636 Z M6.36363636,-1.59872116e-14 C8.47235995,-1.59872116e-14 10.1818182,1.70945823 10.1818182,3.81818182 C10.1818182,5.92690541 8.47235995,7.63636364 6.36363636,7.63636364 C4.25491277,7.63636364 2.54545455,5.92690541 2.54545455,3.81818182 C2.54545455,1.70945823 4.25491277,-1.59872116e-14 6.36363636,-1.59872116e-14 Z" id="Combined-Shape"></path>
                        </g>
                    </g>
                </g>
            </g>
        </g>
    </g>
</svg>