<?xml version="1.0" encoding="UTF-8"?>
<svg width="24px" height="24px" viewBox="0 0 24 24" version="1.1" xmlns="http://www.w3.org/2000/svg" xmlns:xlink="http://www.w3.org/1999/xlink">
    <title>FB4CB9EE-9B6D-4D3D-9DCE-BF6B6D6C4AFE</title>
    <g id="04---Account" stroke="none" stroke-width="1" fill="none" fill-rule="evenodd">
        <g id="13-07B_Account---Detail---About-Name of app---Support-and-Help-Center---Contact-Support" transform="translate(-24.000000, -592.000000)">
            <g id="Bottom-Sheets-/-Default---Long" transform="translate(0.000000, 384.000000)">
                <g id="Bottom-Sheets-/-Default" transform="translate(0.000000, -0.000000)">
                    <g id="Text-Input-/-Default---Tail-Icon" transform="translate(24.000000, 192.000000)">
                        <g id="Icons-/-Ic_24_Search" transform="translate(0.000000, 16.000000)">
                            <rect id="Bounding-Box" fill-rule="nonzero" x="0" y="0" width="24" height="24"></rect>
                            <g id="f-comment" transform="translate(1.000000, 1.000000)" stroke="#CBD2D9" stroke-linecap="round" stroke-linejoin="round" stroke-width="2">
                                <path d="M11,0 C17.0751322,0 22,4.4771525 22,10 C22,12.5525074 20.9480321,14.8816509 19.2167309,16.6486718 L21,22 L15.3633084,19.1824139 C14.0255861,19.7084653 12.5502434,20 11,20 C4.92486775,20 0,15.5228475 0,10 C0,4.4771525 4.92486775,0 11,0 Z" id="Combined-Shape"></path>
                                <line x1="7" y1="8" x2="15" y2="8" id="Path"></line>
                                <line x1="7" y1="12" x2="12" y2="12" id="Path"></line>
                            </g>
                        </g>
                    </g>
                </g>
            </g>
        </g>
    </g>
</svg>