<?xml version="1.0" encoding="UTF-8"?>
<svg width="24px" height="24px" viewBox="0 0 24 24" version="1.1" xmlns="http://www.w3.org/2000/svg" xmlns:xlink="http://www.w3.org/1999/xlink">
    <title>Icons / Ic_24_LinkedIn</title>
    <g id="Icons-/-Ic_24_LinkedIn" stroke="none" stroke-width="1" fill="none" fill-rule="evenodd">
        <rect id="Bounding-Box" fill-opacity="0" fill="#FFFFFF" fill-rule="nonzero" x="0" y="0" width="24" height="24"></rect>
        <g id="logo-linkedin" transform="translate(3.000000, 3.000000)" fill="#323F4B">
            <polygon id="Path" points="4.1 17.5 0.6 17.5 0.6 6 4.2 6 4.2 17.5"></polygon>
            <path d="M2.3,4.4 C1.2,4.4 0.2,3.5 0.2,2.3 C0.2,1.2 1.1,0.2 2.3,0.2 C3.4,0.2 4.4,1.1 4.4,2.3 C4.4,3.5 3.5,4.4 2.3,4.4 Z" id="Path"></path>
            <path d="M17.5,17.5 L13.9,17.5 L13.9,11.9 C13.9,10.6 13.9,8.9 12.1,8.9 C10.2,8.9 10,10.3 10,11.8 L10,17.5 L6.4,17.5 L6.4,6 L9.8,6 L9.8,7.6 C10.3,6.7 11.4,5.8 13.2,5.8 C16.8,5.8 17.5,8.2 17.5,11.3 L17.5,17.5 Z" id="Path"></path>
        </g>
    </g>
</svg>