<?xml version="1.0" encoding="UTF-8"?>
<svg width="654px" height="240px" viewBox="0 0 654 240" version="1.1" xmlns="http://www.w3.org/2000/svg" xmlns:xlink="http://www.w3.org/1999/xlink">
    <title>Illustrations / Cover Pic / Light - 3</title>
    <defs>
        <rect id="path-1" x="0" y="0" width="654" height="240"></rect>
        <linearGradient x1="50%" y1="5.31133506%" x2="50%" y2="0.53359875%" id="linearGradient-3">
            <stop stop-color="#49BA96" offset="0%"></stop>
            <stop stop-color="#94DDC1" offset="100%"></stop>
        </linearGradient>
        <linearGradient x1="50.000437%" y1="37.1448299%" x2="50.000437%" y2="2.01019079%" id="linearGradient-4">
            <stop stop-color="#49BA96" offset="0%"></stop>
            <stop stop-color="#94DDC1" offset="100%"></stop>
        </linearGradient>
        <linearGradient x1="50.000437%" y1="37.1448299%" x2="103.31067%" y2="75.1796356%" id="linearGradient-5">
            <stop stop-color="#49BA96" offset="0%"></stop>
            <stop stop-color="#94DDC1" offset="100%"></stop>
        </linearGradient>
        <linearGradient x1="76.7460815%" y1="120.363636%" x2="35.9937304%" y2="13.153605%" id="linearGradient-6">
            <stop stop-color="#49BA96" offset="0%"></stop>
            <stop stop-color="#94DDC1" offset="100%"></stop>
        </linearGradient>
        <linearGradient x1="-0.0169204738%" y1="50%" x2="100%" y2="50%" id="linearGradient-7">
            <stop stop-color="#49BA96" offset="0%"></stop>
            <stop stop-color="#94DDC1" offset="100%"></stop>
        </linearGradient>
        <linearGradient x1="116.047619%" y1="-35.1292946%" x2="19.867397%" y2="88.8474362%" id="linearGradient-8">
            <stop stop-color="#49BA96" offset="0%"></stop>
            <stop stop-color="#94DDC1" offset="100%"></stop>
        </linearGradient>
        <linearGradient x1="64.9935063%" y1="82.720664%" x2="48.9456236%" y2="37.8112361%" id="linearGradient-9">
            <stop stop-color="#49BA96" offset="0%"></stop>
            <stop stop-color="#94DDC1" offset="100%"></stop>
        </linearGradient>
        <linearGradient x1="0.016793762%" y1="50.021562%" x2="99.8695398%" y2="50.021562%" id="linearGradient-10">
            <stop stop-color="#49BA96" offset="0%"></stop>
            <stop stop-color="#94DDC1" offset="100%"></stop>
        </linearGradient>
        <linearGradient x1="72.920802%" y1="97.9437717%" x2="35.0708016%" y2="23.0757857%" id="linearGradient-11">
            <stop stop-color="#49BA96" offset="0%"></stop>
            <stop stop-color="#94DDC1" offset="100%"></stop>
        </linearGradient>
        <linearGradient x1="-0.0211614824%" y1="50.003235%" x2="99.9773678%" y2="50.003235%" id="linearGradient-12">
            <stop stop-color="#49BA96" offset="0%"></stop>
            <stop stop-color="#94DDC1" offset="100%"></stop>
        </linearGradient>
        <linearGradient x1="16.8534195%" y1="96.0970041%" x2="68.3131064%" y2="24.4616128%" id="linearGradient-13">
            <stop stop-color="#49BA96" offset="0%"></stop>
            <stop stop-color="#94DDC1" offset="100%"></stop>
        </linearGradient>
    </defs>
    <g id="Illustrations-/-Cover-Pic-/-Light---3" stroke="none" stroke-width="1" fill="none" fill-rule="evenodd">
        <g id="Group-2" transform="translate(-0.212353, 0.063845)">
            <mask id="mask-2" fill="white">
                <use xlink:href="#path-1"></use>
            </mask>
            <use id="Rectangle" fill="#D2F8E2" xlink:href="#path-1"></use>
            <g id="Group" opacity="0.5" mask="url(#mask-2)" fill-rule="nonzero">
                <g transform="translate(-242.000000, -56.000000)">
                    <ellipse id="Oval" fill="url(#linearGradient-3)" cx="542.212353" cy="774.936155" rx="542" ry="541"></ellipse>
                    <path d="M787.213602,193.936155 C708.22534,193.936155 644.212353,257.959142 644.212353,336.934906 C644.212353,415.91067 708.245337,479.936155 787.213602,479.936155 C866.181868,479.936155 930.212353,415.903171 930.212353,336.934906 C930.212353,257.96664 866.189366,193.936155 787.213602,193.936155 Z M787.213602,408.23681 C747.834454,408.23681 715.911698,376.314054 715.911698,336.934906 C715.911698,297.555757 747.834454,265.635501 787.213602,265.635501 C826.592751,265.635501 858.513007,297.558257 858.513007,336.934906 C858.513007,376.311554 826.590251,408.23681 787.213602,408.23681 Z" id="Shape" fill="url(#linearGradient-4)"></path>
                    <path d="M329.00125,0 C250.012988,0 186,64.0229861 186,142.99875 C186,221.974514 250.032985,286 329.00125,286 C407.969515,286 472,221.967015 472,142.99875 C472,64.030485 407.977014,0 329.00125,0 Z M329.00125,214.300655 C289.622102,214.300655 257.699345,182.377898 257.699345,142.99875 C257.699345,103.619602 289.622102,71.6993454 329.00125,71.6993454 C368.380398,71.6993454 400.300655,103.622102 400.300655,142.99875 C400.300655,182.375399 368.377898,214.300655 329.00125,214.300655 Z" id="Shape" fill="url(#linearGradient-5)"></path>
                    <circle id="Oval" fill="url(#linearGradient-6)" cx="630.212353" cy="163.936155" r="20"></circle>
                    <circle id="Oval" fill="url(#linearGradient-7)" cx="843.212353" cy="92.9361554" r="7"></circle>
                    <path d="M750.504553,109.135026 L797.283166,64.0609913 C799.228078,62.197784 802.038932,61.49357 804.656908,62.2136198 C807.274884,62.9336696 809.302249,64.9685906 809.975314,67.5518476 C810.648379,70.1351045 809.864889,72.8742394 807.919978,74.7374465 L761.141364,119.811481 C758.134792,122.69175 753.316352,122.636663 750.379078,119.688441 C747.441804,116.74022 747.497981,112.015295 750.504553,109.135026 L750.504553,109.135026 Z" id="Path" fill="url(#linearGradient-8)"></path>
                    <path d="M670.368419,157.865566 L670.34566,157.745306 C669.4584,152.478221 673.092186,147.495368 678.505295,146.556358 C683.918403,145.617348 689.105608,149.070025 690.153116,154.309313 C691.353237,161.241209 696.298592,167.012543 703.102334,169.421327 C709.906077,171.83011 717.518647,170.504759 723.035553,165.950947 C728.552458,161.397134 731.12265,154.317341 729.765499,147.412784 C729.705456,147.08787 729.662412,146.760213 729.636534,146.431071 L729.636534,146.431071 C729.240809,141.29568 733.021828,136.744587 738.276607,136.031287 C743.531387,135.317988 748.453803,138.687649 749.524908,143.731362 C749.54261,143.812354 749.557782,143.898254 749.572954,143.976791 C749.588126,144.055328 749.605827,144.143682 749.618471,144.222219 C749.631115,144.300756 749.661459,144.455375 749.67916,144.570726 C752.916235,163.7472 741.130362,182.315195 722.027619,188.134211 C720.400811,188.6307 718.742757,189.025019 717.063743,189.314721 C695.324997,193.103733 674.50257,179.178364 670.408878,158.113448 C670.408878,158.032457 670.383591,157.949011 670.368419,157.865566 Z" id="Path" fill="url(#linearGradient-9)"></path>
                    <path d="M573.824883,90.448264 L573.888784,90.504336 C576.67137,92.967678 577.001477,97.3038756 574.626099,100.189505 C572.25072,103.075134 568.069363,103.417465 565.286776,100.954123 C561.696333,97.6904445 556.689733,96.6838313 552.18332,98.3195787 C547.676907,99.9553261 544.36852,103.980131 543.524488,108.853445 C542.680457,113.726759 544.431483,118.693927 548.107338,121.853698 C548.27996,122.005261 548.444076,122.166945 548.598881,122.337957 L548.598881,122.337957 C550.998784,124.959428 551.028856,129.061212 548.667666,131.720222 C546.306475,134.379231 542.362087,134.685482 539.64542,132.420727 L539.515161,132.306034 L539.38736,132.191342 C539.323459,132.137818 539.264474,132.081746 539.205489,132.028223 C528.32059,122.098689 527.155545,104.939442 536.59135,93.5261373 C546.027155,82.112833 562.557517,80.6865924 573.682336,90.325925 L573.824883,90.448264 Z" id="Path" fill="url(#linearGradient-10)"></path>
                    <path d="M813.88596,153.788407 C812.405283,154.0382 810.884103,153.970599 809.4348,153.590597 L779.591337,145.79737 C775.861126,144.822214 773.053649,141.912871 772.370613,138.314653 C771.687577,134.716435 773.250047,131.067108 776.389227,128.928726 L801.521627,111.819375 C804.434712,109.769213 808.291616,109.361176 811.612764,110.751795 C814.933912,112.142414 817.203638,115.115771 817.551236,118.531234 C817.898833,121.946698 816.270332,125.273957 813.290454,127.236619 L805.193077,132.749076 L814.812024,135.261022 C819.353308,136.437954 822.423112,140.432052 822.201047,144.87482 C821.978981,149.317589 818.52444,153.02078 813.88596,153.788407 Z" id="Path" fill="url(#linearGradient-11)"></path>
                    <path d="M639.294587,81.019285 C638.829764,76.3404569 641.401702,71.886154 645.688352,69.9460137 C649.975003,68.0058734 655.022522,69.0116062 658.236341,72.4462371 C661.450161,75.880868 662.115159,80.9801397 659.889506,85.1228827 C657.663854,89.2656256 653.042793,91.5300169 648.401679,90.7520954 C646.11766,90.3536703 643.829748,91.433941 642.687775,93.4499979 L642.613899,93.5823478 C640.795029,96.8300116 642.69287,100.940495 646.358634,101.592064 C653.194036,102.81493 660.205845,100.738911 665.270815,95.9926437 C674.153732,87.6851403 674.566417,73.5949629 666.19044,64.788602 C659.690107,57.9467392 649.546576,56.0087514 640.978275,59.9716528 C632.409974,63.9345542 627.325499,72.9156045 628.340603,82.2944257 C628.538769,84.0390668 629.568463,85.5805253 631.104985,86.4327216 C632.641506,87.284918 634.495476,87.3428178 636.082268,86.5881629 L636.250399,86.5067168 C638.324069,85.5043733 639.542826,83.3074512 639.294587,81.019285 Z" id="Path" fill="url(#linearGradient-12)"></path>
                    <path d="M597.901045,243.448029 C599.056267,254.841575 594.537374,266.080385 585.776865,273.601735 C571.770094,285.668645 550.403198,285.09873 537.092385,272.286735 C525.845689,261.479399 523.029956,244.723297 530.140997,230.919844 C537.252039,217.11639 552.639926,209.468314 568.130086,212.038535 C575.625398,213.272118 583.118207,209.864961 586.830815,203.329438 L587.081159,202.902618 C593.03435,192.422096 586.830815,179.151208 574.814282,177.049183 C552.450596,173.098285 529.507542,179.793007 512.931645,195.106373 C483.859147,221.919536 482.504783,267.364739 509.927512,295.825969 C537.12493,324.065154 582.394712,325.456636 611.32952,298.833444 C627.917243,283.595304 636.241491,261.540078 633.790422,239.322927 C632.488631,227.364572 619.485741,220.325746 608.455566,225.464854 L607.904808,225.71157 C601.052881,228.901616 597.160026,236.021858 597.901045,243.448029 Z" id="Path" fill="url(#linearGradient-13)"></path>
                </g>
            </g>
        </g>
    </g>
</svg>