<?xml version="1.0" encoding="UTF-8"?>
<svg width="64px" height="64px" viewBox="0 0 64 64" version="1.1" xmlns="http://www.w3.org/2000/svg" xmlns:xlink="http://www.w3.org/1999/xlink">
    <title>Pics / Profile_64 - Default</title>
    <g id="Pics-/-Profile_64---Default" stroke="none" stroke-width="1" fill="none" fill-rule="evenodd">
        <g id="Photo">
            <rect id="Rectangle" fill="#F5F7FA" x="0" y="0" width="64" height="64" rx="12"></rect>
            <rect id="Rectangle" stroke="#E4E7EB" x="0.5" y="0.5" width="63" height="63" rx="12"></rect>
            <g id="Icons-/-Ic_48_User---Glyph" transform="translate(8.000000, 8.000000)">
                <rect id="Bounding-Box" fill-rule="nonzero" x="0" y="0" width="48" height="48"></rect>
                <g id="single-02" transform="translate(4.000000, 0.000000)">
                    <path d="M26.922,28.046 C24.848,29.264 22.516,30 20,30 C17.484,30 15.152,29.264 13.078,28.046 C5.788,28.524 0,34.592 0,42 L0,45.46 L1.39,45.906 C1.658,45.99 8.076,48 20,48 C31.924,48 38.342,45.99 38.61,45.906 L40,45.46 L40,42 C40,34.592 34.212,28.524 26.922,28.046 Z" id="Path" fill="#9AA5B1"></path>
                    <path d="M20,26 C26.758,26 32,18.474 32,12 C32,5.382 26.618,0 20,0 C13.382,0 8,5.382 8,12 C8,18.474 13.242,26 20,26 Z" id="Path" fill="#CBD2D9"></path>
                </g>
            </g>
        </g>
    </g>
</svg>