<?xml version="1.0" encoding="UTF-8"?>
<svg width="50px" height="53px" viewBox="0 0 50 53" version="1.1" xmlns="http://www.w3.org/2000/svg" xmlns:xlink="http://www.w3.org/1999/xlink">
    <title>5286B1D8-A11C-4ABF-A661-1802E5B5525F</title>
    <defs>
        <path d="M21,0 C32.5979797,0 42,9.40202025 42,21 C42,31.4920156 34.3056074,40.1869095 24.251739,41.7497647 L21,45 L17.7492633,41.7499205 C7.69490405,40.1874874 0,31.4923643 0,21 C0,9.40202025 9.40202025,0 21,0 Z" id="path-1"></path>
        <filter x="-16.7%" y="-11.1%" width="133.3%" height="131.1%" filterUnits="objectBoundingBox" id="filter-2">
            <feOffset dx="0" dy="2" in="SourceAlpha" result="shadowOffsetOuter1"></feOffset>
            <feGaussianBlur stdDeviation="2" in="shadowOffsetOuter1" result="shadowBlurOuter1"></feGaussianBlur>
            <feColorMatrix values="0 0 0 0 0   0 0 0 0 0   0 0 0 0 0  0 0 0 0.16 0" type="matrix" in="shadowBlurOuter1"></feColorMatrix>
        </filter>
        <linearGradient x1="50%" y1="0%" x2="50%" y2="100%" id="linearGradient-3">
            <stop stop-color="#2EBCD7" offset="0%"></stop>
            <stop stop-color="#2CB6D3" offset="100%"></stop>
        </linearGradient>
    </defs>
    <g id="03---Consumer-Mode" stroke="none" stroke-width="1" fill="none" fill-rule="evenodd">
        <g id="08-01B_Consumer-Mode---Business-Directory---Map-View---Search-Bar---Swiped-Down" transform="translate(-105.000000, -401.000000)">
            <g id="Pins" transform="translate(43.000000, 60.000000)">
                <g id="Icons-/-Ic_48_Pin---Beauty" transform="translate(63.000000, 341.000000)">
                    <rect id="Bounding-Box" fill-rule="nonzero" x="0" y="0" width="48" height="48"></rect>
                    <g id="Group" transform="translate(3.000000, 2.000000)">
                        <g id="Combined-Shape">
                            <use fill="black" fill-opacity="1" filter="url(#filter-2)" xlink:href="#path-1"></use>
                            <use fill="#FFFFFF" fill-rule="evenodd" xlink:href="#path-1"></use>
                        </g>
                        <circle id="Oval" fill="url(#linearGradient-3)" fill-rule="nonzero" cx="21" cy="21" r="19"></circle>
                        <g id="Icons-/-Ic_24_Beauty---Glyph" transform="translate(9.000000, 9.000000)">
                            <rect id="Bounding-Box" fill-rule="nonzero" x="0" y="0" width="24" height="24"></rect>
                            <path d="M5.18840359,2.7021619 L5.21836971,2.78448909 L7.49953684,10.389 L9.78163029,2.78448909 C9.90065368,2.38774445 10.3187663,2.16260689 10.7155109,2.28163029 C11.0839166,2.39215201 11.3043551,2.76056187 11.2386698,3.13028393 L11.2183697,3.21551091 L8.28253684,12.99975 L9.71836971,17.7844891 C9.83739311,18.1812337 9.61225555,18.5993463 9.21551091,18.7183697 C8.84710518,18.8288914 8.46027503,18.6426621 8.31159641,18.2978381 L8.28163029,18.2155109 L7.49953684,15.6105 L6.71836971,18.2155109 C6.59934632,18.6122556 6.18123372,18.8373931 5.78448909,18.7183697 C5.41608335,18.607848 5.19564495,18.2394381 5.26133016,17.8697161 L5.28163029,17.7844891 L6.71653684,12.99975 L3.78163029,3.21551091 C3.66260689,2.81876628 3.88774445,2.40065368 4.28448909,2.28163029 C4.62455592,2.17961024 4.98032166,2.33044313 5.14998238,2.6254653 L5.18840359,2.7021619 Z M18,11.25 C18.4142136,11.25 18.75,11.5857864 18.75,12 C18.75,12.3846269 18.4604699,12.7016304 18.0874658,12.7449542 L18,12.75 L14.25,12.75 C13.8357864,12.75 13.5,12.4142136 13.5,12 C13.5,11.6153731 13.7895301,11.2983696 14.1625342,11.2550458 L14.25,11.25 L18,11.25 Z M18,8.25 C18.4142136,8.25 18.75,8.58578644 18.75,9 C18.75,9.38462688 18.4604699,9.70163037 18.0874658,9.7449542 L18,9.75 L14.25,9.75 C13.8357864,9.75 13.5,9.41421356 13.5,9 C13.5,8.61537312 13.7895301,8.29836963 14.1625342,8.2550458 L14.25,8.25 L18,8.25 Z M18,5.25 C18.4142136,5.25 18.75,5.58578644 18.75,6 C18.75,6.38462688 18.4604699,6.70163037 18.0874658,6.7449542 L18,6.75 L14.25,6.75 C13.8357864,6.75 13.5,6.41421356 13.5,6 C13.5,5.61537312 13.7895301,5.29836963 14.1625342,5.2550458 L14.25,5.25 L18,5.25 Z M18,2.25 C18.4142136,2.25 18.75,2.58578644 18.75,3 C18.75,3.38462688 18.4604699,3.70163037 18.0874658,3.7449542 L18,3.75 L14.25,3.75 C13.8357864,3.75 13.5,3.41421356 13.5,3 C13.5,2.61537312 13.7895301,2.29836963 14.1625342,2.2550458 L14.25,2.25 L18,2.25 Z" id="Combined-Shape" fill="#FFFFFF"></path>
                            <path d="M21,2.25 C21.8284271,2.25 22.5,2.92157288 22.5,3.75 L22.5,20.25 C22.5,21.0784271 21.8284271,21.75 21,21.75 C20.1715729,21.75 19.5,21.0784271 19.5,20.25 L19.5,3.25 C19.5,2.69771525 19.9477153,2.25 20.5,2.25 L21,2.25 Z M3.75,15.4379921 C5.40685425,15.4379921 6.75,16.7811379 6.75,18.4379921 C6.75,20.0948464 5.40685425,21.4379921 3.75,21.4379921 C2.09314575,21.4379921 0.75,20.0948464 0.75,18.4379921 C0.75,16.7811379 2.09314575,15.4379921 3.75,15.4379921 Z M11.25,15.4379921 C12.9068542,15.4379921 14.25,16.7811379 14.25,18.4379921 C14.25,20.0948464 12.9068542,21.4379921 11.25,21.4379921 C9.59314575,21.4379921 8.25,20.0948464 8.25,18.4379921 C8.25,16.7811379 9.59314575,15.4379921 11.25,15.4379921 Z M3.75,16.9379921 C2.92157288,16.9379921 2.25,17.609565 2.25,18.4379921 C2.25,19.2664193 2.92157288,19.9379921 3.75,19.9379921 C4.57842712,19.9379921 5.25,19.2664193 5.25,18.4379921 C5.25,17.609565 4.57842712,16.9379921 3.75,16.9379921 Z M11.25,16.9379921 C10.4215729,16.9379921 9.75,17.609565 9.75,18.4379921 C9.75,19.2664193 10.4215729,19.9379921 11.25,19.9379921 C12.0784271,19.9379921 12.75,19.2664193 12.75,18.4379921 C12.75,17.609565 12.0784271,16.9379921 11.25,16.9379921 Z" id="Combined-Shape" fill="#FFFFFF"></path>
                        </g>
                    </g>
                </g>
            </g>
        </g>
    </g>
</svg>
