<?xml version="1.0" encoding="UTF-8"?>
<svg width="50px" height="53px" viewBox="0 0 50 53" version="1.1" xmlns="http://www.w3.org/2000/svg" xmlns:xlink="http://www.w3.org/1999/xlink">
    <title>84AE8404-53C9-4FF9-8182-E1437A8FCB57</title>
    <defs>
        <path d="M21,0 C32.5979797,0 42,9.40202025 42,21 C42,31.4920156 34.3056074,40.1869095 24.251739,41.7497647 L21,45 L17.7492633,41.7499205 C7.69490405,40.1874874 0,31.4923643 0,21 C0,9.40202025 9.40202025,0 21,0 Z" id="path-1"></path>
        <filter x="-16.7%" y="-11.1%" width="133.3%" height="131.1%" filterUnits="objectBoundingBox" id="filter-2">
            <feOffset dx="0" dy="2" in="SourceAlpha" result="shadowOffsetOuter1"></feOffset>
            <feGaussianBlur stdDeviation="2" in="shadowOffsetOuter1" result="shadowBlurOuter1"></feGaussianBlur>
            <feColorMatrix values="0 0 0 0 0   0 0 0 0 0   0 0 0 0 0  0 0 0 0.16 0" type="matrix" in="shadowBlurOuter1"></feColorMatrix>
        </filter>
        <linearGradient x1="50%" y1="0%" x2="50%" y2="100%" id="linearGradient-3">
            <stop stop-color="#6BE89F" offset="0%"></stop>
            <stop stop-color="#4CBD97" offset="100%"></stop>
        </linearGradient>
    </defs>
    <g id="03---Consumer-Mode" stroke="none" stroke-width="1" fill="none" fill-rule="evenodd">
        <g id="08-01B_Consumer-Mode---Business-Directory---Map-View---Search-Bar---Swiped-Down" transform="translate(-210.000000, -364.000000)">
            <g id="Pins" transform="translate(43.000000, 60.000000)">
                <g id="Icons-/-Ic_48_Pin---Catering" transform="translate(168.000000, 304.000000)">
                    <rect id="Bounding-Box" fill-rule="nonzero" x="0" y="0" width="48" height="48"></rect>
                    <g id="Group" transform="translate(3.000000, 2.000000)">
                        <g id="Combined-Shape">
                            <use fill="black" fill-opacity="1" filter="url(#filter-2)" xlink:href="#path-1"></use>
                            <use fill="#FFFFFF" fill-rule="evenodd" xlink:href="#path-1"></use>
                        </g>
                        <circle id="Oval" fill="url(#linearGradient-3)" fill-rule="nonzero" cx="21" cy="21" r="19"></circle>
                        <g id="Icons-/-Ic_24_Cook---Glyph" transform="translate(9.000000, 9.000000)">
                            <rect id="Bounding-Box" fill-rule="nonzero" x="0" y="0" width="24" height="24"></rect>
                            <g id="Ic_24_Cooking" transform="translate(1.000000, 1.000000)" fill="#FFFFFF">
                                <path d="M21,7.6 C21.5522847,7.6 22,8.04771525 22,8.6 C22,9.11283584 21.6139598,9.53550716 21.1166211,9.59327227 L21,9.6 L20.0868875,9.6000217 C19.9653157,11.8108693 19.040514,13.9098728 17.4746437,15.4950749 C17.0663434,15.9084159 16.6225773,16.2786023 16.1504379,16.602672 L19.2695617,20.3614275 C19.6222355,20.7864447 19.5635897,21.4168879 19.1385725,21.7695617 C18.7462489,22.0951068 18.1788879,22.0701783 17.8165355,21.7301293 L17.7304383,21.6385725 L14.3475181,17.5621755 C13.2919682,17.9796734 12.1574621,18.2000882 11.0000762,18.2 C9.84261781,18.2000882 8.70807366,17.9796734 7.65250387,17.5621755 L4.26956169,21.6385725 C3.91688786,22.0635897 3.28644472,22.1222355 2.86142753,21.7695617 C2.46910397,21.4440166 2.38895479,20.8817924 2.65633311,20.4629351 L2.73043831,20.3614275 L5.84956416,16.602672 C5.37742266,16.2786023 4.93365661,15.9084159 4.5253563,15.4950749 C2.95732521,13.9076854 2.03213325,11.8050754 1.91255505,9.60039026 L1,9.6 C0.44771525,9.6 0,9.15228475 0,8.6 C0,8.08716416 0.38604019,7.66449284 0.883378875,7.60672773 L1,7.6 L21,7.6 Z M7.87618706,0.783069542 C7.90952848,0.933105926 7.95684736,1.07092778 8.0445475,1.27053856 L8.28118314,1.77711453 C8.56482039,2.38490864 8.7,2.83313577 8.7,3.4 C8.7,3.82798685 8.61752961,4.20287388 8.45511035,4.62524805 L8.33806793,4.90815597 L8.17836648,5.26100294 C8.01021809,5.63092939 7.93021794,5.84792979 7.88058068,6.09611614 C7.77226873,6.63767589 7.24544362,6.98889263 6.70388386,6.88058068 C6.16232411,6.77226873 5.81110737,6.24544362 5.91941932,5.70388386 C5.99149756,5.3434927 6.09054679,5.04734183 6.25257272,4.67041002 L6.52895993,4.05301948 C6.65210258,3.76568663 6.7,3.58346817 6.7,3.4 C6.7,3.21934227 6.65555582,3.04616648 6.53536778,2.77003949 L6.36513948,2.40433358 C6.13033387,1.91124179 6.01207835,1.6141248 5.92381294,1.21693046 C5.80400556,0.677797231 6.14393632,0.143620323 6.68306954,0.0238129398 C7.22220277,-0.0959944438 7.75637968,0.243936316 7.87618706,0.783069542 Z M11.5761871,0.783069542 C11.6095285,0.933105926 11.6568474,1.07092778 11.7445475,1.27053856 L11.9811831,1.77711453 C12.2648204,2.38490864 12.4,2.83313577 12.4,3.4 C12.4,3.88724672 12.3019041,4.32002253 12.1115965,4.80938504 L12.0660951,4.92345662 L11.80812,5.52031914 C11.6957868,5.78093222 11.6203242,5.97902148 11.5578263,6.18734789 C11.3991284,6.71634074 10.841645,7.01652414 10.3126521,6.85782629 C9.78365926,6.69912843 9.48347586,6.14164496 9.64217371,5.61265211 C9.70820544,5.39254638 9.78152373,5.18839273 9.87322792,4.96279342 L10.2130413,4.17095478 L10.2475872,4.08449251 C10.3549312,3.80846503 10.4,3.60963203 10.4,3.4 C10.4,3.21934227 10.3555558,3.04616648 10.2353678,2.77003949 L10.0651395,2.40433358 C9.83033387,1.91124179 9.71207835,1.6141248 9.62381294,1.21693046 C9.50400556,0.677797231 9.84393632,0.143620323 10.3830695,0.0238129398 C10.9222028,-0.0959944438 11.4563797,0.243936316 11.5761871,0.783069542 Z M15.182092,0.52892283 C15.5791737,1.27245825 15.8635118,2.06907077 16.0261751,2.89333376 L16.0884125,3.24820808 L16.1,3.4 C16.1,3.99573912 15.978562,4.47413111 15.7300556,5.04760744 L15.5021546,5.55137424 C15.391841,5.79721607 15.3187172,5.98437801 15.2578263,6.18734789 C15.0991284,6.71634074 14.541645,7.01652414 14.0126521,6.85782629 C13.4836593,6.69912843 13.1834759,6.14164496 13.3421737,5.61265211 C13.4092998,5.38889836 13.4839114,5.18494269 13.5773301,4.962548 L13.8949444,4.25239256 C14.0186593,3.96689664 14.0785824,3.76448009 14.0951203,3.53894492 L14.097,3.474 L14.0562559,3.2418422 C13.9515891,2.72794599 13.7849267,2.22818505 13.5598992,1.75309003 L13.417908,1.47107717 C13.1577393,0.98391121 13.3417569,0.378076736 13.8289228,0.117907998 C14.3160888,-0.142260739 14.9219233,0.041756869 15.182092,0.52892283 Z" id="Shape"></path>
                            </g>
                        </g>
                    </g>
                </g>
            </g>
        </g>
    </g>
</svg>