<?xml version="1.0" encoding="UTF-8"?>
<svg width="50px" height="53px" viewBox="0 0 50 53" version="1.1" xmlns="http://www.w3.org/2000/svg" xmlns:xlink="http://www.w3.org/1999/xlink">
    <title>1DC9204C-F805-4715-B26D-E952F8B17374</title>
    <defs>
        <path d="M21,0 C32.5979797,0 42,9.40202025 42,21 C42,31.4920156 34.3056074,40.1869095 24.251739,41.7497647 L21,45 L17.7492633,41.7499205 C7.69490405,40.1874874 0,31.4923643 0,21 C0,9.40202025 9.40202025,0 21,0 Z" id="path-1"></path>
        <filter x="-16.7%" y="-11.1%" width="133.3%" height="131.1%" filterUnits="objectBoundingBox" id="filter-2">
            <feOffset dx="0" dy="2" in="SourceAlpha" result="shadowOffsetOuter1"></feOffset>
            <feGaussianBlur stdDeviation="2" in="shadowOffsetOuter1" result="shadowBlurOuter1"></feGaussianBlur>
            <feColorMatrix values="0 0 0 0 0   0 0 0 0 0   0 0 0 0 0  0 0 0 0.16 0" type="matrix" in="shadowBlurOuter1"></feColorMatrix>
        </filter>
        <linearGradient x1="50%" y1="0%" x2="50%" y2="100%" id="linearGradient-3">
            <stop stop-color="#2EBCD7" offset="0%"></stop>
            <stop stop-color="#2CB6D3" offset="100%"></stop>
        </linearGradient>
    </defs>
    <g id="03---Consumer-Mode" stroke="none" stroke-width="1" fill="none" fill-rule="evenodd">
        <g id="08-01B_Consumer-Mode---Business-Directory---Map-View---Search-Bar---Swiped-Down" transform="translate(-52.000000, -225.000000)">
            <g id="Pins" transform="translate(43.000000, 60.000000)">
                <g id="Icons-/-Ic_48_Pin---Clean" transform="translate(10.000000, 165.000000)">
                    <rect id="Bounding-Box" fill-rule="nonzero" x="0" y="0" width="48" height="48"></rect>
                    <g id="Group" transform="translate(3.000000, 2.000000)">
                        <g id="Combined-Shape">
                            <use fill="black" fill-opacity="1" filter="url(#filter-2)" xlink:href="#path-1"></use>
                            <use fill="#FFFFFF" fill-rule="evenodd" xlink:href="#path-1"></use>
                        </g>
                        <circle id="Oval" fill="url(#linearGradient-3)" fill-rule="nonzero" cx="21" cy="21" r="19"></circle>
                        <g id="Icons-/-Ic_24_Clean---Glyph" transform="translate(9.000000, 9.000000)">
                            <rect id="Bounding-Box" fill-rule="nonzero" x="0" y="0" width="24" height="24"></rect>
                            <g id="broom" transform="translate(3.000000, 0.000000)" fill="#FFFFFF">
                                <rect id="Rectangle" x="7" y="8" width="4" height="3"></rect>
                                <path d="M11,13 L17.874,22.83375 C18.027,23.064 18.042,23.36025 17.9115,23.604 C17.781,23.84775 17.52675,24 17.25,24 L17.25,24 L0.75,24 C0.47325,24 0.219,23.847 0.0885,23.60325 C-0.042,23.3595 -0.027,23.064 0.126,22.83375 L0.126,22.83375 L7,13 L11,13 Z M9.00002678,0 C10.1028268,0 11.0000268,0.8972 11.0000268,2 L11.0000268,2 L11.0000268,6 L7.00002678,6 L7.00002678,2 C7.00002678,0.8972 7.89722678,0 9.00002678,0 Z M5,21 C5.55228475,21 6,21.4477153 6,22 L6,24 L6,24 L4,24 L4,22 C4,21.4477153 4.44771525,21 5,21 Z M9,21 C9.55228475,21 10,21.4477153 10,22 L10,24 L10,24 L8,24 L8,22 C8,21.4477153 8.44771525,21 9,21 Z M13,21 C13.5522847,21 14,21.4477153 14,22 L14,24 L14,24 L12,24 L12,22 C12,21.4477153 12.4477153,21 13,21 Z" id="Combined-Shape"></path>
                            </g>
                        </g>
                    </g>
                </g>
            </g>
        </g>
    </g>
</svg>
