<?xml version="1.0" encoding="UTF-8"?>
<svg width="50px" height="53px" viewBox="0 0 50 53" version="1.1" xmlns="http://www.w3.org/2000/svg" xmlns:xlink="http://www.w3.org/1999/xlink">
    <title>55E585A7-85CF-4F57-BA00-73233B466F4A</title>
    <defs>
        <path d="M21,0 C32.5979797,0 42,9.40202025 42,21 C42,31.4920156 34.3056074,40.1869095 24.251739,41.7497647 L21,45 L17.7492633,41.7499205 C7.69490405,40.1874874 0,31.4923643 0,21 C0,9.40202025 9.40202025,0 21,0 Z" id="path-1"></path>
        <filter x="-16.7%" y="-11.1%" width="133.3%" height="131.1%" filterUnits="objectBoundingBox" id="filter-2">
            <feOffset dx="0" dy="2" in="SourceAlpha" result="shadowOffsetOuter1"></feOffset>
            <feGaussianBlur stdDeviation="2" in="shadowOffsetOuter1" result="shadowBlurOuter1"></feGaussianBlur>
            <feColorMatrix values="0 0 0 0 0   0 0 0 0 0   0 0 0 0 0  0 0 0 0.16 0" type="matrix" in="shadowBlurOuter1"></feColorMatrix>
        </filter>
    </defs>
    <g id="03---Consumer-Mode" stroke="none" stroke-width="1" fill="none" fill-rule="evenodd">
        <g id="08-01B_Consumer-Mode---Business-Directory---Map-View---Search-Bar---Swiped-Down" transform="translate(-228.000000, -187.000000)">
            <g id="Pins" transform="translate(43.000000, 60.000000)">
                <g id="Icons-/-Ic_48_Pin---Delivery" transform="translate(186.000000, 127.000000)">
                    <rect id="Bounding-Box" fill-rule="nonzero" x="0" y="0" width="48" height="48"></rect>
                    <g id="Group" transform="translate(3.000000, 2.000000)">
                        <g id="Combined-Shape">
                            <use fill="black" fill-opacity="1" filter="url(#filter-2)" xlink:href="#path-1"></use>
                            <use fill="#FFFFFF" fill-rule="evenodd" xlink:href="#path-1"></use>
                        </g>
                        <circle id="Oval" fill="#323F4B" fill-rule="nonzero" cx="21" cy="21" r="19"></circle>
                        <g id="Icons-/-Ic_24_Delivery---Glyph" transform="translate(8.000000, 9.000000)">
                            <rect id="Bounding-Box" fill-rule="nonzero" x="1" y="0" width="24" height="24"></rect>
                            <g id="delivery-fast" transform="translate(0.500000, 3.250000)" fill="#FFFFFF">
                                <path d="M1.25,14.75 C0.835786438,14.75 0.5,14.4142136 0.5,14 C0.5,13.6153731 0.789530143,13.2983696 1.16253416,13.2550458 L1.25,13.25 L8.75,13.25 L8.75,1.25 C8.75,0.870304234 9.03215388,0.556509039 9.39822944,0.506846616 L9.5,0.5 L14.7435713,0.5 C17.3245302,0.5 19.6306247,2.08497547 20.5641119,4.47310519 L20.6501276,4.70669552 L21.28275,6.53475 L22.5909533,6.95537702 C23.620552,7.28607132 24.3502633,8.18423911 24.4794993,9.23762316 L24.4960112,9.42504179 L24.5,9.57363932 L24.5,14 C24.5,14.3796958 24.2178461,14.693491 23.8517706,14.7431534 L23.75,14.75 L19.9248783,14.7505323 C19.9741395,14.5080348 20,14.2570374 20,14 C20,11.9289322 18.3210678,10.25 16.25,10.25 C14.1789322,10.25 12.5,11.9289322 12.5,14 C12.5,14.2570374 12.5258605,14.5080348 12.5751217,14.7505323 L1.25,14.75 Z M14,3.5 C13.6203042,3.5 13.306509,3.78215388 13.2568466,4.14822944 L13.25,4.25 L13.25,7.25 L13.2550458,7.33746584 C13.2944311,7.6765604 13.5599979,7.94666829 13.8969332,7.99297638 L14,8 L17,8 L17.0874658,7.9949542 C17.4265604,7.9555689 17.6966683,7.69000206 17.7429764,7.35306681 L17.75,7.25 L17.7449542,7.16253416 C17.7055689,6.8234396 17.4400021,6.55333171 17.1030668,6.50702362 L17,6.5 L14.7495,6.4995 L14.75,4.25 L14.7449542,4.16253416 C14.7016304,3.78953014 14.3846269,3.5 14,3.5 Z" id="Combined-Shape"></path>
                                <path d="M16.25,10.25 C18.3210678,10.25 20,11.9289322 20,14 C20,16.0710678 18.3210678,17.75 16.25,17.75 C14.1789322,17.75 12.5,16.0710678 12.5,14 C12.5,11.9289322 14.1789322,10.25 16.25,10.25 Z M16.25,11.75 C15.0073593,11.75 14,12.7573593 14,14 C14,15.2426407 15.0073593,16.25 16.25,16.25 C17.4926407,16.25 18.5,15.2426407 18.5,14 C18.5,12.7573593 17.4926407,11.75 16.25,11.75 Z M6.5,8 C6.91421356,8 7.25,8.33578644 7.25,8.75 C7.25,9.13462688 6.96046986,9.45163037 6.58746584,9.4949542 L6.5,9.5 L5,9.5 C4.58578644,9.5 4.25,9.16421356 4.25,8.75 C4.25,8.36537312 4.53953014,8.04836963 4.91253416,8.0050458 L5,8 L6.5,8 Z M6.5,4.25 C6.91421356,4.25 7.25,4.58578644 7.25,5 C7.25,5.38462688 6.96046986,5.70163037 6.58746584,5.7449542 L6.5,5.75 L3.5,5.75 C3.08578644,5.75 2.75,5.41421356 2.75,5 C2.75,4.61537312 3.03953014,4.29836963 3.41253416,4.2550458 L3.5,4.25 L6.5,4.25 Z M6.5,0.5 C6.91421356,0.5 7.25,0.835786438 7.25,1.25 C7.25,1.63462688 6.96046986,1.95163037 6.58746584,1.9949542 L6.5,2 L1.25,2 C0.835786438,2 0.5,1.66421356 0.5,1.25 C0.5,0.865373121 0.789530143,0.548369629 1.16253416,0.505045798 L1.25,0.5 L6.5,0.5 Z" id="Combined-Shape"></path>
                            </g>
                        </g>
                    </g>
                </g>
            </g>
        </g>
    </g>
</svg>
