<?xml version="1.0" encoding="UTF-8"?>
<svg width="50px" height="53px" viewBox="0 0 50 53" version="1.1" xmlns="http://www.w3.org/2000/svg" xmlns:xlink="http://www.w3.org/1999/xlink">
    <title>AE02B8CD-2697-42A0-B2C0-01C85F82D24B</title>
    <defs>
        <path d="M21,0 C32.5979797,0 42,9.40202025 42,21 C42,31.4920156 34.3056074,40.1869095 24.251739,41.7497647 L21,45 L17.7492633,41.7499205 C7.69490405,40.1874874 0,31.4923643 0,21 C0,9.40202025 9.40202025,0 21,0 Z" id="path-1"></path>
        <filter x="-16.7%" y="-11.1%" width="133.3%" height="131.1%" filterUnits="objectBoundingBox" id="filter-2">
            <feOffset dx="0" dy="2" in="SourceAlpha" result="shadowOffsetOuter1"></feOffset>
            <feGaussianBlur stdDeviation="2" in="shadowOffsetOuter1" result="shadowBlurOuter1"></feGaussianBlur>
            <feColorMatrix values="0 0 0 0 0   0 0 0 0 0   0 0 0 0 0  0 0 0 0.16 0" type="matrix" in="shadowBlurOuter1"></feColorMatrix>
        </filter>
    </defs>
    <g id="03---Consumer-Mode" stroke="none" stroke-width="1" fill="none" fill-rule="evenodd">
        <g id="08-01C_Consumer-Mode---Business-Directory---Map-View---Search-Bar---Pin-Preview" transform="translate(-110.000000, -273.000000)">
            <g id="Pins" transform="translate(43.000000, 60.000000)">
                <g id="Icons-/-Ic_48_Pin---Laundry---Active" transform="translate(68.000000, 213.000000)">
                    <rect id="Bounding-Box" fill-rule="nonzero" x="0" y="0" width="48" height="48"></rect>
                    <g id="Group" transform="translate(3.000000, 2.000000)">
                        <g id="Combined-Shape">
                            <use fill="black" fill-opacity="1" filter="url(#filter-2)" xlink:href="#path-1"></use>
                            <use fill="#FFFFFF" fill-rule="evenodd" xlink:href="#path-1"></use>
                        </g>
                        <circle id="Oval" fill="#323F4B" cx="21" cy="21" r="19"></circle>
                        <g id="Icons-/-Ic_24_Laundry---Glyph" transform="translate(9.000000, 9.000000)">
                            <rect id="Bounding-Box" fill-rule="nonzero" x="0" y="0" width="24" height="24"></rect>
                            <g id="wash-2" transform="translate(1.500000, 1.500000)" fill="#FFFFFF">
                                <path d="M21,3 L21,20 C21,20.5522847 20.5522847,21 20,21 L1,21 C0.44771525,21 2.8967998e-16,20.5522847 0,20 L0,3 L21,3 Z M10.5,6 C6.77207794,6 3.75,9.02207794 3.75,12.75 C3.75,16.4779221 6.77207794,19.5 10.5,19.5 C14.2279221,19.5 17.25,16.4779221 17.25,12.75 C17.25,9.02207794 14.2279221,6 10.5,6 Z M2.25,4.5 C1.83578644,4.5 1.5,4.83578644 1.5,5.25 C1.5,5.66421356 1.83578644,6 2.25,6 C2.66421356,6 3,5.66421356 3,5.25 C3,4.83578644 2.66421356,4.5 2.25,4.5 Z M5.25,4.5 C4.83578644,4.5 4.5,4.83578644 4.5,5.25 C4.5,5.66421356 4.83578644,6 5.25,6 C5.66421356,6 6,5.66421356 6,5.25 C6,4.83578644 5.66421356,4.5 5.25,4.5 Z M18.75,4.5 L16.5,4.5 C16.0857864,4.5 15.75,4.83578644 15.75,5.25 C15.75,5.66421356 16.0857864,6 16.5,6 L16.5,6 L18.75,6 C19.1642136,6 19.5,5.66421356 19.5,5.25 C19.5,4.83578644 19.1642136,4.5 18.75,4.5 L18.75,4.5 Z M20,0 C20.5522847,9.5692398e-18 21,0.44771525 21,1 L21,1.5 L0,1.5 L0,1 C4.33869274e-17,0.44771525 0.44771525,3.23497668e-16 1,0 L20,0 Z" id="Combined-Shape"></path>
                                <circle id="Oval" cx="10.5" cy="12.75" r="5.25"></circle>
                            </g>
                        </g>
                    </g>
                </g>
            </g>
        </g>
    </g>
</svg>