<?xml version="1.0" encoding="UTF-8"?>
<svg width="50px" height="53px" viewBox="0 0 50 53" version="1.1" xmlns="http://www.w3.org/2000/svg" xmlns:xlink="http://www.w3.org/1999/xlink">
    <title>18EE3277-F1C1-4124-BF65-1562EC332065</title>
    <defs>
        <path d="M21,0 C32.5979797,0 42,9.40202025 42,21 C42,31.4920156 34.3056074,40.1869095 24.251739,41.7497647 L21,45 L17.7492633,41.7499205 C7.69490405,40.1874874 0,31.4923643 0,21 C0,9.40202025 9.40202025,0 21,0 Z" id="path-1"></path>
        <filter x="-16.7%" y="-11.1%" width="133.3%" height="131.1%" filterUnits="objectBoundingBox" id="filter-2">
            <feOffset dx="0" dy="2" in="SourceAlpha" result="shadowOffsetOuter1"></feOffset>
            <feGaussianBlur stdDeviation="2" in="shadowOffsetOuter1" result="shadowBlurOuter1"></feGaussianBlur>
            <feColorMatrix values="0 0 0 0 0   0 0 0 0 0   0 0 0 0 0  0 0 0 0.16 0" type="matrix" in="shadowBlurOuter1"></feColorMatrix>
        </filter>
    </defs>
    <g id="03---Consumer-Mode" stroke="none" stroke-width="1" fill="none" fill-rule="evenodd">
        <g id="08-01B_Consumer-Mode---Business-Directory---Map-View---Search-Bar---Swiped-Down" transform="translate(-214.000000, -497.000000)">
            <g id="Pins" transform="translate(43.000000, 60.000000)">
                <g id="Icons-/-Ic_48_Pin---Tutor" transform="translate(172.000000, 437.000000)">
                    <rect id="Bounding-Box" fill-rule="nonzero" x="0" y="0" width="48" height="48"></rect>
                    <g id="Group" transform="translate(3.000000, 2.000000)">
                        <g id="Combined-Shape">
                            <use fill="black" fill-opacity="1" filter="url(#filter-2)" xlink:href="#path-1"></use>
                            <use fill="#FFFFFF" fill-rule="evenodd" xlink:href="#path-1"></use>
                        </g>
                        <circle id="Oval" fill="#323F4B" fill-rule="nonzero" cx="21" cy="21" r="19"></circle>
                        <g id="Icons-/-Ic_24_Tutor---Glyph" transform="translate(9.000000, 9.000000)">
                            <rect id="Bounding-Box" fill-rule="nonzero" x="0" y="0" width="24" height="24"></rect>
                            <g id="Teach" transform="translate(1.000000, 1.000000)" fill="#FFFFFF">
                                <path d="M20.0017,14.9999999 L16.1896,14.9999999 L18.9017,20.5063 C18.9812,20.7474 18.9748,21.0086 18.8837,21.2455 C18.7925,21.4825 18.6223,21.6806 18.4017,21.8063 L18.0017,21.9063 C17.8099,21.9031 17.6231,21.8449 17.4636,21.7385 C17.304,21.6321 17.1784,21.4821 17.1017,21.3063 L13.9485,14.9999999 L11.0017,14.9999999 C10.8665,15.0161 10.7294,15.0013 10.6007,14.9567 C10.4721,14.9121 10.3552,14.839 10.259,14.7427 C10.1627,14.6464 10.0895,14.5296 10.045,14.4009 C10.0004,14.2723 9.9856,14.1352 10.0017,13.9999999 C10.0017,13.7348 10.107,13.4804 10.2946,13.2929 C10.4821,13.1054 10.7364,12.9999999 11.0017,12.9999999 L20.0017,12.9999999 L20.0017,2.0063 L18.008,2.0063 L18.008,2.90631 C18.0241,3.04151 18.0093,3.17859 17.9647,3.30723 C17.9202,3.43588 17.847,3.55274 17.7507,3.64901 C17.6544,3.74528 17.5376,3.81845 17.4089,3.86302 C17.2803,3.90759 17.1432,3.92239 17.008,3.90631 C16.8728,3.92239 16.7357,3.90759 16.6071,3.86302 C16.4784,3.81845 16.3616,3.74528 16.2653,3.64901 C16.169,3.55274 16.0959,3.43588 16.0513,3.30723 C16.0067,3.17859 15.9919,3.04151 16.008,2.90631 L16.008,2.0063 L11.0017,2.0063 C10.8665,2.02238 10.7294,2.00758 10.6007,1.96301 C10.4721,1.91844 10.3552,1.84527 10.259,1.749 C10.1627,1.65272 10.0895,1.53587 10.045,1.40722 C10.0004,1.27858 9.9856,1.14149 10.0017,1.0063 C9.9856,0.87111 10.0004,0.73402 10.045,0.60538 C10.0895,0.47673 10.1627,0.35987 10.259,0.2636 C10.3552,0.16733 10.4721,0.09416 10.6007,0.04959 C10.7294,0.00502 10.8665,-0.009781 11.0017,0.0063 L20.0017,0.0063 C20.2729,0.00596 20.5414,0.06081 20.7909,0.16752 C21.0403,0.27422 21.2654,0.43055 21.4524,0.62699 C21.6395,0.82343 21.7847,1.05588 21.8791,1.31019 C21.9735,1.5645 22.0152,1.83536 22.0017,2.1063 L22.0017,12.9 C22.0152,13.1709 21.9735,13.4418 21.8791,13.6961 C21.7847,13.9504 21.6395,14.1829 21.4524,14.3793 C21.2654,14.5758 21.0403,14.7321 20.7909,14.8388 C20.5414,14.9455 20.2729,15.0003 20.0017,14.9999999 Z" id="Path"></path>
                                <path d="M12.0017,6.90631 C12.2594,6.92884 12.5008,7.04143 12.6837,7.22431 C12.8666,7.40719 12.9792,7.64866 13.0017,7.90631 C12.9792,8.16396 12.8666,8.40543 12.6837,8.58831 C12.5008,8.77119 12.2594,8.88378 12.0017,8.90631 L12.0017,8.90631 L8.00179,8.90631 L8.00179,20.9063 C7.97926,21.1639 7.86667,21.4054 7.68379,21.5883 C7.50091,21.7712 7.25944,21.8838 7.00179,21.9063 L7.00179,21.9063 L3.00179,21.9063 C2.4495,21.9063 2.00179,21.4586 2.00179,20.9063 L2.00179,20.9063 L2.00179,15.9063 L1.00179,15.9063 C0.74414,15.8838 0.50267,15.7712 0.31979,15.5883 C0.13691,15.4054 0.02432,15.1639 0.00179,14.9063 L0.00179,14.9063 L0.00179,9.9063 C-0.012181,9.5086 0.05586,9.1122 0.20168,8.74193 C0.3475,8.37163 0.56798,8.03531 0.84939,7.7539 C1.1308,7.47249 1.46712,7.25201 1.83742,7.10619 C2.20771,6.96037 2.60406,6.89233 3.00179,6.9063 L3.00179,6.9063 Z M5,0 C6.65685425,0 8,1.34314575 8,3 C8,4.65685425 6.65685425,6 5,6 C3.34314575,6 2,4.65685425 2,3 C2,1.34314575 3.34314575,0 5,0 Z" id="Combined-Shape"></path>
                            </g>
                        </g>
                    </g>
                </g>
            </g>
        </g>
    </g>
</svg>
